<?xml version="1.0" encoding="utf-8" standalone="no"?>
<!DOCTYPE svg PUBLIC "-//W3C//DTD SVG 1.1//EN"
  "http://www.w3.org/Graphics/SVG/1.1/DTD/svg11.dtd">
<svg xmlns:xlink="http://www.w3.org/1999/xlink" width="720pt" height="432pt" viewBox="0 0 720 432" xmlns="http://www.w3.org/2000/svg" version="1.1">
 <metadata>
  <rdf:RDF xmlns:dc="http://purl.org/dc/elements/1.1/" xmlns:cc="http://creativecommons.org/ns#" xmlns:rdf="http://www.w3.org/1999/02/22-rdf-syntax-ns#">
   <cc:Work>
    <dc:type rdf:resource="http://purl.org/dc/dcmitype/StillImage"/>
    <dc:date>2026-06-16T12:10:02.272393</dc:date>
    <dc:format>image/svg+xml</dc:format>
    <dc:creator>
     <cc:Agent>
      <dc:title>Matplotlib v3.11.0, https://matplotlib.org/</dc:title>
     </cc:Agent>
    </dc:creator>
   </cc:Work>
  </rdf:RDF>
 </metadata>
 <defs>
  <style type="text/css">*{stroke-linejoin: round; stroke-linecap: butt}</style>
 </defs>
 <g id="figure_1">
  <g id="patch_1">
   <path d="M 0 432 
L 720 432 
L 720 0 
L 0 0 
z
" style="fill: #ffffff"/>
  </g>
  <g id="axes_1">
   <g id="patch_2">
    <path d="M 58.042344 389.877656 
L 709.2 389.877656 
L 709.2 27.436719 
L 58.042344 27.436719 
z
" style="fill: #ffffff"/>
   </g>
   <g id="matplotlib.axis_1">
    <g id="xtick_1">
     <g id="line2d_1">
      <path d="M 87.640419 389.877656 
L 87.640419 27.436719 
" clip-path="url(#pb76dd176d9)" style="fill: none; stroke-dasharray: 2.96,1.28; stroke-dashoffset: 0; stroke: #b0b0b0; stroke-opacity: 0.5; stroke-width: 0.8"/>
     </g>
     <g id="line2d_2">
      <defs>
       <path id="mfa7b1a18d5" d="M 0 0 
L 0 3.5 
" style="stroke: #000000; stroke-width: 0.8"/>
      </defs>
      <g>
       <use xlink:href="#mfa7b1a18d5" x="87.640419" y="389.877656" style="stroke: #000000; stroke-width: 0.8"/>
      </g>
     </g>
     <g id="text_1">
      <!-- 0 -->
      <g transform="translate(84.459169 404.475312) scale(0.1 -0.1)">
       <defs>
        <path id="DejaVuSans-13" d="M 2034 4250 
Q 1547 4250 1301 3770 
Q 1056 3291 1056 2328 
Q 1056 1369 1301 889 
Q 1547 409 2034 409 
Q 2525 409 2770 889 
Q 3016 1369 3016 2328 
Q 3016 3291 2770 3770 
Q 2525 4250 2034 4250 
z
M 2034 4750 
Q 2819 4750 3233 4129 
Q 3647 3509 3647 2328 
Q 3647 1150 3233 529 
Q 2819 -91 2034 -91 
Q 1250 -91 836 529 
Q 422 1150 422 2328 
Q 422 3509 836 4129 
Q 1250 4750 2034 4750 
z
" transform="scale(0.015625)"/>
       </defs>
       <use xlink:href="#DejaVuSans-13"/>
      </g>
     </g>
    </g>
    <g id="xtick_2">
     <g id="line2d_3">
      <path d="M 206.151231 389.877656 
L 206.151231 27.436719 
" clip-path="url(#pb76dd176d9)" style="fill: none; stroke-dasharray: 2.96,1.28; stroke-dashoffset: 0; stroke: #b0b0b0; stroke-opacity: 0.5; stroke-width: 0.8"/>
     </g>
     <g id="line2d_4">
      <g>
       <use xlink:href="#mfa7b1a18d5" x="206.151231" y="389.877656" style="stroke: #000000; stroke-width: 0.8"/>
      </g>
     </g>
     <g id="text_2">
      <!-- 200 -->
      <g transform="translate(196.607481 404.475312) scale(0.1 -0.1)">
       <defs>
        <path id="DejaVuSans-15" d="M 1228 531 
L 3431 531 
L 3431 0 
L 469 0 
L 469 531 
Q 828 903 1448 1529 
Q 2069 2156 2228 2338 
Q 2531 2678 2651 2914 
Q 2772 3150 2772 3378 
Q 2772 3750 2511 3984 
Q 2250 4219 1831 4219 
Q 1534 4219 1204 4116 
Q 875 4013 500 3803 
L 500 4441 
Q 881 4594 1212 4672 
Q 1544 4750 1819 4750 
Q 2544 4750 2975 4387 
Q 3406 4025 3406 3419 
Q 3406 3131 3298 2873 
Q 3191 2616 2906 2266 
Q 2828 2175 2409 1742 
Q 1991 1309 1228 531 
z
" transform="scale(0.015625)"/>
       </defs>
       <use xlink:href="#DejaVuSans-15"/>
       <use xlink:href="#DejaVuSans-13" transform="translate(63.625 0)"/>
       <use xlink:href="#DejaVuSans-13" transform="translate(127.25 0)"/>
      </g>
     </g>
    </g>
    <g id="xtick_3">
     <g id="line2d_5">
      <path d="M 324.662043 389.877656 
L 324.662043 27.436719 
" clip-path="url(#pb76dd176d9)" style="fill: none; stroke-dasharray: 2.96,1.28; stroke-dashoffset: 0; stroke: #b0b0b0; stroke-opacity: 0.5; stroke-width: 0.8"/>
     </g>
     <g id="line2d_6">
      <g>
       <use xlink:href="#mfa7b1a18d5" x="324.662043" y="389.877656" style="stroke: #000000; stroke-width: 0.8"/>
      </g>
     </g>
     <g id="text_3">
      <!-- 400 -->
      <g transform="translate(315.118293 404.475312) scale(0.1 -0.1)">
       <defs>
        <path id="DejaVuSans-17" d="M 2419 4116 
L 825 1625 
L 2419 1625 
L 2419 4116 
z
M 2253 4666 
L 3047 4666 
L 3047 1625 
L 3713 1625 
L 3713 1100 
L 3047 1100 
L 3047 0 
L 2419 0 
L 2419 1100 
L 313 1100 
L 313 1709 
L 2253 4666 
z
" transform="scale(0.015625)"/>
       </defs>
       <use xlink:href="#DejaVuSans-17"/>
       <use xlink:href="#DejaVuSans-13" transform="translate(63.625 0)"/>
       <use xlink:href="#DejaVuSans-13" transform="translate(127.25 0)"/>
      </g>
     </g>
    </g>
    <g id="xtick_4">
     <g id="line2d_7">
      <path d="M 443.172855 389.877656 
L 443.172855 27.436719 
" clip-path="url(#pb76dd176d9)" style="fill: none; stroke-dasharray: 2.96,1.28; stroke-dashoffset: 0; stroke: #b0b0b0; stroke-opacity: 0.5; stroke-width: 0.8"/>
     </g>
     <g id="line2d_8">
      <g>
       <use xlink:href="#mfa7b1a18d5" x="443.172855" y="389.877656" style="stroke: #000000; stroke-width: 0.8"/>
      </g>
     </g>
     <g id="text_4">
      <!-- 600 -->
      <g transform="translate(433.629105 404.475312) scale(0.1 -0.1)">
       <defs>
        <path id="DejaVuSans-19" d="M 2113 2584 
Q 1688 2584 1439 2293 
Q 1191 2003 1191 1497 
Q 1191 994 1439 701 
Q 1688 409 2113 409 
Q 2538 409 2786 701 
Q 3034 994 3034 1497 
Q 3034 2003 2786 2293 
Q 2538 2584 2113 2584 
z
M 3366 4563 
L 3366 3988 
Q 3128 4100 2886 4159 
Q 2644 4219 2406 4219 
Q 1781 4219 1451 3797 
Q 1122 3375 1075 2522 
Q 1259 2794 1537 2939 
Q 1816 3084 2150 3084 
Q 2853 3084 3261 2657 
Q 3669 2231 3669 1497 
Q 3669 778 3244 343 
Q 2819 -91 2113 -91 
Q 1303 -91 875 529 
Q 447 1150 447 2328 
Q 447 3434 972 4092 
Q 1497 4750 2381 4750 
Q 2619 4750 2861 4703 
Q 3103 4656 3366 4563 
z
" transform="scale(0.015625)"/>
       </defs>
       <use xlink:href="#DejaVuSans-19"/>
       <use xlink:href="#DejaVuSans-13" transform="translate(63.625 0)"/>
       <use xlink:href="#DejaVuSans-13" transform="translate(127.25 0)"/>
      </g>
     </g>
    </g>
    <g id="xtick_5">
     <g id="line2d_9">
      <path d="M 561.683667 389.877656 
L 561.683667 27.436719 
" clip-path="url(#pb76dd176d9)" style="fill: none; stroke-dasharray: 2.96,1.28; stroke-dashoffset: 0; stroke: #b0b0b0; stroke-opacity: 0.5; stroke-width: 0.8"/>
     </g>
     <g id="line2d_10">
      <g>
       <use xlink:href="#mfa7b1a18d5" x="561.683667" y="389.877656" style="stroke: #000000; stroke-width: 0.8"/>
      </g>
     </g>
     <g id="text_5">
      <!-- 800 -->
      <g transform="translate(552.139917 404.475312) scale(0.1 -0.1)">
       <defs>
        <path id="DejaVuSans-1b" d="M 2034 2216 
Q 1584 2216 1326 1975 
Q 1069 1734 1069 1313 
Q 1069 891 1326 650 
Q 1584 409 2034 409 
Q 2484 409 2743 651 
Q 3003 894 3003 1313 
Q 3003 1734 2745 1975 
Q 2488 2216 2034 2216 
z
M 1403 2484 
Q 997 2584 770 2862 
Q 544 3141 544 3541 
Q 544 4100 942 4425 
Q 1341 4750 2034 4750 
Q 2731 4750 3128 4425 
Q 3525 4100 3525 3541 
Q 3525 3141 3298 2862 
Q 3072 2584 2669 2484 
Q 3125 2378 3379 2068 
Q 3634 1759 3634 1313 
Q 3634 634 3220 271 
Q 2806 -91 2034 -91 
Q 1263 -91 848 271 
Q 434 634 434 1313 
Q 434 1759 690 2068 
Q 947 2378 1403 2484 
z
M 1172 3481 
Q 1172 3119 1398 2916 
Q 1625 2713 2034 2713 
Q 2441 2713 2670 2916 
Q 2900 3119 2900 3481 
Q 2900 3844 2670 4047 
Q 2441 4250 2034 4250 
Q 1625 4250 1398 4047 
Q 1172 3844 1172 3481 
z
" transform="scale(0.015625)"/>
       </defs>
       <use xlink:href="#DejaVuSans-1b"/>
       <use xlink:href="#DejaVuSans-13" transform="translate(63.625 0)"/>
       <use xlink:href="#DejaVuSans-13" transform="translate(127.25 0)"/>
      </g>
     </g>
    </g>
    <g id="xtick_6">
     <g id="line2d_11">
      <path d="M 680.194479 389.877656 
L 680.194479 27.436719 
" clip-path="url(#pb76dd176d9)" style="fill: none; stroke-dasharray: 2.96,1.28; stroke-dashoffset: 0; stroke: #b0b0b0; stroke-opacity: 0.5; stroke-width: 0.8"/>
     </g>
     <g id="line2d_12">
      <g>
       <use xlink:href="#mfa7b1a18d5" x="680.194479" y="389.877656" style="stroke: #000000; stroke-width: 0.8"/>
      </g>
     </g>
     <g id="text_6">
      <!-- 1000 -->
      <g transform="translate(667.469479 404.475312) scale(0.1 -0.1)">
       <defs>
        <path id="DejaVuSans-14" d="M 794 531 
L 1825 531 
L 1825 4091 
L 703 3866 
L 703 4441 
L 1819 4666 
L 2450 4666 
L 2450 531 
L 3481 531 
L 3481 0 
L 794 0 
L 794 531 
z
" transform="scale(0.015625)"/>
       </defs>
       <use xlink:href="#DejaVuSans-14"/>
       <use xlink:href="#DejaVuSans-13" transform="translate(63.625 0)"/>
       <use xlink:href="#DejaVuSans-13" transform="translate(127.25 0)"/>
       <use xlink:href="#DejaVuSans-13" transform="translate(190.875 0)"/>
      </g>
     </g>
    </g>
    <g id="text_7">
     <!-- Iteration Index -->
     <g transform="translate(347.057109 418.476094) scale(0.1 -0.1)">
      <defs>
       <path id="DejaVuSans-2c" d="M 628 4666 
L 1259 4666 
L 1259 0 
L 628 0 
L 628 4666 
z
" transform="scale(0.015625)"/>
       <path id="DejaVuSans-57" d="M 1172 4494 
L 1172 3500 
L 2356 3500 
L 2356 3053 
L 1172 3053 
L 1172 1153 
Q 1172 725 1289 603 
Q 1406 481 1766 481 
L 2356 481 
L 2356 0 
L 1766 0 
Q 1100 0 847 248 
Q 594 497 594 1153 
L 594 3053 
L 172 3053 
L 172 3500 
L 594 3500 
L 594 4494 
L 1172 4494 
z
" transform="scale(0.015625)"/>
       <path id="DejaVuSans-48" d="M 3597 1894 
L 3597 1613 
L 953 1613 
Q 991 1019 1311 708 
Q 1631 397 2203 397 
Q 2534 397 2845 478 
Q 3156 559 3463 722 
L 3463 178 
Q 3153 47 2828 -22 
Q 2503 -91 2169 -91 
Q 1331 -91 842 396 
Q 353 884 353 1716 
Q 353 2575 817 3079 
Q 1281 3584 2069 3584 
Q 2775 3584 3186 3129 
Q 3597 2675 3597 1894 
z
M 3022 2063 
Q 3016 2534 2758 2815 
Q 2500 3097 2075 3097 
Q 1594 3097 1305 2825 
Q 1016 2553 972 2059 
L 3022 2063 
z
" transform="scale(0.015625)"/>
       <path id="DejaVuSans-55" d="M 2631 2963 
Q 2534 3019 2420 3045 
Q 2306 3072 2169 3072 
Q 1681 3072 1420 2755 
Q 1159 2438 1159 1844 
L 1159 0 
L 581 0 
L 581 3500 
L 1159 3500 
L 1159 2956 
Q 1341 3275 1631 3429 
Q 1922 3584 2338 3584 
Q 2397 3584 2469 3576 
Q 2541 3569 2628 3553 
L 2631 2963 
z
" transform="scale(0.015625)"/>
       <path id="DejaVuSans-44" d="M 2194 1759 
Q 1497 1759 1228 1600 
Q 959 1441 959 1056 
Q 959 750 1161 570 
Q 1363 391 1709 391 
Q 2188 391 2477 730 
Q 2766 1069 2766 1631 
L 2766 1759 
L 2194 1759 
z
M 3341 1997 
L 3341 0 
L 2766 0 
L 2766 531 
Q 2569 213 2275 61 
Q 1981 -91 1556 -91 
Q 1019 -91 701 211 
Q 384 513 384 1019 
Q 384 1609 779 1909 
Q 1175 2209 1959 2209 
L 2766 2209 
L 2766 2266 
Q 2766 2663 2505 2880 
Q 2244 3097 1772 3097 
Q 1472 3097 1187 3025 
Q 903 2953 641 2809 
L 641 3341 
Q 956 3463 1253 3523 
Q 1550 3584 1831 3584 
Q 2591 3584 2966 3190 
Q 3341 2797 3341 1997 
z
" transform="scale(0.015625)"/>
       <path id="DejaVuSans-4c" d="M 603 3500 
L 1178 3500 
L 1178 0 
L 603 0 
L 603 3500 
z
M 603 4863 
L 1178 4863 
L 1178 4134 
L 603 4134 
L 603 4863 
z
" transform="scale(0.015625)"/>
       <path id="DejaVuSans-52" d="M 1959 3097 
Q 1497 3097 1228 2736 
Q 959 2375 959 1747 
Q 959 1119 1226 758 
Q 1494 397 1959 397 
Q 2419 397 2687 759 
Q 2956 1122 2956 1747 
Q 2956 2369 2687 2733 
Q 2419 3097 1959 3097 
z
M 1959 3584 
Q 2709 3584 3137 3096 
Q 3566 2609 3566 1747 
Q 3566 888 3137 398 
Q 2709 -91 1959 -91 
Q 1206 -91 779 398 
Q 353 888 353 1747 
Q 353 2609 779 3096 
Q 1206 3584 1959 3584 
z
" transform="scale(0.015625)"/>
       <path id="DejaVuSans-51" d="M 3513 2113 
L 3513 0 
L 2938 0 
L 2938 2094 
Q 2938 2591 2744 2837 
Q 2550 3084 2163 3084 
Q 1697 3084 1428 2787 
Q 1159 2491 1159 1978 
L 1159 0 
L 581 0 
L 581 3500 
L 1159 3500 
L 1159 2956 
Q 1366 3272 1645 3428 
Q 1925 3584 2291 3584 
Q 2894 3584 3203 3211 
Q 3513 2838 3513 2113 
z
" transform="scale(0.015625)"/>
       <path id="DejaVuSans-3" transform="scale(0.015625)"/>
       <path id="DejaVuSans-47" d="M 2906 2969 
L 2906 4863 
L 3481 4863 
L 3481 0 
L 2906 0 
L 2906 525 
Q 2725 213 2448 61 
Q 2172 -91 1784 -91 
Q 1150 -91 751 415 
Q 353 922 353 1747 
Q 353 2572 751 3078 
Q 1150 3584 1784 3584 
Q 2172 3584 2448 3432 
Q 2725 3281 2906 2969 
z
M 947 1747 
Q 947 1113 1208 752 
Q 1469 391 1925 391 
Q 2381 391 2643 752 
Q 2906 1113 2906 1747 
Q 2906 2381 2643 2742 
Q 2381 3103 1925 3103 
Q 1469 3103 1208 2742 
Q 947 2381 947 1747 
z
" transform="scale(0.015625)"/>
       <path id="DejaVuSans-5b" d="M 3513 3500 
L 2247 1797 
L 3578 0 
L 2900 0 
L 1881 1375 
L 863 0 
L 184 0 
L 1544 1831 
L 300 3500 
L 978 3500 
L 1906 2253 
L 2834 3500 
L 3513 3500 
z
" transform="scale(0.015625)"/>
      </defs>
      <use xlink:href="#DejaVuSans-2c"/>
      <use xlink:href="#DejaVuSans-57" transform="translate(29.5 0)"/>
      <use xlink:href="#DejaVuSans-48" transform="translate(68.703125 0)"/>
      <use xlink:href="#DejaVuSans-55" transform="translate(130.234375 0)"/>
      <use xlink:href="#DejaVuSans-44" transform="translate(171.34375 0)"/>
      <use xlink:href="#DejaVuSans-57" transform="translate(232.625 0)"/>
      <use xlink:href="#DejaVuSans-4c" transform="translate(271.828125 0)"/>
      <use xlink:href="#DejaVuSans-52" transform="translate(299.609375 0)"/>
      <use xlink:href="#DejaVuSans-51" transform="translate(360.796875 0)"/>
      <use xlink:href="#DejaVuSans-3" transform="translate(424.171875 0)"/>
      <use xlink:href="#DejaVuSans-2c" transform="translate(455.953125 0)"/>
      <use xlink:href="#DejaVuSans-51" transform="translate(485.453125 0)"/>
      <use xlink:href="#DejaVuSans-47" transform="translate(548.828125 0)"/>
      <use xlink:href="#DejaVuSans-48" transform="translate(612.3125 0)"/>
      <use xlink:href="#DejaVuSans-5b" transform="translate(672.09375 0)"/>
     </g>
    </g>
   </g>
   <g id="matplotlib.axis_2">
    <g id="ytick_1">
     <g id="line2d_13">
      <path d="M 58.042344 375.647957 
L 709.2 375.647957 
" clip-path="url(#pb76dd176d9)" style="fill: none; stroke-dasharray: 2.96,1.28; stroke-dashoffset: 0; stroke: #b0b0b0; stroke-opacity: 0.5; stroke-width: 0.8"/>
     </g>
     <g id="line2d_14">
      <defs>
       <path id="m22dc859c18" d="M 0 0 
L -3.5 0 
" style="stroke: #000000; stroke-width: 0.8"/>
      </defs>
      <g>
       <use xlink:href="#m22dc859c18" x="58.042344" y="375.647957" style="stroke: #000000; stroke-width: 0.8"/>
      </g>
     </g>
     <g id="text_8">
      <!-- 0 -->
      <g transform="translate(44.679844 379.446785) scale(0.1 -0.1)">
       <use xlink:href="#DejaVuSans-13"/>
      </g>
     </g>
    </g>
    <g id="ytick_2">
     <g id="line2d_15">
      <path d="M 58.042344 303.232185 
L 709.2 303.232185 
" clip-path="url(#pb76dd176d9)" style="fill: none; stroke-dasharray: 2.96,1.28; stroke-dashoffset: 0; stroke: #b0b0b0; stroke-opacity: 0.5; stroke-width: 0.8"/>
     </g>
     <g id="line2d_16">
      <g>
       <use xlink:href="#m22dc859c18" x="58.042344" y="303.232185" style="stroke: #000000; stroke-width: 0.8"/>
      </g>
     </g>
     <g id="text_9">
      <!-- 1000 -->
      <g transform="translate(25.592344 307.031014) scale(0.1 -0.1)">
       <use xlink:href="#DejaVuSans-14"/>
       <use xlink:href="#DejaVuSans-13" transform="translate(63.625 0)"/>
       <use xlink:href="#DejaVuSans-13" transform="translate(127.25 0)"/>
       <use xlink:href="#DejaVuSans-13" transform="translate(190.875 0)"/>
      </g>
     </g>
    </g>
    <g id="ytick_3">
     <g id="line2d_17">
      <path d="M 58.042344 230.816414 
L 709.2 230.816414 
" clip-path="url(#pb76dd176d9)" style="fill: none; stroke-dasharray: 2.96,1.28; stroke-dashoffset: 0; stroke: #b0b0b0; stroke-opacity: 0.5; stroke-width: 0.8"/>
     </g>
     <g id="line2d_18">
      <g>
       <use xlink:href="#m22dc859c18" x="58.042344" y="230.816414" style="stroke: #000000; stroke-width: 0.8"/>
      </g>
     </g>
     <g id="text_10">
      <!-- 2000 -->
      <g transform="translate(25.592344 234.615242) scale(0.1 -0.1)">
       <use xlink:href="#DejaVuSans-15"/>
       <use xlink:href="#DejaVuSans-13" transform="translate(63.625 0)"/>
       <use xlink:href="#DejaVuSans-13" transform="translate(127.25 0)"/>
       <use xlink:href="#DejaVuSans-13" transform="translate(190.875 0)"/>
      </g>
     </g>
    </g>
    <g id="ytick_4">
     <g id="line2d_19">
      <path d="M 58.042344 158.400642 
L 709.2 158.400642 
" clip-path="url(#pb76dd176d9)" style="fill: none; stroke-dasharray: 2.96,1.28; stroke-dashoffset: 0; stroke: #b0b0b0; stroke-opacity: 0.5; stroke-width: 0.8"/>
     </g>
     <g id="line2d_20">
      <g>
       <use xlink:href="#m22dc859c18" x="58.042344" y="158.400642" style="stroke: #000000; stroke-width: 0.8"/>
      </g>
     </g>
     <g id="text_11">
      <!-- 3000 -->
      <g transform="translate(25.592344 162.19947) scale(0.1 -0.1)">
       <defs>
        <path id="DejaVuSans-16" d="M 2597 2516 
Q 3050 2419 3304 2112 
Q 3559 1806 3559 1356 
Q 3559 666 3084 287 
Q 2609 -91 1734 -91 
Q 1441 -91 1130 -33 
Q 819 25 488 141 
L 488 750 
Q 750 597 1062 519 
Q 1375 441 1716 441 
Q 2309 441 2620 675 
Q 2931 909 2931 1356 
Q 2931 1769 2642 2001 
Q 2353 2234 1838 2234 
L 1294 2234 
L 1294 2753 
L 1863 2753 
Q 2328 2753 2575 2939 
Q 2822 3125 2822 3475 
Q 2822 3834 2567 4026 
Q 2313 4219 1838 4219 
Q 1578 4219 1281 4162 
Q 984 4106 628 3988 
L 628 4550 
Q 988 4650 1302 4700 
Q 1616 4750 1894 4750 
Q 2613 4750 3031 4423 
Q 3450 4097 3450 3541 
Q 3450 3153 3228 2886 
Q 3006 2619 2597 2516 
z
" transform="scale(0.015625)"/>
       </defs>
       <use xlink:href="#DejaVuSans-16"/>
       <use xlink:href="#DejaVuSans-13" transform="translate(63.625 0)"/>
       <use xlink:href="#DejaVuSans-13" transform="translate(127.25 0)"/>
       <use xlink:href="#DejaVuSans-13" transform="translate(190.875 0)"/>
      </g>
     </g>
    </g>
    <g id="ytick_5">
     <g id="line2d_21">
      <path d="M 58.042344 85.98487 
L 709.2 85.98487 
" clip-path="url(#pb76dd176d9)" style="fill: none; stroke-dasharray: 2.96,1.28; stroke-dashoffset: 0; stroke: #b0b0b0; stroke-opacity: 0.5; stroke-width: 0.8"/>
     </g>
     <g id="line2d_22">
      <g>
       <use xlink:href="#m22dc859c18" x="58.042344" y="85.98487" style="stroke: #000000; stroke-width: 0.8"/>
      </g>
     </g>
     <g id="text_12">
      <!-- 4000 -->
      <g transform="translate(25.592344 89.783698) scale(0.1 -0.1)">
       <use xlink:href="#DejaVuSans-17"/>
       <use xlink:href="#DejaVuSans-13" transform="translate(63.625 0)"/>
       <use xlink:href="#DejaVuSans-13" transform="translate(127.25 0)"/>
       <use xlink:href="#DejaVuSans-13" transform="translate(190.875 0)"/>
      </g>
     </g>
    </g>
    <g id="text_13">
     <!-- Latency (Nanoseconds) -->
     <g transform="translate(19.19 267.382187) rotate(-90) scale(0.1 -0.1)">
      <defs>
       <path id="DejaVuSans-2f" d="M 628 4666 
L 1259 4666 
L 1259 531 
L 3531 531 
L 3531 0 
L 628 0 
L 628 4666 
z
" transform="scale(0.015625)"/>
       <path id="DejaVuSans-46" d="M 3122 3366 
L 3122 2828 
Q 2878 2963 2633 3030 
Q 2388 3097 2138 3097 
Q 1578 3097 1268 2742 
Q 959 2388 959 1747 
Q 959 1106 1268 751 
Q 1578 397 2138 397 
Q 2388 397 2633 464 
Q 2878 531 3122 666 
L 3122 134 
Q 2881 22 2623 -34 
Q 2366 -91 2075 -91 
Q 1284 -91 818 406 
Q 353 903 353 1747 
Q 353 2603 823 3093 
Q 1294 3584 2113 3584 
Q 2378 3584 2631 3529 
Q 2884 3475 3122 3366 
z
" transform="scale(0.015625)"/>
       <path id="DejaVuSans-5c" d="M 2059 -325 
Q 1816 -950 1584 -1140 
Q 1353 -1331 966 -1331 
L 506 -1331 
L 506 -850 
L 844 -850 
Q 1081 -850 1212 -737 
Q 1344 -625 1503 -206 
L 1606 56 
L 191 3500 
L 800 3500 
L 1894 763 
L 2988 3500 
L 3597 3500 
L 2059 -325 
z
" transform="scale(0.015625)"/>
       <path id="DejaVuSans-b" d="M 1984 4856 
Q 1566 4138 1362 3434 
Q 1159 2731 1159 2009 
Q 1159 1288 1364 580 
Q 1569 -128 1984 -844 
L 1484 -844 
Q 1016 -109 783 600 
Q 550 1309 550 2009 
Q 550 2706 781 3412 
Q 1013 4119 1484 4856 
L 1984 4856 
z
" transform="scale(0.015625)"/>
       <path id="DejaVuSans-31" d="M 628 4666 
L 1478 4666 
L 3547 763 
L 3547 4666 
L 4159 4666 
L 4159 0 
L 3309 0 
L 1241 3903 
L 1241 0 
L 628 0 
L 628 4666 
z
" transform="scale(0.015625)"/>
       <path id="DejaVuSans-56" d="M 2834 3397 
L 2834 2853 
Q 2591 2978 2328 3040 
Q 2066 3103 1784 3103 
Q 1356 3103 1142 2972 
Q 928 2841 928 2578 
Q 928 2378 1081 2264 
Q 1234 2150 1697 2047 
L 1894 2003 
Q 2506 1872 2764 1633 
Q 3022 1394 3022 966 
Q 3022 478 2636 193 
Q 2250 -91 1575 -91 
Q 1294 -91 989 -36 
Q 684 19 347 128 
L 347 722 
Q 666 556 975 473 
Q 1284 391 1588 391 
Q 1994 391 2212 530 
Q 2431 669 2431 922 
Q 2431 1156 2273 1281 
Q 2116 1406 1581 1522 
L 1381 1569 
Q 847 1681 609 1914 
Q 372 2147 372 2553 
Q 372 3047 722 3315 
Q 1072 3584 1716 3584 
Q 2034 3584 2315 3537 
Q 2597 3491 2834 3397 
z
" transform="scale(0.015625)"/>
       <path id="DejaVuSans-c" d="M 513 4856 
L 1013 4856 
Q 1481 4119 1714 3412 
Q 1947 2706 1947 2009 
Q 1947 1309 1714 600 
Q 1481 -109 1013 -844 
L 513 -844 
Q 928 -128 1133 580 
Q 1338 1288 1338 2009 
Q 1338 2731 1133 3434 
Q 928 4138 513 4856 
z
" transform="scale(0.015625)"/>
      </defs>
      <use xlink:href="#DejaVuSans-2f"/>
      <use xlink:href="#DejaVuSans-44" transform="translate(55.71875 0)"/>
      <use xlink:href="#DejaVuSans-57" transform="translate(117 0)"/>
      <use xlink:href="#DejaVuSans-48" transform="translate(156.203125 0)"/>
      <use xlink:href="#DejaVuSans-51" transform="translate(217.734375 0)"/>
      <use xlink:href="#DejaVuSans-46" transform="translate(281.109375 0)"/>
      <use xlink:href="#DejaVuSans-5c" transform="translate(336.09375 0)"/>
      <use xlink:href="#DejaVuSans-3" transform="translate(395.28125 0)"/>
      <use xlink:href="#DejaVuSans-b" transform="translate(427.0625 0)"/>
      <use xlink:href="#DejaVuSans-31" transform="translate(466.078125 0)"/>
      <use xlink:href="#DejaVuSans-44" transform="translate(540.890625 0)"/>
      <use xlink:href="#DejaVuSans-51" transform="translate(602.171875 0)"/>
      <use xlink:href="#DejaVuSans-52" transform="translate(665.546875 0)"/>
      <use xlink:href="#DejaVuSans-56" transform="translate(726.734375 0)"/>
      <use xlink:href="#DejaVuSans-48" transform="translate(778.828125 0)"/>
      <use xlink:href="#DejaVuSans-46" transform="translate(840.359375 0)"/>
      <use xlink:href="#DejaVuSans-52" transform="translate(895.34375 0)"/>
      <use xlink:href="#DejaVuSans-51" transform="translate(956.53125 0)"/>
      <use xlink:href="#DejaVuSans-47" transform="translate(1019.90625 0)"/>
      <use xlink:href="#DejaVuSans-56" transform="translate(1083.390625 0)"/>
      <use xlink:href="#DejaVuSans-c" transform="translate(1135.484375 0)"/>
     </g>
    </g>
   </g>
   <g id="line2d_23">
    <path d="M 87.640419 43.911307 
L 88.232973 355.516373 
L 88.825527 367.320143 
L 89.418081 369.492617 
L 90.010635 369.637448 
L 91.195743 369.637448 
L 91.788297 369.927111 
L 92.380852 369.637448 
L 92.973406 369.637448 
L 93.56596 369.927111 
L 94.158514 369.854695 
L 95.343622 370.144358 
L 95.936176 369.999527 
L 97.121284 370.28919 
L 97.713838 369.999527 
L 98.898946 370.071943 
L 99.4915 369.854695 
L 100.676608 370.216774 
L 101.861716 369.854695 
L 102.454271 370.144358 
L 103.046825 370.071943 
L 103.639379 370.144358 
L 104.231933 369.999527 
L 104.824487 370.28919 
L 106.009595 369.999527 
L 108.379811 369.999527 
L 108.972365 369.854695 
L 109.564919 369.854695 
L 110.750027 370.144358 
L 111.342581 369.999527 
L 111.935135 370.216774 
L 112.52769 370.28919 
L 113.120244 333.501978 
L 113.712798 370.144358 
L 114.305352 369.927111 
L 114.897906 370.144358 
L 116.083014 370.071943 
L 116.675568 370.071943 
L 117.268122 369.927111 
L 117.860676 369.999527 
L 118.45323 369.637448 
L 119.045784 370.144358 
L 119.638338 367.682222 
L 120.230892 369.999527 
L 120.823446 370.071943 
L 121.416 370.28919 
L 122.008554 369.999527 
L 122.601109 370.216774 
L 123.193663 369.854695 
L 123.786217 369.999527 
L 126.748987 369.999527 
L 127.341541 370.216774 
L 128.526649 369.999527 
L 129.119203 370.144358 
L 130.304311 369.854695 
L 132.081974 370.216774 
L 133.267082 370.144358 
L 133.859636 369.854695 
L 135.637298 370.216774 
L 136.229852 370.071943 
L 138.007514 369.999527 
L 138.600068 369.492617 
L 139.192622 369.927111 
L 139.785176 369.927111 
L 140.970284 370.144358 
L 141.562838 370.216774 
L 142.155393 369.999527 
L 142.747947 369.927111 
L 143.340501 370.144358 
L 145.118163 369.999527 
L 146.303271 369.999527 
L 146.895825 370.216774 
L 147.488379 369.854695 
L 148.673487 370.28919 
L 149.266041 369.999527 
L 149.858595 370.144358 
L 150.451149 370.144358 
L 151.636257 369.927111 
L 153.41392 370.216774 
L 154.006474 370.071943 
L 154.599028 370.144358 
L 155.191582 369.999527 
L 156.37669 370.216774 
L 156.969244 369.999527 
L 158.154352 370.216774 
L 159.33946 369.999527 
L 159.932014 369.999527 
L 161.117122 370.28919 
L 161.709677 370.071943 
L 164.672447 369.999527 
L 165.265001 369.709864 
L 165.857555 369.999527 
L 167.042663 369.999527 
L 168.227771 370.28919 
L 168.820325 369.999527 
L 169.412879 369.999527 
L 170.005433 370.216774 
L 171.190541 369.999527 
L 171.783096 370.144358 
L 172.37565 369.999527 
L 172.968204 369.999527 
L 173.560758 370.144358 
L 175.33842 369.999527 
L 175.930974 370.28919 
L 176.523528 369.927111 
L 177.708636 370.071943 
L 178.30119 369.854695 
L 178.893744 369.999527 
L 180.078852 369.999527 
L 180.671406 370.144358 
L 181.856515 370.071943 
L 182.449069 369.999527 
L 183.041623 370.216774 
L 183.634177 369.999527 
L 186.004393 369.999527 
L 186.596947 370.144358 
L 187.189501 369.999527 
L 187.782055 370.144358 
L 188.374609 370.144358 
L 188.967163 369.999527 
L 189.559717 370.144358 
L 190.152271 370.071943 
L 190.744825 370.216774 
L 191.929934 369.999527 
L 193.115042 370.216774 
L 193.707596 370.071943 
L 194.892704 369.999527 
L 195.485258 367.247728 
L 196.077812 369.927111 
L 196.670366 370.071943 
L 199.040582 370.071943 
L 199.633136 370.216774 
L 200.22569 370.071943 
L 201.410799 370.071943 
L 202.003353 369.927111 
L 203.188461 370.144358 
L 203.781015 370.216774 
L 204.373569 369.854695 
L 204.966123 370.071943 
L 206.151231 370.28919 
L 207.336339 369.927111 
L 207.928893 369.927111 
L 209.114001 370.216774 
L 210.299109 369.999527 
L 210.891663 370.216774 
L 211.484218 370.071943 
L 212.076772 363.554523 
L 212.669326 370.071943 
L 213.26188 370.144358 
L 214.446988 370.071943 
L 215.632096 370.144358 
L 217.409758 369.999527 
L 218.002312 369.999527 
L 218.594866 370.28919 
L 219.18742 369.999527 
L 220.372528 370.144358 
L 220.965082 369.854695 
L 221.557637 370.144358 
L 222.150191 370.216774 
L 222.742745 370.071943 
L 223.335299 369.78228 
L 223.927853 369.999527 
L 224.520407 369.854695 
L 225.705515 370.144358 
L 226.298069 369.999527 
L 226.890623 370.144358 
L 227.483177 369.999527 
L 228.075731 370.071943 
L 228.668285 369.927111 
L 229.260839 370.071943 
L 229.853393 369.999527 
L 231.038501 370.144358 
L 231.631056 369.999527 
L 233.408718 370.144358 
L 234.001272 370.144358 
L 234.593826 369.999527 
L 235.18638 370.28919 
L 236.371488 370.071943 
L 236.964042 370.28919 
L 237.556596 370.071943 
L 238.14915 370.144358 
L 239.334258 369.854695 
L 239.926812 370.28919 
L 240.519366 369.999527 
L 241.704475 369.999527 
L 242.297029 369.78228 
L 242.889583 370.28919 
L 243.482137 370.216774 
L 244.074691 369.999527 
L 244.667245 370.144358 
L 245.259799 370.071943 
L 245.852353 370.216774 
L 247.037461 369.999527 
L 247.630015 370.144358 
L 248.222569 369.999527 
L 250.000231 370.144358 
L 251.18534 370.071943 
L 251.777894 369.565032 
L 252.370448 370.071943 
L 252.963002 370.144358 
L 253.555556 370.361606 
L 254.14811 369.999527 
L 254.740664 370.216774 
L 255.333218 369.999527 
L 257.703434 369.999527 
L 258.295988 370.144358 
L 258.888542 369.999527 
L 259.481096 370.216774 
L 260.07365 369.999527 
L 260.666204 369.927111 
L 261.258759 370.144358 
L 261.851313 369.999527 
L 262.443867 370.216774 
L 263.036421 370.144358 
L 263.628975 370.216774 
L 264.221529 369.999527 
L 264.814083 369.999527 
L 265.406637 370.216774 
L 265.999191 369.999527 
L 266.591745 369.927111 
L 267.776853 370.144358 
L 268.369407 370.216774 
L 268.961961 370.071943 
L 270.147069 370.144358 
L 270.739623 370.144358 
L 271.332178 367.609806 
L 271.924732 370.071943 
L 272.517286 370.216774 
L 273.10984 369.78228 
L 273.702394 369.999527 
L 274.887502 370.071943 
L 275.480056 369.999527 
L 276.07261 370.216774 
L 277.257718 369.999527 
L 277.850272 370.144358 
L 278.442826 370.071943 
L 279.03538 370.216774 
L 279.627934 369.999527 
L 280.220488 369.999527 
L 280.813043 368.551211 
L 281.405597 369.927111 
L 283.183259 370.071943 
L 283.775813 369.999527 
L 284.368367 370.071943 
L 285.553475 369.999527 
L 286.146029 369.999527 
L 286.738583 370.216774 
L 287.331137 369.999527 
L 288.516245 370.071943 
L 289.108799 370.071943 
L 289.701353 369.709864 
L 290.293907 369.999527 
L 290.886462 370.071943 
L 291.479016 369.78228 
L 292.07157 370.144358 
L 292.664124 369.999527 
L 293.256678 370.144358 
L 293.849232 370.144358 
L 294.441786 369.999527 
L 295.626894 369.999527 
L 296.812002 370.216774 
L 297.404556 369.999527 
L 298.589664 370.216774 
L 299.182218 370.071943 
L 299.774772 370.216774 
L 300.367326 369.854695 
L 300.959881 370.216774 
L 301.552435 370.144358 
L 302.144989 370.216774 
L 302.737543 369.999527 
L 303.330097 370.071943 
L 304.515205 369.927111 
L 305.107759 370.071943 
L 305.700313 370.071943 
L 306.292867 208.729603 
L 306.885421 369.999527 
L 307.477975 369.999527 
L 308.070529 368.91329 
L 308.663083 369.999527 
L 309.255637 370.144358 
L 309.848191 369.999527 
L 310.440745 370.216774 
L 311.0333 370.071943 
L 311.625854 370.216774 
L 312.218408 370.144358 
L 312.810962 370.216774 
L 313.99607 369.999527 
L 314.588624 370.144358 
L 315.181178 369.999527 
L 316.366286 369.999527 
L 316.95884 369.492617 
L 317.551394 369.927111 
L 318.143948 369.854695 
L 319.329056 370.216774 
L 319.92161 370.071943 
L 321.106719 370.144358 
L 321.699273 369.927111 
L 322.291827 370.144358 
L 322.884381 369.78228 
L 324.069489 370.144358 
L 325.254597 369.854695 
L 325.847151 370.216774 
L 326.439705 370.28919 
L 327.032259 370.144358 
L 327.624813 370.216774 
L 328.217367 369.927111 
L 328.809921 369.927111 
L 329.402475 370.071943 
L 331.772692 370.071943 
L 332.365246 370.216774 
L 332.9578 369.999527 
L 333.550354 370.071943 
L 334.735462 369.999527 
L 335.328016 370.071943 
L 335.92057 369.78228 
L 336.513124 370.071943 
L 337.105678 369.999527 
L 337.698232 370.216774 
L 338.290786 369.927111 
L 339.475894 370.144358 
L 340.068448 369.999527 
L 340.661003 369.999527 
L 341.253557 370.216774 
L 341.846111 369.999527 
L 344.216327 369.927111 
L 344.808881 370.216774 
L 345.401435 370.216774 
L 345.993989 369.999527 
L 346.586543 369.927111 
L 347.179097 367.609806 
L 347.771651 369.999527 
L 348.364205 369.999527 
L 348.956759 369.637448 
L 349.549313 370.216774 
L 350.141867 369.999527 
L 350.734422 370.216774 
L 351.326976 369.999527 
L 351.91953 369.637448 
L 352.512084 370.071943 
L 353.104638 370.144358 
L 353.697192 369.999527 
L 354.289746 370.216774 
L 354.8823 369.854695 
L 356.067408 370.144358 
L 356.659962 369.927111 
L 358.437624 370.216774 
L 359.030178 369.999527 
L 359.622732 369.999527 
L 360.215287 370.144358 
L 360.807841 370.071943 
L 361.400395 369.854695 
L 362.585503 370.144358 
L 363.178057 370.144358 
L 364.363165 369.927111 
L 364.955719 370.144358 
L 365.548273 370.071943 
L 366.140827 370.216774 
L 366.733381 369.854695 
L 367.918489 370.144358 
L 368.511043 369.999527 
L 369.696151 370.071943 
L 370.288706 365.220086 
L 370.88126 370.071943 
L 371.473814 370.071943 
L 372.066368 369.927111 
L 373.251476 370.216774 
L 373.84403 370.216774 
L 374.436584 369.999527 
L 375.029138 369.927111 
L 376.214246 369.999527 
L 376.8068 369.999527 
L 377.399354 370.28919 
L 377.991908 369.999527 
L 378.584462 370.144358 
L 379.177016 369.999527 
L 381.547233 370.071943 
L 383.324895 370.216774 
L 383.917449 369.999527 
L 385.102557 370.071943 
L 385.695111 369.999527 
L 386.287665 370.144358 
L 386.880219 369.999527 
L 387.472773 370.144358 
L 389.250435 369.999527 
L 389.84299 370.144358 
L 390.435544 370.071943 
L 391.620652 370.144358 
L 393.398314 369.854695 
L 394.583422 370.071943 
L 396.361084 370.144358 
L 396.953638 369.854695 
L 397.546192 369.709864 
L 398.138746 369.999527 
L 398.7313 370.071943 
L 399.323854 369.999527 
L 399.916409 370.071943 
L 400.508963 369.999527 
L 402.286625 370.144358 
L 402.879179 370.144358 
L 403.471733 369.999527 
L 404.656841 370.144358 
L 405.249395 369.999527 
L 405.841949 370.144358 
L 407.619611 369.999527 
L 408.212165 370.216774 
L 408.804719 370.071943 
L 411.76749 369.999527 
L 412.360044 370.216774 
L 412.952598 370.071943 
L 413.545152 370.361606 
L 414.137706 370.144358 
L 415.322814 370.071943 
L 415.915368 369.927111 
L 416.507922 370.071943 
L 417.100476 369.999527 
L 418.285584 370.071943 
L 418.878138 369.927111 
L 420.063247 370.144358 
L 420.655801 369.999527 
L 421.248355 369.999527 
L 421.840909 370.144358 
L 422.433463 369.999527 
L 423.026017 367.609806 
L 423.618571 367.175312 
L 424.211125 363.989018 
L 424.803679 370.071943 
L 425.396233 370.071943 
L 425.988787 369.854695 
L 426.581341 370.071943 
L 427.173895 370.144358 
L 427.766449 369.709864 
L 429.544112 370.071943 
L 430.136666 369.999527 
L 430.72922 370.144358 
L 434.284544 370.071943 
L 434.877098 369.999527 
L 435.469652 370.216774 
L 436.65476 369.999527 
L 437.247314 370.216774 
L 439.024976 369.999527 
L 440.210085 370.144358 
L 440.802639 369.999527 
L 441.395193 370.144358 
L 441.987747 369.420201 
L 442.580301 370.071943 
L 443.172855 369.927111 
L 443.765409 370.071943 
L 444.357963 369.999527 
L 444.950517 370.144358 
L 445.543071 369.637448 
L 446.135625 370.144358 
L 447.913287 369.999527 
L 448.505841 370.071943 
L 449.098395 370.28919 
L 449.69095 370.144358 
L 450.876058 370.071943 
L 451.468612 369.999527 
L 452.061166 370.071943 
L 452.65372 369.999527 
L 453.838828 370.071943 
L 454.431382 369.999527 
L 455.023936 370.144358 
L 455.61649 369.927111 
L 456.209044 370.144358 
L 456.801598 370.216774 
L 459.171814 369.927111 
L 459.764369 370.071943 
L 460.356923 369.927111 
L 461.542031 370.144358 
L 462.134585 369.999527 
L 462.727139 370.216774 
L 463.319693 369.999527 
L 464.504801 370.071943 
L 465.689909 370.144358 
L 466.282463 370.144358 
L 466.875017 369.999527 
L 467.467571 370.071943 
L 468.060125 369.78228 
L 468.652679 369.999527 
L 469.245234 369.637448 
L 469.837788 369.999527 
L 470.430342 370.144358 
L 471.022896 369.999527 
L 471.61545 370.144358 
L 473.393112 370.071943 
L 473.985666 369.999527 
L 474.57822 370.071943 
L 475.170774 369.999527 
L 475.763328 369.709864 
L 476.355882 370.144358 
L 477.54099 369.999527 
L 478.726098 370.071943 
L 479.318653 370.071943 
L 479.911207 370.216774 
L 480.503761 369.999527 
L 481.096315 370.28919 
L 482.281423 370.071943 
L 483.466531 369.999527 
L 484.059085 370.28919 
L 485.244193 370.071943 
L 486.429301 369.999527 
L 487.021855 370.216774 
L 487.614409 369.999527 
L 489.392072 369.999527 
L 489.984626 370.216774 
L 490.57718 369.999527 
L 491.169734 369.927111 
L 491.762288 370.28919 
L 492.947396 370.216774 
L 493.53995 369.854695 
L 496.50272 370.144358 
L 497.095274 369.927111 
L 497.687828 370.071943 
L 498.280382 369.854695 
L 498.872936 367.464975 
L 499.465491 368.116717 
L 500.058045 367.971885 
L 500.650599 368.044301 
L 501.243153 367.682222 
L 501.835707 370.071943 
L 503.020815 369.854695 
L 503.613369 370.216774 
L 504.205923 370.071943 
L 505.391031 370.144358 
L 505.983585 370.216774 
L 506.576139 369.999527 
L 507.168693 365.582165 
L 507.761247 369.999527 
L 509.53891 370.071943 
L 510.131464 370.144358 
L 510.724018 370.071943 
L 511.909126 370.144358 
L 512.50168 370.071943 
L 513.094234 370.216774 
L 513.686788 370.071943 
L 514.279342 370.216774 
L 515.46445 369.999527 
L 516.057004 370.144358 
L 516.649558 369.999527 
L 517.242112 370.144358 
L 517.834666 339.729734 
L 518.42722 329.229447 
L 519.019775 369.637448 
L 521.389991 369.854695 
L 521.982545 369.709864 
L 522.575099 369.709864 
L 523.167653 370.071943 
L 524.352761 370.144358 
L 524.945315 369.999527 
L 525.537869 370.216774 
L 526.130423 369.999527 
L 526.722977 357.471598 
L 527.315531 369.709864 
L 527.908085 370.28919 
L 528.500639 369.999527 
L 529.685748 369.999527 
L 530.278302 370.361606 
L 530.870856 369.999527 
L 531.46341 367.827054 
L 532.055964 369.999527 
L 532.648518 370.216774 
L 534.42618 370.216774 
L 535.018734 370.071943 
L 535.611288 369.709864 
L 536.203842 370.071943 
L 536.796396 370.216774 
L 537.38895 369.999527 
L 537.981504 370.28919 
L 538.574058 369.999527 
L 539.166613 370.144358 
L 542.129383 370.071943 
L 543.314491 369.999527 
L 544.499599 370.216774 
L 545.092153 370.28919 
L 546.277261 369.927111 
L 546.869815 370.071943 
L 547.462369 369.709864 
L 548.054923 363.482107 
L 548.647478 368.116717 
L 549.240032 361.816545 
L 549.832586 370.071943 
L 550.42514 370.216774 
L 551.017694 370.144358 
L 551.610248 369.854695 
L 552.202802 370.216774 
L 553.38791 369.854695 
L 553.980464 369.999527 
L 554.573018 369.854695 
L 555.165572 370.216774 
L 555.758126 370.361606 
L 556.35068 369.999527 
L 556.943234 369.999527 
L 557.535788 370.144358 
L 558.128342 369.854695 
L 559.313451 370.071943 
L 559.906005 370.361606 
L 560.498559 369.999527 
L 561.091113 370.071943 
L 561.683667 369.999527 
L 563.461329 370.144358 
L 564.053883 369.999527 
L 565.831545 370.216774 
L 566.424099 370.144358 
L 567.016653 370.28919 
L 568.201761 370.071943 
L 568.794316 369.927111 
L 569.38687 370.28919 
L 569.979424 370.216774 
L 570.571978 369.999527 
L 571.757086 369.927111 
L 572.34964 370.216774 
L 572.942194 369.999527 
L 573.534748 370.28919 
L 576.497518 369.854695 
L 577.090072 370.071943 
L 577.682626 369.854695 
L 578.275181 370.144358 
L 578.867735 369.999527 
L 579.460289 370.28919 
L 580.052843 369.999527 
L 580.645397 370.28919 
L 581.237951 369.927111 
L 582.423059 369.999527 
L 583.015613 369.999527 
L 583.608167 370.144358 
L 584.200721 369.999527 
L 584.793275 370.144358 
L 588.941154 370.071943 
L 589.533708 369.927111 
L 590.126262 369.999527 
L 590.718816 370.216774 
L 591.31137 369.999527 
L 591.903924 369.999527 
L 592.496478 370.216774 
L 593.681586 369.854695 
L 595.459248 370.216774 
L 596.051802 369.854695 
L 596.644356 370.216774 
L 597.23691 369.999527 
L 598.422019 370.071943 
L 599.014573 369.78228 
L 600.199681 369.999527 
L 600.792235 369.999527 
L 601.384789 370.216774 
L 601.977343 369.999527 
L 602.569897 370.216774 
L 603.162451 370.071943 
L 604.940113 370.071943 
L 605.532667 370.216774 
L 606.717775 369.999527 
L 607.310329 367.827054 
L 607.902883 370.216774 
L 608.495438 369.999527 
L 609.087992 369.927111 
L 610.865654 370.216774 
L 611.458208 370.071943 
L 612.643316 370.144358 
L 613.23587 370.144358 
L 614.420978 369.927111 
L 615.013532 370.144358 
L 615.606086 369.999527 
L 616.19864 370.216774 
L 616.791194 369.999527 
L 617.383748 370.144358 
L 619.161411 369.999527 
L 619.753965 370.216774 
L 620.346519 369.999527 
L 621.531627 370.216774 
L 622.124181 370.071943 
L 625.679505 370.071943 
L 626.272059 370.28919 
L 626.864613 370.144358 
L 627.457167 370.216774 
L 628.642276 370.071943 
L 629.23483 369.854695 
L 629.827384 370.216774 
L 630.419938 369.927111 
L 631.012492 370.144358 
L 631.605046 369.999527 
L 632.1976 370.216774 
L 635.16037 369.927111 
L 635.752924 370.28919 
L 636.938032 370.071943 
L 638.123141 370.28919 
L 638.715695 370.361606 
L 639.308249 369.927111 
L 639.900803 369.927111 
L 640.493357 370.28919 
L 641.085911 369.999527 
L 641.678465 370.216774 
L 644.048681 370.216774 
L 644.641235 369.999527 
L 645.233789 369.927111 
L 645.826343 369.999527 
L 646.418897 370.28919 
L 647.011451 369.854695 
L 647.604005 370.144358 
L 648.789114 370.071943 
L 649.381668 369.999527 
L 649.974222 370.144358 
L 650.566776 370.071943 
L 651.15933 370.144358 
L 651.751884 369.999527 
L 652.344438 370.216774 
L 654.1221 369.78228 
L 654.714654 370.216774 
L 655.307208 370.216774 
L 655.899762 370.071943 
L 656.492316 370.216774 
L 657.677425 370.216774 
L 658.862533 369.999527 
L 659.455087 370.216774 
L 660.640195 370.144358 
L 661.825303 370.071943 
L 662.417857 370.216774 
L 663.010411 370.216774 
L 663.602965 369.999527 
L 665.380627 370.216774 
L 665.973181 370.071943 
L 666.565735 370.144358 
L 668.343398 369.999527 
L 668.935952 370.144358 
L 670.12106 370.071943 
L 670.713614 369.854695 
L 672.491276 370.216774 
L 673.08383 369.999527 
L 674.268938 366.016659 
L 674.861492 370.216774 
L 675.454046 370.144358 
L 676.0466 369.927111 
L 677.824263 370.071943 
L 678.416817 370.071943 
L 679.009371 370.216774 
L 679.601925 370.144358 
L 679.601925 370.144358 
" clip-path="url(#pb76dd176d9)" style="fill: none; stroke: #7426d9; stroke-opacity: 0.4; stroke-width: 1.5; stroke-linecap: square"/>
   </g>
   <g id="line2d_24">
    <path d="M 87.640419 271.007167 
L 88.232973 371.230595 
L 88.825527 372.896158 
L 89.418081 373.403068 
L 90.010635 373.258237 
L 91.195743 373.185821 
L 94.751068 372.67891 
L 95.343622 372.099584 
L 95.936176 372.67891 
L 96.52873 372.027169 
L 97.121284 372.67891 
L 97.713838 371.882337 
L 98.306392 372.461663 
L 101.861716 372.099584 
L 102.454271 372.099584 
L 103.639379 371.882337 
L 111.935135 370.868516 
L 112.52769 370.940932 
L 113.120244 370.723685 
L 114.897906 370.723685 
L 115.49046 370.506437 
L 117.860676 370.216774 
L 118.45323 370.28919 
L 119.045784 370.144358 
L 119.638338 370.144358 
L 121.416 369.78228 
L 123.193663 369.709864 
L 123.786217 369.565032 
L 124.378771 369.637448 
L 126.156433 369.275369 
L 127.934095 369.202953 
L 130.304311 368.91329 
L 130.896865 368.696043 
L 132.081974 368.623627 
L 133.267082 368.623627 
L 133.859636 368.40638 
L 134.45219 368.40638 
L 135.637298 368.189133 
L 136.229852 368.116717 
L 136.822406 368.189133 
L 138.007514 367.971885 
L 138.600068 367.971885 
L 139.192622 367.754638 
L 140.37773 367.682222 
L 142.747947 367.320143 
L 143.340501 367.464975 
L 143.933055 366.958064 
L 144.525609 367.320143 
L 148.080933 366.885649 
L 148.673487 366.595986 
L 149.266041 366.668401 
L 162.302231 365.14767 
L 163.487339 365.075254 
L 167.635217 364.568344 
L 168.227771 364.64076 
L 168.820325 364.423512 
L 169.412879 364.351097 
L 170.005433 364.133849 
L 170.597987 364.278681 
L 172.37565 363.916602 
L 174.153312 363.844186 
L 174.745866 363.626939 
L 176.523528 363.699355 
L 177.116082 363.409692 
L 177.708636 363.409692 
L 178.30119 362.251039 
L 178.893744 363.192444 
L 180.078852 363.120029 
L 181.856515 362.975197 
L 182.449069 362.975197 
L 183.041623 362.830366 
L 183.634177 360.585477 
L 184.226731 362.685534 
L 188.374609 362.106208 
L 188.967163 362.251039 
L 190.152271 362.033792 
L 191.337379 361.961376 
L 191.929934 361.671713 
L 192.522488 361.816545 
L 193.707596 361.671713 
L 194.30015 361.454466 
L 194.892704 361.526882 
L 197.26292 361.309634 
L 197.855474 361.019971 
L 199.040582 361.092387 
L 199.633136 360.802724 
L 200.818244 360.87514 
L 202.595907 360.513061 
L 203.188461 360.513061 
L 204.373569 360.295813 
L 206.151231 360.150982 
L 206.743785 360.150982 
L 207.928893 359.861319 
L 208.521447 358.557835 
L 209.114001 359.788903 
L 210.299109 359.716487 
L 211.484218 359.716487 
L 212.076772 359.426824 
L 212.669326 359.571656 
L 213.26188 359.49924 
L 213.854434 359.281993 
L 215.039542 359.209577 
L 215.632096 359.209577 
L 216.22465 358.919914 
L 216.817204 359.064745 
L 217.409758 358.847498 
L 219.18742 358.775082 
L 220.372528 358.485419 
L 220.965082 358.702667 
L 221.557637 358.485419 
L 222.742745 358.268172 
L 223.335299 358.12334 
L 225.112961 358.12334 
L 225.705515 357.978509 
L 226.298069 358.050925 
L 226.890623 357.761261 
L 229.260839 357.688846 
L 231.038501 357.471598 
L 231.631056 357.254351 
L 232.22361 357.181935 
L 232.816164 357.326767 
L 234.001272 357.037104 
L 234.593826 357.181935 
L 235.18638 356.892272 
L 235.778934 356.964688 
L 237.556596 356.675025 
L 238.14915 356.530193 
L 238.741704 356.675025 
L 240.519366 356.312946 
L 241.111921 356.385362 
L 241.704475 356.24053 
L 242.297029 356.312946 
L 242.889583 356.095699 
L 245.259799 355.806036 
L 245.852353 355.878451 
L 248.815123 355.516373 
L 249.407677 355.299125 
L 251.18534 355.226709 
L 251.777894 355.081878 
L 252.370448 355.081878 
L 252.963002 354.937046 
L 254.14811 355.009462 
L 255.925772 354.647383 
L 256.518326 354.719799 
L 258.295988 354.35772 
L 261.258759 353.995641 
L 261.851313 354.068057 
L 262.443867 353.85081 
L 263.628975 353.923226 
L 264.221529 353.633562 
L 264.814083 353.705978 
L 265.406637 353.561147 
L 265.999191 353.633562 
L 266.591745 353.561147 
L 267.184299 353.271484 
L 268.369407 353.199068 
L 269.554515 353.126652 
L 270.147069 352.981821 
L 270.739623 352.692157 
L 271.332178 352.764573 
L 277.850272 351.968 
L 278.442826 351.750752 
L 279.03538 351.895584 
L 279.627934 351.895584 
L 280.813043 351.533505 
L 281.405597 351.605921 
L 286.146029 350.954179 
L 286.738583 351.09901 
L 287.331137 350.881763 
L 287.923691 350.881763 
L 288.516245 350.736932 
L 289.701353 350.809347 
L 290.293907 350.519684 
L 292.07157 350.519684 
L 293.849232 350.157605 
L 294.441786 350.157605 
L 295.03434 350.012774 
L 295.626894 350.08519 
L 296.812002 349.795527 
L 297.404556 349.940358 
L 297.99711 349.940358 
L 298.589664 349.650695 
L 299.182218 349.723111 
L 299.774772 349.505864 
L 300.367326 349.578279 
L 306.292867 348.926537 
L 307.477975 348.854122 
L 308.070529 348.781706 
L 308.663083 348.564458 
L 309.255637 348.492043 
L 309.848191 348.564458 
L 310.440745 348.492043 
L 311.0333 348.274795 
L 312.810962 348.057548 
L 313.99607 348.129964 
L 314.588624 347.912717 
L 315.181178 347.985132 
L 316.366286 347.623053 
L 318.143948 347.550638 
L 320.514165 347.188559 
L 321.106719 347.043727 
L 322.291827 347.188559 
L 322.884381 346.898896 
L 323.476935 346.971312 
L 324.069489 346.754064 
L 324.662043 346.82648 
L 325.847151 346.754064 
L 326.439705 346.464401 
L 327.032259 346.391985 
L 328.217367 346.464401 
L 328.809921 346.174738 
L 331.180138 346.174738 
L 331.772692 345.885075 
L 332.365246 345.957491 
L 333.550354 345.885075 
L 334.142908 345.595412 
L 334.735462 345.740243 
L 337.698232 345.45058 
L 338.290786 345.160917 
L 340.068448 345.160917 
L 340.661003 345.016086 
L 341.253557 345.088501 
L 341.846111 344.94367 
L 343.031219 344.871254 
L 344.216327 344.726423 
L 344.808881 344.509175 
L 345.401435 344.654007 
L 345.993989 344.581591 
L 346.586543 344.364344 
L 347.179097 344.436759 
L 347.771651 344.219512 
L 348.956759 344.219512 
L 349.549313 344.002265 
L 350.141867 344.074681 
L 351.326976 344.002265 
L 351.91953 343.712602 
L 352.512084 343.640186 
L 353.104638 343.712602 
L 353.697192 343.640186 
L 354.289746 343.422939 
L 354.8823 343.495354 
L 355.474854 343.350523 
L 356.067408 343.422939 
L 356.659962 343.133276 
L 357.84507 343.133276 
L 358.437624 342.916028 
L 359.030178 342.988444 
L 359.622732 342.843613 
L 360.215287 342.916028 
L 361.992949 342.553949 
L 362.585503 342.481534 
L 363.178057 342.553949 
L 364.363165 342.191871 
L 364.955719 342.264286 
L 366.140827 342.047039 
L 366.733381 342.191871 
L 367.325935 341.902207 
L 369.103597 341.902207 
L 369.696151 341.612544 
L 370.88126 341.68496 
L 371.473814 341.68496 
L 372.066368 341.467713 
L 373.251476 341.395297 
L 374.436584 341.17805 
L 375.621692 341.17805 
L 376.214246 341.033218 
L 376.8068 341.105634 
L 377.399354 340.888387 
L 379.177016 340.815971 
L 379.76957 340.671139 
L 381.547233 340.598724 
L 382.139787 340.381476 
L 383.917449 340.236645 
L 384.510003 340.236645 
L 385.102557 340.091813 
L 386.880219 340.019397 
L 387.472773 339.80215 
L 389.250435 339.80215 
L 389.84299 339.512487 
L 391.028098 339.584903 
L 391.620652 339.29524 
L 392.213206 339.222824 
L 392.80576 339.29524 
L 394.583422 339.077992 
L 395.175976 338.860745 
L 395.76853 338.933161 
L 396.953638 338.715914 
L 397.546192 338.571082 
L 399.323854 338.498666 
L 399.916409 338.281419 
L 401.101517 338.209003 
L 401.694071 338.064172 
L 402.286625 338.136587 
L 402.879179 337.91934 
L 403.471733 337.991756 
L 407.619611 337.484845 
L 408.212165 337.557261 
L 409.989828 337.195182 
L 411.174936 337.195182 
L 411.76749 337.050351 
L 412.360044 337.122767 
L 412.952598 336.977935 
L 414.73026 336.905519 
L 415.322814 336.688272 
L 415.915368 336.615856 
L 416.507922 336.688272 
L 420.655801 336.108946 
L 421.248355 336.253777 
L 421.840909 336.03653 
L 422.433463 336.03653 
L 423.026017 335.819283 
L 423.618571 335.964114 
L 424.211125 335.746867 
L 424.803679 335.746867 
L 425.396233 335.602035 
L 426.581341 335.52962 
L 427.173895 335.312372 
L 427.766449 335.312372 
L 428.359003 335.167541 
L 428.951557 335.167541 
L 429.544112 335.022709 
L 430.72922 335.095125 
L 432.506882 334.805462 
L 433.69199 334.588215 
L 437.247314 334.081304 
L 437.839868 334.226136 
L 438.432422 334.008888 
L 439.024976 334.081304 
L 440.210085 333.936473 
L 440.802639 333.719225 
L 441.395193 333.864057 
L 442.580301 333.64681 
L 443.172855 333.501978 
L 444.357963 333.574394 
L 444.950517 332.850236 
L 445.543071 332.77782 
L 446.135625 333.139899 
L 446.728179 333.284731 
L 447.320733 333.067483 
L 449.69095 332.995068 
L 450.283504 332.922652 
L 450.876058 332.705404 
L 451.468612 332.053663 
L 452.061166 331.763999 
L 453.246274 331.691584 
L 453.838828 331.257089 
L 454.431382 331.257089 
L 455.023936 330.967426 
L 455.61649 331.039842 
L 465.689909 329.881189 
L 466.282463 329.591526 
L 467.467571 329.663942 
L 468.060125 329.591526 
L 468.652679 329.374279 
L 470.430342 329.374279 
L 471.022896 329.157032 
L 471.61545 329.301863 
L 472.800558 329.0122 
L 473.393112 329.0122 
L 473.985666 328.867369 
L 474.57822 329.0122 
L 475.170774 328.722537 
L 475.763328 328.867369 
L 476.355882 328.650121 
L 477.54099 328.722537 
L 479.911207 328.360458 
L 480.503761 328.215627 
L 481.096315 328.288042 
L 481.688869 328.070795 
L 482.281423 328.070795 
L 482.873977 327.925964 
L 483.466531 327.998379 
L 484.059085 327.274222 
L 484.651639 327.853548 
L 485.244193 327.274222 
L 485.836747 327.201806 
L 486.429301 326.984559 
L 488.206963 326.767311 
L 488.799517 326.984559 
L 489.392072 327.056974 
L 489.984626 326.984559 
L 490.57718 326.767311 
L 491.169734 326.767311 
L 491.762288 326.550064 
L 492.354842 326.694895 
L 492.947396 326.405232 
L 493.53995 326.550064 
L 495.317612 326.332817 
L 495.910166 326.477648 
L 497.095274 326.405232 
L 497.687828 326.187985 
L 499.465491 326.115569 
L 500.058045 325.970738 
L 501.243153 326.043153 
L 501.835707 325.75349 
L 502.428261 325.898322 
L 503.613369 325.75349 
L 504.205923 325.536243 
L 505.391031 325.608659 
L 505.983585 325.24658 
L 506.576139 325.029333 
L 507.761247 325.101748 
L 508.353801 324.884501 
L 508.946356 325.101748 
L 509.53891 325.174164 
L 510.724018 324.667254 
L 511.316572 324.450006 
L 511.909126 322.784444 
L 512.50168 324.015512 
L 513.094234 323.146523 
L 513.686788 323.725849 
L 514.279342 321.843039 
L 514.871896 321.770623 
L 515.46445 321.48096 
L 516.649558 321.553376 
L 517.242112 321.046465 
L 517.834666 321.336128 
L 518.42722 321.046465 
L 519.019775 320.394723 
L 519.612329 321.046465 
L 520.797437 320.611971 
L 521.389991 320.829218 
L 521.982545 320.394723 
L 523.167653 320.611971 
L 523.760207 320.249892 
L 524.945315 320.394723 
L 525.537869 320.322308 
L 526.130423 320.10506 
L 526.722977 320.032644 
L 527.315531 320.10506 
L 527.908085 319.960229 
L 528.500639 320.032644 
L 529.093194 319.453318 
L 530.278302 319.453318 
L 530.870856 319.308487 
L 531.46341 319.525734 
L 532.055964 319.380902 
L 532.648518 319.018824 
L 533.241072 319.018824 
L 533.833626 319.308487 
L 534.42618 319.236071 
L 535.018734 319.018824 
L 536.203842 319.018824 
L 536.796396 318.801576 
L 537.38895 318.873992 
L 537.981504 318.729161 
L 539.166613 318.22225 
L 540.351721 318.149834 
L 540.944275 317.425677 
L 542.129383 317.353261 
L 542.721937 317.063598 
L 543.314491 317.353261 
L 543.907045 317.498092 
L 544.499599 317.425677 
L 545.092153 316.991182 
L 545.684707 317.498092 
L 546.277261 317.280845 
L 546.869815 317.425677 
L 547.462369 317.425677 
L 548.647478 317.208429 
L 549.240032 316.773935 
L 549.832586 314.891125 
L 550.42514 314.239383 
L 551.610248 314.022135 
L 552.202802 314.891125 
L 552.795356 314.094551 
L 553.980464 314.45663 
L 556.35068 313.804888 
L 558.128342 314.166967 
L 559.313451 313.877304 
L 559.906005 314.239383 
L 561.091113 313.804888 
L 561.683667 313.297978 
L 562.276221 313.225562 
L 562.868775 312.863483 
L 563.461329 311.487583 
L 564.053883 311.342752 
L 565.238991 310.039268 
L 565.831545 310.473763 
L 566.424099 310.618594 
L 567.016653 310.546178 
L 567.609207 311.125504 
L 568.201761 310.546178 
L 568.794316 310.980673 
L 569.979424 311.125504 
L 570.571978 310.908257 
L 571.164532 310.980673 
L 571.757086 310.184099 
L 572.34964 310.256515 
L 572.942194 310.111684 
L 573.534748 309.822021 
L 574.127302 309.242694 
L 574.719856 309.170279 
L 575.31241 308.446121 
L 575.904964 308.084042 
L 576.497518 308.518537 
L 577.090072 308.156458 
L 578.275181 308.228874 
L 578.867735 306.273648 
L 579.460289 305.766737 
L 580.052843 304.390838 
L 580.645397 303.739096 
L 581.237951 304.680501 
L 581.830505 304.028759 
L 582.423059 302.073533 
L 583.015613 303.304601 
L 583.608167 301.856286 
L 584.200721 302.725275 
L 584.793275 301.711454 
L 585.385829 295.049203 
L 585.978383 294.831956 
L 586.570937 291.718078 
L 587.756045 290.849088 
L 588.3486 287.880042 
L 588.941154 293.311225 
L 589.533708 283.96959 
L 590.126262 289.61802 
L 590.718816 281.000543 
L 591.31137 284.259253 
L 591.903924 274.845203 
L 592.496478 279.407396 
L 593.089032 270.355425 
L 593.681586 270.283009 
L 594.27414 265.6484 
L 594.866694 264.2725 
L 595.459248 263.403511 
L 596.051802 263.403511 
L 596.644356 259.275812 
L 597.23691 259.203396 
L 597.829464 256.596428 
L 598.422019 256.017102 
L 599.014573 255.944686 
L 599.607127 253.554966 
L 600.199681 253.627382 
L 600.792235 252.179066 
L 601.384789 252.179066 
L 601.977343 250.22384 
L 602.569897 247.689288 
L 603.162451 246.240973 
L 603.755005 246.820299 
L 604.347559 244.285747 
L 604.940113 244.647826 
L 605.532667 241.751195 
L 606.125221 240.882206 
L 606.717775 240.882206 
L 607.902883 236.247597 
L 608.495438 238.202822 
L 609.087992 237.913159 
L 609.680546 236.320012 
L 610.2731 235.088944 
L 610.865654 234.292371 
L 611.458208 234.292371 
L 612.050762 234.799281 
L 612.643316 232.988887 
L 613.23587 233.133718 
L 613.828424 231.323324 
L 614.420978 230.816414 
L 615.606086 226.616299 
L 616.19864 225.892141 
L 616.791194 224.516242 
L 617.383748 222.198937 
L 617.976303 222.416184 
L 618.568857 221.981689 
L 619.161411 220.895453 
L 619.753965 219.085059 
L 620.346519 219.085059 
L 620.939073 216.985001 
L 621.531627 212.567639 
L 622.124181 211.771066 
L 622.716735 208.150277 
L 623.309289 208.584772 
L 623.901843 206.05022 
L 624.494397 205.470894 
L 625.086951 204.601904 
L 626.272059 204.529489 
L 626.864613 203.877747 
L 627.457167 204.022578 
L 628.049722 200.9087 
L 628.642276 201.560442 
L 629.23483 197.070664 
L 629.827384 195.622349 
L 630.419938 194.680944 
L 631.012492 194.39128 
L 631.605046 191.49465 
L 632.1976 193.087797 
L 632.790154 182.58751 
L 633.382708 183.963409 
L 633.975262 183.166836 
L 634.567816 185.918635 
L 635.16037 182.370262 
L 635.752924 182.297847 
L 636.345478 185.484141 
L 636.938032 182.515094 
L 637.530586 184.687567 
L 638.123141 185.194477 
L 638.715695 184.180657 
L 639.308249 184.47032 
L 639.900803 183.166836 
L 640.493357 183.673746 
L 641.085911 180.994363 
L 641.678465 181.573689 
L 642.271019 179.908126 
L 642.863573 183.09442 
L 643.456127 184.108241 
L 644.048681 180.921947 
L 644.641235 179.546047 
L 645.233789 180.125373 
L 645.826343 178.459811 
L 646.418897 179.401216 
L 647.011451 178.387395 
L 647.604005 181.646105 
L 648.19656 177.880485 
L 648.789114 180.994363 
L 649.381668 177.880485 
L 649.974222 181.356442 
L 650.566776 176.649416 
L 651.15933 180.559868 
L 651.751884 175.635596 
L 652.344438 179.618463 
L 652.936992 174.839022 
L 653.529546 180.197789 
L 654.1221 174.839022 
L 654.714654 176.432169 
L 655.307208 179.473631 
L 655.899762 179.763295 
L 656.492316 174.766606 
L 657.08487 178.242563 
L 657.677425 174.18728 
L 658.269979 177.590821 
L 658.862533 173.825201 
L 659.455087 176.939079 
L 660.047641 174.476943 
L 660.640195 177.663237 
L 661.232749 172.159639 
L 661.825303 173.535538 
L 662.417857 172.883796 
L 663.010411 176.432169 
L 663.602965 172.738965 
L 664.195519 176.287338 
L 664.788073 170.276828 
L 665.380627 174.404527 
L 665.973181 172.449302 
L 666.565735 173.897617 
L 667.158289 171.869975 
L 667.750844 173.535538 
L 668.343398 174.549359 
L 668.935952 172.087223 
L 669.528506 172.449302 
L 670.12106 170.783739 
L 670.713614 170.204413 
L 671.306168 173.245875 
L 671.898722 169.697502 
L 672.491276 172.738965 
L 673.08383 169.04576 
L 673.676384 171.652728 
L 674.268938 168.394018 
L 674.861492 171.942391 
L 675.454046 168.176771 
L 676.0466 171.507897 
L 676.639154 167.742276 
L 677.231708 170.276828 
L 677.824263 166.728456 
L 678.416817 170.494076 
L 679.009371 167.307782 
L 679.601925 169.842334 
L 679.601925 169.842334 
" clip-path="url(#pb76dd176d9)" style="fill: none; stroke: #2dcc0d; stroke-opacity: 0.4; stroke-width: 1.5; stroke-linecap: square"/>
   </g>
   <g id="line2d_25">
    <path d="M 87.640419 43.911307 
L 88.232973 199.71384 
L 88.825527 255.582608 
L 89.418081 284.06011 
L 90.010635 301.175577 
L 90.603189 312.585889 
L 91.195743 320.736112 
L 91.788297 326.884987 
L 92.380852 331.63526 
L 93.56596 338.571082 
L 94.751068 343.395086 
L 95.936176 346.952001 
L 97.121284 349.689033 
L 98.306392 351.82698 
L 99.4915 353.55425 
L 100.676608 354.996868 
L 102.454271 356.727944 
L 104.231933 358.108358 
L 106.009595 359.236733 
L 108.379811 360.43461 
L 111.342581 361.597531 
L 112.52769 362.00011 
L 113.120244 361.352425 
L 116.083014 362.242172 
L 119.045784 362.956423 
L 121.416 363.408443 
L 126.156433 364.210654 
L 132.674528 365.048921 
L 139.192622 365.666924 
L 146.303271 366.19263 
L 146.895825 369.455684 
L 147.488379 369.599068 
L 150.451149 369.64831 
L 171.783096 369.664242 
L 172.37565 370.029217 
L 236.964042 369.97925 
L 280.813043 370.032114 
L 305.107759 370.023424 
L 305.700313 370.023424 
L 306.292867 368.410725 
L 344.808881 368.425932 
L 364.955719 368.391897 
L 365.548273 370.00532 
L 386.287665 369.974181 
L 408.804719 370.002424 
L 423.618571 369.959698 
L 424.803679 369.898145 
L 453.246274 369.939422 
L 484.651639 370.049494 
L 499.465491 370.003148 
L 504.205923 369.944491 
L 513.686788 369.905386 
L 517.242112 369.906111 
L 518.42722 369.196436 
L 562.276221 368.982809 
L 576.497518 369.02988 
L 577.682626 369.739554 
L 627.457167 370.056735 
L 664.195519 370.082081 
L 679.601925 370.043701 
L 679.601925 370.043701 
" clip-path="url(#pb76dd176d9)" style="fill: none; stroke: #7426d9; stroke-width: 2; stroke-linecap: square"/>
   </g>
   <g id="line2d_26">
    <path d="M 87.640419 271.007167 
L 88.232973 321.118881 
L 88.825527 338.377973 
L 89.418081 347.134247 
L 90.010635 352.359045 
L 90.603189 355.842244 
L 91.195743 358.319897 
L 91.788297 360.169086 
L 92.380852 361.607344 
L 93.56596 363.679605 
L 94.751068 365.075254 
L 95.936176 366.050453 
L 97.713838 367.074734 
L 99.4915 367.83395 
L 101.861716 368.530935 
L 104.231933 369.000689 
L 107.787257 369.440891 
L 111.935135 369.723657 
L 117.268122 369.880254 
L 125.563879 369.873635 
L 138.007514 369.575137 
L 146.303271 369.280438 
L 146.895825 370.239947 
L 149.858595 369.936525 
L 373.251476 344.658352 
L 461.542031 334.621526 
L 492.947396 330.403307 
L 519.612329 326.721689 
L 549.832586 321.698207 
L 567.609207 317.845688 
L 572.942194 316.627655 
L 578.867735 315.338654 
L 583.015613 314.178553 
L 585.385829 313.380532 
L 587.756045 312.265329 
L 591.31137 310.299965 
L 593.681586 308.483053 
L 596.644356 305.69577 
L 599.607127 302.591306 
L 602.569897 299.284802 
L 606.717775 294.124454 
L 614.420978 283.714687 
L 617.383748 279.290807 
L 620.939073 273.662653 
L 625.086951 266.433387 
L 629.23483 258.839145 
L 632.790154 251.735158 
L 639.900803 236.926856 
L 645.826343 225.031118 
L 649.974222 217.428186 
L 651.751884 214.371516 
L 655.307208 209.051853 
L 662.417857 199.684873 
L 666.565735 194.87357 
L 673.08383 187.929621 
L 676.0466 185.082957 
L 679.601925 181.950251 
L 679.601925 181.950251 
" clip-path="url(#pb76dd176d9)" style="fill: none; stroke: #2dcc0d; stroke-width: 2; stroke-linecap: square"/>
   </g>
   <g id="patch_3">
    <path d="M 58.042344 389.877656 
L 58.042344 27.436719 
" style="fill: none; stroke: #000000; stroke-width: 0.8; stroke-linejoin: miter; stroke-linecap: square"/>
   </g>
   <g id="patch_4">
    <path d="M 709.2 389.877656 
L 709.2 27.436719 
" style="fill: none; stroke: #000000; stroke-width: 0.8; stroke-linejoin: miter; stroke-linecap: square"/>
   </g>
   <g id="patch_5">
    <path d="M 58.042344 389.877656 
L 709.2 389.877656 
" style="fill: none; stroke: #000000; stroke-width: 0.8; stroke-linejoin: miter; stroke-linecap: square"/>
   </g>
   <g id="patch_6">
    <path d="M 58.042344 27.436719 
L 709.2 27.436719 
" style="fill: none; stroke: #000000; stroke-width: 0.8; stroke-linejoin: miter; stroke-linecap: square"/>
   </g>
   <g id="text_14">
    <g id="patch_7">
     <path d="M 546.410586 178.816414 
L 624.605898 178.816414 
Q 627.605898 178.816414 627.605898 175.816414 
L 627.605898 43.79493 
Q 627.605898 40.79493 624.605898 40.79493 
L 546.410586 40.79493 
Q 543.410586 40.79493 543.410586 43.79493 
L 543.410586 175.816414 
Q 543.410586 178.816414 546.410586 178.816414 
z
" style="fill: #ffffff; opacity: 0.85; stroke: #000000; stroke-linejoin: miter"/>
    </g>
    <!-- GLIBC: -->
    <g transform="translate(546.410586 52.393562) scale(0.1 -0.1)">
     <defs>
      <path id="DejaVuSans-2a" d="M 3809 666 
L 3809 1919 
L 2778 1919 
L 2778 2438 
L 4434 2438 
L 4434 434 
Q 4069 175 3628 42 
Q 3188 -91 2688 -91 
Q 1594 -91 976 548 
Q 359 1188 359 2328 
Q 359 3472 976 4111 
Q 1594 4750 2688 4750 
Q 3144 4750 3555 4637 
Q 3966 4525 4313 4306 
L 4313 3634 
Q 3963 3931 3569 4081 
Q 3175 4231 2741 4231 
Q 1884 4231 1454 3753 
Q 1025 3275 1025 2328 
Q 1025 1384 1454 906 
Q 1884 428 2741 428 
Q 3075 428 3337 486 
Q 3600 544 3809 666 
z
" transform="scale(0.015625)"/>
      <path id="DejaVuSans-25" d="M 1259 2228 
L 1259 519 
L 2272 519 
Q 2781 519 3026 730 
Q 3272 941 3272 1375 
Q 3272 1813 3026 2020 
Q 2781 2228 2272 2228 
L 1259 2228 
z
M 1259 4147 
L 1259 2741 
L 2194 2741 
Q 2656 2741 2882 2914 
Q 3109 3088 3109 3444 
Q 3109 3797 2882 3972 
Q 2656 4147 2194 4147 
L 1259 4147 
z
M 628 4666 
L 2241 4666 
Q 2963 4666 3353 4366 
Q 3744 4066 3744 3513 
Q 3744 3084 3544 2831 
Q 3344 2578 2956 2516 
Q 3422 2416 3680 2098 
Q 3938 1781 3938 1306 
Q 3938 681 3513 340 
Q 3088 0 2303 0 
L 628 0 
L 628 4666 
z
" transform="scale(0.015625)"/>
      <path id="DejaVuSans-26" d="M 4122 4306 
L 4122 3641 
Q 3803 3938 3442 4084 
Q 3081 4231 2675 4231 
Q 1875 4231 1450 3742 
Q 1025 3253 1025 2328 
Q 1025 1406 1450 917 
Q 1875 428 2675 428 
Q 3081 428 3442 575 
Q 3803 722 4122 1019 
L 4122 359 
Q 3791 134 3420 21 
Q 3050 -91 2638 -91 
Q 1578 -91 968 557 
Q 359 1206 359 2328 
Q 359 3453 968 4101 
Q 1578 4750 2638 4750 
Q 3056 4750 3426 4639 
Q 3797 4528 4122 4306 
z
" transform="scale(0.015625)"/>
      <path id="DejaVuSans-1d" d="M 750 794 
L 1409 794 
L 1409 0 
L 750 0 
L 750 794 
z
M 750 3309 
L 1409 3309 
L 1409 2516 
L 750 2516 
L 750 3309 
z
" transform="scale(0.015625)"/>
     </defs>
     <use xlink:href="#DejaVuSans-2a"/>
     <use xlink:href="#DejaVuSans-2f" transform="translate(77.484375 0)"/>
     <use xlink:href="#DejaVuSans-2c" transform="translate(133.203125 0)"/>
     <use xlink:href="#DejaVuSans-25" transform="translate(162.703125 0)"/>
     <use xlink:href="#DejaVuSans-26" transform="translate(229.5625 0)"/>
     <use xlink:href="#DejaVuSans-1d" transform="translate(299.390625 0)"/>
    </g>
    <!--  Avg: 86.9 ns -->
    <g transform="translate(546.410586 64.395516) scale(0.1 -0.1)">
     <defs>
      <path id="DejaVuSans-24" d="M 2188 4044 
L 1331 1722 
L 3047 1722 
L 2188 4044 
z
M 1831 4666 
L 2547 4666 
L 4325 0 
L 3669 0 
L 3244 1197 
L 1141 1197 
L 716 0 
L 50 0 
L 1831 4666 
z
" transform="scale(0.015625)"/>
      <path id="DejaVuSans-59" d="M 191 3500 
L 800 3500 
L 1894 563 
L 2988 3500 
L 3597 3500 
L 2284 0 
L 1503 0 
L 191 3500 
z
" transform="scale(0.015625)"/>
      <path id="DejaVuSans-4a" d="M 2906 1791 
Q 2906 2416 2648 2759 
Q 2391 3103 1925 3103 
Q 1463 3103 1205 2759 
Q 947 2416 947 1791 
Q 947 1169 1205 825 
Q 1463 481 1925 481 
Q 2391 481 2648 825 
Q 2906 1169 2906 1791 
z
M 3481 434 
Q 3481 -459 3084 -895 
Q 2688 -1331 1869 -1331 
Q 1566 -1331 1297 -1286 
Q 1028 -1241 775 -1147 
L 775 -588 
Q 1028 -725 1275 -790 
Q 1522 -856 1778 -856 
Q 2344 -856 2625 -561 
Q 2906 -266 2906 331 
L 2906 616 
Q 2728 306 2450 153 
Q 2172 0 1784 0 
Q 1141 0 747 490 
Q 353 981 353 1791 
Q 353 2603 747 3093 
Q 1141 3584 1784 3584 
Q 2172 3584 2450 3431 
Q 2728 3278 2906 2969 
L 2906 3500 
L 3481 3500 
L 3481 434 
z
" transform="scale(0.015625)"/>
      <path id="DejaVuSans-11" d="M 684 794 
L 1344 794 
L 1344 0 
L 684 0 
L 684 794 
z
" transform="scale(0.015625)"/>
      <path id="DejaVuSans-1c" d="M 703 97 
L 703 672 
Q 941 559 1184 500 
Q 1428 441 1663 441 
Q 2288 441 2617 861 
Q 2947 1281 2994 2138 
Q 2813 1869 2534 1725 
Q 2256 1581 1919 1581 
Q 1219 1581 811 2004 
Q 403 2428 403 3163 
Q 403 3881 828 4315 
Q 1253 4750 1959 4750 
Q 2769 4750 3195 4129 
Q 3622 3509 3622 2328 
Q 3622 1225 3098 567 
Q 2575 -91 1691 -91 
Q 1453 -91 1209 -44 
Q 966 3 703 97 
z
M 1959 2075 
Q 2384 2075 2632 2365 
Q 2881 2656 2881 3163 
Q 2881 3666 2632 3958 
Q 2384 4250 1959 4250 
Q 1534 4250 1286 3958 
Q 1038 3666 1038 3163 
Q 1038 2656 1286 2365 
Q 1534 2075 1959 2075 
z
" transform="scale(0.015625)"/>
     </defs>
     <use xlink:href="#DejaVuSans-3"/>
     <use xlink:href="#DejaVuSans-24" transform="translate(31.78125 0)"/>
     <use xlink:href="#DejaVuSans-59" transform="translate(94.328125 0)"/>
     <use xlink:href="#DejaVuSans-4a" transform="translate(153.515625 0)"/>
     <use xlink:href="#DejaVuSans-1d" transform="translate(217 0)"/>
     <use xlink:href="#DejaVuSans-3" transform="translate(250.6875 0)"/>
     <use xlink:href="#DejaVuSans-1b" transform="translate(282.46875 0)"/>
     <use xlink:href="#DejaVuSans-19" transform="translate(346.09375 0)"/>
     <use xlink:href="#DejaVuSans-11" transform="translate(409.71875 0)"/>
     <use xlink:href="#DejaVuSans-1c" transform="translate(441.5 0)"/>
     <use xlink:href="#DejaVuSans-3" transform="translate(505.125 0)"/>
     <use xlink:href="#DejaVuSans-51" transform="translate(536.90625 0)"/>
     <use xlink:href="#DejaVuSans-56" transform="translate(600.28125 0)"/>
    </g>
    <!--  P99: 161.1 ns -->
    <g transform="translate(546.410586 76.397469) scale(0.1 -0.1)">
     <defs>
      <path id="DejaVuSans-33" d="M 1259 4147 
L 1259 2394 
L 2053 2394 
Q 2494 2394 2734 2622 
Q 2975 2850 2975 3272 
Q 2975 3691 2734 3919 
Q 2494 4147 2053 4147 
L 1259 4147 
z
M 628 4666 
L 2053 4666 
Q 2838 4666 3239 4311 
Q 3641 3956 3641 3272 
Q 3641 2581 3239 2228 
Q 2838 1875 2053 1875 
L 1259 1875 
L 1259 0 
L 628 0 
L 628 4666 
z
" transform="scale(0.015625)"/>
     </defs>
     <use xlink:href="#DejaVuSans-3"/>
     <use xlink:href="#DejaVuSans-33" transform="translate(31.78125 0)"/>
     <use xlink:href="#DejaVuSans-1c" transform="translate(92.078125 0)"/>
     <use xlink:href="#DejaVuSans-1c" transform="translate(155.703125 0)"/>
     <use xlink:href="#DejaVuSans-1d" transform="translate(219.328125 0)"/>
     <use xlink:href="#DejaVuSans-3" transform="translate(253.015625 0)"/>
     <use xlink:href="#DejaVuSans-14" transform="translate(284.796875 0)"/>
     <use xlink:href="#DejaVuSans-19" transform="translate(348.421875 0)"/>
     <use xlink:href="#DejaVuSans-14" transform="translate(412.046875 0)"/>
     <use xlink:href="#DejaVuSans-11" transform="translate(475.671875 0)"/>
     <use xlink:href="#DejaVuSans-14" transform="translate(507.453125 0)"/>
     <use xlink:href="#DejaVuSans-3" transform="translate(571.078125 0)"/>
     <use xlink:href="#DejaVuSans-51" transform="translate(602.859375 0)"/>
     <use xlink:href="#DejaVuSans-56" transform="translate(666.234375 0)"/>
    </g>
    <!--  Worst: 4581.0 -->
    <g transform="translate(546.410586 88.399422) scale(0.1 -0.1)">
     <defs>
      <path id="DejaVuSans-3a" d="M 213 4666 
L 850 4666 
L 1831 722 
L 2809 4666 
L 3519 4666 
L 4500 722 
L 5478 4666 
L 6119 4666 
L 4947 0 
L 4153 0 
L 3169 4050 
L 2175 0 
L 1381 0 
L 213 4666 
z
" transform="scale(0.015625)"/>
      <path id="DejaVuSans-18" d="M 691 4666 
L 3169 4666 
L 3169 4134 
L 1269 4134 
L 1269 2991 
Q 1406 3038 1543 3061 
Q 1681 3084 1819 3084 
Q 2600 3084 3056 2656 
Q 3513 2228 3513 1497 
Q 3513 744 3044 326 
Q 2575 -91 1722 -91 
Q 1428 -91 1123 -41 
Q 819 9 494 109 
L 494 744 
Q 775 591 1075 516 
Q 1375 441 1709 441 
Q 2250 441 2565 725 
Q 2881 1009 2881 1497 
Q 2881 1984 2565 2268 
Q 2250 2553 1709 2553 
Q 1456 2553 1204 2497 
Q 953 2441 691 2322 
L 691 4666 
z
" transform="scale(0.015625)"/>
     </defs>
     <use xlink:href="#DejaVuSans-3"/>
     <use xlink:href="#DejaVuSans-3a" transform="translate(31.78125 0)"/>
     <use xlink:href="#DejaVuSans-52" transform="translate(124.796875 0)"/>
     <use xlink:href="#DejaVuSans-55" transform="translate(185.984375 0)"/>
     <use xlink:href="#DejaVuSans-56" transform="translate(227.09375 0)"/>
     <use xlink:href="#DejaVuSans-57" transform="translate(279.1875 0)"/>
     <use xlink:href="#DejaVuSans-1d" transform="translate(318.390625 0)"/>
     <use xlink:href="#DejaVuSans-3" transform="translate(352.078125 0)"/>
     <use xlink:href="#DejaVuSans-17" transform="translate(383.859375 0)"/>
     <use xlink:href="#DejaVuSans-18" transform="translate(447.484375 0)"/>
     <use xlink:href="#DejaVuSans-1b" transform="translate(511.109375 0)"/>
     <use xlink:href="#DejaVuSans-14" transform="translate(574.734375 0)"/>
     <use xlink:href="#DejaVuSans-11" transform="translate(638.359375 0)"/>
     <use xlink:href="#DejaVuSans-13" transform="translate(670.140625 0)"/>
    </g>
    <!--  Best: 73.0 -->
    <g transform="translate(546.410586 100.401375) scale(0.1 -0.1)">
     <defs>
      <path id="DejaVuSans-1a" d="M 525 4666 
L 3525 4666 
L 3525 4397 
L 1831 0 
L 1172 0 
L 2766 4134 
L 525 4134 
L 525 4666 
z
" transform="scale(0.015625)"/>
     </defs>
     <use xlink:href="#DejaVuSans-3"/>
     <use xlink:href="#DejaVuSans-25" transform="translate(31.78125 0)"/>
     <use xlink:href="#DejaVuSans-48" transform="translate(100.390625 0)"/>
     <use xlink:href="#DejaVuSans-56" transform="translate(161.921875 0)"/>
     <use xlink:href="#DejaVuSans-57" transform="translate(214.015625 0)"/>
     <use xlink:href="#DejaVuSans-1d" transform="translate(253.21875 0)"/>
     <use xlink:href="#DejaVuSans-3" transform="translate(286.90625 0)"/>
     <use xlink:href="#DejaVuSans-1a" transform="translate(318.6875 0)"/>
     <use xlink:href="#DejaVuSans-16" transform="translate(382.3125 0)"/>
     <use xlink:href="#DejaVuSans-11" transform="translate(445.9375 0)"/>
     <use xlink:href="#DejaVuSans-13" transform="translate(477.71875 0)"/>
    </g>
    <!--  -->
    <g transform="translate(546.410586 112.403328) scale(0.1 -0.1)"/>
    <!-- CUSTOM: -->
    <g transform="translate(546.410586 124.405281) scale(0.1 -0.1)">
     <defs>
      <path id="DejaVuSans-38" d="M 556 4666 
L 1191 4666 
L 1191 1831 
Q 1191 1081 1462 751 
Q 1734 422 2344 422 
Q 2950 422 3222 751 
Q 3494 1081 3494 1831 
L 3494 4666 
L 4128 4666 
L 4128 1753 
Q 4128 841 3676 375 
Q 3225 -91 2344 -91 
Q 1459 -91 1007 375 
Q 556 841 556 1753 
L 556 4666 
z
" transform="scale(0.015625)"/>
      <path id="DejaVuSans-36" d="M 3425 4513 
L 3425 3897 
Q 3066 4069 2747 4153 
Q 2428 4238 2131 4238 
Q 1616 4238 1336 4038 
Q 1056 3838 1056 3469 
Q 1056 3159 1242 3001 
Q 1428 2844 1947 2747 
L 2328 2669 
Q 3034 2534 3370 2195 
Q 3706 1856 3706 1288 
Q 3706 609 3251 259 
Q 2797 -91 1919 -91 
Q 1588 -91 1214 -16 
Q 841 59 441 206 
L 441 856 
Q 825 641 1194 531 
Q 1563 422 1919 422 
Q 2459 422 2753 634 
Q 3047 847 3047 1241 
Q 3047 1584 2836 1778 
Q 2625 1972 2144 2069 
L 1759 2144 
Q 1053 2284 737 2584 
Q 422 2884 422 3419 
Q 422 4038 858 4394 
Q 1294 4750 2059 4750 
Q 2388 4750 2728 4690 
Q 3069 4631 3425 4513 
z
" transform="scale(0.015625)"/>
      <path id="DejaVuSans-37" d="M -19 4666 
L 3928 4666 
L 3928 4134 
L 2272 4134 
L 2272 0 
L 1638 0 
L 1638 4134 
L -19 4134 
L -19 4666 
z
" transform="scale(0.015625)"/>
      <path id="DejaVuSans-32" d="M 2522 4238 
Q 1834 4238 1429 3725 
Q 1025 3213 1025 2328 
Q 1025 1447 1429 934 
Q 1834 422 2522 422 
Q 3209 422 3611 934 
Q 4013 1447 4013 2328 
Q 4013 3213 3611 3725 
Q 3209 4238 2522 4238 
z
M 2522 4750 
Q 3503 4750 4090 4092 
Q 4678 3434 4678 2328 
Q 4678 1225 4090 567 
Q 3503 -91 2522 -91 
Q 1538 -91 948 565 
Q 359 1222 359 2328 
Q 359 3434 948 4092 
Q 1538 4750 2522 4750 
z
" transform="scale(0.015625)"/>
      <path id="DejaVuSans-30" d="M 628 4666 
L 1569 4666 
L 2759 1491 
L 3956 4666 
L 4897 4666 
L 4897 0 
L 4281 0 
L 4281 4097 
L 3078 897 
L 2444 897 
L 1241 4097 
L 1241 0 
L 628 0 
L 628 4666 
z
" transform="scale(0.015625)"/>
     </defs>
     <use xlink:href="#DejaVuSans-26"/>
     <use xlink:href="#DejaVuSans-38" transform="translate(69.828125 0)"/>
     <use xlink:href="#DejaVuSans-36" transform="translate(143.015625 0)"/>
     <use xlink:href="#DejaVuSans-37" transform="translate(206.5 0)"/>
     <use xlink:href="#DejaVuSans-32" transform="translate(267.578125 0)"/>
     <use xlink:href="#DejaVuSans-30" transform="translate(346.296875 0)"/>
     <use xlink:href="#DejaVuSans-1d" transform="translate(432.578125 0)"/>
    </g>
    <!--  Avg: 733.1 ns -->
    <g transform="translate(546.410586 136.407234) scale(0.1 -0.1)">
     <use xlink:href="#DejaVuSans-3"/>
     <use xlink:href="#DejaVuSans-24" transform="translate(31.78125 0)"/>
     <use xlink:href="#DejaVuSans-59" transform="translate(94.328125 0)"/>
     <use xlink:href="#DejaVuSans-4a" transform="translate(153.515625 0)"/>
     <use xlink:href="#DejaVuSans-1d" transform="translate(217 0)"/>
     <use xlink:href="#DejaVuSans-3" transform="translate(250.6875 0)"/>
     <use xlink:href="#DejaVuSans-1a" transform="translate(282.46875 0)"/>
     <use xlink:href="#DejaVuSans-16" transform="translate(346.09375 0)"/>
     <use xlink:href="#DejaVuSans-16" transform="translate(409.71875 0)"/>
     <use xlink:href="#DejaVuSans-11" transform="translate(473.34375 0)"/>
     <use xlink:href="#DejaVuSans-14" transform="translate(505.125 0)"/>
     <use xlink:href="#DejaVuSans-3" transform="translate(568.75 0)"/>
     <use xlink:href="#DejaVuSans-51" transform="translate(600.53125 0)"/>
     <use xlink:href="#DejaVuSans-56" transform="translate(663.90625 0)"/>
    </g>
    <!--  P99: 2836.0 ns -->
    <g transform="translate(546.410586 148.409187) scale(0.1 -0.1)">
     <use xlink:href="#DejaVuSans-3"/>
     <use xlink:href="#DejaVuSans-33" transform="translate(31.78125 0)"/>
     <use xlink:href="#DejaVuSans-1c" transform="translate(92.078125 0)"/>
     <use xlink:href="#DejaVuSans-1c" transform="translate(155.703125 0)"/>
     <use xlink:href="#DejaVuSans-1d" transform="translate(219.328125 0)"/>
     <use xlink:href="#DejaVuSans-3" transform="translate(253.015625 0)"/>
     <use xlink:href="#DejaVuSans-15" transform="translate(284.796875 0)"/>
     <use xlink:href="#DejaVuSans-1b" transform="translate(348.421875 0)"/>
     <use xlink:href="#DejaVuSans-16" transform="translate(412.046875 0)"/>
     <use xlink:href="#DejaVuSans-19" transform="translate(475.671875 0)"/>
     <use xlink:href="#DejaVuSans-11" transform="translate(539.296875 0)"/>
     <use xlink:href="#DejaVuSans-13" transform="translate(571.078125 0)"/>
     <use xlink:href="#DejaVuSans-3" transform="translate(634.703125 0)"/>
     <use xlink:href="#DejaVuSans-51" transform="translate(666.484375 0)"/>
     <use xlink:href="#DejaVuSans-56" transform="translate(729.859375 0)"/>
    </g>
    <!--  Worst: 2885.0 -->
    <g transform="translate(546.410586 160.411141) scale(0.1 -0.1)">
     <use xlink:href="#DejaVuSans-3"/>
     <use xlink:href="#DejaVuSans-3a" transform="translate(31.78125 0)"/>
     <use xlink:href="#DejaVuSans-52" transform="translate(124.796875 0)"/>
     <use xlink:href="#DejaVuSans-55" transform="translate(185.984375 0)"/>
     <use xlink:href="#DejaVuSans-56" transform="translate(227.09375 0)"/>
     <use xlink:href="#DejaVuSans-57" transform="translate(279.1875 0)"/>
     <use xlink:href="#DejaVuSans-1d" transform="translate(318.390625 0)"/>
     <use xlink:href="#DejaVuSans-3" transform="translate(352.078125 0)"/>
     <use xlink:href="#DejaVuSans-15" transform="translate(383.859375 0)"/>
     <use xlink:href="#DejaVuSans-1b" transform="translate(447.484375 0)"/>
     <use xlink:href="#DejaVuSans-1b" transform="translate(511.109375 0)"/>
     <use xlink:href="#DejaVuSans-18" transform="translate(574.734375 0)"/>
     <use xlink:href="#DejaVuSans-11" transform="translate(638.359375 0)"/>
     <use xlink:href="#DejaVuSans-13" transform="translate(670.140625 0)"/>
    </g>
    <!--  Best: 31.0 -->
    <g transform="translate(546.410586 172.413094) scale(0.1 -0.1)">
     <use xlink:href="#DejaVuSans-3"/>
     <use xlink:href="#DejaVuSans-25" transform="translate(31.78125 0)"/>
     <use xlink:href="#DejaVuSans-48" transform="translate(100.390625 0)"/>
     <use xlink:href="#DejaVuSans-56" transform="translate(161.921875 0)"/>
     <use xlink:href="#DejaVuSans-57" transform="translate(214.015625 0)"/>
     <use xlink:href="#DejaVuSans-1d" transform="translate(253.21875 0)"/>
     <use xlink:href="#DejaVuSans-3" transform="translate(286.90625 0)"/>
     <use xlink:href="#DejaVuSans-16" transform="translate(318.6875 0)"/>
     <use xlink:href="#DejaVuSans-14" transform="translate(382.3125 0)"/>
     <use xlink:href="#DejaVuSans-11" transform="translate(445.9375 0)"/>
     <use xlink:href="#DejaVuSans-13" transform="translate(477.71875 0)"/>
    </g>
   </g>
   <g id="text_15">
    <!-- Zeroed Allocation Latency Evaluation (Calloc) -->
    <g transform="translate(203.887422 21.436719) scale(0.14 -0.14)">
     <defs>
      <path id="DejaVuSans-Bold-3d" d="M 359 4666 
L 4281 4666 
L 4281 3938 
L 1778 909 
L 4353 909 
L 4353 0 
L 288 0 
L 288 728 
L 2791 3756 
L 359 3756 
L 359 4666 
z
" transform="scale(0.015625)"/>
      <path id="DejaVuSans-Bold-48" d="M 4031 1759 
L 4031 1441 
L 1416 1441 
Q 1456 1047 1700 850 
Q 1944 653 2381 653 
Q 2734 653 3104 758 
Q 3475 863 3866 1075 
L 3866 213 
Q 3469 63 3072 -14 
Q 2675 -91 2278 -91 
Q 1328 -91 801 392 
Q 275 875 275 1747 
Q 275 2603 792 3093 
Q 1309 3584 2216 3584 
Q 3041 3584 3536 3087 
Q 4031 2591 4031 1759 
z
M 2881 2131 
Q 2881 2450 2695 2645 
Q 2509 2841 2209 2841 
Q 1884 2841 1681 2658 
Q 1478 2475 1428 2131 
L 2881 2131 
z
" transform="scale(0.015625)"/>
      <path id="DejaVuSans-Bold-55" d="M 3138 2547 
Q 2991 2616 2845 2648 
Q 2700 2681 2553 2681 
Q 2122 2681 1889 2404 
Q 1656 2128 1656 1613 
L 1656 0 
L 538 0 
L 538 3500 
L 1656 3500 
L 1656 2925 
Q 1872 3269 2151 3426 
Q 2431 3584 2822 3584 
Q 2878 3584 2943 3579 
Q 3009 3575 3134 3559 
L 3138 2547 
z
" transform="scale(0.015625)"/>
      <path id="DejaVuSans-Bold-52" d="M 2203 2784 
Q 1831 2784 1636 2517 
Q 1441 2250 1441 1747 
Q 1441 1244 1636 976 
Q 1831 709 2203 709 
Q 2569 709 2762 976 
Q 2956 1244 2956 1747 
Q 2956 2250 2762 2517 
Q 2569 2784 2203 2784 
z
M 2203 3584 
Q 3106 3584 3614 3096 
Q 4122 2609 4122 1747 
Q 4122 884 3614 396 
Q 3106 -91 2203 -91 
Q 1297 -91 786 396 
Q 275 884 275 1747 
Q 275 2609 786 3096 
Q 1297 3584 2203 3584 
z
" transform="scale(0.015625)"/>
      <path id="DejaVuSans-Bold-47" d="M 2919 2988 
L 2919 4863 
L 4044 4863 
L 4044 0 
L 2919 0 
L 2919 506 
Q 2688 197 2409 53 
Q 2131 -91 1766 -91 
Q 1119 -91 703 423 
Q 288 938 288 1747 
Q 288 2556 703 3070 
Q 1119 3584 1766 3584 
Q 2128 3584 2408 3439 
Q 2688 3294 2919 2988 
z
M 2181 722 
Q 2541 722 2730 984 
Q 2919 1247 2919 1747 
Q 2919 2247 2730 2509 
Q 2541 2772 2181 2772 
Q 1825 2772 1636 2509 
Q 1447 2247 1447 1747 
Q 1447 1247 1636 984 
Q 1825 722 2181 722 
z
" transform="scale(0.015625)"/>
      <path id="DejaVuSans-Bold-3" transform="scale(0.015625)"/>
      <path id="DejaVuSans-Bold-24" d="M 3419 850 
L 1538 850 
L 1241 0 
L 31 0 
L 1759 4666 
L 3194 4666 
L 4922 0 
L 3713 0 
L 3419 850 
z
M 1838 1716 
L 3116 1716 
L 2478 3572 
L 1838 1716 
z
" transform="scale(0.015625)"/>
      <path id="DejaVuSans-Bold-4f" d="M 538 4863 
L 1656 4863 
L 1656 0 
L 538 0 
L 538 4863 
z
" transform="scale(0.015625)"/>
      <path id="DejaVuSans-Bold-46" d="M 3366 3391 
L 3366 2478 
Q 3138 2634 2908 2709 
Q 2678 2784 2431 2784 
Q 1963 2784 1702 2511 
Q 1441 2238 1441 1747 
Q 1441 1256 1702 982 
Q 1963 709 2431 709 
Q 2694 709 2930 787 
Q 3166 866 3366 1019 
L 3366 103 
Q 3103 6 2833 -42 
Q 2563 -91 2291 -91 
Q 1344 -91 809 395 
Q 275 881 275 1747 
Q 275 2613 809 3098 
Q 1344 3584 2291 3584 
Q 2566 3584 2833 3536 
Q 3100 3488 3366 3391 
z
" transform="scale(0.015625)"/>
      <path id="DejaVuSans-Bold-44" d="M 2106 1575 
Q 1756 1575 1579 1456 
Q 1403 1338 1403 1106 
Q 1403 894 1545 773 
Q 1688 653 1941 653 
Q 2256 653 2472 879 
Q 2688 1106 2688 1447 
L 2688 1575 
L 2106 1575 
z
M 3816 1997 
L 3816 0 
L 2688 0 
L 2688 519 
Q 2463 200 2181 54 
Q 1900 -91 1497 -91 
Q 953 -91 614 226 
Q 275 544 275 1050 
Q 275 1666 698 1953 
Q 1122 2241 2028 2241 
L 2688 2241 
L 2688 2328 
Q 2688 2594 2478 2717 
Q 2269 2841 1825 2841 
Q 1466 2841 1156 2769 
Q 847 2697 581 2553 
L 581 3406 
Q 941 3494 1303 3539 
Q 1666 3584 2028 3584 
Q 2975 3584 3395 3211 
Q 3816 2838 3816 1997 
z
" transform="scale(0.015625)"/>
      <path id="DejaVuSans-Bold-57" d="M 1759 4494 
L 1759 3500 
L 2913 3500 
L 2913 2700 
L 1759 2700 
L 1759 1216 
Q 1759 972 1856 886 
Q 1953 800 2241 800 
L 2816 800 
L 2816 0 
L 1856 0 
Q 1194 0 917 276 
Q 641 553 641 1216 
L 641 2700 
L 84 2700 
L 84 3500 
L 641 3500 
L 641 4494 
L 1759 4494 
z
" transform="scale(0.015625)"/>
      <path id="DejaVuSans-Bold-4c" d="M 538 3500 
L 1656 3500 
L 1656 0 
L 538 0 
L 538 3500 
z
M 538 4863 
L 1656 4863 
L 1656 3950 
L 538 3950 
L 538 4863 
z
" transform="scale(0.015625)"/>
      <path id="DejaVuSans-Bold-51" d="M 4056 2131 
L 4056 0 
L 2931 0 
L 2931 347 
L 2931 1631 
Q 2931 2084 2911 2256 
Q 2891 2428 2841 2509 
Q 2775 2619 2662 2680 
Q 2550 2741 2406 2741 
Q 2056 2741 1856 2470 
Q 1656 2200 1656 1722 
L 1656 0 
L 538 0 
L 538 3500 
L 1656 3500 
L 1656 2988 
Q 1909 3294 2193 3439 
Q 2478 3584 2822 3584 
Q 3428 3584 3742 3212 
Q 4056 2841 4056 2131 
z
" transform="scale(0.015625)"/>
      <path id="DejaVuSans-Bold-2f" d="M 588 4666 
L 1791 4666 
L 1791 909 
L 3903 909 
L 3903 0 
L 588 0 
L 588 4666 
z
" transform="scale(0.015625)"/>
      <path id="DejaVuSans-Bold-5c" d="M 78 3500 
L 1197 3500 
L 2138 1125 
L 2938 3500 
L 4056 3500 
L 2584 -331 
Q 2363 -916 2067 -1148 
Q 1772 -1381 1288 -1381 
L 641 -1381 
L 641 -647 
L 991 -647 
Q 1275 -647 1404 -556 
Q 1534 -466 1606 -231 
L 1638 -134 
L 78 3500 
z
" transform="scale(0.015625)"/>
      <path id="DejaVuSans-Bold-28" d="M 588 4666 
L 3834 4666 
L 3834 3756 
L 1791 3756 
L 1791 2888 
L 3713 2888 
L 3713 1978 
L 1791 1978 
L 1791 909 
L 3903 909 
L 3903 0 
L 588 0 
L 588 4666 
z
" transform="scale(0.015625)"/>
      <path id="DejaVuSans-Bold-59" d="M 97 3500 
L 1216 3500 
L 2088 1081 
L 2956 3500 
L 4078 3500 
L 2700 0 
L 1472 0 
L 97 3500 
z
" transform="scale(0.015625)"/>
      <path id="DejaVuSans-Bold-58" d="M 500 1363 
L 500 3500 
L 1625 3500 
L 1625 3150 
Q 1625 2866 1622 2436 
Q 1619 2006 1619 1863 
Q 1619 1441 1641 1255 
Q 1663 1069 1716 984 
Q 1784 875 1895 815 
Q 2006 756 2150 756 
Q 2500 756 2700 1025 
Q 2900 1294 2900 1772 
L 2900 3500 
L 4019 3500 
L 4019 0 
L 2900 0 
L 2900 506 
Q 2647 200 2364 54 
Q 2081 -91 1741 -91 
Q 1134 -91 817 281 
Q 500 653 500 1363 
z
" transform="scale(0.015625)"/>
      <path id="DejaVuSans-Bold-b" d="M 2413 -844 
L 1484 -844 
Q 1006 -72 778 623 
Q 550 1319 550 2003 
Q 550 2688 779 3389 
Q 1009 4091 1484 4856 
L 2413 4856 
Q 2013 4116 1813 3408 
Q 1613 2700 1613 2009 
Q 1613 1319 1811 609 
Q 2009 -100 2413 -844 
z
" transform="scale(0.015625)"/>
      <path id="DejaVuSans-Bold-26" d="M 4288 256 
Q 3956 84 3597 -3 
Q 3238 -91 2847 -91 
Q 1681 -91 1000 561 
Q 319 1213 319 2328 
Q 319 3447 1000 4098 
Q 1681 4750 2847 4750 
Q 3238 4750 3597 4662 
Q 3956 4575 4288 4403 
L 4288 3438 
Q 3953 3666 3628 3772 
Q 3303 3878 2944 3878 
Q 2300 3878 1931 3465 
Q 1563 3053 1563 2328 
Q 1563 1606 1931 1193 
Q 2300 781 2944 781 
Q 3303 781 3628 887 
Q 3953 994 4288 1222 
L 4288 256 
z
" transform="scale(0.015625)"/>
      <path id="DejaVuSans-Bold-c" d="M 513 -844 
Q 913 -100 1113 609 
Q 1313 1319 1313 2009 
Q 1313 2700 1113 3408 
Q 913 4116 513 4856 
L 1441 4856 
Q 1916 4091 2145 3389 
Q 2375 2688 2375 2003 
Q 2375 1319 2147 623 
Q 1919 -72 1441 -844 
L 513 -844 
z
" transform="scale(0.015625)"/>
     </defs>
     <use xlink:href="#DejaVuSans-Bold-3d"/>
     <use xlink:href="#DejaVuSans-Bold-48" transform="translate(72.515625 0)"/>
     <use xlink:href="#DejaVuSans-Bold-55" transform="translate(140.34375 0)"/>
     <use xlink:href="#DejaVuSans-Bold-52" transform="translate(189.65625 0)"/>
     <use xlink:href="#DejaVuSans-Bold-48" transform="translate(258.359375 0)"/>
     <use xlink:href="#DejaVuSans-Bold-47" transform="translate(326.1875 0)"/>
     <use xlink:href="#DejaVuSans-Bold-3" transform="translate(397.765625 0)"/>
     <use xlink:href="#DejaVuSans-Bold-24" transform="translate(432.578125 0)"/>
     <use xlink:href="#DejaVuSans-Bold-4f" transform="translate(509.96875 0)"/>
     <use xlink:href="#DejaVuSans-Bold-4f" transform="translate(544.25 0)"/>
     <use xlink:href="#DejaVuSans-Bold-52" transform="translate(578.53125 0)"/>
     <use xlink:href="#DejaVuSans-Bold-46" transform="translate(647.234375 0)"/>
     <use xlink:href="#DejaVuSans-Bold-44" transform="translate(706.515625 0)"/>
     <use xlink:href="#DejaVuSans-Bold-57" transform="translate(774 0)"/>
     <use xlink:href="#DejaVuSans-Bold-4c" transform="translate(821.796875 0)"/>
     <use xlink:href="#DejaVuSans-Bold-52" transform="translate(856.078125 0)"/>
     <use xlink:href="#DejaVuSans-Bold-51" transform="translate(924.78125 0)"/>
     <use xlink:href="#DejaVuSans-Bold-3" transform="translate(995.96875 0)"/>
     <use xlink:href="#DejaVuSans-Bold-2f" transform="translate(1030.78125 0)"/>
     <use xlink:href="#DejaVuSans-Bold-44" transform="translate(1094.5 0)"/>
     <use xlink:href="#DejaVuSans-Bold-57" transform="translate(1161.984375 0)"/>
     <use xlink:href="#DejaVuSans-Bold-48" transform="translate(1209.78125 0)"/>
     <use xlink:href="#DejaVuSans-Bold-51" transform="translate(1277.609375 0)"/>
     <use xlink:href="#DejaVuSans-Bold-46" transform="translate(1348.796875 0)"/>
     <use xlink:href="#DejaVuSans-Bold-5c" transform="translate(1408.078125 0)"/>
     <use xlink:href="#DejaVuSans-Bold-3" transform="translate(1473.265625 0)"/>
     <use xlink:href="#DejaVuSans-Bold-28" transform="translate(1508.078125 0)"/>
     <use xlink:href="#DejaVuSans-Bold-59" transform="translate(1576.390625 0)"/>
     <use xlink:href="#DejaVuSans-Bold-44" transform="translate(1641.578125 0)"/>
     <use xlink:href="#DejaVuSans-Bold-4f" transform="translate(1709.0625 0)"/>
     <use xlink:href="#DejaVuSans-Bold-58" transform="translate(1743.34375 0)"/>
     <use xlink:href="#DejaVuSans-Bold-44" transform="translate(1814.53125 0)"/>
     <use xlink:href="#DejaVuSans-Bold-57" transform="translate(1882.015625 0)"/>
     <use xlink:href="#DejaVuSans-Bold-4c" transform="translate(1929.8125 0)"/>
     <use xlink:href="#DejaVuSans-Bold-52" transform="translate(1964.09375 0)"/>
     <use xlink:href="#DejaVuSans-Bold-51" transform="translate(2032.796875 0)"/>
     <use xlink:href="#DejaVuSans-Bold-3" transform="translate(2103.984375 0)"/>
     <use xlink:href="#DejaVuSans-Bold-b" transform="translate(2138.796875 0)"/>
     <use xlink:href="#DejaVuSans-Bold-26" transform="translate(2184.5 0)"/>
     <use xlink:href="#DejaVuSans-Bold-44" transform="translate(2257.890625 0)"/>
     <use xlink:href="#DejaVuSans-Bold-4f" transform="translate(2325.375 0)"/>
     <use xlink:href="#DejaVuSans-Bold-4f" transform="translate(2359.65625 0)"/>
     <use xlink:href="#DejaVuSans-Bold-52" transform="translate(2393.9375 0)"/>
     <use xlink:href="#DejaVuSans-Bold-46" transform="translate(2462.640625 0)"/>
     <use xlink:href="#DejaVuSans-Bold-c" transform="translate(2521.921875 0)"/>
    </g>
   </g>
   <g id="legend_1">
    <g id="patch_8">
     <path d="M 65.042344 95.439844 
L 165.897031 95.439844 
Q 167.897031 95.439844 167.897031 93.439844 
L 167.897031 34.436719 
Q 167.897031 32.436719 165.897031 32.436719 
L 65.042344 32.436719 
Q 63.042344 32.436719 63.042344 34.436719 
L 63.042344 93.439844 
Q 63.042344 95.439844 65.042344 95.439844 
z
" style="fill: #ffffff; opacity: 0.8; stroke: #cccccc; stroke-linejoin: miter"/>
    </g>
    <g id="line2d_27">
     <path d="M 67.042344 40.535156 
L 77.042344 40.535156 
L 87.042344 40.535156 
" style="fill: none; stroke: #7426d9; stroke-opacity: 0.4; stroke-width: 1.5; stroke-linecap: square"/>
    </g>
    <g id="text_16">
     <!-- Glibc raw -->
     <g transform="translate(95.042344 44.035156) scale(0.1 -0.1)">
      <defs>
       <path id="DejaVuSans-4f" d="M 603 4863 
L 1178 4863 
L 1178 0 
L 603 0 
L 603 4863 
z
" transform="scale(0.015625)"/>
       <path id="DejaVuSans-45" d="M 3116 1747 
Q 3116 2381 2855 2742 
Q 2594 3103 2138 3103 
Q 1681 3103 1420 2742 
Q 1159 2381 1159 1747 
Q 1159 1113 1420 752 
Q 1681 391 2138 391 
Q 2594 391 2855 752 
Q 3116 1113 3116 1747 
z
M 1159 2969 
Q 1341 3281 1617 3432 
Q 1894 3584 2278 3584 
Q 2916 3584 3314 3078 
Q 3713 2572 3713 1747 
Q 3713 922 3314 415 
Q 2916 -91 2278 -91 
Q 1894 -91 1617 61 
Q 1341 213 1159 525 
L 1159 0 
L 581 0 
L 581 4863 
L 1159 4863 
L 1159 2969 
z
" transform="scale(0.015625)"/>
       <path id="DejaVuSans-5a" d="M 269 3500 
L 844 3500 
L 1563 769 
L 2278 3500 
L 2956 3500 
L 3675 769 
L 4391 3500 
L 4966 3500 
L 4050 0 
L 3372 0 
L 2619 2869 
L 1863 0 
L 1184 0 
L 269 3500 
z
" transform="scale(0.015625)"/>
      </defs>
      <use xlink:href="#DejaVuSans-2a"/>
      <use xlink:href="#DejaVuSans-4f" transform="translate(77.484375 0)"/>
      <use xlink:href="#DejaVuSans-4c" transform="translate(105.265625 0)"/>
      <use xlink:href="#DejaVuSans-45" transform="translate(133.046875 0)"/>
      <use xlink:href="#DejaVuSans-46" transform="translate(196.53125 0)"/>
      <use xlink:href="#DejaVuSans-3" transform="translate(251.515625 0)"/>
      <use xlink:href="#DejaVuSans-55" transform="translate(283.296875 0)"/>
      <use xlink:href="#DejaVuSans-44" transform="translate(324.40625 0)"/>
      <use xlink:href="#DejaVuSans-5a" transform="translate(385.6875 0)"/>
     </g>
    </g>
    <g id="line2d_28">
     <path d="M 67.042344 55.535937 
L 77.042344 55.535937 
L 87.042344 55.535937 
" style="fill: none; stroke: #2dcc0d; stroke-opacity: 0.4; stroke-width: 1.5; stroke-linecap: square"/>
    </g>
    <g id="text_17">
     <!-- Custom raw -->
     <g transform="translate(95.042344 59.035937) scale(0.1 -0.1)">
      <defs>
       <path id="DejaVuSans-58" d="M 544 1381 
L 544 3500 
L 1119 3500 
L 1119 1403 
Q 1119 906 1312 657 
Q 1506 409 1894 409 
Q 2359 409 2629 706 
Q 2900 1003 2900 1516 
L 2900 3500 
L 3475 3500 
L 3475 0 
L 2900 0 
L 2900 538 
Q 2691 219 2414 64 
Q 2138 -91 1772 -91 
Q 1169 -91 856 284 
Q 544 659 544 1381 
z
M 1991 3584 
L 1991 3584 
z
" transform="scale(0.015625)"/>
       <path id="DejaVuSans-50" d="M 3328 2828 
Q 3544 3216 3844 3400 
Q 4144 3584 4550 3584 
Q 5097 3584 5394 3201 
Q 5691 2819 5691 2113 
L 5691 0 
L 5113 0 
L 5113 2094 
Q 5113 2597 4934 2840 
Q 4756 3084 4391 3084 
Q 3944 3084 3684 2787 
Q 3425 2491 3425 1978 
L 3425 0 
L 2847 0 
L 2847 2094 
Q 2847 2600 2669 2842 
Q 2491 3084 2119 3084 
Q 1678 3084 1418 2786 
Q 1159 2488 1159 1978 
L 1159 0 
L 581 0 
L 581 3500 
L 1159 3500 
L 1159 2956 
Q 1356 3278 1631 3431 
Q 1906 3584 2284 3584 
Q 2666 3584 2933 3390 
Q 3200 3197 3328 2828 
z
" transform="scale(0.015625)"/>
      </defs>
      <use xlink:href="#DejaVuSans-26"/>
      <use xlink:href="#DejaVuSans-58" transform="translate(69.828125 0)"/>
      <use xlink:href="#DejaVuSans-56" transform="translate(133.203125 0)"/>
      <use xlink:href="#DejaVuSans-57" transform="translate(185.296875 0)"/>
      <use xlink:href="#DejaVuSans-52" transform="translate(224.5 0)"/>
      <use xlink:href="#DejaVuSans-50" transform="translate(285.6875 0)"/>
      <use xlink:href="#DejaVuSans-3" transform="translate(383.09375 0)"/>
      <use xlink:href="#DejaVuSans-55" transform="translate(414.875 0)"/>
      <use xlink:href="#DejaVuSans-44" transform="translate(455.984375 0)"/>
      <use xlink:href="#DejaVuSans-5a" transform="translate(517.265625 0)"/>
     </g>
    </g>
    <g id="line2d_29">
     <path d="M 67.042344 70.536719 
L 77.042344 70.536719 
L 87.042344 70.536719 
" style="fill: none; stroke: #7426d9; stroke-width: 2; stroke-linecap: square"/>
    </g>
    <g id="text_18">
     <!-- Glibc Trend -->
     <g transform="translate(95.042344 74.036719) scale(0.1 -0.1)">
      <use xlink:href="#DejaVuSans-2a"/>
      <use xlink:href="#DejaVuSans-4f" transform="translate(77.484375 0)"/>
      <use xlink:href="#DejaVuSans-4c" transform="translate(105.265625 0)"/>
      <use xlink:href="#DejaVuSans-45" transform="translate(133.046875 0)"/>
      <use xlink:href="#DejaVuSans-46" transform="translate(196.53125 0)"/>
      <use xlink:href="#DejaVuSans-3" transform="translate(251.515625 0)"/>
      <use xlink:href="#DejaVuSans-37" transform="translate(283.296875 0)"/>
      <use xlink:href="#DejaVuSans-55" transform="translate(329.671875 0)"/>
      <use xlink:href="#DejaVuSans-48" transform="translate(368.578125 0)"/>
      <use xlink:href="#DejaVuSans-51" transform="translate(430.109375 0)"/>
      <use xlink:href="#DejaVuSans-47" transform="translate(493.484375 0)"/>
     </g>
    </g>
    <g id="line2d_30">
     <path d="M 67.042344 85.5375 
L 77.042344 85.5375 
L 87.042344 85.5375 
" style="fill: none; stroke: #2dcc0d; stroke-width: 2; stroke-linecap: square"/>
    </g>
    <g id="text_19">
     <!-- Custom Trend -->
     <g transform="translate(95.042344 89.0375) scale(0.1 -0.1)">
      <use xlink:href="#DejaVuSans-26"/>
      <use xlink:href="#DejaVuSans-58" transform="translate(69.828125 0)"/>
      <use xlink:href="#DejaVuSans-56" transform="translate(133.203125 0)"/>
      <use xlink:href="#DejaVuSans-57" transform="translate(185.296875 0)"/>
      <use xlink:href="#DejaVuSans-52" transform="translate(224.5 0)"/>
      <use xlink:href="#DejaVuSans-50" transform="translate(285.6875 0)"/>
      <use xlink:href="#DejaVuSans-3" transform="translate(383.09375 0)"/>
      <use xlink:href="#DejaVuSans-37" transform="translate(414.875 0)"/>
      <use xlink:href="#DejaVuSans-55" transform="translate(461.25 0)"/>
      <use xlink:href="#DejaVuSans-48" transform="translate(500.15625 0)"/>
      <use xlink:href="#DejaVuSans-51" transform="translate(561.6875 0)"/>
      <use xlink:href="#DejaVuSans-47" transform="translate(625.0625 0)"/>
     </g>
    </g>
   </g>
  </g>
 </g>
 <defs>
  <clipPath id="pb76dd176d9">
   <rect x="58.042344" y="27.436719" width="651.157656" height="362.440938"/>
  </clipPath>
 </defs>
</svg>
