<?xml version="1.0" encoding="utf-8" standalone="no"?>
<!DOCTYPE svg PUBLIC "-//W3C//DTD SVG 1.1//EN"
  "http://www.w3.org/Graphics/SVG/1.1/DTD/svg11.dtd">
<svg xmlns:xlink="http://www.w3.org/1999/xlink" width="720pt" height="432pt" viewBox="0 0 720 432" xmlns="http://www.w3.org/2000/svg" version="1.1">
 <metadata>
  <rdf:RDF xmlns:dc="http://purl.org/dc/elements/1.1/" xmlns:cc="http://creativecommons.org/ns#" xmlns:rdf="http://www.w3.org/1999/02/22-rdf-syntax-ns#">
   <cc:Work>
    <dc:type rdf:resource="http://purl.org/dc/dcmitype/StillImage"/>
    <dc:date>2026-06-16T12:10:00.248051</dc:date>
    <dc:format>image/svg+xml</dc:format>
    <dc:creator>
     <cc:Agent>
      <dc:title>Matplotlib v3.11.0, https://matplotlib.org/</dc:title>
     </cc:Agent>
    </dc:creator>
   </cc:Work>
  </rdf:RDF>
 </metadata>
 <defs>
  <style type="text/css">*{stroke-linejoin: round; stroke-linecap: butt}</style>
 </defs>
 <g id="figure_1">
  <g id="patch_1">
   <path d="M 0 432 
L 720 432 
L 720 0 
L 0 0 
z
" style="fill: #ffffff"/>
  </g>
  <g id="axes_1">
   <g id="patch_2">
    <path d="M 64.522344 389.877656 
L 709.2 389.877656 
L 709.2 27.436719 
L 64.522344 27.436719 
z
" style="fill: #ffffff"/>
   </g>
   <g id="matplotlib.axis_1">
    <g id="xtick_1">
     <g id="line2d_1">
      <path d="M 93.825874 389.877656 
L 93.825874 27.436719 
" clip-path="url(#pa881156b21)" style="fill: none; stroke-dasharray: 2.96,1.28; stroke-dashoffset: 0; stroke: #b0b0b0; stroke-opacity: 0.5; stroke-width: 0.8"/>
     </g>
     <g id="line2d_2">
      <defs>
       <path id="me805ee91b4" d="M 0 0 
L 0 3.5 
" style="stroke: #000000; stroke-width: 0.8"/>
      </defs>
      <g>
       <use xlink:href="#me805ee91b4" x="93.825874" y="389.877656" style="stroke: #000000; stroke-width: 0.8"/>
      </g>
     </g>
     <g id="text_1">
      <!-- 0 -->
      <g transform="translate(90.644624 404.475312) scale(0.1 -0.1)">
       <defs>
        <path id="DejaVuSans-13" d="M 2034 4250 
Q 1547 4250 1301 3770 
Q 1056 3291 1056 2328 
Q 1056 1369 1301 889 
Q 1547 409 2034 409 
Q 2525 409 2770 889 
Q 3016 1369 3016 2328 
Q 3016 3291 2770 3770 
Q 2525 4250 2034 4250 
z
M 2034 4750 
Q 2819 4750 3233 4129 
Q 3647 3509 3647 2328 
Q 3647 1150 3233 529 
Q 2819 -91 2034 -91 
Q 1250 -91 836 529 
Q 422 1150 422 2328 
Q 422 3509 836 4129 
Q 1250 4750 2034 4750 
z
" transform="scale(0.015625)"/>
       </defs>
       <use xlink:href="#DejaVuSans-13"/>
      </g>
     </g>
    </g>
    <g id="xtick_2">
     <g id="line2d_3">
      <path d="M 211.157324 389.877656 
L 211.157324 27.436719 
" clip-path="url(#pa881156b21)" style="fill: none; stroke-dasharray: 2.96,1.28; stroke-dashoffset: 0; stroke: #b0b0b0; stroke-opacity: 0.5; stroke-width: 0.8"/>
     </g>
     <g id="line2d_4">
      <g>
       <use xlink:href="#me805ee91b4" x="211.157324" y="389.877656" style="stroke: #000000; stroke-width: 0.8"/>
      </g>
     </g>
     <g id="text_2">
      <!-- 200 -->
      <g transform="translate(201.613574 404.475312) scale(0.1 -0.1)">
       <defs>
        <path id="DejaVuSans-15" d="M 1228 531 
L 3431 531 
L 3431 0 
L 469 0 
L 469 531 
Q 828 903 1448 1529 
Q 2069 2156 2228 2338 
Q 2531 2678 2651 2914 
Q 2772 3150 2772 3378 
Q 2772 3750 2511 3984 
Q 2250 4219 1831 4219 
Q 1534 4219 1204 4116 
Q 875 4013 500 3803 
L 500 4441 
Q 881 4594 1212 4672 
Q 1544 4750 1819 4750 
Q 2544 4750 2975 4387 
Q 3406 4025 3406 3419 
Q 3406 3131 3298 2873 
Q 3191 2616 2906 2266 
Q 2828 2175 2409 1742 
Q 1991 1309 1228 531 
z
" transform="scale(0.015625)"/>
       </defs>
       <use xlink:href="#DejaVuSans-15"/>
       <use xlink:href="#DejaVuSans-13" transform="translate(63.625 0)"/>
       <use xlink:href="#DejaVuSans-13" transform="translate(127.25 0)"/>
      </g>
     </g>
    </g>
    <g id="xtick_3">
     <g id="line2d_5">
      <path d="M 328.488775 389.877656 
L 328.488775 27.436719 
" clip-path="url(#pa881156b21)" style="fill: none; stroke-dasharray: 2.96,1.28; stroke-dashoffset: 0; stroke: #b0b0b0; stroke-opacity: 0.5; stroke-width: 0.8"/>
     </g>
     <g id="line2d_6">
      <g>
       <use xlink:href="#me805ee91b4" x="328.488775" y="389.877656" style="stroke: #000000; stroke-width: 0.8"/>
      </g>
     </g>
     <g id="text_3">
      <!-- 400 -->
      <g transform="translate(318.945025 404.475312) scale(0.1 -0.1)">
       <defs>
        <path id="DejaVuSans-17" d="M 2419 4116 
L 825 1625 
L 2419 1625 
L 2419 4116 
z
M 2253 4666 
L 3047 4666 
L 3047 1625 
L 3713 1625 
L 3713 1100 
L 3047 1100 
L 3047 0 
L 2419 0 
L 2419 1100 
L 313 1100 
L 313 1709 
L 2253 4666 
z
" transform="scale(0.015625)"/>
       </defs>
       <use xlink:href="#DejaVuSans-17"/>
       <use xlink:href="#DejaVuSans-13" transform="translate(63.625 0)"/>
       <use xlink:href="#DejaVuSans-13" transform="translate(127.25 0)"/>
      </g>
     </g>
    </g>
    <g id="xtick_4">
     <g id="line2d_7">
      <path d="M 445.820226 389.877656 
L 445.820226 27.436719 
" clip-path="url(#pa881156b21)" style="fill: none; stroke-dasharray: 2.96,1.28; stroke-dashoffset: 0; stroke: #b0b0b0; stroke-opacity: 0.5; stroke-width: 0.8"/>
     </g>
     <g id="line2d_8">
      <g>
       <use xlink:href="#me805ee91b4" x="445.820226" y="389.877656" style="stroke: #000000; stroke-width: 0.8"/>
      </g>
     </g>
     <g id="text_4">
      <!-- 600 -->
      <g transform="translate(436.276476 404.475312) scale(0.1 -0.1)">
       <defs>
        <path id="DejaVuSans-19" d="M 2113 2584 
Q 1688 2584 1439 2293 
Q 1191 2003 1191 1497 
Q 1191 994 1439 701 
Q 1688 409 2113 409 
Q 2538 409 2786 701 
Q 3034 994 3034 1497 
Q 3034 2003 2786 2293 
Q 2538 2584 2113 2584 
z
M 3366 4563 
L 3366 3988 
Q 3128 4100 2886 4159 
Q 2644 4219 2406 4219 
Q 1781 4219 1451 3797 
Q 1122 3375 1075 2522 
Q 1259 2794 1537 2939 
Q 1816 3084 2150 3084 
Q 2853 3084 3261 2657 
Q 3669 2231 3669 1497 
Q 3669 778 3244 343 
Q 2819 -91 2113 -91 
Q 1303 -91 875 529 
Q 447 1150 447 2328 
Q 447 3434 972 4092 
Q 1497 4750 2381 4750 
Q 2619 4750 2861 4703 
Q 3103 4656 3366 4563 
z
" transform="scale(0.015625)"/>
       </defs>
       <use xlink:href="#DejaVuSans-19"/>
       <use xlink:href="#DejaVuSans-13" transform="translate(63.625 0)"/>
       <use xlink:href="#DejaVuSans-13" transform="translate(127.25 0)"/>
      </g>
     </g>
    </g>
    <g id="xtick_5">
     <g id="line2d_9">
      <path d="M 563.151677 389.877656 
L 563.151677 27.436719 
" clip-path="url(#pa881156b21)" style="fill: none; stroke-dasharray: 2.96,1.28; stroke-dashoffset: 0; stroke: #b0b0b0; stroke-opacity: 0.5; stroke-width: 0.8"/>
     </g>
     <g id="line2d_10">
      <g>
       <use xlink:href="#me805ee91b4" x="563.151677" y="389.877656" style="stroke: #000000; stroke-width: 0.8"/>
      </g>
     </g>
     <g id="text_5">
      <!-- 800 -->
      <g transform="translate(553.607927 404.475312) scale(0.1 -0.1)">
       <defs>
        <path id="DejaVuSans-1b" d="M 2034 2216 
Q 1584 2216 1326 1975 
Q 1069 1734 1069 1313 
Q 1069 891 1326 650 
Q 1584 409 2034 409 
Q 2484 409 2743 651 
Q 3003 894 3003 1313 
Q 3003 1734 2745 1975 
Q 2488 2216 2034 2216 
z
M 1403 2484 
Q 997 2584 770 2862 
Q 544 3141 544 3541 
Q 544 4100 942 4425 
Q 1341 4750 2034 4750 
Q 2731 4750 3128 4425 
Q 3525 4100 3525 3541 
Q 3525 3141 3298 2862 
Q 3072 2584 2669 2484 
Q 3125 2378 3379 2068 
Q 3634 1759 3634 1313 
Q 3634 634 3220 271 
Q 2806 -91 2034 -91 
Q 1263 -91 848 271 
Q 434 634 434 1313 
Q 434 1759 690 2068 
Q 947 2378 1403 2484 
z
M 1172 3481 
Q 1172 3119 1398 2916 
Q 1625 2713 2034 2713 
Q 2441 2713 2670 2916 
Q 2900 3119 2900 3481 
Q 2900 3844 2670 4047 
Q 2441 4250 2034 4250 
Q 1625 4250 1398 4047 
Q 1172 3844 1172 3481 
z
" transform="scale(0.015625)"/>
       </defs>
       <use xlink:href="#DejaVuSans-1b"/>
       <use xlink:href="#DejaVuSans-13" transform="translate(63.625 0)"/>
       <use xlink:href="#DejaVuSans-13" transform="translate(127.25 0)"/>
      </g>
     </g>
    </g>
    <g id="xtick_6">
     <g id="line2d_11">
      <path d="M 680.483127 389.877656 
L 680.483127 27.436719 
" clip-path="url(#pa881156b21)" style="fill: none; stroke-dasharray: 2.96,1.28; stroke-dashoffset: 0; stroke: #b0b0b0; stroke-opacity: 0.5; stroke-width: 0.8"/>
     </g>
     <g id="line2d_12">
      <g>
       <use xlink:href="#me805ee91b4" x="680.483127" y="389.877656" style="stroke: #000000; stroke-width: 0.8"/>
      </g>
     </g>
     <g id="text_6">
      <!-- 1000 -->
      <g transform="translate(667.758127 404.475312) scale(0.1 -0.1)">
       <defs>
        <path id="DejaVuSans-14" d="M 794 531 
L 1825 531 
L 1825 4091 
L 703 3866 
L 703 4441 
L 1819 4666 
L 2450 4666 
L 2450 531 
L 3481 531 
L 3481 0 
L 794 0 
L 794 531 
z
" transform="scale(0.015625)"/>
       </defs>
       <use xlink:href="#DejaVuSans-14"/>
       <use xlink:href="#DejaVuSans-13" transform="translate(63.625 0)"/>
       <use xlink:href="#DejaVuSans-13" transform="translate(127.25 0)"/>
       <use xlink:href="#DejaVuSans-13" transform="translate(190.875 0)"/>
      </g>
     </g>
    </g>
    <g id="text_7">
     <!-- Iteration Index -->
     <g transform="translate(350.297109 418.476094) scale(0.1 -0.1)">
      <defs>
       <path id="DejaVuSans-2c" d="M 628 4666 
L 1259 4666 
L 1259 0 
L 628 0 
L 628 4666 
z
" transform="scale(0.015625)"/>
       <path id="DejaVuSans-57" d="M 1172 4494 
L 1172 3500 
L 2356 3500 
L 2356 3053 
L 1172 3053 
L 1172 1153 
Q 1172 725 1289 603 
Q 1406 481 1766 481 
L 2356 481 
L 2356 0 
L 1766 0 
Q 1100 0 847 248 
Q 594 497 594 1153 
L 594 3053 
L 172 3053 
L 172 3500 
L 594 3500 
L 594 4494 
L 1172 4494 
z
" transform="scale(0.015625)"/>
       <path id="DejaVuSans-48" d="M 3597 1894 
L 3597 1613 
L 953 1613 
Q 991 1019 1311 708 
Q 1631 397 2203 397 
Q 2534 397 2845 478 
Q 3156 559 3463 722 
L 3463 178 
Q 3153 47 2828 -22 
Q 2503 -91 2169 -91 
Q 1331 -91 842 396 
Q 353 884 353 1716 
Q 353 2575 817 3079 
Q 1281 3584 2069 3584 
Q 2775 3584 3186 3129 
Q 3597 2675 3597 1894 
z
M 3022 2063 
Q 3016 2534 2758 2815 
Q 2500 3097 2075 3097 
Q 1594 3097 1305 2825 
Q 1016 2553 972 2059 
L 3022 2063 
z
" transform="scale(0.015625)"/>
       <path id="DejaVuSans-55" d="M 2631 2963 
Q 2534 3019 2420 3045 
Q 2306 3072 2169 3072 
Q 1681 3072 1420 2755 
Q 1159 2438 1159 1844 
L 1159 0 
L 581 0 
L 581 3500 
L 1159 3500 
L 1159 2956 
Q 1341 3275 1631 3429 
Q 1922 3584 2338 3584 
Q 2397 3584 2469 3576 
Q 2541 3569 2628 3553 
L 2631 2963 
z
" transform="scale(0.015625)"/>
       <path id="DejaVuSans-44" d="M 2194 1759 
Q 1497 1759 1228 1600 
Q 959 1441 959 1056 
Q 959 750 1161 570 
Q 1363 391 1709 391 
Q 2188 391 2477 730 
Q 2766 1069 2766 1631 
L 2766 1759 
L 2194 1759 
z
M 3341 1997 
L 3341 0 
L 2766 0 
L 2766 531 
Q 2569 213 2275 61 
Q 1981 -91 1556 -91 
Q 1019 -91 701 211 
Q 384 513 384 1019 
Q 384 1609 779 1909 
Q 1175 2209 1959 2209 
L 2766 2209 
L 2766 2266 
Q 2766 2663 2505 2880 
Q 2244 3097 1772 3097 
Q 1472 3097 1187 3025 
Q 903 2953 641 2809 
L 641 3341 
Q 956 3463 1253 3523 
Q 1550 3584 1831 3584 
Q 2591 3584 2966 3190 
Q 3341 2797 3341 1997 
z
" transform="scale(0.015625)"/>
       <path id="DejaVuSans-4c" d="M 603 3500 
L 1178 3500 
L 1178 0 
L 603 0 
L 603 3500 
z
M 603 4863 
L 1178 4863 
L 1178 4134 
L 603 4134 
L 603 4863 
z
" transform="scale(0.015625)"/>
       <path id="DejaVuSans-52" d="M 1959 3097 
Q 1497 3097 1228 2736 
Q 959 2375 959 1747 
Q 959 1119 1226 758 
Q 1494 397 1959 397 
Q 2419 397 2687 759 
Q 2956 1122 2956 1747 
Q 2956 2369 2687 2733 
Q 2419 3097 1959 3097 
z
M 1959 3584 
Q 2709 3584 3137 3096 
Q 3566 2609 3566 1747 
Q 3566 888 3137 398 
Q 2709 -91 1959 -91 
Q 1206 -91 779 398 
Q 353 888 353 1747 
Q 353 2609 779 3096 
Q 1206 3584 1959 3584 
z
" transform="scale(0.015625)"/>
       <path id="DejaVuSans-51" d="M 3513 2113 
L 3513 0 
L 2938 0 
L 2938 2094 
Q 2938 2591 2744 2837 
Q 2550 3084 2163 3084 
Q 1697 3084 1428 2787 
Q 1159 2491 1159 1978 
L 1159 0 
L 581 0 
L 581 3500 
L 1159 3500 
L 1159 2956 
Q 1366 3272 1645 3428 
Q 1925 3584 2291 3584 
Q 2894 3584 3203 3211 
Q 3513 2838 3513 2113 
z
" transform="scale(0.015625)"/>
       <path id="DejaVuSans-3" transform="scale(0.015625)"/>
       <path id="DejaVuSans-47" d="M 2906 2969 
L 2906 4863 
L 3481 4863 
L 3481 0 
L 2906 0 
L 2906 525 
Q 2725 213 2448 61 
Q 2172 -91 1784 -91 
Q 1150 -91 751 415 
Q 353 922 353 1747 
Q 353 2572 751 3078 
Q 1150 3584 1784 3584 
Q 2172 3584 2448 3432 
Q 2725 3281 2906 2969 
z
M 947 1747 
Q 947 1113 1208 752 
Q 1469 391 1925 391 
Q 2381 391 2643 752 
Q 2906 1113 2906 1747 
Q 2906 2381 2643 2742 
Q 2381 3103 1925 3103 
Q 1469 3103 1208 2742 
Q 947 2381 947 1747 
z
" transform="scale(0.015625)"/>
       <path id="DejaVuSans-5b" d="M 3513 3500 
L 2247 1797 
L 3578 0 
L 2900 0 
L 1881 1375 
L 863 0 
L 184 0 
L 1544 1831 
L 300 3500 
L 978 3500 
L 1906 2253 
L 2834 3500 
L 3513 3500 
z
" transform="scale(0.015625)"/>
      </defs>
      <use xlink:href="#DejaVuSans-2c"/>
      <use xlink:href="#DejaVuSans-57" transform="translate(29.5 0)"/>
      <use xlink:href="#DejaVuSans-48" transform="translate(68.703125 0)"/>
      <use xlink:href="#DejaVuSans-55" transform="translate(130.234375 0)"/>
      <use xlink:href="#DejaVuSans-44" transform="translate(171.34375 0)"/>
      <use xlink:href="#DejaVuSans-57" transform="translate(232.625 0)"/>
      <use xlink:href="#DejaVuSans-4c" transform="translate(271.828125 0)"/>
      <use xlink:href="#DejaVuSans-52" transform="translate(299.609375 0)"/>
      <use xlink:href="#DejaVuSans-51" transform="translate(360.796875 0)"/>
      <use xlink:href="#DejaVuSans-3" transform="translate(424.171875 0)"/>
      <use xlink:href="#DejaVuSans-2c" transform="translate(455.953125 0)"/>
      <use xlink:href="#DejaVuSans-51" transform="translate(485.453125 0)"/>
      <use xlink:href="#DejaVuSans-47" transform="translate(548.828125 0)"/>
      <use xlink:href="#DejaVuSans-48" transform="translate(612.3125 0)"/>
      <use xlink:href="#DejaVuSans-5b" transform="translate(672.09375 0)"/>
     </g>
    </g>
   </g>
   <g id="matplotlib.axis_2">
    <g id="ytick_1">
     <g id="line2d_13">
      <path d="M 64.522344 374.316913 
L 709.2 374.316913 
" clip-path="url(#pa881156b21)" style="fill: none; stroke-dasharray: 2.96,1.28; stroke-dashoffset: 0; stroke: #b0b0b0; stroke-opacity: 0.5; stroke-width: 0.8"/>
     </g>
     <g id="line2d_14">
      <defs>
       <path id="m8f54cd90ab" d="M 0 0 
L -3.5 0 
" style="stroke: #000000; stroke-width: 0.8"/>
      </defs>
      <g>
       <use xlink:href="#m8f54cd90ab" x="64.522344" y="374.316913" style="stroke: #000000; stroke-width: 0.8"/>
      </g>
     </g>
     <g id="text_8">
      <!-- 0 -->
      <g transform="translate(51.159844 378.115741) scale(0.1 -0.1)">
       <use xlink:href="#DejaVuSans-13"/>
      </g>
     </g>
    </g>
    <g id="ytick_2">
     <g id="line2d_15">
      <path d="M 64.522344 301.789561 
L 709.2 301.789561 
" clip-path="url(#pa881156b21)" style="fill: none; stroke-dasharray: 2.96,1.28; stroke-dashoffset: 0; stroke: #b0b0b0; stroke-opacity: 0.5; stroke-width: 0.8"/>
     </g>
     <g id="line2d_16">
      <g>
       <use xlink:href="#m8f54cd90ab" x="64.522344" y="301.789561" style="stroke: #000000; stroke-width: 0.8"/>
      </g>
     </g>
     <g id="text_9">
      <!-- 5000 -->
      <g transform="translate(32.072344 305.588389) scale(0.1 -0.1)">
       <defs>
        <path id="DejaVuSans-18" d="M 691 4666 
L 3169 4666 
L 3169 4134 
L 1269 4134 
L 1269 2991 
Q 1406 3038 1543 3061 
Q 1681 3084 1819 3084 
Q 2600 3084 3056 2656 
Q 3513 2228 3513 1497 
Q 3513 744 3044 326 
Q 2575 -91 1722 -91 
Q 1428 -91 1123 -41 
Q 819 9 494 109 
L 494 744 
Q 775 591 1075 516 
Q 1375 441 1709 441 
Q 2250 441 2565 725 
Q 2881 1009 2881 1497 
Q 2881 1984 2565 2268 
Q 2250 2553 1709 2553 
Q 1456 2553 1204 2497 
Q 953 2441 691 2322 
L 691 4666 
z
" transform="scale(0.015625)"/>
       </defs>
       <use xlink:href="#DejaVuSans-18"/>
       <use xlink:href="#DejaVuSans-13" transform="translate(63.625 0)"/>
       <use xlink:href="#DejaVuSans-13" transform="translate(127.25 0)"/>
       <use xlink:href="#DejaVuSans-13" transform="translate(190.875 0)"/>
      </g>
     </g>
    </g>
    <g id="ytick_3">
     <g id="line2d_17">
      <path d="M 64.522344 229.262208 
L 709.2 229.262208 
" clip-path="url(#pa881156b21)" style="fill: none; stroke-dasharray: 2.96,1.28; stroke-dashoffset: 0; stroke: #b0b0b0; stroke-opacity: 0.5; stroke-width: 0.8"/>
     </g>
     <g id="line2d_18">
      <g>
       <use xlink:href="#m8f54cd90ab" x="64.522344" y="229.262208" style="stroke: #000000; stroke-width: 0.8"/>
      </g>
     </g>
     <g id="text_10">
      <!-- 10000 -->
      <g transform="translate(25.709844 233.061036) scale(0.1 -0.1)">
       <use xlink:href="#DejaVuSans-14"/>
       <use xlink:href="#DejaVuSans-13" transform="translate(63.625 0)"/>
       <use xlink:href="#DejaVuSans-13" transform="translate(127.25 0)"/>
       <use xlink:href="#DejaVuSans-13" transform="translate(190.875 0)"/>
       <use xlink:href="#DejaVuSans-13" transform="translate(254.5 0)"/>
      </g>
     </g>
    </g>
    <g id="ytick_4">
     <g id="line2d_19">
      <path d="M 64.522344 156.734856 
L 709.2 156.734856 
" clip-path="url(#pa881156b21)" style="fill: none; stroke-dasharray: 2.96,1.28; stroke-dashoffset: 0; stroke: #b0b0b0; stroke-opacity: 0.5; stroke-width: 0.8"/>
     </g>
     <g id="line2d_20">
      <g>
       <use xlink:href="#m8f54cd90ab" x="64.522344" y="156.734856" style="stroke: #000000; stroke-width: 0.8"/>
      </g>
     </g>
     <g id="text_11">
      <!-- 15000 -->
      <g transform="translate(25.709844 160.533684) scale(0.1 -0.1)">
       <use xlink:href="#DejaVuSans-14"/>
       <use xlink:href="#DejaVuSans-18" transform="translate(63.625 0)"/>
       <use xlink:href="#DejaVuSans-13" transform="translate(127.25 0)"/>
       <use xlink:href="#DejaVuSans-13" transform="translate(190.875 0)"/>
       <use xlink:href="#DejaVuSans-13" transform="translate(254.5 0)"/>
      </g>
     </g>
    </g>
    <g id="ytick_5">
     <g id="line2d_21">
      <path d="M 64.522344 84.207504 
L 709.2 84.207504 
" clip-path="url(#pa881156b21)" style="fill: none; stroke-dasharray: 2.96,1.28; stroke-dashoffset: 0; stroke: #b0b0b0; stroke-opacity: 0.5; stroke-width: 0.8"/>
     </g>
     <g id="line2d_22">
      <g>
       <use xlink:href="#m8f54cd90ab" x="64.522344" y="84.207504" style="stroke: #000000; stroke-width: 0.8"/>
      </g>
     </g>
     <g id="text_12">
      <!-- 20000 -->
      <g transform="translate(25.709844 88.006332) scale(0.1 -0.1)">
       <use xlink:href="#DejaVuSans-15"/>
       <use xlink:href="#DejaVuSans-13" transform="translate(63.625 0)"/>
       <use xlink:href="#DejaVuSans-13" transform="translate(127.25 0)"/>
       <use xlink:href="#DejaVuSans-13" transform="translate(190.875 0)"/>
       <use xlink:href="#DejaVuSans-13" transform="translate(254.5 0)"/>
      </g>
     </g>
    </g>
    <g id="text_13">
     <!-- Latency (Nanoseconds) -->
     <g transform="translate(19.3075 267.382187) rotate(-90) scale(0.1 -0.1)">
      <defs>
       <path id="DejaVuSans-2f" d="M 628 4666 
L 1259 4666 
L 1259 531 
L 3531 531 
L 3531 0 
L 628 0 
L 628 4666 
z
" transform="scale(0.015625)"/>
       <path id="DejaVuSans-46" d="M 3122 3366 
L 3122 2828 
Q 2878 2963 2633 3030 
Q 2388 3097 2138 3097 
Q 1578 3097 1268 2742 
Q 959 2388 959 1747 
Q 959 1106 1268 751 
Q 1578 397 2138 397 
Q 2388 397 2633 464 
Q 2878 531 3122 666 
L 3122 134 
Q 2881 22 2623 -34 
Q 2366 -91 2075 -91 
Q 1284 -91 818 406 
Q 353 903 353 1747 
Q 353 2603 823 3093 
Q 1294 3584 2113 3584 
Q 2378 3584 2631 3529 
Q 2884 3475 3122 3366 
z
" transform="scale(0.015625)"/>
       <path id="DejaVuSans-5c" d="M 2059 -325 
Q 1816 -950 1584 -1140 
Q 1353 -1331 966 -1331 
L 506 -1331 
L 506 -850 
L 844 -850 
Q 1081 -850 1212 -737 
Q 1344 -625 1503 -206 
L 1606 56 
L 191 3500 
L 800 3500 
L 1894 763 
L 2988 3500 
L 3597 3500 
L 2059 -325 
z
" transform="scale(0.015625)"/>
       <path id="DejaVuSans-b" d="M 1984 4856 
Q 1566 4138 1362 3434 
Q 1159 2731 1159 2009 
Q 1159 1288 1364 580 
Q 1569 -128 1984 -844 
L 1484 -844 
Q 1016 -109 783 600 
Q 550 1309 550 2009 
Q 550 2706 781 3412 
Q 1013 4119 1484 4856 
L 1984 4856 
z
" transform="scale(0.015625)"/>
       <path id="DejaVuSans-31" d="M 628 4666 
L 1478 4666 
L 3547 763 
L 3547 4666 
L 4159 4666 
L 4159 0 
L 3309 0 
L 1241 3903 
L 1241 0 
L 628 0 
L 628 4666 
z
" transform="scale(0.015625)"/>
       <path id="DejaVuSans-56" d="M 2834 3397 
L 2834 2853 
Q 2591 2978 2328 3040 
Q 2066 3103 1784 3103 
Q 1356 3103 1142 2972 
Q 928 2841 928 2578 
Q 928 2378 1081 2264 
Q 1234 2150 1697 2047 
L 1894 2003 
Q 2506 1872 2764 1633 
Q 3022 1394 3022 966 
Q 3022 478 2636 193 
Q 2250 -91 1575 -91 
Q 1294 -91 989 -36 
Q 684 19 347 128 
L 347 722 
Q 666 556 975 473 
Q 1284 391 1588 391 
Q 1994 391 2212 530 
Q 2431 669 2431 922 
Q 2431 1156 2273 1281 
Q 2116 1406 1581 1522 
L 1381 1569 
Q 847 1681 609 1914 
Q 372 2147 372 2553 
Q 372 3047 722 3315 
Q 1072 3584 1716 3584 
Q 2034 3584 2315 3537 
Q 2597 3491 2834 3397 
z
" transform="scale(0.015625)"/>
       <path id="DejaVuSans-c" d="M 513 4856 
L 1013 4856 
Q 1481 4119 1714 3412 
Q 1947 2706 1947 2009 
Q 1947 1309 1714 600 
Q 1481 -109 1013 -844 
L 513 -844 
Q 928 -128 1133 580 
Q 1338 1288 1338 2009 
Q 1338 2731 1133 3434 
Q 928 4138 513 4856 
z
" transform="scale(0.015625)"/>
      </defs>
      <use xlink:href="#DejaVuSans-2f"/>
      <use xlink:href="#DejaVuSans-44" transform="translate(55.71875 0)"/>
      <use xlink:href="#DejaVuSans-57" transform="translate(117 0)"/>
      <use xlink:href="#DejaVuSans-48" transform="translate(156.203125 0)"/>
      <use xlink:href="#DejaVuSans-51" transform="translate(217.734375 0)"/>
      <use xlink:href="#DejaVuSans-46" transform="translate(281.109375 0)"/>
      <use xlink:href="#DejaVuSans-5c" transform="translate(336.09375 0)"/>
      <use xlink:href="#DejaVuSans-3" transform="translate(395.28125 0)"/>
      <use xlink:href="#DejaVuSans-b" transform="translate(427.0625 0)"/>
      <use xlink:href="#DejaVuSans-31" transform="translate(466.078125 0)"/>
      <use xlink:href="#DejaVuSans-44" transform="translate(540.890625 0)"/>
      <use xlink:href="#DejaVuSans-51" transform="translate(602.171875 0)"/>
      <use xlink:href="#DejaVuSans-52" transform="translate(665.546875 0)"/>
      <use xlink:href="#DejaVuSans-56" transform="translate(726.734375 0)"/>
      <use xlink:href="#DejaVuSans-48" transform="translate(778.828125 0)"/>
      <use xlink:href="#DejaVuSans-46" transform="translate(840.359375 0)"/>
      <use xlink:href="#DejaVuSans-52" transform="translate(895.34375 0)"/>
      <use xlink:href="#DejaVuSans-51" transform="translate(956.53125 0)"/>
      <use xlink:href="#DejaVuSans-47" transform="translate(1019.90625 0)"/>
      <use xlink:href="#DejaVuSans-56" transform="translate(1083.390625 0)"/>
      <use xlink:href="#DejaVuSans-c" transform="translate(1135.484375 0)"/>
     </g>
    </g>
   </g>
   <g id="line2d_23">
    <path d="M 93.825874 314.438331 
L 94.412531 372.489224 
L 94.999188 373.345046 
L 97.932474 373.330541 
L 99.692446 373.359552 
L 104.385704 373.330541 
L 106.732333 373.359552 
L 124.918708 373.374057 
L 125.505365 333.251926 
L 126.092023 373.359552 
L 143.69174 373.388563 
L 144.278397 335.67434 
L 144.865055 373.359552 
L 148.971655 373.359552 
L 150.731627 373.359552 
L 152.491599 373.359552 
L 157.771514 373.388563 
L 159.531486 373.359552 
L 163.05143 373.359552 
L 166.571373 373.388563 
L 168.331345 373.359552 
L 200.010837 373.359552 
L 200.597494 335.819394 
L 201.184151 373.359552 
L 275.102965 373.388563 
L 275.689622 334.600935 
L 276.27628 373.374057 
L 279.796223 373.374057 
L 283.902824 373.374057 
L 350.195094 373.359552 
L 350.781751 334.00621 
L 351.368408 373.359552 
L 356.061666 373.374057 
L 360.168267 373.345046 
L 361.341581 373.359552 
L 365.448182 373.345046 
L 369.554783 373.359552 
L 373.661384 373.359552 
L 375.421355 373.359552 
L 379.527956 373.359552 
L 425.287222 373.374057 
L 425.873879 335.964449 
L 426.460537 373.359552 
L 428.220508 373.374057 
L 432.327109 373.374057 
L 500.37935 373.359552 
L 500.966008 335.935438 
L 501.552665 373.374057 
L 503.899294 373.345046 
L 509.765867 373.388563 
L 575.471479 373.359552 
L 576.058136 332.207532 
L 576.644793 373.374057 
L 650.563607 373.374057 
L 651.150265 335.819394 
L 651.736922 373.374057 
L 655.256866 373.388563 
L 658.190152 373.345046 
L 659.363466 373.359552 
L 679.89647 373.359552 
L 679.89647 373.359552 
" clip-path="url(#pa881156b21)" style="fill: none; stroke: #7426d9; stroke-opacity: 0.4; stroke-width: 1.5; stroke-linecap: square"/>
   </g>
   <g id="line2d_24">
    <path d="M 93.825874 371.850983 
L 94.412531 344.102018 
L 94.999188 363.916491 
L 95.585845 365.250994 
L 96.172503 364.003523 
L 97.345817 365.076928 
L 97.932474 365.062423 
L 98.519132 364.830335 
L 99.105789 364.351655 
L 99.692446 364.873852 
L 100.279103 364.221105 
L 100.865761 364.728797 
L 101.452418 363.843963 
L 102.625732 364.540226 
L 104.972361 364.177589 
L 105.559019 363.872974 
L 106.145676 364.090556 
L 109.078962 363.75693 
L 110.252277 363.582865 
L 112.598906 363.249239 
L 113.185563 362.799569 
L 113.77222 362.959129 
L 114.358877 362.66902 
L 114.945535 363.002646 
L 116.705506 362.814075 
L 117.292164 362.21935 
L 117.878821 362.001768 
L 118.465478 362.132318 
L 119.052135 361.987263 
L 120.22545 361.856714 
L 120.812107 361.813197 
L 121.398765 361.465066 
L 121.985422 361.682648 
L 122.572079 361.407044 
L 123.158736 359.927486 
L 123.745394 361.160451 
L 124.332051 361.363528 
L 124.918708 361.320011 
L 125.505365 360.942869 
L 126.092023 361.624626 
L 127.851994 360.899353 
L 129.025309 360.797814 
L 132.545252 360.333639 
L 133.13191 360.029024 
L 133.718567 360.145068 
L 134.305224 359.956497 
L 134.891881 360.04353 
L 135.478539 359.75342 
L 136.065196 359.72441 
L 136.651853 359.825948 
L 137.825168 359.492322 
L 138.411825 359.608366 
L 138.998482 359.521333 
L 139.585139 359.231224 
L 140.171797 359.390784 
L 140.758454 359.245729 
L 141.345111 359.318256 
L 142.518426 359.071663 
L 143.105083 359.013641 
L 143.69174 358.694521 
L 144.278397 358.912103 
L 144.865055 358.723532 
L 146.038369 358.752543 
L 146.625026 358.50595 
L 147.211684 358.534961 
L 148.971655 358.273862 
L 149.558313 357.954742 
L 150.14497 358.607488 
L 151.318284 358.476939 
L 151.904942 358.447928 
L 152.491599 358.302873 
L 153.078256 358.288368 
L 153.664913 168.165167 
L 154.251571 356.460679 
L 154.838228 358.05628 
L 155.424885 358.05628 
L 157.184857 357.766171 
L 157.771514 355.735405 
L 158.358172 357.5776 
L 158.944829 357.534084 
L 159.531486 357.345512 
L 161.291458 357.243974 
L 161.878115 357.055403 
L 163.05143 356.96837 
L 167.744688 356.446173 
L 168.331345 356.446173 
L 168.918002 356.112547 
L 169.504659 356.228591 
L 170.677974 356.069031 
L 174.197917 355.517823 
L 175.371232 355.517823 
L 175.957889 355.11167 
L 176.544546 355.285736 
L 177.131204 355.213208 
L 177.717861 354.966615 
L 178.891175 354.937604 
L 184.757748 354.299364 
L 185.344405 353.994749 
L 186.51772 354.038265 
L 188.277691 353.719145 
L 189.451006 353.661123 
L 190.62432 353.472552 
L 191.210978 351.891455 
L 191.797635 352.96486 
L 192.384292 353.182442 
L 192.970949 353.051893 
L 193.557607 353.153431 
L 194.144264 353.09541 
L 194.730921 352.921344 
L 195.317578 352.529696 
L 195.904236 352.834311 
L 197.07755 352.587718 
L 197.664208 352.384641 
L 199.424179 352.283103 
L 200.010837 350.208821 
L 200.597494 351.949477 
L 201.184151 351.920466 
L 201.770808 352.051016 
L 202.944123 351.963983 
L 203.53078 351.441786 
L 204.117437 351.760906 
L 204.704095 351.688379 
L 205.290752 351.818928 
L 205.877409 351.644863 
L 206.464066 351.195193 
L 207.050724 351.470797 
L 207.637381 351.137171 
L 208.224038 351.035633 
L 208.810695 305.357906 
L 209.397353 350.702007 
L 209.98401 351.093655 
L 211.157324 350.934094 
L 211.743982 348.685747 
L 212.330639 350.672996 
L 212.917296 350.542447 
L 213.503953 278.450259 
L 214.090611 349.425526 
L 214.677268 350.194315 
L 215.263925 350.237832 
L 215.850582 350.165305 
L 216.43724 349.875195 
L 217.023897 349.976733 
L 217.610554 349.773657 
L 219.370526 349.657613 
L 220.54384 349.41102 
L 221.717155 349.41102 
L 223.477127 349.120911 
L 224.063784 349.004867 
L 224.650441 349.048383 
L 228.757042 348.439154 
L 229.343699 348.468164 
L 229.930356 348.294099 
L 232.863643 348.047506 
L 235.210272 347.757396 
L 235.796929 347.728385 
L 236.383586 347.568825 
L 237.556901 347.452782 
L 238.143558 347.293221 
L 241.076844 347.119156 
L 241.663502 346.930585 
L 242.250159 346.887068 
L 242.836816 346.727508 
L 243.423473 342.811031 
L 244.010131 345.015863 
L 244.596788 346.553442 
L 245.183445 346.33586 
L 245.770102 346.49542 
L 246.35676 346.364871 
L 246.943417 344.92883 
L 247.530074 346.074762 
L 248.116731 346.161795 
L 248.703389 344.595204 
L 249.290046 345.958718 
L 249.876703 345.799158 
L 250.46336 345.886191 
L 253.396647 345.480038 
L 253.983304 343.971469 
L 254.569961 345.044873 
L 255.156618 345.262456 
L 255.743276 345.175423 
L 256.329933 343.666854 
L 256.91659 345.08839 
L 257.503247 345.059379 
L 258.089905 344.914324 
L 259.849876 344.725753 
L 261.609848 344.580698 
L 262.196505 342.999602 
L 262.783163 344.377622 
L 263.956477 344.276084 
L 264.543134 343.86993 
L 265.129792 343.985974 
L 266.303106 343.797403 
L 266.889763 343.884436 
L 267.476421 343.768392 
L 268.649735 343.724876 
L 270.409707 343.376744 
L 270.996364 343.130151 
L 272.169679 343.202679 
L 272.756336 342.985097 
L 273.342993 312.233499 
L 273.929651 275.621692 
L 274.516308 340.243563 
L 275.102965 335.732361 
L 275.689622 342.01323 
L 276.27628 341.287957 
L 276.862937 342.230812 
L 277.449594 341.607077 
L 278.036251 341.476528 
L 278.622909 341.85367 
L 279.209566 341.752132 
L 279.796223 341.824659 
L 280.38288 341.476528 
L 280.969538 341.69411 
L 281.556195 341.752132 
L 282.142852 341.520044 
L 282.729509 341.69411 
L 283.316167 341.476528 
L 283.902824 341.563561 
L 284.489481 341.345978 
L 285.076138 341.360484 
L 286.249453 340.664221 
L 286.83611 341.026858 
L 287.422767 340.707738 
L 288.009425 340.809276 
L 288.596082 340.606199 
L 289.182739 340.620705 
L 289.769396 340.461145 
L 290.356054 340.63521 
L 290.942711 340.562683 
L 291.529368 339.721366 
L 292.116025 340.446639 
L 292.702683 340.345101 
L 293.28934 339.909937 
L 293.875997 340.127519 
L 295.635969 339.851915 
L 296.222626 339.5473 
L 296.809283 339.851915 
L 297.395941 337.008843 
L 297.982598 339.329718 
L 298.569255 339.605322 
L 299.155912 339.5473 
L 300.329227 339.097631 
L 300.915884 339.271696 
L 301.502541 338.880049 
L 302.089199 337.647084 
L 302.675856 338.807521 
L 303.262513 338.241808 
L 303.84917 338.705983 
L 304.435828 338.61895 
L 305.022485 338.676972 
L 305.609142 338.285324 
L 306.195799 336.979832 
L 306.782457 338.256313 
L 307.369114 338.473895 
L 307.955771 338.401368 
L 308.542428 336.036976 
L 309.129086 338.053237 
L 309.715743 337.980709 
L 310.3024 338.082248 
L 310.889058 336.501151 
L 311.475715 337.995215 
L 312.062372 337.864666 
L 313.822344 337.777633 
L 314.995658 337.545545 
L 315.582316 337.502029 
L 316.168973 337.298952 
L 316.75563 337.313458 
L 317.342287 337.124887 
L 319.102259 337.095876 
L 319.688916 337.023348 
L 320.275574 337.08137 
L 320.862231 333.353464 
L 321.448888 336.399613 
L 322.035545 332.033466 
L 322.622203 336.356097 
L 323.20886 336.124009 
L 323.795517 336.31258 
L 324.968832 335.949943 
L 325.555489 336.240053 
L 326.142146 336.138515 
L 326.728803 336.196536 
L 327.315461 336.065987 
L 327.902118 335.775878 
L 328.488775 335.804889 
L 330.248747 335.485768 
L 330.835404 331.801379 
L 331.422061 335.210164 
L 332.008719 335.311703 
L 332.595376 333.005333 
L 333.182033 335.06511 
L 333.76869 195.943143 
L 334.355348 328.392593 
L 334.942005 330.408854 
L 335.528662 328.305561 
L 336.115319 332.889289 
L 336.701977 332.613685 
L 337.288634 332.004456 
L 337.875291 333.614563 
L 339.048606 333.803134 
L 340.22192 333.164893 
L 340.808577 330.887534 
L 341.395235 333.875661 
L 341.981892 333.600057 
L 342.568549 330.858523 
L 343.155206 330.234788 
L 343.741864 332.091488 
L 344.328521 333.23742 
L 344.915178 333.164893 
L 345.501835 333.23742 
L 346.088493 333.193904 
L 346.67515 332.903795 
L 347.848464 333.063355 
L 348.435122 332.75874 
L 349.021779 327.580287 
L 349.608436 317.513491 
L 350.195094 332.497642 
L 350.781751 332.541158 
L 351.368408 332.062477 
L 351.955065 332.338081 
L 352.541723 131.698414 
L 353.12838 292.302983 
L 353.715037 332.526652 
L 354.888352 332.178521 
L 355.475009 332.135005 
L 356.061666 331.931928 
L 357.234981 331.98995 
L 358.408295 331.917423 
L 358.994952 330.553908 
L 359.58161 328.871274 
L 360.168267 331.496764 
L 360.754924 328.740725 
L 361.341581 331.496764 
L 361.928239 331.250171 
L 362.514896 331.395226 
L 363.101553 331.409731 
L 363.68821 331.206655 
L 364.274868 331.322698 
L 365.448182 331.235666 
L 366.034839 330.989073 
L 367.208154 330.655447 
L 367.794811 330.829512 
L 368.968126 330.597425 
L 370.14144 330.553908 
L 372.488069 330.147755 
L 373.074726 327.710836 
L 373.661384 329.901162 
L 374.248041 329.785119 
L 374.834698 329.915668 
L 375.421355 329.727097 
L 376.008013 329.741602 
L 376.59467 327.232156 
L 377.181327 329.567536 
L 381.287928 329.001823 
L 381.874585 329.103361 
L 383.0479 328.43611 
L 383.634557 328.43611 
L 384.807871 328.218528 
L 385.394529 325.825125 
L 385.981186 328.131495 
L 386.567843 328.291055 
L 387.154501 327.812375 
L 387.741158 328.349077 
L 388.327815 328.218528 
L 388.914472 328.247539 
L 389.50113 327.899407 
L 390.087787 327.696331 
L 390.674444 327.797869 
L 391.261101 324.998313 
L 391.847759 327.391716 
L 392.434416 326.724464 
L 393.021073 327.768858 
L 393.60773 256.474471 
L 394.194388 239.329005 
L 394.781045 325.854136 
L 396.541017 325.999191 
L 397.127674 325.883147 
L 398.300988 325.839631 
L 398.887646 325.622049 
L 400.06096 325.462488 
L 400.647617 325.244906 
L 402.407589 325.317434 
L 402.994246 325.056335 
L 403.580904 319.964915 
L 404.167561 324.925786 
L 404.754218 324.476116 
L 405.340875 324.795237 
L 408.860819 324.389084 
L 410.034133 324.026447 
L 410.620791 324.11348 
L 411.207448 323.808865 
L 411.794105 324.055458 
L 412.380762 323.968425 
L 412.96742 323.997436 
L 415.314049 323.576777 
L 415.900706 320.617661 
L 416.487363 321.154364 
L 417.07402 323.518755 
L 418.247335 323.34469 
L 418.833992 323.199635 
L 419.420649 320.211508 
L 420.007307 322.851504 
L 421.180621 322.691943 
L 421.767278 322.807987 
L 422.940593 322.778976 
L 423.52725 322.590405 
L 424.113907 320.182497 
L 424.700565 319.732828 
L 425.287222 322.242274 
L 425.873879 322.140736 
L 426.460537 314.539869 
L 427.047194 322.024692 
L 427.633851 319.370191 
L 428.220508 322.097219 
L 429.98048 321.546011 
L 430.567137 321.662055 
L 431.153795 321.575022 
L 431.740452 321.618539 
L 432.913766 321.531506 
L 433.500424 318.964038 
L 434.087081 321.255902 
L 434.673738 320.907771 
L 435.847053 321.009309 
L 436.43371 318.470852 
L 437.020367 320.791727 
L 437.607024 320.791727 
L 438.780339 320.530628 
L 439.953653 320.458101 
L 440.540311 320.327552 
L 441.126968 320.400079 
L 441.713625 320.211508 
L 442.300282 320.313046 
L 442.88694 319.993926 
L 443.473597 319.921399 
L 444.060254 319.616784 
L 444.646911 319.544256 
L 445.233569 319.283158 
L 446.406883 319.573267 
L 446.99354 319.283158 
L 447.580198 319.81986 
L 448.753512 319.457224 
L 449.340169 316.324042 
L 449.926827 318.993049 
L 450.513484 319.326674 
L 451.100141 319.239642 
L 452.273456 318.557884 
L 452.860113 318.688434 
L 453.44677 318.238764 
L 454.033427 181.394156 
L 454.620085 317.020305 
L 455.206742 318.920521 
L 456.380056 317.208876 
L 456.966714 316.976788 
L 459.313343 316.976788 
L 459.9 317.020305 
L 461.073314 316.454591 
L 462.833286 316.207998 
L 463.419944 316.193493 
L 465.179915 315.685801 
L 465.766573 315.9469 
L 466.35323 315.671296 
L 466.939887 315.729318 
L 468.113202 315.555252 
L 468.699859 315.65679 
L 469.286516 312.886245 
L 469.873173 314.844484 
L 470.459831 309.593504 
L 471.046488 314.655913 
L 472.219802 315.091077 
L 473.393117 315.004044 
L 474.566431 314.017672 
L 475.153089 314.786462 
L 476.326403 314.220749 
L 476.91306 314.467342 
L 477.499718 314.946022 
L 478.086375 314.699429 
L 478.673032 314.641407 
L 479.259689 314.771957 
L 479.846347 314.365803 
L 480.433004 314.11921 
L 482.192976 313.988661 
L 483.36629 313.335915 
L 483.952947 311.116578 
L 484.539605 313.292399 
L 485.126262 313.379431 
L 485.712919 310.710425 
L 486.299576 313.19086 
L 486.886234 312.668663 
L 487.472891 312.929762 
L 488.059548 313.045806 
L 488.646205 313.002289 
L 489.232863 313.118333 
L 490.406177 312.929762 
L 490.992834 312.683169 
L 491.579492 312.015917 
L 492.166149 309.448449 
L 492.752806 312.204488 
L 493.339463 312.189983 
L 493.926121 309.085812 
L 494.512778 312.26251 
L 495.099435 311.754819 
L 495.686092 310.884491 
L 496.27275 309.056801 
L 496.859407 311.479215 
L 497.446064 311.49372 
L 498.032721 311.377677 
L 498.619379 311.522731 
L 499.206036 311.044051 
L 500.37935 311.029545 
L 500.966008 311.116578 
L 501.552665 310.202733 
L 502.139322 307.838342 
L 502.72598 310.913501 
L 503.312637 311.1746 
L 503.899294 310.971523 
L 504.485951 310.391305 
L 505.072609 89.516506 
L 505.659266 307.910869 
L 506.245923 308.86823 
L 506.83258 306.416806 
L 507.419238 307.925375 
L 508.005895 308.636143 
L 508.592552 305.299884 
L 509.179209 307.345156 
L 509.765867 307.765814 
L 510.352524 305.865598 
L 510.939181 308.317022 
L 511.525838 307.417683 
L 512.112496 300.208464 
L 512.699153 307.316145 
L 513.28581 307.954385 
L 513.872467 157.257053 
L 514.459125 306.097685 
L 515.045782 306.939003 
L 515.632439 306.257245 
L 516.219096 303.080547 
L 516.805754 305.894609 
L 517.392411 305.865598 
L 517.979068 305.517466 
L 518.565725 305.488456 
L 519.152383 304.86472 
L 519.73904 305.807576 
L 520.325697 304.632633 
L 520.912354 305.299884 
L 521.499012 305.299884 
L 522.085669 304.052414 
L 522.672326 304.008898 
L 523.258983 303.414173 
L 523.845641 303.849337 
L 524.432298 303.93637 
L 525.018955 303.834832 
L 525.605612 302.630878 
L 526.19227 303.559228 
L 526.778927 300.106926 
L 527.365584 301.992637 
L 527.952241 299.120554 
L 528.538899 299.860333 
L 529.712213 293.927596 
L 530.885528 299.468685 
L 531.472185 299.338136 
L 532.058842 297.815062 
L 532.645499 294.565836 
L 533.232157 296.669129 
L 533.818814 299.222092 
L 534.992128 298.337259 
L 535.578786 297.611985 
L 536.165443 297.30737 
L 536.7521 298.119677 
L 537.338757 294.217705 
L 537.925415 297.728029 
L 538.512072 296.466053 
L 539.098729 293.739024 
L 539.685387 296.103416 
L 540.272044 296.393526 
L 540.858701 294.754407 
L 541.445358 295.552208 
L 542.032016 294.986495 
L 542.618673 295.508692 
L 543.20533 295.160561 
L 543.791987 294.348254 
L 544.378645 292.114412 
L 544.965302 294.942978 
L 545.551959 294.609353 
L 546.138616 294.768913 
L 546.725274 293.318366 
L 547.311931 290.866941 
L 547.898588 293.057267 
L 548.485245 294.116167 
L 549.071903 294.087156 
L 549.65856 292.999245 
L 550.245217 288.879692 
L 550.831874 292.172434 
L 552.005189 291.099029 
L 552.591846 291.244084 
L 553.178503 287.081014 
L 554.351818 290.736392 
L 554.938475 290.866941 
L 555.525132 287.081014 
L 556.11179 290.765403 
L 556.698447 288.473539 
L 557.285104 284.731127 
L 557.871761 284.847171 
L 558.458419 286.863431 
L 559.045076 285.717499 
L 559.631733 285.543434 
L 560.21839 284.673105 
L 560.805048 285.26783 
L 561.391705 285.122775 
L 561.978362 284.629589 
L 563.151677 284.353985 
L 563.738334 284.412007 
L 564.324991 283.222558 
L 564.911648 282.903438 
L 565.498306 282.279703 
L 566.084963 279.944322 
L 566.67162 279.320587 
L 567.258277 279.799267 
L 567.844935 280.930694 
L 568.431592 282.743878 
L 569.018249 278.50828 
L 569.604906 278.058611 
L 570.191564 279.001466 
L 570.778221 279.480147 
L 571.364878 276.375976 
L 571.951535 282.903438 
L 572.538193 275.172022 
L 573.12485 274.127628 
L 574.298164 162.217924 
L 574.884822 274.504771 
L 575.471479 283.338602 
L 576.058136 283.657722 
L 576.644793 282.816405 
L 577.231451 272.575543 
L 577.818108 278.247182 
L 578.404765 274.040596 
L 578.991423 274.287189 
L 579.57808 258.62128 
L 580.164737 258.650291 
L 580.751394 255.720186 
L 581.338052 254.922386 
L 581.924709 255.83623 
L 582.511366 255.618648 
L 583.098023 253.268762 
L 583.684681 252.238873 
L 584.271338 249.700416 
L 584.857995 250.077558 
L 585.444652 247.336024 
L 586.03131 248.191847 
L 586.617967 247.263497 
L 587.204624 245.827456 
L 587.791281 243.869217 
L 588.377939 239.082412 
L 589.551253 234.41165 
L 590.13791 238.197578 
L 590.724568 238.531204 
L 591.311225 237.124173 
L 591.897882 233.686377 
L 592.484539 234.324617 
L 593.071197 232.55495 
L 593.657854 226.752762 
L 594.244511 222.488154 
L 594.831168 222.647714 
L 595.417826 55.820298 
L 596.004483 216.816515 
L 596.59114 216.729482 
L 597.177797 212.783994 
L 597.764455 214.263552 
L 598.351112 213.5963 
L 598.937769 212.21828 
L 599.524426 208.200265 
L 600.111084 209.824878 
L 600.697741 209.984438 
L 601.284398 199.598521 
L 601.871055 204.051701 
L 603.04437 200.149729 
L 603.631027 202.180495 
L 604.217684 201.063574 
L 604.804342 196.915009 
L 605.390999 195.899626 
L 605.977656 189.038539 
L 606.564313 194.463585 
L 607.150971 193.54974 
L 607.737628 189.22711 
L 608.324285 188.806451 
L 608.910942 189.096561 
L 609.4976 181.307123 
L 610.084257 185.67327 
L 610.670914 186.674147 
L 611.257571 185.745797 
L 611.844229 179.798554 
L 612.430886 180.915475 
L 613.017543 183.439427 
L 613.6042 180.668882 
L 614.190858 174.315486 
L 614.777515 178.057898 
L 615.364172 180.248224 
L 615.95083 179.624488 
L 616.537487 178.391523 
L 617.124144 178.783171 
L 617.710801 164.756381 
L 618.297459 173.590213 
L 618.884116 169.992856 
L 619.470773 170.413515 
L 620.05743 166.540554 
L 620.644088 169.978351 
L 621.230745 168.049123 
L 622.404059 163.233307 
L 622.990717 156.676834 
L 623.577374 160.187158 
L 624.164031 156.647823 
L 624.750688 158.7076 
L 625.337346 158.838149 
L 625.924003 159.287819 
L 626.51066 154.54453 
L 627.097317 154.646068 
L 627.683975 150.2219 
L 628.270632 153.732224 
L 628.857289 152.832884 
L 629.443946 147.784981 
L 630.030604 148.785858 
L 630.617261 161.811771 
L 631.203918 165.438138 
L 631.790575 162.029353 
L 632.377233 164.132646 
L 632.96389 164.843414 
L 633.550547 160.448256 
L 634.137204 43.911307 
L 634.723862 159.360346 
L 635.310519 160.535289 
L 635.897176 156.56079 
L 636.483833 155.777495 
L 637.070491 162.10188 
L 637.657148 76.911252 
L 638.243805 154.109366 
L 639.41712 154.472003 
L 640.003777 153.688707 
L 640.590434 156.372219 
L 641.177091 151.599919 
L 641.763749 152.832884 
L 642.350406 149.873768 
L 642.937063 156.589801 
L 643.52372 155.008705 
L 644.110378 156.430241 
L 644.697035 150.70058 
L 645.283692 155.168265 
L 645.870349 154.675079 
L 646.457007 151.222777 
L 647.043664 150.323438 
L 647.630321 153.00695 
L 648.216978 253.907003 
L 648.803636 294.913968 
L 649.390293 292.128917 
L 649.97695 293.274849 
L 650.563607 293.521442 
L 651.150265 292.05639 
L 651.736922 291.60672 
L 652.323579 292.230456 
L 652.910236 292.477049 
L 653.496894 293.927596 
L 654.083551 293.811552 
L 654.670208 291.360127 
L 655.256866 294.116167 
L 655.843523 293.042762 
L 656.43018 293.028256 
L 657.016837 290.953974 
L 657.603495 293.710014 
L 658.776809 290.402766 
L 659.363466 291.331116 
L 659.950124 289.924086 
L 660.536781 287.907825 
L 661.123438 290.808919 
L 661.710095 290.417272 
L 662.296753 291.867819 
L 662.88341 291.969357 
L 663.470067 291.621226 
L 664.056724 290.634854 
L 664.643382 291.708259 
L 665.230039 291.345622 
L 665.816696 292.462543 
L 666.403353 289.822547 
L 666.990011 290.67837 
L 667.576668 290.127162 
L 668.163325 290.344744 
L 668.749982 290.112657 
L 669.33664 289.256834 
L 669.923297 291.026501 
L 670.509954 289.662987 
L 671.096611 289.866064 
L 671.683269 289.227823 
L 672.269926 289.982108 
L 672.856583 290.06914 
L 673.44324 289.503427 
L 674.029898 291.89683 
L 674.616555 292.448038 
L 675.203212 291.099029 
L 675.789869 290.939469 
L 676.376527 289.59046 
L 676.963184 285.993103 
L 677.549841 288.879692 
L 678.136498 288.299473 
L 678.723156 290.156173 
L 679.89647 287.617716 
L 679.89647 287.617716 
" clip-path="url(#pa881156b21)" style="fill: none; stroke: #2dcc0d; stroke-opacity: 0.4; stroke-width: 1.5; stroke-linecap: square"/>
   </g>
   <g id="line2d_25">
    <path d="M 93.825874 314.438331 
L 94.412531 343.463777 
L 94.999188 353.4242 
L 95.585845 358.400785 
L 96.172503 361.389638 
L 96.75916 363.384623 
L 97.345817 364.809613 
L 97.932474 365.874729 
L 99.105789 367.376045 
L 100.279103 368.372088 
L 101.452418 369.087691 
L 103.21239 369.841549 
L 105.559019 370.510954 
L 108.492305 371.059319 
L 112.598906 371.548566 
L 117.878821 371.935253 
L 124.918708 372.251226 
L 125.505365 371.542148 
L 134.891881 371.952725 
L 143.69174 372.199451 
L 144.278397 371.779623 
L 151.904942 371.985449 
L 152.491599 372.574661 
L 160.118143 372.583944 
L 183.584433 372.585105 
L 184.171091 372.986181 
L 200.010837 372.98415 
L 200.597494 372.608749 
L 202.357466 372.608459 
L 202.944123 372.985166 
L 258.676562 372.990242 
L 259.263219 373.365644 
L 275.102965 373.365934 
L 275.689622 372.978348 
L 333.76869 372.973996 
L 334.355348 373.361583 
L 350.195094 373.361002 
L 350.781751 372.967614 
L 408.860819 372.972256 
L 409.447476 373.365789 
L 425.287222 373.366079 
L 425.873879 372.991693 
L 483.952947 372.985166 
L 484.539605 373.359117 
L 500.37935 373.356941 
L 500.966008 372.9827 
L 559.045076 372.99561 
L 559.631733 373.369851 
L 575.471479 373.369996 
L 576.058136 372.958476 
L 634.137204 372.948177 
L 634.723862 373.359552 
L 650.563607 373.358826 
L 651.150265 372.98328 
L 679.89647 372.989227 
L 679.89647 372.989227 
" clip-path="url(#pa881156b21)" style="fill: none; stroke: #7426d9; stroke-width: 2; stroke-linecap: square"/>
   </g>
   <g id="line2d_26">
    <path d="M 93.825874 371.850983 
L 94.412531 357.9765 
L 94.999188 359.956497 
L 95.585845 361.280121 
L 96.75916 362.28946 
L 97.932474 362.984514 
L 99.105789 363.30581 
L 100.279103 363.512755 
L 101.452418 363.623273 
L 106.732333 363.858469 
L 112.598906 363.785502 
L 129.025309 362.866865 
L 151.904942 361.479281 
L 152.491599 361.3438 
L 153.078256 361.485664 
L 153.664913 359.528151 
L 157.771514 359.015237 
L 186.51772 355.551766 
L 208.224038 352.941652 
L 208.810695 352.409156 
L 211.743982 352.012141 
L 212.330639 353.837219 
L 212.917296 353.778037 
L 213.503953 352.981977 
L 219.370526 352.225371 
L 266.889763 346.063593 
L 267.476421 346.447697 
L 271.583021 345.955672 
L 272.169679 346.603196 
L 272.756336 346.538792 
L 273.342993 346.159184 
L 273.929651 345.413022 
L 279.209566 344.616527 
L 330.248747 337.897303 
L 331.422061 337.705541 
L 332.008719 337.936323 
L 332.595376 338.510159 
L 333.182033 338.458374 
L 333.76869 337.060482 
L 336.115319 336.589054 
L 351.955065 334.135889 
L 352.541723 332.051598 
L 353.12838 331.574368 
L 391.847759 326.693423 
L 392.434416 328.001236 
L 393.021073 327.994998 
L 394.194388 326.365889 
L 405.340875 324.923755 
L 407.687504 324.647861 
L 408.274162 324.718213 
L 410.620791 324.391695 
L 411.207448 326.312799 
L 411.794105 326.630324 
L 425.873879 324.528626 
L 427.047194 324.278842 
L 429.98048 323.820469 
L 451.686798 320.697151 
L 452.273456 321.317985 
L 452.860113 322.11158 
L 453.44677 322.035426 
L 454.033427 320.590391 
L 467.526544 318.66682 
L 504.485951 313.113546 
L 505.072609 310.812979 
L 512.112496 309.368089 
L 512.699153 310.627309 
L 513.28581 310.536649 
L 513.872467 308.920015 
L 529.125556 305.759273 
L 530.885528 305.214447 
L 536.7521 303.530072 
L 540.272044 302.416777 
L 554.938475 297.542069 
L 563.151677 294.051472 
L 563.738334 296.000427 
L 568.431592 293.910189 
L 571.951535 292.282675 
L 572.538193 293.461825 
L 573.12485 293.142124 
L 573.711507 292.280064 
L 574.298164 290.839671 
L 575.471479 290.328353 
L 577.231451 289.550135 
L 578.991423 288.662835 
L 583.098023 285.290603 
L 588.377939 280.505539 
L 593.071197 275.533208 
L 594.831168 273.319529 
L 595.417826 270.896535 
L 598.351112 266.855891 
L 601.284398 262.482202 
L 605.390999 255.913544 
L 611.257571 245.548515 
L 617.124144 234.688705 
L 620.05743 228.878394 
L 622.990717 222.903445 
L 629.443946 209.148053 
L 631.203918 205.563896 
L 631.790575 204.442913 
L 632.377233 203.87691 
L 632.96389 203.903165 
L 633.550547 202.762599 
L 634.137204 200.368327 
L 637.070491 194.39831 
L 637.657148 192.424551 
L 642.350406 184.248397 
L 647.630321 176.001022 
L 648.216978 176.195975 
L 652.323579 180.281586 
L 653.496894 181.694274 
L 654.083551 184.074187 
L 657.016837 187.957301 
L 660.536781 192.973148 
L 664.056724 198.462888 
L 672.269926 213.035084 
L 679.89647 228.161678 
L 679.89647 228.161678 
" clip-path="url(#pa881156b21)" style="fill: none; stroke: #2dcc0d; stroke-width: 2; stroke-linecap: square"/>
   </g>
   <g id="patch_3">
    <path d="M 64.522344 389.877656 
L 64.522344 27.436719 
" style="fill: none; stroke: #000000; stroke-width: 0.8; stroke-linejoin: miter; stroke-linecap: square"/>
   </g>
   <g id="patch_4">
    <path d="M 709.2 389.877656 
L 709.2 27.436719 
" style="fill: none; stroke: #000000; stroke-width: 0.8; stroke-linejoin: miter; stroke-linecap: square"/>
   </g>
   <g id="patch_5">
    <path d="M 64.522344 389.877656 
L 709.2 389.877656 
" style="fill: none; stroke: #000000; stroke-width: 0.8; stroke-linejoin: miter; stroke-linecap: square"/>
   </g>
   <g id="patch_6">
    <path d="M 64.522344 27.436719 
L 709.2 27.436719 
" style="fill: none; stroke: #000000; stroke-width: 0.8; stroke-linejoin: miter; stroke-linecap: square"/>
   </g>
   <g id="text_14">
    <g id="patch_7">
     <path d="M 548.030586 178.816414 
L 632.588398 178.816414 
Q 635.588398 178.816414 635.588398 175.816414 
L 635.588398 43.79493 
Q 635.588398 40.79493 632.588398 40.79493 
L 548.030586 40.79493 
Q 545.030586 40.79493 545.030586 43.79493 
L 545.030586 175.816414 
Q 545.030586 178.816414 548.030586 178.816414 
z
" style="fill: #ffffff; opacity: 0.85; stroke: #000000; stroke-linejoin: miter"/>
    </g>
    <!-- GLIBC: -->
    <g transform="translate(548.030586 52.393562) scale(0.1 -0.1)">
     <defs>
      <path id="DejaVuSans-2a" d="M 3809 666 
L 3809 1919 
L 2778 1919 
L 2778 2438 
L 4434 2438 
L 4434 434 
Q 4069 175 3628 42 
Q 3188 -91 2688 -91 
Q 1594 -91 976 548 
Q 359 1188 359 2328 
Q 359 3472 976 4111 
Q 1594 4750 2688 4750 
Q 3144 4750 3555 4637 
Q 3966 4525 4313 4306 
L 4313 3634 
Q 3963 3931 3569 4081 
Q 3175 4231 2741 4231 
Q 1884 4231 1454 3753 
Q 1025 3275 1025 2328 
Q 1025 1384 1454 906 
Q 1884 428 2741 428 
Q 3075 428 3337 486 
Q 3600 544 3809 666 
z
" transform="scale(0.015625)"/>
      <path id="DejaVuSans-25" d="M 1259 2228 
L 1259 519 
L 2272 519 
Q 2781 519 3026 730 
Q 3272 941 3272 1375 
Q 3272 1813 3026 2020 
Q 2781 2228 2272 2228 
L 1259 2228 
z
M 1259 4147 
L 1259 2741 
L 2194 2741 
Q 2656 2741 2882 2914 
Q 3109 3088 3109 3444 
Q 3109 3797 2882 3972 
Q 2656 4147 2194 4147 
L 1259 4147 
z
M 628 4666 
L 2241 4666 
Q 2963 4666 3353 4366 
Q 3744 4066 3744 3513 
Q 3744 3084 3544 2831 
Q 3344 2578 2956 2516 
Q 3422 2416 3680 2098 
Q 3938 1781 3938 1306 
Q 3938 681 3513 340 
Q 3088 0 2303 0 
L 628 0 
L 628 4666 
z
" transform="scale(0.015625)"/>
      <path id="DejaVuSans-26" d="M 4122 4306 
L 4122 3641 
Q 3803 3938 3442 4084 
Q 3081 4231 2675 4231 
Q 1875 4231 1450 3742 
Q 1025 3253 1025 2328 
Q 1025 1406 1450 917 
Q 1875 428 2675 428 
Q 3081 428 3442 575 
Q 3803 722 4122 1019 
L 4122 359 
Q 3791 134 3420 21 
Q 3050 -91 2638 -91 
Q 1578 -91 968 557 
Q 359 1206 359 2328 
Q 359 3453 968 4101 
Q 1578 4750 2638 4750 
Q 3056 4750 3426 4639 
Q 3797 4528 4122 4306 
z
" transform="scale(0.015625)"/>
      <path id="DejaVuSans-1d" d="M 750 794 
L 1409 794 
L 1409 0 
L 750 0 
L 750 794 
z
M 750 3309 
L 1409 3309 
L 1409 2516 
L 750 2516 
L 750 3309 
z
" transform="scale(0.015625)"/>
     </defs>
     <use xlink:href="#DejaVuSans-2a"/>
     <use xlink:href="#DejaVuSans-2f" transform="translate(77.484375 0)"/>
     <use xlink:href="#DejaVuSans-2c" transform="translate(133.203125 0)"/>
     <use xlink:href="#DejaVuSans-25" transform="translate(162.703125 0)"/>
     <use xlink:href="#DejaVuSans-26" transform="translate(229.5625 0)"/>
     <use xlink:href="#DejaVuSans-1d" transform="translate(299.390625 0)"/>
    </g>
    <!--  Avg: 93.8 ns -->
    <g transform="translate(548.030586 64.395516) scale(0.1 -0.1)">
     <defs>
      <path id="DejaVuSans-24" d="M 2188 4044 
L 1331 1722 
L 3047 1722 
L 2188 4044 
z
M 1831 4666 
L 2547 4666 
L 4325 0 
L 3669 0 
L 3244 1197 
L 1141 1197 
L 716 0 
L 50 0 
L 1831 4666 
z
" transform="scale(0.015625)"/>
      <path id="DejaVuSans-59" d="M 191 3500 
L 800 3500 
L 1894 563 
L 2988 3500 
L 3597 3500 
L 2284 0 
L 1503 0 
L 191 3500 
z
" transform="scale(0.015625)"/>
      <path id="DejaVuSans-4a" d="M 2906 1791 
Q 2906 2416 2648 2759 
Q 2391 3103 1925 3103 
Q 1463 3103 1205 2759 
Q 947 2416 947 1791 
Q 947 1169 1205 825 
Q 1463 481 1925 481 
Q 2391 481 2648 825 
Q 2906 1169 2906 1791 
z
M 3481 434 
Q 3481 -459 3084 -895 
Q 2688 -1331 1869 -1331 
Q 1566 -1331 1297 -1286 
Q 1028 -1241 775 -1147 
L 775 -588 
Q 1028 -725 1275 -790 
Q 1522 -856 1778 -856 
Q 2344 -856 2625 -561 
Q 2906 -266 2906 331 
L 2906 616 
Q 2728 306 2450 153 
Q 2172 0 1784 0 
Q 1141 0 747 490 
Q 353 981 353 1791 
Q 353 2603 747 3093 
Q 1141 3584 1784 3584 
Q 2172 3584 2450 3431 
Q 2728 3278 2906 2969 
L 2906 3500 
L 3481 3500 
L 3481 434 
z
" transform="scale(0.015625)"/>
      <path id="DejaVuSans-1c" d="M 703 97 
L 703 672 
Q 941 559 1184 500 
Q 1428 441 1663 441 
Q 2288 441 2617 861 
Q 2947 1281 2994 2138 
Q 2813 1869 2534 1725 
Q 2256 1581 1919 1581 
Q 1219 1581 811 2004 
Q 403 2428 403 3163 
Q 403 3881 828 4315 
Q 1253 4750 1959 4750 
Q 2769 4750 3195 4129 
Q 3622 3509 3622 2328 
Q 3622 1225 3098 567 
Q 2575 -91 1691 -91 
Q 1453 -91 1209 -44 
Q 966 3 703 97 
z
M 1959 2075 
Q 2384 2075 2632 2365 
Q 2881 2656 2881 3163 
Q 2881 3666 2632 3958 
Q 2384 4250 1959 4250 
Q 1534 4250 1286 3958 
Q 1038 3666 1038 3163 
Q 1038 2656 1286 2365 
Q 1534 2075 1959 2075 
z
" transform="scale(0.015625)"/>
      <path id="DejaVuSans-16" d="M 2597 2516 
Q 3050 2419 3304 2112 
Q 3559 1806 3559 1356 
Q 3559 666 3084 287 
Q 2609 -91 1734 -91 
Q 1441 -91 1130 -33 
Q 819 25 488 141 
L 488 750 
Q 750 597 1062 519 
Q 1375 441 1716 441 
Q 2309 441 2620 675 
Q 2931 909 2931 1356 
Q 2931 1769 2642 2001 
Q 2353 2234 1838 2234 
L 1294 2234 
L 1294 2753 
L 1863 2753 
Q 2328 2753 2575 2939 
Q 2822 3125 2822 3475 
Q 2822 3834 2567 4026 
Q 2313 4219 1838 4219 
Q 1578 4219 1281 4162 
Q 984 4106 628 3988 
L 628 4550 
Q 988 4650 1302 4700 
Q 1616 4750 1894 4750 
Q 2613 4750 3031 4423 
Q 3450 4097 3450 3541 
Q 3450 3153 3228 2886 
Q 3006 2619 2597 2516 
z
" transform="scale(0.015625)"/>
      <path id="DejaVuSans-11" d="M 684 794 
L 1344 794 
L 1344 0 
L 684 0 
L 684 794 
z
" transform="scale(0.015625)"/>
     </defs>
     <use xlink:href="#DejaVuSans-3"/>
     <use xlink:href="#DejaVuSans-24" transform="translate(31.78125 0)"/>
     <use xlink:href="#DejaVuSans-59" transform="translate(94.328125 0)"/>
     <use xlink:href="#DejaVuSans-4a" transform="translate(153.515625 0)"/>
     <use xlink:href="#DejaVuSans-1d" transform="translate(217 0)"/>
     <use xlink:href="#DejaVuSans-3" transform="translate(250.6875 0)"/>
     <use xlink:href="#DejaVuSans-1c" transform="translate(282.46875 0)"/>
     <use xlink:href="#DejaVuSans-16" transform="translate(346.09375 0)"/>
     <use xlink:href="#DejaVuSans-11" transform="translate(409.71875 0)"/>
     <use xlink:href="#DejaVuSans-1b" transform="translate(441.5 0)"/>
     <use xlink:href="#DejaVuSans-3" transform="translate(505.125 0)"/>
     <use xlink:href="#DejaVuSans-51" transform="translate(536.90625 0)"/>
     <use xlink:href="#DejaVuSans-56" transform="translate(600.28125 0)"/>
    </g>
    <!--  P99: 151.2 ns -->
    <g transform="translate(548.030586 76.397469) scale(0.1 -0.1)">
     <defs>
      <path id="DejaVuSans-33" d="M 1259 4147 
L 1259 2394 
L 2053 2394 
Q 2494 2394 2734 2622 
Q 2975 2850 2975 3272 
Q 2975 3691 2734 3919 
Q 2494 4147 2053 4147 
L 1259 4147 
z
M 628 4666 
L 2053 4666 
Q 2838 4666 3239 4311 
Q 3641 3956 3641 3272 
Q 3641 2581 3239 2228 
Q 2838 1875 2053 1875 
L 1259 1875 
L 1259 0 
L 628 0 
L 628 4666 
z
" transform="scale(0.015625)"/>
     </defs>
     <use xlink:href="#DejaVuSans-3"/>
     <use xlink:href="#DejaVuSans-33" transform="translate(31.78125 0)"/>
     <use xlink:href="#DejaVuSans-1c" transform="translate(92.078125 0)"/>
     <use xlink:href="#DejaVuSans-1c" transform="translate(155.703125 0)"/>
     <use xlink:href="#DejaVuSans-1d" transform="translate(219.328125 0)"/>
     <use xlink:href="#DejaVuSans-3" transform="translate(253.015625 0)"/>
     <use xlink:href="#DejaVuSans-14" transform="translate(284.796875 0)"/>
     <use xlink:href="#DejaVuSans-18" transform="translate(348.421875 0)"/>
     <use xlink:href="#DejaVuSans-14" transform="translate(412.046875 0)"/>
     <use xlink:href="#DejaVuSans-11" transform="translate(475.671875 0)"/>
     <use xlink:href="#DejaVuSans-15" transform="translate(507.453125 0)"/>
     <use xlink:href="#DejaVuSans-3" transform="translate(571.078125 0)"/>
     <use xlink:href="#DejaVuSans-51" transform="translate(602.859375 0)"/>
     <use xlink:href="#DejaVuSans-56" transform="translate(666.234375 0)"/>
    </g>
    <!--  Worst: 4128.0 -->
    <g transform="translate(548.030586 88.399422) scale(0.1 -0.1)">
     <defs>
      <path id="DejaVuSans-3a" d="M 213 4666 
L 850 4666 
L 1831 722 
L 2809 4666 
L 3519 4666 
L 4500 722 
L 5478 4666 
L 6119 4666 
L 4947 0 
L 4153 0 
L 3169 4050 
L 2175 0 
L 1381 0 
L 213 4666 
z
" transform="scale(0.015625)"/>
     </defs>
     <use xlink:href="#DejaVuSans-3"/>
     <use xlink:href="#DejaVuSans-3a" transform="translate(31.78125 0)"/>
     <use xlink:href="#DejaVuSans-52" transform="translate(124.796875 0)"/>
     <use xlink:href="#DejaVuSans-55" transform="translate(185.984375 0)"/>
     <use xlink:href="#DejaVuSans-56" transform="translate(227.09375 0)"/>
     <use xlink:href="#DejaVuSans-57" transform="translate(279.1875 0)"/>
     <use xlink:href="#DejaVuSans-1d" transform="translate(318.390625 0)"/>
     <use xlink:href="#DejaVuSans-3" transform="translate(352.078125 0)"/>
     <use xlink:href="#DejaVuSans-17" transform="translate(383.859375 0)"/>
     <use xlink:href="#DejaVuSans-14" transform="translate(447.484375 0)"/>
     <use xlink:href="#DejaVuSans-15" transform="translate(511.109375 0)"/>
     <use xlink:href="#DejaVuSans-1b" transform="translate(574.734375 0)"/>
     <use xlink:href="#DejaVuSans-11" transform="translate(638.359375 0)"/>
     <use xlink:href="#DejaVuSans-13" transform="translate(670.140625 0)"/>
    </g>
    <!--  Best: 63.0 -->
    <g transform="translate(548.030586 100.401375) scale(0.1 -0.1)">
     <use xlink:href="#DejaVuSans-3"/>
     <use xlink:href="#DejaVuSans-25" transform="translate(31.78125 0)"/>
     <use xlink:href="#DejaVuSans-48" transform="translate(100.390625 0)"/>
     <use xlink:href="#DejaVuSans-56" transform="translate(161.921875 0)"/>
     <use xlink:href="#DejaVuSans-57" transform="translate(214.015625 0)"/>
     <use xlink:href="#DejaVuSans-1d" transform="translate(253.21875 0)"/>
     <use xlink:href="#DejaVuSans-3" transform="translate(286.90625 0)"/>
     <use xlink:href="#DejaVuSans-19" transform="translate(318.6875 0)"/>
     <use xlink:href="#DejaVuSans-16" transform="translate(382.3125 0)"/>
     <use xlink:href="#DejaVuSans-11" transform="translate(445.9375 0)"/>
     <use xlink:href="#DejaVuSans-13" transform="translate(477.71875 0)"/>
    </g>
    <!--  -->
    <g transform="translate(548.030586 112.403328) scale(0.1 -0.1)"/>
    <!-- CUSTOM: -->
    <g transform="translate(548.030586 124.405281) scale(0.1 -0.1)">
     <defs>
      <path id="DejaVuSans-38" d="M 556 4666 
L 1191 4666 
L 1191 1831 
Q 1191 1081 1462 751 
Q 1734 422 2344 422 
Q 2950 422 3222 751 
Q 3494 1081 3494 1831 
L 3494 4666 
L 4128 4666 
L 4128 1753 
Q 4128 841 3676 375 
Q 3225 -91 2344 -91 
Q 1459 -91 1007 375 
Q 556 841 556 1753 
L 556 4666 
z
" transform="scale(0.015625)"/>
      <path id="DejaVuSans-36" d="M 3425 4513 
L 3425 3897 
Q 3066 4069 2747 4153 
Q 2428 4238 2131 4238 
Q 1616 4238 1336 4038 
Q 1056 3838 1056 3469 
Q 1056 3159 1242 3001 
Q 1428 2844 1947 2747 
L 2328 2669 
Q 3034 2534 3370 2195 
Q 3706 1856 3706 1288 
Q 3706 609 3251 259 
Q 2797 -91 1919 -91 
Q 1588 -91 1214 -16 
Q 841 59 441 206 
L 441 856 
Q 825 641 1194 531 
Q 1563 422 1919 422 
Q 2459 422 2753 634 
Q 3047 847 3047 1241 
Q 3047 1584 2836 1778 
Q 2625 1972 2144 2069 
L 1759 2144 
Q 1053 2284 737 2584 
Q 422 2884 422 3419 
Q 422 4038 858 4394 
Q 1294 4750 2059 4750 
Q 2388 4750 2728 4690 
Q 3069 4631 3425 4513 
z
" transform="scale(0.015625)"/>
      <path id="DejaVuSans-37" d="M -19 4666 
L 3928 4666 
L 3928 4134 
L 2272 4134 
L 2272 0 
L 1638 0 
L 1638 4134 
L -19 4134 
L -19 4666 
z
" transform="scale(0.015625)"/>
      <path id="DejaVuSans-32" d="M 2522 4238 
Q 1834 4238 1429 3725 
Q 1025 3213 1025 2328 
Q 1025 1447 1429 934 
Q 1834 422 2522 422 
Q 3209 422 3611 934 
Q 4013 1447 4013 2328 
Q 4013 3213 3611 3725 
Q 3209 4238 2522 4238 
z
M 2522 4750 
Q 3503 4750 4090 4092 
Q 4678 3434 4678 2328 
Q 4678 1225 4090 567 
Q 3503 -91 2522 -91 
Q 1538 -91 948 565 
Q 359 1222 359 2328 
Q 359 3434 948 4092 
Q 1538 4750 2522 4750 
z
" transform="scale(0.015625)"/>
      <path id="DejaVuSans-30" d="M 628 4666 
L 1569 4666 
L 2759 1491 
L 3956 4666 
L 4897 4666 
L 4897 0 
L 4281 0 
L 4281 4097 
L 3078 897 
L 2444 897 
L 1241 4097 
L 1241 0 
L 628 0 
L 628 4666 
z
" transform="scale(0.015625)"/>
     </defs>
     <use xlink:href="#DejaVuSans-26"/>
     <use xlink:href="#DejaVuSans-38" transform="translate(69.828125 0)"/>
     <use xlink:href="#DejaVuSans-36" transform="translate(143.015625 0)"/>
     <use xlink:href="#DejaVuSans-37" transform="translate(206.5 0)"/>
     <use xlink:href="#DejaVuSans-32" transform="translate(267.578125 0)"/>
     <use xlink:href="#DejaVuSans-30" transform="translate(346.296875 0)"/>
     <use xlink:href="#DejaVuSans-1d" transform="translate(432.578125 0)"/>
    </g>
    <!--  Avg: 4369.8 ns -->
    <g transform="translate(548.030586 136.407234) scale(0.1 -0.1)">
     <use xlink:href="#DejaVuSans-3"/>
     <use xlink:href="#DejaVuSans-24" transform="translate(31.78125 0)"/>
     <use xlink:href="#DejaVuSans-59" transform="translate(94.328125 0)"/>
     <use xlink:href="#DejaVuSans-4a" transform="translate(153.515625 0)"/>
     <use xlink:href="#DejaVuSans-1d" transform="translate(217 0)"/>
     <use xlink:href="#DejaVuSans-3" transform="translate(250.6875 0)"/>
     <use xlink:href="#DejaVuSans-17" transform="translate(282.46875 0)"/>
     <use xlink:href="#DejaVuSans-16" transform="translate(346.09375 0)"/>
     <use xlink:href="#DejaVuSans-19" transform="translate(409.71875 0)"/>
     <use xlink:href="#DejaVuSans-1c" transform="translate(473.34375 0)"/>
     <use xlink:href="#DejaVuSans-11" transform="translate(536.96875 0)"/>
     <use xlink:href="#DejaVuSans-1b" transform="translate(568.75 0)"/>
     <use xlink:href="#DejaVuSans-3" transform="translate(632.375 0)"/>
     <use xlink:href="#DejaVuSans-51" transform="translate(664.15625 0)"/>
     <use xlink:href="#DejaVuSans-56" transform="translate(727.53125 0)"/>
    </g>
    <!--  P99: 15416.3 ns -->
    <g transform="translate(548.030586 148.409187) scale(0.1 -0.1)">
     <use xlink:href="#DejaVuSans-3"/>
     <use xlink:href="#DejaVuSans-33" transform="translate(31.78125 0)"/>
     <use xlink:href="#DejaVuSans-1c" transform="translate(92.078125 0)"/>
     <use xlink:href="#DejaVuSans-1c" transform="translate(155.703125 0)"/>
     <use xlink:href="#DejaVuSans-1d" transform="translate(219.328125 0)"/>
     <use xlink:href="#DejaVuSans-3" transform="translate(253.015625 0)"/>
     <use xlink:href="#DejaVuSans-14" transform="translate(284.796875 0)"/>
     <use xlink:href="#DejaVuSans-18" transform="translate(348.421875 0)"/>
     <use xlink:href="#DejaVuSans-17" transform="translate(412.046875 0)"/>
     <use xlink:href="#DejaVuSans-14" transform="translate(475.671875 0)"/>
     <use xlink:href="#DejaVuSans-19" transform="translate(539.296875 0)"/>
     <use xlink:href="#DejaVuSans-11" transform="translate(602.921875 0)"/>
     <use xlink:href="#DejaVuSans-16" transform="translate(634.703125 0)"/>
     <use xlink:href="#DejaVuSans-3" transform="translate(698.328125 0)"/>
     <use xlink:href="#DejaVuSans-51" transform="translate(730.109375 0)"/>
     <use xlink:href="#DejaVuSans-56" transform="translate(793.484375 0)"/>
    </g>
    <!--  Worst: 22778.0 -->
    <g transform="translate(548.030586 160.411141) scale(0.1 -0.1)">
     <defs>
      <path id="DejaVuSans-1a" d="M 525 4666 
L 3525 4666 
L 3525 4397 
L 1831 0 
L 1172 0 
L 2766 4134 
L 525 4134 
L 525 4666 
z
" transform="scale(0.015625)"/>
     </defs>
     <use xlink:href="#DejaVuSans-3"/>
     <use xlink:href="#DejaVuSans-3a" transform="translate(31.78125 0)"/>
     <use xlink:href="#DejaVuSans-52" transform="translate(124.796875 0)"/>
     <use xlink:href="#DejaVuSans-55" transform="translate(185.984375 0)"/>
     <use xlink:href="#DejaVuSans-56" transform="translate(227.09375 0)"/>
     <use xlink:href="#DejaVuSans-57" transform="translate(279.1875 0)"/>
     <use xlink:href="#DejaVuSans-1d" transform="translate(318.390625 0)"/>
     <use xlink:href="#DejaVuSans-3" transform="translate(352.078125 0)"/>
     <use xlink:href="#DejaVuSans-15" transform="translate(383.859375 0)"/>
     <use xlink:href="#DejaVuSans-15" transform="translate(447.484375 0)"/>
     <use xlink:href="#DejaVuSans-1a" transform="translate(511.109375 0)"/>
     <use xlink:href="#DejaVuSans-1a" transform="translate(574.734375 0)"/>
     <use xlink:href="#DejaVuSans-1b" transform="translate(638.359375 0)"/>
     <use xlink:href="#DejaVuSans-11" transform="translate(701.984375 0)"/>
     <use xlink:href="#DejaVuSans-13" transform="translate(733.765625 0)"/>
    </g>
    <!--  Best: 63.0 -->
    <g transform="translate(548.030586 172.413094) scale(0.1 -0.1)">
     <use xlink:href="#DejaVuSans-3"/>
     <use xlink:href="#DejaVuSans-25" transform="translate(31.78125 0)"/>
     <use xlink:href="#DejaVuSans-48" transform="translate(100.390625 0)"/>
     <use xlink:href="#DejaVuSans-56" transform="translate(161.921875 0)"/>
     <use xlink:href="#DejaVuSans-57" transform="translate(214.015625 0)"/>
     <use xlink:href="#DejaVuSans-1d" transform="translate(253.21875 0)"/>
     <use xlink:href="#DejaVuSans-3" transform="translate(286.90625 0)"/>
     <use xlink:href="#DejaVuSans-19" transform="translate(318.6875 0)"/>
     <use xlink:href="#DejaVuSans-16" transform="translate(382.3125 0)"/>
     <use xlink:href="#DejaVuSans-11" transform="translate(445.9375 0)"/>
     <use xlink:href="#DejaVuSans-13" transform="translate(477.71875 0)"/>
    </g>
   </g>
   <g id="text_15">
    <!-- Allocation Latency Evaluation (Malloc) -->
    <g transform="translate(235.579141 21.436719) scale(0.14 -0.14)">
     <defs>
      <path id="DejaVuSans-Bold-24" d="M 3419 850 
L 1538 850 
L 1241 0 
L 31 0 
L 1759 4666 
L 3194 4666 
L 4922 0 
L 3713 0 
L 3419 850 
z
M 1838 1716 
L 3116 1716 
L 2478 3572 
L 1838 1716 
z
" transform="scale(0.015625)"/>
      <path id="DejaVuSans-Bold-4f" d="M 538 4863 
L 1656 4863 
L 1656 0 
L 538 0 
L 538 4863 
z
" transform="scale(0.015625)"/>
      <path id="DejaVuSans-Bold-52" d="M 2203 2784 
Q 1831 2784 1636 2517 
Q 1441 2250 1441 1747 
Q 1441 1244 1636 976 
Q 1831 709 2203 709 
Q 2569 709 2762 976 
Q 2956 1244 2956 1747 
Q 2956 2250 2762 2517 
Q 2569 2784 2203 2784 
z
M 2203 3584 
Q 3106 3584 3614 3096 
Q 4122 2609 4122 1747 
Q 4122 884 3614 396 
Q 3106 -91 2203 -91 
Q 1297 -91 786 396 
Q 275 884 275 1747 
Q 275 2609 786 3096 
Q 1297 3584 2203 3584 
z
" transform="scale(0.015625)"/>
      <path id="DejaVuSans-Bold-46" d="M 3366 3391 
L 3366 2478 
Q 3138 2634 2908 2709 
Q 2678 2784 2431 2784 
Q 1963 2784 1702 2511 
Q 1441 2238 1441 1747 
Q 1441 1256 1702 982 
Q 1963 709 2431 709 
Q 2694 709 2930 787 
Q 3166 866 3366 1019 
L 3366 103 
Q 3103 6 2833 -42 
Q 2563 -91 2291 -91 
Q 1344 -91 809 395 
Q 275 881 275 1747 
Q 275 2613 809 3098 
Q 1344 3584 2291 3584 
Q 2566 3584 2833 3536 
Q 3100 3488 3366 3391 
z
" transform="scale(0.015625)"/>
      <path id="DejaVuSans-Bold-44" d="M 2106 1575 
Q 1756 1575 1579 1456 
Q 1403 1338 1403 1106 
Q 1403 894 1545 773 
Q 1688 653 1941 653 
Q 2256 653 2472 879 
Q 2688 1106 2688 1447 
L 2688 1575 
L 2106 1575 
z
M 3816 1997 
L 3816 0 
L 2688 0 
L 2688 519 
Q 2463 200 2181 54 
Q 1900 -91 1497 -91 
Q 953 -91 614 226 
Q 275 544 275 1050 
Q 275 1666 698 1953 
Q 1122 2241 2028 2241 
L 2688 2241 
L 2688 2328 
Q 2688 2594 2478 2717 
Q 2269 2841 1825 2841 
Q 1466 2841 1156 2769 
Q 847 2697 581 2553 
L 581 3406 
Q 941 3494 1303 3539 
Q 1666 3584 2028 3584 
Q 2975 3584 3395 3211 
Q 3816 2838 3816 1997 
z
" transform="scale(0.015625)"/>
      <path id="DejaVuSans-Bold-57" d="M 1759 4494 
L 1759 3500 
L 2913 3500 
L 2913 2700 
L 1759 2700 
L 1759 1216 
Q 1759 972 1856 886 
Q 1953 800 2241 800 
L 2816 800 
L 2816 0 
L 1856 0 
Q 1194 0 917 276 
Q 641 553 641 1216 
L 641 2700 
L 84 2700 
L 84 3500 
L 641 3500 
L 641 4494 
L 1759 4494 
z
" transform="scale(0.015625)"/>
      <path id="DejaVuSans-Bold-4c" d="M 538 3500 
L 1656 3500 
L 1656 0 
L 538 0 
L 538 3500 
z
M 538 4863 
L 1656 4863 
L 1656 3950 
L 538 3950 
L 538 4863 
z
" transform="scale(0.015625)"/>
      <path id="DejaVuSans-Bold-51" d="M 4056 2131 
L 4056 0 
L 2931 0 
L 2931 347 
L 2931 1631 
Q 2931 2084 2911 2256 
Q 2891 2428 2841 2509 
Q 2775 2619 2662 2680 
Q 2550 2741 2406 2741 
Q 2056 2741 1856 2470 
Q 1656 2200 1656 1722 
L 1656 0 
L 538 0 
L 538 3500 
L 1656 3500 
L 1656 2988 
Q 1909 3294 2193 3439 
Q 2478 3584 2822 3584 
Q 3428 3584 3742 3212 
Q 4056 2841 4056 2131 
z
" transform="scale(0.015625)"/>
      <path id="DejaVuSans-Bold-3" transform="scale(0.015625)"/>
      <path id="DejaVuSans-Bold-2f" d="M 588 4666 
L 1791 4666 
L 1791 909 
L 3903 909 
L 3903 0 
L 588 0 
L 588 4666 
z
" transform="scale(0.015625)"/>
      <path id="DejaVuSans-Bold-48" d="M 4031 1759 
L 4031 1441 
L 1416 1441 
Q 1456 1047 1700 850 
Q 1944 653 2381 653 
Q 2734 653 3104 758 
Q 3475 863 3866 1075 
L 3866 213 
Q 3469 63 3072 -14 
Q 2675 -91 2278 -91 
Q 1328 -91 801 392 
Q 275 875 275 1747 
Q 275 2603 792 3093 
Q 1309 3584 2216 3584 
Q 3041 3584 3536 3087 
Q 4031 2591 4031 1759 
z
M 2881 2131 
Q 2881 2450 2695 2645 
Q 2509 2841 2209 2841 
Q 1884 2841 1681 2658 
Q 1478 2475 1428 2131 
L 2881 2131 
z
" transform="scale(0.015625)"/>
      <path id="DejaVuSans-Bold-5c" d="M 78 3500 
L 1197 3500 
L 2138 1125 
L 2938 3500 
L 4056 3500 
L 2584 -331 
Q 2363 -916 2067 -1148 
Q 1772 -1381 1288 -1381 
L 641 -1381 
L 641 -647 
L 991 -647 
Q 1275 -647 1404 -556 
Q 1534 -466 1606 -231 
L 1638 -134 
L 78 3500 
z
" transform="scale(0.015625)"/>
      <path id="DejaVuSans-Bold-28" d="M 588 4666 
L 3834 4666 
L 3834 3756 
L 1791 3756 
L 1791 2888 
L 3713 2888 
L 3713 1978 
L 1791 1978 
L 1791 909 
L 3903 909 
L 3903 0 
L 588 0 
L 588 4666 
z
" transform="scale(0.015625)"/>
      <path id="DejaVuSans-Bold-59" d="M 97 3500 
L 1216 3500 
L 2088 1081 
L 2956 3500 
L 4078 3500 
L 2700 0 
L 1472 0 
L 97 3500 
z
" transform="scale(0.015625)"/>
      <path id="DejaVuSans-Bold-58" d="M 500 1363 
L 500 3500 
L 1625 3500 
L 1625 3150 
Q 1625 2866 1622 2436 
Q 1619 2006 1619 1863 
Q 1619 1441 1641 1255 
Q 1663 1069 1716 984 
Q 1784 875 1895 815 
Q 2006 756 2150 756 
Q 2500 756 2700 1025 
Q 2900 1294 2900 1772 
L 2900 3500 
L 4019 3500 
L 4019 0 
L 2900 0 
L 2900 506 
Q 2647 200 2364 54 
Q 2081 -91 1741 -91 
Q 1134 -91 817 281 
Q 500 653 500 1363 
z
" transform="scale(0.015625)"/>
      <path id="DejaVuSans-Bold-b" d="M 2413 -844 
L 1484 -844 
Q 1006 -72 778 623 
Q 550 1319 550 2003 
Q 550 2688 779 3389 
Q 1009 4091 1484 4856 
L 2413 4856 
Q 2013 4116 1813 3408 
Q 1613 2700 1613 2009 
Q 1613 1319 1811 609 
Q 2009 -100 2413 -844 
z
" transform="scale(0.015625)"/>
      <path id="DejaVuSans-Bold-30" d="M 588 4666 
L 2119 4666 
L 3181 2169 
L 4250 4666 
L 5778 4666 
L 5778 0 
L 4641 0 
L 4641 3413 
L 3566 897 
L 2803 897 
L 1728 3413 
L 1728 0 
L 588 0 
L 588 4666 
z
" transform="scale(0.015625)"/>
      <path id="DejaVuSans-Bold-c" d="M 513 -844 
Q 913 -100 1113 609 
Q 1313 1319 1313 2009 
Q 1313 2700 1113 3408 
Q 913 4116 513 4856 
L 1441 4856 
Q 1916 4091 2145 3389 
Q 2375 2688 2375 2003 
Q 2375 1319 2147 623 
Q 1919 -72 1441 -844 
L 513 -844 
z
" transform="scale(0.015625)"/>
     </defs>
     <use xlink:href="#DejaVuSans-Bold-24"/>
     <use xlink:href="#DejaVuSans-Bold-4f" transform="translate(77.390625 0)"/>
     <use xlink:href="#DejaVuSans-Bold-4f" transform="translate(111.671875 0)"/>
     <use xlink:href="#DejaVuSans-Bold-52" transform="translate(145.953125 0)"/>
     <use xlink:href="#DejaVuSans-Bold-46" transform="translate(214.65625 0)"/>
     <use xlink:href="#DejaVuSans-Bold-44" transform="translate(273.9375 0)"/>
     <use xlink:href="#DejaVuSans-Bold-57" transform="translate(341.421875 0)"/>
     <use xlink:href="#DejaVuSans-Bold-4c" transform="translate(389.21875 0)"/>
     <use xlink:href="#DejaVuSans-Bold-52" transform="translate(423.5 0)"/>
     <use xlink:href="#DejaVuSans-Bold-51" transform="translate(492.203125 0)"/>
     <use xlink:href="#DejaVuSans-Bold-3" transform="translate(563.390625 0)"/>
     <use xlink:href="#DejaVuSans-Bold-2f" transform="translate(598.203125 0)"/>
     <use xlink:href="#DejaVuSans-Bold-44" transform="translate(661.921875 0)"/>
     <use xlink:href="#DejaVuSans-Bold-57" transform="translate(729.40625 0)"/>
     <use xlink:href="#DejaVuSans-Bold-48" transform="translate(777.203125 0)"/>
     <use xlink:href="#DejaVuSans-Bold-51" transform="translate(845.03125 0)"/>
     <use xlink:href="#DejaVuSans-Bold-46" transform="translate(916.21875 0)"/>
     <use xlink:href="#DejaVuSans-Bold-5c" transform="translate(975.5 0)"/>
     <use xlink:href="#DejaVuSans-Bold-3" transform="translate(1040.6875 0)"/>
     <use xlink:href="#DejaVuSans-Bold-28" transform="translate(1075.5 0)"/>
     <use xlink:href="#DejaVuSans-Bold-59" transform="translate(1143.8125 0)"/>
     <use xlink:href="#DejaVuSans-Bold-44" transform="translate(1209 0)"/>
     <use xlink:href="#DejaVuSans-Bold-4f" transform="translate(1276.484375 0)"/>
     <use xlink:href="#DejaVuSans-Bold-58" transform="translate(1310.765625 0)"/>
     <use xlink:href="#DejaVuSans-Bold-44" transform="translate(1381.953125 0)"/>
     <use xlink:href="#DejaVuSans-Bold-57" transform="translate(1449.4375 0)"/>
     <use xlink:href="#DejaVuSans-Bold-4c" transform="translate(1497.234375 0)"/>
     <use xlink:href="#DejaVuSans-Bold-52" transform="translate(1531.515625 0)"/>
     <use xlink:href="#DejaVuSans-Bold-51" transform="translate(1600.21875 0)"/>
     <use xlink:href="#DejaVuSans-Bold-3" transform="translate(1671.40625 0)"/>
     <use xlink:href="#DejaVuSans-Bold-b" transform="translate(1706.21875 0)"/>
     <use xlink:href="#DejaVuSans-Bold-30" transform="translate(1751.921875 0)"/>
     <use xlink:href="#DejaVuSans-Bold-44" transform="translate(1851.4375 0)"/>
     <use xlink:href="#DejaVuSans-Bold-4f" transform="translate(1918.921875 0)"/>
     <use xlink:href="#DejaVuSans-Bold-4f" transform="translate(1953.203125 0)"/>
     <use xlink:href="#DejaVuSans-Bold-52" transform="translate(1987.484375 0)"/>
     <use xlink:href="#DejaVuSans-Bold-46" transform="translate(2056.1875 0)"/>
     <use xlink:href="#DejaVuSans-Bold-c" transform="translate(2115.46875 0)"/>
    </g>
   </g>
   <g id="legend_1">
    <g id="patch_8">
     <path d="M 71.522344 95.439844 
L 172.377031 95.439844 
Q 174.377031 95.439844 174.377031 93.439844 
L 174.377031 34.436719 
Q 174.377031 32.436719 172.377031 32.436719 
L 71.522344 32.436719 
Q 69.522344 32.436719 69.522344 34.436719 
L 69.522344 93.439844 
Q 69.522344 95.439844 71.522344 95.439844 
z
" style="fill: #ffffff; opacity: 0.8; stroke: #cccccc; stroke-linejoin: miter"/>
    </g>
    <g id="line2d_27">
     <path d="M 73.522344 40.535156 
L 83.522344 40.535156 
L 93.522344 40.535156 
" style="fill: none; stroke: #7426d9; stroke-opacity: 0.4; stroke-width: 1.5; stroke-linecap: square"/>
    </g>
    <g id="text_16">
     <!-- Glibc raw -->
     <g transform="translate(101.522344 44.035156) scale(0.1 -0.1)">
      <defs>
       <path id="DejaVuSans-4f" d="M 603 4863 
L 1178 4863 
L 1178 0 
L 603 0 
L 603 4863 
z
" transform="scale(0.015625)"/>
       <path id="DejaVuSans-45" d="M 3116 1747 
Q 3116 2381 2855 2742 
Q 2594 3103 2138 3103 
Q 1681 3103 1420 2742 
Q 1159 2381 1159 1747 
Q 1159 1113 1420 752 
Q 1681 391 2138 391 
Q 2594 391 2855 752 
Q 3116 1113 3116 1747 
z
M 1159 2969 
Q 1341 3281 1617 3432 
Q 1894 3584 2278 3584 
Q 2916 3584 3314 3078 
Q 3713 2572 3713 1747 
Q 3713 922 3314 415 
Q 2916 -91 2278 -91 
Q 1894 -91 1617 61 
Q 1341 213 1159 525 
L 1159 0 
L 581 0 
L 581 4863 
L 1159 4863 
L 1159 2969 
z
" transform="scale(0.015625)"/>
       <path id="DejaVuSans-5a" d="M 269 3500 
L 844 3500 
L 1563 769 
L 2278 3500 
L 2956 3500 
L 3675 769 
L 4391 3500 
L 4966 3500 
L 4050 0 
L 3372 0 
L 2619 2869 
L 1863 0 
L 1184 0 
L 269 3500 
z
" transform="scale(0.015625)"/>
      </defs>
      <use xlink:href="#DejaVuSans-2a"/>
      <use xlink:href="#DejaVuSans-4f" transform="translate(77.484375 0)"/>
      <use xlink:href="#DejaVuSans-4c" transform="translate(105.265625 0)"/>
      <use xlink:href="#DejaVuSans-45" transform="translate(133.046875 0)"/>
      <use xlink:href="#DejaVuSans-46" transform="translate(196.53125 0)"/>
      <use xlink:href="#DejaVuSans-3" transform="translate(251.515625 0)"/>
      <use xlink:href="#DejaVuSans-55" transform="translate(283.296875 0)"/>
      <use xlink:href="#DejaVuSans-44" transform="translate(324.40625 0)"/>
      <use xlink:href="#DejaVuSans-5a" transform="translate(385.6875 0)"/>
     </g>
    </g>
    <g id="line2d_28">
     <path d="M 73.522344 55.535937 
L 83.522344 55.535937 
L 93.522344 55.535937 
" style="fill: none; stroke: #2dcc0d; stroke-opacity: 0.4; stroke-width: 1.5; stroke-linecap: square"/>
    </g>
    <g id="text_17">
     <!-- Custom raw -->
     <g transform="translate(101.522344 59.035937) scale(0.1 -0.1)">
      <defs>
       <path id="DejaVuSans-58" d="M 544 1381 
L 544 3500 
L 1119 3500 
L 1119 1403 
Q 1119 906 1312 657 
Q 1506 409 1894 409 
Q 2359 409 2629 706 
Q 2900 1003 2900 1516 
L 2900 3500 
L 3475 3500 
L 3475 0 
L 2900 0 
L 2900 538 
Q 2691 219 2414 64 
Q 2138 -91 1772 -91 
Q 1169 -91 856 284 
Q 544 659 544 1381 
z
M 1991 3584 
L 1991 3584 
z
" transform="scale(0.015625)"/>
       <path id="DejaVuSans-50" d="M 3328 2828 
Q 3544 3216 3844 3400 
Q 4144 3584 4550 3584 
Q 5097 3584 5394 3201 
Q 5691 2819 5691 2113 
L 5691 0 
L 5113 0 
L 5113 2094 
Q 5113 2597 4934 2840 
Q 4756 3084 4391 3084 
Q 3944 3084 3684 2787 
Q 3425 2491 3425 1978 
L 3425 0 
L 2847 0 
L 2847 2094 
Q 2847 2600 2669 2842 
Q 2491 3084 2119 3084 
Q 1678 3084 1418 2786 
Q 1159 2488 1159 1978 
L 1159 0 
L 581 0 
L 581 3500 
L 1159 3500 
L 1159 2956 
Q 1356 3278 1631 3431 
Q 1906 3584 2284 3584 
Q 2666 3584 2933 3390 
Q 3200 3197 3328 2828 
z
" transform="scale(0.015625)"/>
      </defs>
      <use xlink:href="#DejaVuSans-26"/>
      <use xlink:href="#DejaVuSans-58" transform="translate(69.828125 0)"/>
      <use xlink:href="#DejaVuSans-56" transform="translate(133.203125 0)"/>
      <use xlink:href="#DejaVuSans-57" transform="translate(185.296875 0)"/>
      <use xlink:href="#DejaVuSans-52" transform="translate(224.5 0)"/>
      <use xlink:href="#DejaVuSans-50" transform="translate(285.6875 0)"/>
      <use xlink:href="#DejaVuSans-3" transform="translate(383.09375 0)"/>
      <use xlink:href="#DejaVuSans-55" transform="translate(414.875 0)"/>
      <use xlink:href="#DejaVuSans-44" transform="translate(455.984375 0)"/>
      <use xlink:href="#DejaVuSans-5a" transform="translate(517.265625 0)"/>
     </g>
    </g>
    <g id="line2d_29">
     <path d="M 73.522344 70.536719 
L 83.522344 70.536719 
L 93.522344 70.536719 
" style="fill: none; stroke: #7426d9; stroke-width: 2; stroke-linecap: square"/>
    </g>
    <g id="text_18">
     <!-- Glibc Trend -->
     <g transform="translate(101.522344 74.036719) scale(0.1 -0.1)">
      <use xlink:href="#DejaVuSans-2a"/>
      <use xlink:href="#DejaVuSans-4f" transform="translate(77.484375 0)"/>
      <use xlink:href="#DejaVuSans-4c" transform="translate(105.265625 0)"/>
      <use xlink:href="#DejaVuSans-45" transform="translate(133.046875 0)"/>
      <use xlink:href="#DejaVuSans-46" transform="translate(196.53125 0)"/>
      <use xlink:href="#DejaVuSans-3" transform="translate(251.515625 0)"/>
      <use xlink:href="#DejaVuSans-37" transform="translate(283.296875 0)"/>
      <use xlink:href="#DejaVuSans-55" transform="translate(329.671875 0)"/>
      <use xlink:href="#DejaVuSans-48" transform="translate(368.578125 0)"/>
      <use xlink:href="#DejaVuSans-51" transform="translate(430.109375 0)"/>
      <use xlink:href="#DejaVuSans-47" transform="translate(493.484375 0)"/>
     </g>
    </g>
    <g id="line2d_30">
     <path d="M 73.522344 85.5375 
L 83.522344 85.5375 
L 93.522344 85.5375 
" style="fill: none; stroke: #2dcc0d; stroke-width: 2; stroke-linecap: square"/>
    </g>
    <g id="text_19">
     <!-- Custom Trend -->
     <g transform="translate(101.522344 89.0375) scale(0.1 -0.1)">
      <use xlink:href="#DejaVuSans-26"/>
      <use xlink:href="#DejaVuSans-58" transform="translate(69.828125 0)"/>
      <use xlink:href="#DejaVuSans-56" transform="translate(133.203125 0)"/>
      <use xlink:href="#DejaVuSans-57" transform="translate(185.296875 0)"/>
      <use xlink:href="#DejaVuSans-52" transform="translate(224.5 0)"/>
      <use xlink:href="#DejaVuSans-50" transform="translate(285.6875 0)"/>
      <use xlink:href="#DejaVuSans-3" transform="translate(383.09375 0)"/>
      <use xlink:href="#DejaVuSans-37" transform="translate(414.875 0)"/>
      <use xlink:href="#DejaVuSans-55" transform="translate(461.25 0)"/>
      <use xlink:href="#DejaVuSans-48" transform="translate(500.15625 0)"/>
      <use xlink:href="#DejaVuSans-51" transform="translate(561.6875 0)"/>
      <use xlink:href="#DejaVuSans-47" transform="translate(625.0625 0)"/>
     </g>
    </g>
   </g>
  </g>
 </g>
 <defs>
  <clipPath id="pa881156b21">
   <rect x="64.522344" y="27.436719" width="644.677656" height="362.440938"/>
  </clipPath>
 </defs>
</svg>
