<?xml version="1.0" encoding="utf-8" standalone="no"?>
<!DOCTYPE svg PUBLIC "-//W3C//DTD SVG 1.1//EN"
  "http://www.w3.org/Graphics/SVG/1.1/DTD/svg11.dtd">
<svg xmlns:xlink="http://www.w3.org/1999/xlink" width="720pt" height="432pt" viewBox="0 0 720 432" xmlns="http://www.w3.org/2000/svg" version="1.1">
 <metadata>
  <rdf:RDF xmlns:dc="http://purl.org/dc/elements/1.1/" xmlns:cc="http://creativecommons.org/ns#" xmlns:rdf="http://www.w3.org/1999/02/22-rdf-syntax-ns#">
   <cc:Work>
    <dc:type rdf:resource="http://purl.org/dc/dcmitype/StillImage"/>
    <dc:date>2026-06-16T11:02:46.854302</dc:date>
    <dc:format>image/svg+xml</dc:format>
    <dc:creator>
     <cc:Agent>
      <dc:title>Matplotlib v3.11.0, https://matplotlib.org/</dc:title>
     </cc:Agent>
    </dc:creator>
   </cc:Work>
  </rdf:RDF>
 </metadata>
 <defs>
  <style type="text/css">*{stroke-linejoin: round; stroke-linecap: butt}</style>
 </defs>
 <g id="figure_1">
  <g id="patch_1">
   <path d="M 0 432 
L 720 432 
L 720 0 
L 0 0 
z
" style="fill: #ffffff"/>
  </g>
  <g id="axes_1">
   <g id="patch_2">
    <path d="M 58.042344 389.877656 
L 709.2 389.877656 
L 709.2 27.436719 
L 58.042344 27.436719 
z
" style="fill: #ffffff"/>
   </g>
   <g id="matplotlib.axis_1">
    <g id="xtick_1">
     <g id="line2d_1">
      <path d="M 87.640419 389.877656 
L 87.640419 27.436719 
" clip-path="url(#p8b1e250984)" style="fill: none; stroke-dasharray: 2.96,1.28; stroke-dashoffset: 0; stroke: #b0b0b0; stroke-opacity: 0.5; stroke-width: 0.8"/>
     </g>
     <g id="line2d_2">
      <defs>
       <path id="me60cb29668" d="M 0 0 
L 0 3.5 
" style="stroke: #000000; stroke-width: 0.8"/>
      </defs>
      <g>
       <use xlink:href="#me60cb29668" x="87.640419" y="389.877656" style="stroke: #000000; stroke-width: 0.8"/>
      </g>
     </g>
     <g id="text_1">
      <!-- 0 -->
      <g transform="translate(84.459169 404.475312) scale(0.1 -0.1)">
       <defs>
        <path id="DejaVuSans-13" d="M 2034 4250 
Q 1547 4250 1301 3770 
Q 1056 3291 1056 2328 
Q 1056 1369 1301 889 
Q 1547 409 2034 409 
Q 2525 409 2770 889 
Q 3016 1369 3016 2328 
Q 3016 3291 2770 3770 
Q 2525 4250 2034 4250 
z
M 2034 4750 
Q 2819 4750 3233 4129 
Q 3647 3509 3647 2328 
Q 3647 1150 3233 529 
Q 2819 -91 2034 -91 
Q 1250 -91 836 529 
Q 422 1150 422 2328 
Q 422 3509 836 4129 
Q 1250 4750 2034 4750 
z
" transform="scale(0.015625)"/>
       </defs>
       <use xlink:href="#DejaVuSans-13"/>
      </g>
     </g>
    </g>
    <g id="xtick_2">
     <g id="line2d_3">
      <path d="M 206.151231 389.877656 
L 206.151231 27.436719 
" clip-path="url(#p8b1e250984)" style="fill: none; stroke-dasharray: 2.96,1.28; stroke-dashoffset: 0; stroke: #b0b0b0; stroke-opacity: 0.5; stroke-width: 0.8"/>
     </g>
     <g id="line2d_4">
      <g>
       <use xlink:href="#me60cb29668" x="206.151231" y="389.877656" style="stroke: #000000; stroke-width: 0.8"/>
      </g>
     </g>
     <g id="text_2">
      <!-- 200 -->
      <g transform="translate(196.607481 404.475312) scale(0.1 -0.1)">
       <defs>
        <path id="DejaVuSans-15" d="M 1228 531 
L 3431 531 
L 3431 0 
L 469 0 
L 469 531 
Q 828 903 1448 1529 
Q 2069 2156 2228 2338 
Q 2531 2678 2651 2914 
Q 2772 3150 2772 3378 
Q 2772 3750 2511 3984 
Q 2250 4219 1831 4219 
Q 1534 4219 1204 4116 
Q 875 4013 500 3803 
L 500 4441 
Q 881 4594 1212 4672 
Q 1544 4750 1819 4750 
Q 2544 4750 2975 4387 
Q 3406 4025 3406 3419 
Q 3406 3131 3298 2873 
Q 3191 2616 2906 2266 
Q 2828 2175 2409 1742 
Q 1991 1309 1228 531 
z
" transform="scale(0.015625)"/>
       </defs>
       <use xlink:href="#DejaVuSans-15"/>
       <use xlink:href="#DejaVuSans-13" transform="translate(63.625 0)"/>
       <use xlink:href="#DejaVuSans-13" transform="translate(127.25 0)"/>
      </g>
     </g>
    </g>
    <g id="xtick_3">
     <g id="line2d_5">
      <path d="M 324.662043 389.877656 
L 324.662043 27.436719 
" clip-path="url(#p8b1e250984)" style="fill: none; stroke-dasharray: 2.96,1.28; stroke-dashoffset: 0; stroke: #b0b0b0; stroke-opacity: 0.5; stroke-width: 0.8"/>
     </g>
     <g id="line2d_6">
      <g>
       <use xlink:href="#me60cb29668" x="324.662043" y="389.877656" style="stroke: #000000; stroke-width: 0.8"/>
      </g>
     </g>
     <g id="text_3">
      <!-- 400 -->
      <g transform="translate(315.118293 404.475312) scale(0.1 -0.1)">
       <defs>
        <path id="DejaVuSans-17" d="M 2419 4116 
L 825 1625 
L 2419 1625 
L 2419 4116 
z
M 2253 4666 
L 3047 4666 
L 3047 1625 
L 3713 1625 
L 3713 1100 
L 3047 1100 
L 3047 0 
L 2419 0 
L 2419 1100 
L 313 1100 
L 313 1709 
L 2253 4666 
z
" transform="scale(0.015625)"/>
       </defs>
       <use xlink:href="#DejaVuSans-17"/>
       <use xlink:href="#DejaVuSans-13" transform="translate(63.625 0)"/>
       <use xlink:href="#DejaVuSans-13" transform="translate(127.25 0)"/>
      </g>
     </g>
    </g>
    <g id="xtick_4">
     <g id="line2d_7">
      <path d="M 443.172855 389.877656 
L 443.172855 27.436719 
" clip-path="url(#p8b1e250984)" style="fill: none; stroke-dasharray: 2.96,1.28; stroke-dashoffset: 0; stroke: #b0b0b0; stroke-opacity: 0.5; stroke-width: 0.8"/>
     </g>
     <g id="line2d_8">
      <g>
       <use xlink:href="#me60cb29668" x="443.172855" y="389.877656" style="stroke: #000000; stroke-width: 0.8"/>
      </g>
     </g>
     <g id="text_4">
      <!-- 600 -->
      <g transform="translate(433.629105 404.475312) scale(0.1 -0.1)">
       <defs>
        <path id="DejaVuSans-19" d="M 2113 2584 
Q 1688 2584 1439 2293 
Q 1191 2003 1191 1497 
Q 1191 994 1439 701 
Q 1688 409 2113 409 
Q 2538 409 2786 701 
Q 3034 994 3034 1497 
Q 3034 2003 2786 2293 
Q 2538 2584 2113 2584 
z
M 3366 4563 
L 3366 3988 
Q 3128 4100 2886 4159 
Q 2644 4219 2406 4219 
Q 1781 4219 1451 3797 
Q 1122 3375 1075 2522 
Q 1259 2794 1537 2939 
Q 1816 3084 2150 3084 
Q 2853 3084 3261 2657 
Q 3669 2231 3669 1497 
Q 3669 778 3244 343 
Q 2819 -91 2113 -91 
Q 1303 -91 875 529 
Q 447 1150 447 2328 
Q 447 3434 972 4092 
Q 1497 4750 2381 4750 
Q 2619 4750 2861 4703 
Q 3103 4656 3366 4563 
z
" transform="scale(0.015625)"/>
       </defs>
       <use xlink:href="#DejaVuSans-19"/>
       <use xlink:href="#DejaVuSans-13" transform="translate(63.625 0)"/>
       <use xlink:href="#DejaVuSans-13" transform="translate(127.25 0)"/>
      </g>
     </g>
    </g>
    <g id="xtick_5">
     <g id="line2d_9">
      <path d="M 561.683667 389.877656 
L 561.683667 27.436719 
" clip-path="url(#p8b1e250984)" style="fill: none; stroke-dasharray: 2.96,1.28; stroke-dashoffset: 0; stroke: #b0b0b0; stroke-opacity: 0.5; stroke-width: 0.8"/>
     </g>
     <g id="line2d_10">
      <g>
       <use xlink:href="#me60cb29668" x="561.683667" y="389.877656" style="stroke: #000000; stroke-width: 0.8"/>
      </g>
     </g>
     <g id="text_5">
      <!-- 800 -->
      <g transform="translate(552.139917 404.475312) scale(0.1 -0.1)">
       <defs>
        <path id="DejaVuSans-1b" d="M 2034 2216 
Q 1584 2216 1326 1975 
Q 1069 1734 1069 1313 
Q 1069 891 1326 650 
Q 1584 409 2034 409 
Q 2484 409 2743 651 
Q 3003 894 3003 1313 
Q 3003 1734 2745 1975 
Q 2488 2216 2034 2216 
z
M 1403 2484 
Q 997 2584 770 2862 
Q 544 3141 544 3541 
Q 544 4100 942 4425 
Q 1341 4750 2034 4750 
Q 2731 4750 3128 4425 
Q 3525 4100 3525 3541 
Q 3525 3141 3298 2862 
Q 3072 2584 2669 2484 
Q 3125 2378 3379 2068 
Q 3634 1759 3634 1313 
Q 3634 634 3220 271 
Q 2806 -91 2034 -91 
Q 1263 -91 848 271 
Q 434 634 434 1313 
Q 434 1759 690 2068 
Q 947 2378 1403 2484 
z
M 1172 3481 
Q 1172 3119 1398 2916 
Q 1625 2713 2034 2713 
Q 2441 2713 2670 2916 
Q 2900 3119 2900 3481 
Q 2900 3844 2670 4047 
Q 2441 4250 2034 4250 
Q 1625 4250 1398 4047 
Q 1172 3844 1172 3481 
z
" transform="scale(0.015625)"/>
       </defs>
       <use xlink:href="#DejaVuSans-1b"/>
       <use xlink:href="#DejaVuSans-13" transform="translate(63.625 0)"/>
       <use xlink:href="#DejaVuSans-13" transform="translate(127.25 0)"/>
      </g>
     </g>
    </g>
    <g id="xtick_6">
     <g id="line2d_11">
      <path d="M 680.194479 389.877656 
L 680.194479 27.436719 
" clip-path="url(#p8b1e250984)" style="fill: none; stroke-dasharray: 2.96,1.28; stroke-dashoffset: 0; stroke: #b0b0b0; stroke-opacity: 0.5; stroke-width: 0.8"/>
     </g>
     <g id="line2d_12">
      <g>
       <use xlink:href="#me60cb29668" x="680.194479" y="389.877656" style="stroke: #000000; stroke-width: 0.8"/>
      </g>
     </g>
     <g id="text_6">
      <!-- 1000 -->
      <g transform="translate(667.469479 404.475312) scale(0.1 -0.1)">
       <defs>
        <path id="DejaVuSans-14" d="M 794 531 
L 1825 531 
L 1825 4091 
L 703 3866 
L 703 4441 
L 1819 4666 
L 2450 4666 
L 2450 531 
L 3481 531 
L 3481 0 
L 794 0 
L 794 531 
z
" transform="scale(0.015625)"/>
       </defs>
       <use xlink:href="#DejaVuSans-14"/>
       <use xlink:href="#DejaVuSans-13" transform="translate(63.625 0)"/>
       <use xlink:href="#DejaVuSans-13" transform="translate(127.25 0)"/>
       <use xlink:href="#DejaVuSans-13" transform="translate(190.875 0)"/>
      </g>
     </g>
    </g>
    <g id="text_7">
     <!-- Iteration Index -->
     <g transform="translate(347.057109 418.476094) scale(0.1 -0.1)">
      <defs>
       <path id="DejaVuSans-2c" d="M 628 4666 
L 1259 4666 
L 1259 0 
L 628 0 
L 628 4666 
z
" transform="scale(0.015625)"/>
       <path id="DejaVuSans-57" d="M 1172 4494 
L 1172 3500 
L 2356 3500 
L 2356 3053 
L 1172 3053 
L 1172 1153 
Q 1172 725 1289 603 
Q 1406 481 1766 481 
L 2356 481 
L 2356 0 
L 1766 0 
Q 1100 0 847 248 
Q 594 497 594 1153 
L 594 3053 
L 172 3053 
L 172 3500 
L 594 3500 
L 594 4494 
L 1172 4494 
z
" transform="scale(0.015625)"/>
       <path id="DejaVuSans-48" d="M 3597 1894 
L 3597 1613 
L 953 1613 
Q 991 1019 1311 708 
Q 1631 397 2203 397 
Q 2534 397 2845 478 
Q 3156 559 3463 722 
L 3463 178 
Q 3153 47 2828 -22 
Q 2503 -91 2169 -91 
Q 1331 -91 842 396 
Q 353 884 353 1716 
Q 353 2575 817 3079 
Q 1281 3584 2069 3584 
Q 2775 3584 3186 3129 
Q 3597 2675 3597 1894 
z
M 3022 2063 
Q 3016 2534 2758 2815 
Q 2500 3097 2075 3097 
Q 1594 3097 1305 2825 
Q 1016 2553 972 2059 
L 3022 2063 
z
" transform="scale(0.015625)"/>
       <path id="DejaVuSans-55" d="M 2631 2963 
Q 2534 3019 2420 3045 
Q 2306 3072 2169 3072 
Q 1681 3072 1420 2755 
Q 1159 2438 1159 1844 
L 1159 0 
L 581 0 
L 581 3500 
L 1159 3500 
L 1159 2956 
Q 1341 3275 1631 3429 
Q 1922 3584 2338 3584 
Q 2397 3584 2469 3576 
Q 2541 3569 2628 3553 
L 2631 2963 
z
" transform="scale(0.015625)"/>
       <path id="DejaVuSans-44" d="M 2194 1759 
Q 1497 1759 1228 1600 
Q 959 1441 959 1056 
Q 959 750 1161 570 
Q 1363 391 1709 391 
Q 2188 391 2477 730 
Q 2766 1069 2766 1631 
L 2766 1759 
L 2194 1759 
z
M 3341 1997 
L 3341 0 
L 2766 0 
L 2766 531 
Q 2569 213 2275 61 
Q 1981 -91 1556 -91 
Q 1019 -91 701 211 
Q 384 513 384 1019 
Q 384 1609 779 1909 
Q 1175 2209 1959 2209 
L 2766 2209 
L 2766 2266 
Q 2766 2663 2505 2880 
Q 2244 3097 1772 3097 
Q 1472 3097 1187 3025 
Q 903 2953 641 2809 
L 641 3341 
Q 956 3463 1253 3523 
Q 1550 3584 1831 3584 
Q 2591 3584 2966 3190 
Q 3341 2797 3341 1997 
z
" transform="scale(0.015625)"/>
       <path id="DejaVuSans-4c" d="M 603 3500 
L 1178 3500 
L 1178 0 
L 603 0 
L 603 3500 
z
M 603 4863 
L 1178 4863 
L 1178 4134 
L 603 4134 
L 603 4863 
z
" transform="scale(0.015625)"/>
       <path id="DejaVuSans-52" d="M 1959 3097 
Q 1497 3097 1228 2736 
Q 959 2375 959 1747 
Q 959 1119 1226 758 
Q 1494 397 1959 397 
Q 2419 397 2687 759 
Q 2956 1122 2956 1747 
Q 2956 2369 2687 2733 
Q 2419 3097 1959 3097 
z
M 1959 3584 
Q 2709 3584 3137 3096 
Q 3566 2609 3566 1747 
Q 3566 888 3137 398 
Q 2709 -91 1959 -91 
Q 1206 -91 779 398 
Q 353 888 353 1747 
Q 353 2609 779 3096 
Q 1206 3584 1959 3584 
z
" transform="scale(0.015625)"/>
       <path id="DejaVuSans-51" d="M 3513 2113 
L 3513 0 
L 2938 0 
L 2938 2094 
Q 2938 2591 2744 2837 
Q 2550 3084 2163 3084 
Q 1697 3084 1428 2787 
Q 1159 2491 1159 1978 
L 1159 0 
L 581 0 
L 581 3500 
L 1159 3500 
L 1159 2956 
Q 1366 3272 1645 3428 
Q 1925 3584 2291 3584 
Q 2894 3584 3203 3211 
Q 3513 2838 3513 2113 
z
" transform="scale(0.015625)"/>
       <path id="DejaVuSans-3" transform="scale(0.015625)"/>
       <path id="DejaVuSans-47" d="M 2906 2969 
L 2906 4863 
L 3481 4863 
L 3481 0 
L 2906 0 
L 2906 525 
Q 2725 213 2448 61 
Q 2172 -91 1784 -91 
Q 1150 -91 751 415 
Q 353 922 353 1747 
Q 353 2572 751 3078 
Q 1150 3584 1784 3584 
Q 2172 3584 2448 3432 
Q 2725 3281 2906 2969 
z
M 947 1747 
Q 947 1113 1208 752 
Q 1469 391 1925 391 
Q 2381 391 2643 752 
Q 2906 1113 2906 1747 
Q 2906 2381 2643 2742 
Q 2381 3103 1925 3103 
Q 1469 3103 1208 2742 
Q 947 2381 947 1747 
z
" transform="scale(0.015625)"/>
       <path id="DejaVuSans-5b" d="M 3513 3500 
L 2247 1797 
L 3578 0 
L 2900 0 
L 1881 1375 
L 863 0 
L 184 0 
L 1544 1831 
L 300 3500 
L 978 3500 
L 1906 2253 
L 2834 3500 
L 3513 3500 
z
" transform="scale(0.015625)"/>
      </defs>
      <use xlink:href="#DejaVuSans-2c"/>
      <use xlink:href="#DejaVuSans-57" transform="translate(29.5 0)"/>
      <use xlink:href="#DejaVuSans-48" transform="translate(68.703125 0)"/>
      <use xlink:href="#DejaVuSans-55" transform="translate(130.234375 0)"/>
      <use xlink:href="#DejaVuSans-44" transform="translate(171.34375 0)"/>
      <use xlink:href="#DejaVuSans-57" transform="translate(232.625 0)"/>
      <use xlink:href="#DejaVuSans-4c" transform="translate(271.828125 0)"/>
      <use xlink:href="#DejaVuSans-52" transform="translate(299.609375 0)"/>
      <use xlink:href="#DejaVuSans-51" transform="translate(360.796875 0)"/>
      <use xlink:href="#DejaVuSans-3" transform="translate(424.171875 0)"/>
      <use xlink:href="#DejaVuSans-2c" transform="translate(455.953125 0)"/>
      <use xlink:href="#DejaVuSans-51" transform="translate(485.453125 0)"/>
      <use xlink:href="#DejaVuSans-47" transform="translate(548.828125 0)"/>
      <use xlink:href="#DejaVuSans-48" transform="translate(612.3125 0)"/>
      <use xlink:href="#DejaVuSans-5b" transform="translate(672.09375 0)"/>
     </g>
    </g>
   </g>
   <g id="matplotlib.axis_2">
    <g id="ytick_1">
     <g id="line2d_13">
      <path d="M 58.042344 379.19938 
L 709.2 379.19938 
" clip-path="url(#p8b1e250984)" style="fill: none; stroke-dasharray: 2.96,1.28; stroke-dashoffset: 0; stroke: #b0b0b0; stroke-opacity: 0.5; stroke-width: 0.8"/>
     </g>
     <g id="line2d_14">
      <defs>
       <path id="mcd0b65a50d" d="M 0 0 
L -3.5 0 
" style="stroke: #000000; stroke-width: 0.8"/>
      </defs>
      <g>
       <use xlink:href="#mcd0b65a50d" x="58.042344" y="379.19938" style="stroke: #000000; stroke-width: 0.8"/>
      </g>
     </g>
     <g id="text_8">
      <!-- 0 -->
      <g transform="translate(44.679844 382.998208) scale(0.1 -0.1)">
       <use xlink:href="#DejaVuSans-13"/>
      </g>
     </g>
    </g>
    <g id="ytick_2">
     <g id="line2d_15">
      <path d="M 58.042344 338.380282 
L 709.2 338.380282 
" clip-path="url(#p8b1e250984)" style="fill: none; stroke-dasharray: 2.96,1.28; stroke-dashoffset: 0; stroke: #b0b0b0; stroke-opacity: 0.5; stroke-width: 0.8"/>
     </g>
     <g id="line2d_16">
      <g>
       <use xlink:href="#mcd0b65a50d" x="58.042344" y="338.380282" style="stroke: #000000; stroke-width: 0.8"/>
      </g>
     </g>
     <g id="text_9">
      <!-- 500 -->
      <g transform="translate(31.954844 342.17911) scale(0.1 -0.1)">
       <defs>
        <path id="DejaVuSans-18" d="M 691 4666 
L 3169 4666 
L 3169 4134 
L 1269 4134 
L 1269 2991 
Q 1406 3038 1543 3061 
Q 1681 3084 1819 3084 
Q 2600 3084 3056 2656 
Q 3513 2228 3513 1497 
Q 3513 744 3044 326 
Q 2575 -91 1722 -91 
Q 1428 -91 1123 -41 
Q 819 9 494 109 
L 494 744 
Q 775 591 1075 516 
Q 1375 441 1709 441 
Q 2250 441 2565 725 
Q 2881 1009 2881 1497 
Q 2881 1984 2565 2268 
Q 2250 2553 1709 2553 
Q 1456 2553 1204 2497 
Q 953 2441 691 2322 
L 691 4666 
z
" transform="scale(0.015625)"/>
       </defs>
       <use xlink:href="#DejaVuSans-18"/>
       <use xlink:href="#DejaVuSans-13" transform="translate(63.625 0)"/>
       <use xlink:href="#DejaVuSans-13" transform="translate(127.25 0)"/>
      </g>
     </g>
    </g>
    <g id="ytick_3">
     <g id="line2d_17">
      <path d="M 58.042344 297.561184 
L 709.2 297.561184 
" clip-path="url(#p8b1e250984)" style="fill: none; stroke-dasharray: 2.96,1.28; stroke-dashoffset: 0; stroke: #b0b0b0; stroke-opacity: 0.5; stroke-width: 0.8"/>
     </g>
     <g id="line2d_18">
      <g>
       <use xlink:href="#mcd0b65a50d" x="58.042344" y="297.561184" style="stroke: #000000; stroke-width: 0.8"/>
      </g>
     </g>
     <g id="text_10">
      <!-- 1000 -->
      <g transform="translate(25.592344 301.360012) scale(0.1 -0.1)">
       <use xlink:href="#DejaVuSans-14"/>
       <use xlink:href="#DejaVuSans-13" transform="translate(63.625 0)"/>
       <use xlink:href="#DejaVuSans-13" transform="translate(127.25 0)"/>
       <use xlink:href="#DejaVuSans-13" transform="translate(190.875 0)"/>
      </g>
     </g>
    </g>
    <g id="ytick_4">
     <g id="line2d_19">
      <path d="M 58.042344 256.742085 
L 709.2 256.742085 
" clip-path="url(#p8b1e250984)" style="fill: none; stroke-dasharray: 2.96,1.28; stroke-dashoffset: 0; stroke: #b0b0b0; stroke-opacity: 0.5; stroke-width: 0.8"/>
     </g>
     <g id="line2d_20">
      <g>
       <use xlink:href="#mcd0b65a50d" x="58.042344" y="256.742085" style="stroke: #000000; stroke-width: 0.8"/>
      </g>
     </g>
     <g id="text_11">
      <!-- 1500 -->
      <g transform="translate(25.592344 260.540913) scale(0.1 -0.1)">
       <use xlink:href="#DejaVuSans-14"/>
       <use xlink:href="#DejaVuSans-18" transform="translate(63.625 0)"/>
       <use xlink:href="#DejaVuSans-13" transform="translate(127.25 0)"/>
       <use xlink:href="#DejaVuSans-13" transform="translate(190.875 0)"/>
      </g>
     </g>
    </g>
    <g id="ytick_5">
     <g id="line2d_21">
      <path d="M 58.042344 215.922987 
L 709.2 215.922987 
" clip-path="url(#p8b1e250984)" style="fill: none; stroke-dasharray: 2.96,1.28; stroke-dashoffset: 0; stroke: #b0b0b0; stroke-opacity: 0.5; stroke-width: 0.8"/>
     </g>
     <g id="line2d_22">
      <g>
       <use xlink:href="#mcd0b65a50d" x="58.042344" y="215.922987" style="stroke: #000000; stroke-width: 0.8"/>
      </g>
     </g>
     <g id="text_12">
      <!-- 2000 -->
      <g transform="translate(25.592344 219.721815) scale(0.1 -0.1)">
       <use xlink:href="#DejaVuSans-15"/>
       <use xlink:href="#DejaVuSans-13" transform="translate(63.625 0)"/>
       <use xlink:href="#DejaVuSans-13" transform="translate(127.25 0)"/>
       <use xlink:href="#DejaVuSans-13" transform="translate(190.875 0)"/>
      </g>
     </g>
    </g>
    <g id="ytick_6">
     <g id="line2d_23">
      <path d="M 58.042344 175.103889 
L 709.2 175.103889 
" clip-path="url(#p8b1e250984)" style="fill: none; stroke-dasharray: 2.96,1.28; stroke-dashoffset: 0; stroke: #b0b0b0; stroke-opacity: 0.5; stroke-width: 0.8"/>
     </g>
     <g id="line2d_24">
      <g>
       <use xlink:href="#mcd0b65a50d" x="58.042344" y="175.103889" style="stroke: #000000; stroke-width: 0.8"/>
      </g>
     </g>
     <g id="text_13">
      <!-- 2500 -->
      <g transform="translate(25.592344 178.902717) scale(0.1 -0.1)">
       <use xlink:href="#DejaVuSans-15"/>
       <use xlink:href="#DejaVuSans-18" transform="translate(63.625 0)"/>
       <use xlink:href="#DejaVuSans-13" transform="translate(127.25 0)"/>
       <use xlink:href="#DejaVuSans-13" transform="translate(190.875 0)"/>
      </g>
     </g>
    </g>
    <g id="ytick_7">
     <g id="line2d_25">
      <path d="M 58.042344 134.28479 
L 709.2 134.28479 
" clip-path="url(#p8b1e250984)" style="fill: none; stroke-dasharray: 2.96,1.28; stroke-dashoffset: 0; stroke: #b0b0b0; stroke-opacity: 0.5; stroke-width: 0.8"/>
     </g>
     <g id="line2d_26">
      <g>
       <use xlink:href="#mcd0b65a50d" x="58.042344" y="134.28479" style="stroke: #000000; stroke-width: 0.8"/>
      </g>
     </g>
     <g id="text_14">
      <!-- 3000 -->
      <g transform="translate(25.592344 138.083619) scale(0.1 -0.1)">
       <defs>
        <path id="DejaVuSans-16" d="M 2597 2516 
Q 3050 2419 3304 2112 
Q 3559 1806 3559 1356 
Q 3559 666 3084 287 
Q 2609 -91 1734 -91 
Q 1441 -91 1130 -33 
Q 819 25 488 141 
L 488 750 
Q 750 597 1062 519 
Q 1375 441 1716 441 
Q 2309 441 2620 675 
Q 2931 909 2931 1356 
Q 2931 1769 2642 2001 
Q 2353 2234 1838 2234 
L 1294 2234 
L 1294 2753 
L 1863 2753 
Q 2328 2753 2575 2939 
Q 2822 3125 2822 3475 
Q 2822 3834 2567 4026 
Q 2313 4219 1838 4219 
Q 1578 4219 1281 4162 
Q 984 4106 628 3988 
L 628 4550 
Q 988 4650 1302 4700 
Q 1616 4750 1894 4750 
Q 2613 4750 3031 4423 
Q 3450 4097 3450 3541 
Q 3450 3153 3228 2886 
Q 3006 2619 2597 2516 
z
" transform="scale(0.015625)"/>
       </defs>
       <use xlink:href="#DejaVuSans-16"/>
       <use xlink:href="#DejaVuSans-13" transform="translate(63.625 0)"/>
       <use xlink:href="#DejaVuSans-13" transform="translate(127.25 0)"/>
       <use xlink:href="#DejaVuSans-13" transform="translate(190.875 0)"/>
      </g>
     </g>
    </g>
    <g id="ytick_8">
     <g id="line2d_27">
      <path d="M 58.042344 93.465692 
L 709.2 93.465692 
" clip-path="url(#p8b1e250984)" style="fill: none; stroke-dasharray: 2.96,1.28; stroke-dashoffset: 0; stroke: #b0b0b0; stroke-opacity: 0.5; stroke-width: 0.8"/>
     </g>
     <g id="line2d_28">
      <g>
       <use xlink:href="#mcd0b65a50d" x="58.042344" y="93.465692" style="stroke: #000000; stroke-width: 0.8"/>
      </g>
     </g>
     <g id="text_15">
      <!-- 3500 -->
      <g transform="translate(25.592344 97.26452) scale(0.1 -0.1)">
       <use xlink:href="#DejaVuSans-16"/>
       <use xlink:href="#DejaVuSans-18" transform="translate(63.625 0)"/>
       <use xlink:href="#DejaVuSans-13" transform="translate(127.25 0)"/>
       <use xlink:href="#DejaVuSans-13" transform="translate(190.875 0)"/>
      </g>
     </g>
    </g>
    <g id="ytick_9">
     <g id="line2d_29">
      <path d="M 58.042344 52.646594 
L 709.2 52.646594 
" clip-path="url(#p8b1e250984)" style="fill: none; stroke-dasharray: 2.96,1.28; stroke-dashoffset: 0; stroke: #b0b0b0; stroke-opacity: 0.5; stroke-width: 0.8"/>
     </g>
     <g id="line2d_30">
      <g>
       <use xlink:href="#mcd0b65a50d" x="58.042344" y="52.646594" style="stroke: #000000; stroke-width: 0.8"/>
      </g>
     </g>
     <g id="text_16">
      <!-- 4000 -->
      <g transform="translate(25.592344 56.445422) scale(0.1 -0.1)">
       <use xlink:href="#DejaVuSans-17"/>
       <use xlink:href="#DejaVuSans-13" transform="translate(63.625 0)"/>
       <use xlink:href="#DejaVuSans-13" transform="translate(127.25 0)"/>
       <use xlink:href="#DejaVuSans-13" transform="translate(190.875 0)"/>
      </g>
     </g>
    </g>
    <g id="text_17">
     <!-- Latency (Nanoseconds) -->
     <g transform="translate(19.19 267.382187) rotate(-90) scale(0.1 -0.1)">
      <defs>
       <path id="DejaVuSans-2f" d="M 628 4666 
L 1259 4666 
L 1259 531 
L 3531 531 
L 3531 0 
L 628 0 
L 628 4666 
z
" transform="scale(0.015625)"/>
       <path id="DejaVuSans-46" d="M 3122 3366 
L 3122 2828 
Q 2878 2963 2633 3030 
Q 2388 3097 2138 3097 
Q 1578 3097 1268 2742 
Q 959 2388 959 1747 
Q 959 1106 1268 751 
Q 1578 397 2138 397 
Q 2388 397 2633 464 
Q 2878 531 3122 666 
L 3122 134 
Q 2881 22 2623 -34 
Q 2366 -91 2075 -91 
Q 1284 -91 818 406 
Q 353 903 353 1747 
Q 353 2603 823 3093 
Q 1294 3584 2113 3584 
Q 2378 3584 2631 3529 
Q 2884 3475 3122 3366 
z
" transform="scale(0.015625)"/>
       <path id="DejaVuSans-5c" d="M 2059 -325 
Q 1816 -950 1584 -1140 
Q 1353 -1331 966 -1331 
L 506 -1331 
L 506 -850 
L 844 -850 
Q 1081 -850 1212 -737 
Q 1344 -625 1503 -206 
L 1606 56 
L 191 3500 
L 800 3500 
L 1894 763 
L 2988 3500 
L 3597 3500 
L 2059 -325 
z
" transform="scale(0.015625)"/>
       <path id="DejaVuSans-b" d="M 1984 4856 
Q 1566 4138 1362 3434 
Q 1159 2731 1159 2009 
Q 1159 1288 1364 580 
Q 1569 -128 1984 -844 
L 1484 -844 
Q 1016 -109 783 600 
Q 550 1309 550 2009 
Q 550 2706 781 3412 
Q 1013 4119 1484 4856 
L 1984 4856 
z
" transform="scale(0.015625)"/>
       <path id="DejaVuSans-31" d="M 628 4666 
L 1478 4666 
L 3547 763 
L 3547 4666 
L 4159 4666 
L 4159 0 
L 3309 0 
L 1241 3903 
L 1241 0 
L 628 0 
L 628 4666 
z
" transform="scale(0.015625)"/>
       <path id="DejaVuSans-56" d="M 2834 3397 
L 2834 2853 
Q 2591 2978 2328 3040 
Q 2066 3103 1784 3103 
Q 1356 3103 1142 2972 
Q 928 2841 928 2578 
Q 928 2378 1081 2264 
Q 1234 2150 1697 2047 
L 1894 2003 
Q 2506 1872 2764 1633 
Q 3022 1394 3022 966 
Q 3022 478 2636 193 
Q 2250 -91 1575 -91 
Q 1294 -91 989 -36 
Q 684 19 347 128 
L 347 722 
Q 666 556 975 473 
Q 1284 391 1588 391 
Q 1994 391 2212 530 
Q 2431 669 2431 922 
Q 2431 1156 2273 1281 
Q 2116 1406 1581 1522 
L 1381 1569 
Q 847 1681 609 1914 
Q 372 2147 372 2553 
Q 372 3047 722 3315 
Q 1072 3584 1716 3584 
Q 2034 3584 2315 3537 
Q 2597 3491 2834 3397 
z
" transform="scale(0.015625)"/>
       <path id="DejaVuSans-c" d="M 513 4856 
L 1013 4856 
Q 1481 4119 1714 3412 
Q 1947 2706 1947 2009 
Q 1947 1309 1714 600 
Q 1481 -109 1013 -844 
L 513 -844 
Q 928 -128 1133 580 
Q 1338 1288 1338 2009 
Q 1338 2731 1133 3434 
Q 928 4138 513 4856 
z
" transform="scale(0.015625)"/>
      </defs>
      <use xlink:href="#DejaVuSans-2f"/>
      <use xlink:href="#DejaVuSans-44" transform="translate(55.71875 0)"/>
      <use xlink:href="#DejaVuSans-57" transform="translate(117 0)"/>
      <use xlink:href="#DejaVuSans-48" transform="translate(156.203125 0)"/>
      <use xlink:href="#DejaVuSans-51" transform="translate(217.734375 0)"/>
      <use xlink:href="#DejaVuSans-46" transform="translate(281.109375 0)"/>
      <use xlink:href="#DejaVuSans-5c" transform="translate(336.09375 0)"/>
      <use xlink:href="#DejaVuSans-3" transform="translate(395.28125 0)"/>
      <use xlink:href="#DejaVuSans-b" transform="translate(427.0625 0)"/>
      <use xlink:href="#DejaVuSans-31" transform="translate(466.078125 0)"/>
      <use xlink:href="#DejaVuSans-44" transform="translate(540.890625 0)"/>
      <use xlink:href="#DejaVuSans-51" transform="translate(602.171875 0)"/>
      <use xlink:href="#DejaVuSans-52" transform="translate(665.546875 0)"/>
      <use xlink:href="#DejaVuSans-56" transform="translate(726.734375 0)"/>
      <use xlink:href="#DejaVuSans-48" transform="translate(778.828125 0)"/>
      <use xlink:href="#DejaVuSans-46" transform="translate(840.359375 0)"/>
      <use xlink:href="#DejaVuSans-52" transform="translate(895.34375 0)"/>
      <use xlink:href="#DejaVuSans-51" transform="translate(956.53125 0)"/>
      <use xlink:href="#DejaVuSans-47" transform="translate(1019.90625 0)"/>
      <use xlink:href="#DejaVuSans-56" transform="translate(1083.390625 0)"/>
      <use xlink:href="#DejaVuSans-c" transform="translate(1135.484375 0)"/>
     </g>
    </g>
   </g>
   <g id="line2d_31">
    <path d="M 87.640419 148.081646 
L 88.232973 359.932766 
L 88.825527 372.505048 
L 89.418081 370.300817 
L 90.010635 372.831601 
L 92.973406 372.831601 
L 93.56596 373.239792 
L 94.158514 372.994877 
L 94.751068 373.158154 
L 97.121284 373.239792 
L 97.713838 372.831601 
L 98.306392 372.668324 
L 98.898946 373.076515 
L 101.861716 373.076515 
L 103.046825 373.32143 
L 103.639379 373.076515 
L 104.824487 373.076515 
L 105.417041 373.32143 
L 106.009595 373.076515 
L 106.602149 372.994877 
L 107.787257 373.239792 
L 108.379811 373.239792 
L 109.564919 372.994877 
L 110.157473 372.994877 
L 111.342581 373.239792 
L 112.52769 373.158154 
L 113.120244 371.117199 
L 113.712798 373.239792 
L 114.305352 372.994877 
L 114.897906 373.158154 
L 115.49046 372.994877 
L 116.675568 373.076515 
L 117.268122 372.994877 
L 118.45323 373.076515 
L 122.601109 373.158154 
L 123.193663 373.239792 
L 123.786217 372.994877 
L 127.934095 373.076515 
L 128.526649 373.158154 
L 129.119203 373.076515 
L 130.896865 373.239792 
L 131.489419 373.239792 
L 132.081974 373.076515 
L 138.007514 372.994877 
L 138.600068 372.831601 
L 139.192622 373.076515 
L 151.043703 373.158154 
L 151.636257 373.32143 
L 152.228812 372.994877 
L 155.784136 373.076515 
L 156.37669 373.32143 
L 156.969244 372.994877 
L 163.487339 373.076515 
L 164.079893 373.32143 
L 164.672447 372.994877 
L 165.857555 373.076515 
L 166.450109 372.994877 
L 167.042663 373.076515 
L 167.635217 372.994877 
L 168.820325 373.076515 
L 170.597987 373.076515 
L 171.190541 373.239792 
L 171.783096 372.994877 
L 174.153312 373.239792 
L 174.745866 373.076515 
L 181.856515 373.076515 
L 182.449069 373.239792 
L 184.226731 373.076515 
L 196.077812 372.994877 
L 196.670366 373.239792 
L 198.448028 373.076515 
L 203.188461 372.994877 
L 203.781015 373.239792 
L 204.373569 373.076515 
L 209.114001 372.994877 
L 209.706555 373.239792 
L 210.891663 372.994877 
L 212.076772 373.076515 
L 212.669326 373.076515 
L 213.26188 373.239792 
L 213.854434 372.994877 
L 214.446988 373.158154 
L 216.22465 372.994877 
L 217.409758 373.158154 
L 218.002312 372.994877 
L 219.18742 373.076515 
L 221.557637 373.076515 
L 222.150191 373.239792 
L 223.927853 372.994877 
L 225.112961 373.076515 
L 231.631056 373.076515 
L 232.22361 373.239792 
L 232.816164 373.158154 
L 234.001272 373.239792 
L 234.593826 373.239792 
L 235.18638 373.076515 
L 235.778934 373.239792 
L 236.371488 373.076515 
L 236.964042 373.239792 
L 237.556596 373.158154 
L 238.14915 373.239792 
L 238.741704 372.994877 
L 239.926812 373.158154 
L 240.519366 373.076515 
L 241.111921 373.158154 
L 241.704475 373.076515 
L 242.297029 373.158154 
L 243.482137 373.076515 
L 244.074691 373.076515 
L 244.667245 373.239792 
L 245.259799 373.076515 
L 249.407677 373.158154 
L 250.000231 373.32143 
L 250.592785 373.158154 
L 251.18534 373.239792 
L 251.777894 372.994877 
L 252.370448 373.158154 
L 255.333218 373.076515 
L 255.925772 372.994877 
L 256.518326 373.239792 
L 257.703434 373.158154 
L 258.295988 373.239792 
L 260.666204 372.994877 
L 261.258759 373.076515 
L 261.851313 372.994877 
L 263.036421 373.076515 
L 276.07261 373.158154 
L 276.665164 373.32143 
L 277.257718 372.994877 
L 279.627934 373.076515 
L 280.220488 373.32143 
L 280.813043 373.076515 
L 281.998151 372.994877 
L 282.590705 373.239792 
L 283.775813 373.158154 
L 285.553475 372.994877 
L 286.738583 373.076515 
L 297.99711 373.158154 
L 298.589664 373.239792 
L 299.182218 373.076515 
L 299.774772 373.158154 
L 300.959881 373.076515 
L 302.737543 373.076515 
L 303.330097 373.32143 
L 303.922651 372.994877 
L 305.107759 373.076515 
L 305.700313 372.994877 
L 306.885421 373.076515 
L 309.255637 373.076515 
L 309.848191 373.239792 
L 311.0333 372.994877 
L 312.218408 373.076515 
L 317.551394 372.994877 
L 318.143948 373.239792 
L 318.736502 373.076515 
L 325.254597 373.076515 
L 325.847151 373.239792 
L 326.439705 373.076515 
L 329.402475 373.158154 
L 329.995029 373.239792 
L 330.587584 373.076515 
L 331.180138 373.32143 
L 331.772692 373.076515 
L 334.142908 372.994877 
L 334.735462 373.239792 
L 335.328016 373.076515 
L 339.475894 373.076515 
L 340.068448 373.32143 
L 340.661003 372.994877 
L 341.846111 373.076515 
L 342.438665 372.994877 
L 343.623773 373.158154 
L 344.216327 372.994877 
L 346.586543 373.239792 
L 347.179097 372.994877 
L 348.364205 373.076515 
L 354.289746 373.076515 
L 355.474854 373.32143 
L 356.659962 372.994877 
L 361.400395 373.076515 
L 361.992949 373.158154 
L 362.585503 373.076515 
L 363.178057 373.158154 
L 364.955719 372.994877 
L 365.548273 373.239792 
L 366.733381 373.158154 
L 367.325935 373.158154 
L 367.918489 372.994877 
L 368.511043 373.158154 
L 369.103597 373.076515 
L 369.696151 373.239792 
L 370.288706 373.076515 
L 371.473814 373.076515 
L 372.066368 373.239792 
L 372.658922 373.158154 
L 373.251476 373.239792 
L 373.84403 373.158154 
L 374.436584 373.239792 
L 375.621692 373.076515 
L 376.214246 373.158154 
L 376.8068 372.994877 
L 377.399354 373.239792 
L 377.991908 373.076515 
L 379.177016 373.158154 
L 379.76957 373.076515 
L 380.362125 373.239792 
L 380.954679 373.158154 
L 381.547233 373.239792 
L 382.139787 373.076515 
L 385.695111 373.158154 
L 386.287665 373.32143 
L 386.880219 372.994877 
L 388.065327 373.076515 
L 391.620652 372.994877 
L 392.213206 373.239792 
L 392.80576 372.994877 
L 393.398314 373.239792 
L 393.990868 373.158154 
L 394.583422 373.239792 
L 395.175976 372.994877 
L 395.76853 373.076515 
L 396.361084 372.994877 
L 397.546192 373.076515 
L 409.397273 372.994877 
L 409.989828 373.239792 
L 410.582382 372.994877 
L 411.76749 373.076515 
L 412.360044 372.994877 
L 414.137706 373.32143 
L 414.73026 373.076515 
L 426.581341 373.076515 
L 427.173895 373.239792 
L 427.766449 372.994877 
L 428.359003 373.158154 
L 430.72922 373.076515 
L 431.321774 372.994877 
L 431.914328 373.158154 
L 432.506882 373.076515 
L 433.099436 373.158154 
L 434.284544 373.076515 
L 459.171814 373.076515 
L 459.764369 373.239792 
L 460.356923 373.076515 
L 463.319693 373.076515 
L 463.912247 373.239792 
L 465.689909 373.076515 
L 468.060125 373.076515 
L 468.652679 373.239792 
L 469.245234 372.994877 
L 469.837788 372.994877 
L 470.430342 373.158154 
L 471.022896 372.994877 
L 472.208004 373.076515 
L 472.800558 373.158154 
L 473.985666 373.076515 
L 474.57822 373.239792 
L 475.170774 373.239792 
L 475.763328 372.994877 
L 477.54099 373.158154 
L 478.726098 372.994877 
L 481.096315 373.239792 
L 481.688869 372.994877 
L 482.281423 373.158154 
L 483.466531 373.076515 
L 484.059085 373.158154 
L 484.651639 372.994877 
L 485.244193 373.158154 
L 485.836747 372.994877 
L 486.429301 373.158154 
L 487.614409 372.994877 
L 488.799517 373.076515 
L 490.57718 373.076515 
L 491.169734 373.239792 
L 491.762288 373.076515 
L 495.317612 373.076515 
L 495.910166 373.239792 
L 496.50272 373.076515 
L 504.798477 373.158154 
L 505.391031 373.239792 
L 507.168693 373.076515 
L 508.353801 373.076515 
L 508.946356 373.239792 
L 509.53891 373.239792 
L 510.131464 373.076515 
L 516.649558 372.994877 
L 517.242112 373.239792 
L 517.834666 373.076515 
L 518.42722 373.239792 
L 519.019775 373.239792 
L 519.612329 373.076515 
L 530.278302 373.158154 
L 530.870856 373.32143 
L 531.46341 373.158154 
L 532.055964 373.239792 
L 532.648518 372.994877 
L 534.42618 373.076515 
L 535.018734 373.158154 
L 536.203842 373.076515 
L 540.351721 373.076515 
L 540.944275 373.239792 
L 541.536829 372.994877 
L 542.721937 373.158154 
L 543.314491 373.076515 
L 545.092153 373.239792 
L 545.684707 373.076515 
L 548.054923 373.076515 
L 548.647478 373.239792 
L 549.240032 373.076515 
L 551.017694 373.076515 
L 551.610248 373.32143 
L 552.202802 373.076515 
L 555.165572 373.076515 
L 555.758126 373.239792 
L 556.35068 372.994877 
L 556.943234 373.158154 
L 558.128342 373.076515 
L 572.942194 373.076515 
L 573.534748 373.239792 
L 574.127302 373.076515 
L 584.793275 372.994877 
L 585.385829 373.239792 
L 585.978383 372.994877 
L 587.163491 373.158154 
L 587.756045 372.994877 
L 588.3486 373.239792 
L 588.941154 373.076515 
L 600.792235 373.076515 
L 601.384789 373.32143 
L 601.977343 373.076515 
L 605.532667 372.994877 
L 606.125221 373.239792 
L 608.495438 372.994877 
L 609.680546 373.076515 
L 613.23587 372.994877 
L 613.828424 373.239792 
L 615.013532 373.158154 
L 615.606086 373.239792 
L 616.19864 372.994877 
L 617.383748 373.076515 
L 617.976303 373.158154 
L 619.161411 373.076515 
L 620.939073 373.076515 
L 621.531627 373.239792 
L 622.124181 373.076515 
L 627.457167 373.076515 
L 628.049722 373.239792 
L 628.642276 373.158154 
L 629.23483 373.403068 
L 629.827384 373.158154 
L 631.012492 372.994877 
L 631.605046 373.076515 
L 632.1976 372.994877 
L 633.975262 373.158154 
L 635.16037 372.994877 
L 636.938032 373.158154 
L 638.123141 373.076515 
L 639.900803 373.158154 
L 640.493357 373.239792 
L 641.085911 373.158154 
L 641.678465 373.239792 
L 642.271019 371.198837 
L 642.863573 371.03556 
L 643.456127 371.117199 
L 644.048681 373.239792 
L 644.641235 373.158154 
L 645.233789 373.239792 
L 645.826343 373.076515 
L 646.418897 373.239792 
L 647.011451 373.076515 
L 647.604005 373.239792 
L 648.19656 373.076515 
L 648.789114 373.239792 
L 649.381668 373.076515 
L 649.974222 373.158154 
L 650.566776 373.076515 
L 651.15933 373.239792 
L 652.344438 373.239792 
L 652.936992 373.076515 
L 653.529546 373.158154 
L 654.1221 373.076515 
L 654.714654 373.239792 
L 655.899762 373.076515 
L 656.492316 373.158154 
L 657.08487 373.076515 
L 658.269979 373.32143 
L 658.862533 373.158154 
L 659.455087 373.158154 
L 660.047641 363.116655 
L 660.640195 365.64744 
L 661.232749 352.911881 
L 661.825303 367.770033 
L 662.417857 372.831601 
L 663.010411 372.668324 
L 664.195519 372.831601 
L 664.788073 372.586686 
L 665.380627 372.668324 
L 665.973181 372.994877 
L 667.158289 373.076515 
L 667.750844 372.913239 
L 668.343398 373.076515 
L 669.528506 373.076515 
L 670.12106 372.831601 
L 670.713614 373.158154 
L 671.898722 372.994877 
L 672.491276 373.076515 
L 673.676384 372.831601 
L 674.268938 373.158154 
L 674.861492 372.994877 
L 676.0466 373.158154 
L 677.231708 372.913239 
L 678.416817 372.994877 
L 679.009371 370.627369 
L 679.601925 373.076515 
L 679.601925 373.076515 
" clip-path="url(#p8b1e250984)" style="fill: none; stroke: #7426d9; stroke-opacity: 0.4; stroke-width: 1.5; stroke-linecap: square"/>
   </g>
   <g id="line2d_32">
    <path d="M 87.640419 303.194219 
L 88.232973 366.54546 
L 88.825527 371.03556 
L 89.418081 370.709008 
L 90.010635 371.607028 
L 90.603189 372.096857 
L 91.195743 372.178495 
L 91.788297 372.586686 
L 92.380852 371.851942 
L 92.973406 370.219179 
L 94.158514 369.892626 
L 94.751068 365.075972 
L 95.343622 368.994606 
L 95.936176 366.872012 
L 96.52873 368.668053 
L 97.121284 367.933309 
L 97.713838 363.769761 
L 98.306392 363.851399 
L 98.898946 362.46355 
L 99.4915 363.769761 
L 100.084054 364.341228 
L 100.676608 361.402253 
L 101.269162 362.300273 
L 101.861716 362.545188 
L 102.454271 361.320615 
L 103.046825 361.157339 
L 103.639379 361.320615 
L 104.231933 360.014404 
L 104.824487 360.422595 
L 105.417041 359.361298 
L 106.009595 361.0757 
L 106.602149 360.259319 
L 107.194703 359.932766 
L 107.787257 359.932766 
L 108.379811 358.38164 
L 108.972365 358.871469 
L 113.120244 356.014132 
L 113.712798 355.361027 
L 114.305352 356.993791 
L 114.897906 359.034746 
L 115.49046 359.932766 
L 116.675568 359.034746 
L 117.268122 351.197479 
L 117.860676 352.340413 
L 118.45323 354.626283 
L 119.045784 354.218092 
L 119.638338 353.973177 
L 120.230892 353.483348 
L 121.416 352.830243 
L 122.008554 353.075157 
L 123.193663 351.850584 
L 123.786217 352.666966 
L 124.378771 352.095499 
L 124.971325 352.095499 
L 125.563879 351.524032 
L 126.156433 351.279117 
L 126.748987 351.197479 
L 127.341541 350.952564 
L 127.934095 350.870926 
L 128.526649 350.544373 
L 129.119203 350.626011 
L 130.304311 349.891268 
L 130.896865 349.809629 
L 131.489419 349.564715 
L 132.081974 349.483077 
L 132.674528 349.564715 
L 133.859636 348.829971 
L 134.45219 348.176865 
L 135.044744 348.340142 
L 135.637298 348.095227 
L 136.229852 348.095227 
L 136.822406 347.850313 
L 137.41496 347.033931 
L 138.007514 347.442122 
L 138.600068 347.278845 
L 139.192622 346.952292 
L 139.785176 347.033931 
L 140.37773 346.462463 
L 140.970284 346.462463 
L 141.562838 345.890996 
L 142.155393 345.564443 
L 142.747947 345.809358 
L 143.340501 345.23789 
L 143.933055 345.074614 
L 144.525609 344.421508 
L 145.118163 344.666423 
L 145.710717 344.503147 
L 146.303271 344.584785 
L 147.488379 344.176594 
L 148.080933 343.931679 
L 148.673487 343.523488 
L 149.266041 343.686765 
L 150.451149 343.115297 
L 151.043703 342.462192 
L 151.636257 342.625468 
L 152.228812 342.625468 
L 152.821366 342.380553 
L 153.41392 341.972363 
L 154.006474 341.890724 
L 155.191582 341.155981 
L 155.784136 341.074342 
L 156.37669 340.829428 
L 156.969244 340.911066 
L 157.561798 340.094684 
L 158.154352 340.25796 
L 158.746906 339.278302 
L 159.33946 324.746703 
L 159.932014 339.35994 
L 160.524568 339.849769 
L 161.117122 330.134824 
L 161.709677 341.564172 
L 162.302231 343.196935 
L 164.079893 342.462192 
L 164.672447 342.380553 
L 165.265001 341.972363 
L 165.857555 341.890724 
L 166.450109 341.482533 
L 167.042663 341.319257 
L 167.635217 341.400895 
L 168.820325 340.992704 
L 170.005433 340.666151 
L 170.597987 340.176322 
L 171.190541 339.849769 
L 171.783096 339.849769 
L 172.37565 339.686493 
L 172.968204 143.836459 
L 173.560758 327.767316 
L 174.153312 337.400623 
L 174.745866 343.523488 
L 175.33842 344.911338 
L 175.930974 344.584785 
L 176.523528 344.584785 
L 177.708636 344.013317 
L 178.30119 306.541385 
L 178.893744 313.56227 
L 179.486298 312.909165 
L 180.078852 312.582612 
L 180.671406 311.439677 
L 181.26396 312.092783 
L 182.449069 310.215104 
L 183.041623 310.215104 
L 183.634177 309.235446 
L 184.226731 309.235446 
L 184.819285 309.398722 
L 185.411839 308.337426 
L 186.004393 308.419064 
L 186.596947 307.68432 
L 187.782055 306.623023 
L 188.374609 306.459747 
L 188.967163 302.051284 
L 189.559717 241.965572 
L 190.152271 311.031486 
L 190.744825 311.031486 
L 191.337379 310.86821 
L 191.929934 309.970189 
L 192.522488 309.806913 
L 193.707596 309.235446 
L 194.892704 308.092511 
L 195.485258 308.092511 
L 196.077812 307.765958 
L 196.670366 306.704662 
L 197.26292 306.296471 
L 197.855474 306.623023 
L 198.448028 305.561727 
L 199.040582 305.235174 
L 200.22569 304.092239 
L 200.818244 304.418792 
L 201.410799 304.50043 
L 202.003353 303.112581 
L 202.595907 302.786028 
L 203.188461 302.867666 
L 203.781015 302.459475 
L 204.373569 301.888008 
L 204.966123 301.724732 
L 205.558677 300.989988 
L 206.151231 301.234902 
L 206.743785 300.745073 
L 207.336339 300.010329 
L 207.928893 300.336882 
L 208.521447 297.806098 
L 209.114001 299.275586 
L 209.706555 298.949033 
L 210.299109 298.785757 
L 210.891663 298.377566 
L 211.484218 298.377566 
L 212.076772 297.152993 
L 212.669326 296.499887 
L 213.26188 296.254972 
L 213.854434 296.744802 
L 215.039542 295.846781 
L 216.817204 293.724188 
L 218.002312 292.989445 
L 218.594866 292.581254 
L 219.18742 292.74453 
L 219.779974 292.091424 
L 220.965082 291.275042 
L 221.557637 290.703575 
L 222.150191 290.377022 
L 222.742745 290.213746 
L 224.520407 289.315726 
L 225.112961 289.070811 
L 226.298069 287.927876 
L 226.890623 288.907535 
L 227.483177 287.846238 
L 228.075731 287.029856 
L 228.668285 287.356409 
L 229.260839 286.295112 
L 229.853393 286.703303 
L 230.445947 286.295112 
L 231.038501 286.213474 
L 231.631056 284.172519 
L 232.22361 284.58071 
L 233.408718 283.274499 
L 234.001272 283.519414 
L 234.593826 283.356137 
L 236.371488 281.560097 
L 236.964042 281.560097 
L 237.556596 280.98863 
L 238.14915 280.662077 
L 238.741704 280.662077 
L 239.334258 279.682419 
L 239.926812 279.110951 
L 240.519366 279.519142 
L 241.111921 279.682419 
L 241.704475 279.192589 
L 242.297029 278.457846 
L 242.889583 176.899929 
L 243.482137 276.825082 
L 244.074691 276.743443 
L 244.667245 276.988358 
L 245.259799 275.51887 
L 245.852353 276.335252 
L 246.444907 276.0087 
L 247.037461 274.947403 
L 247.630015 274.457574 
L 248.222569 274.457574 
L 248.815123 273.886107 
L 249.407677 273.151363 
L 250.000231 272.988086 
L 251.18534 272.988086 
L 251.777894 272.334981 
L 252.370448 272.008428 
L 252.963002 270.457302 
L 253.555556 271.355322 
L 254.14811 270.620579 
L 254.740664 270.13075 
L 255.333218 270.457302 
L 255.925772 269.559282 
L 256.518326 269.804197 
L 257.11088 269.559282 
L 257.703434 268.497986 
L 258.295988 268.824538 
L 258.888542 268.008156 
L 259.481096 268.008156 
L 260.07365 266.701945 
L 260.666204 266.865222 
L 261.851313 266.130478 
L 262.443867 265.395734 
L 263.036421 265.314096 
L 263.628975 264.987543 
L 264.221529 263.844608 
L 264.814083 263.436417 
L 265.406637 263.76297 
L 265.999191 262.946588 
L 266.591745 262.701674 
L 267.184299 262.620035 
L 267.776853 262.86495 
L 268.369407 262.456759 
L 268.961961 261.150548 
L 269.554515 261.640377 
L 270.147069 260.497442 
L 270.739623 260.007613 
L 271.332178 259.354508 
L 272.517286 259.925975 
L 273.702394 258.048296 
L 274.294948 257.476829 
L 274.887502 257.721744 
L 275.480056 257.803382 
L 276.07261 256.252256 
L 276.665164 256.823723 
L 277.257718 254.946045 
L 277.850272 256.823723 
L 278.442826 254.456216 
L 279.03538 254.946045 
L 279.627934 255.272598 
L 280.220488 253.721472 
L 280.813043 253.80311 
L 281.405597 252.823452 
L 281.998151 253.231643 
L 282.590705 253.150005 
L 283.183259 252.578537 
L 283.775813 252.251984 
L 284.368367 252.333623 
L 284.960921 251.10905 
L 285.553475 251.10905 
L 286.146029 249.476286 
L 286.738583 250.700859 
L 287.331137 249.802839 
L 287.923691 249.639562 
L 288.516245 248.659904 
L 289.108799 248.088436 
L 289.701353 248.333351 
L 290.293907 248.006798 
L 291.479016 246.863863 
L 292.07157 247.761884 
L 292.664124 247.190416 
L 293.256678 245.884205 
L 293.849232 227.189058 
L 294.441786 245.884205 
L 295.03434 244.904547 
L 295.626894 245.067823 
L 296.219448 244.251441 
L 296.812002 244.414718 
L 297.404556 242.94523 
L 297.99711 242.618677 
L 298.589664 241.965572 
L 299.182218 242.128848 
L 299.774772 241.639019 
L 300.367326 241.312466 
L 300.959881 240.822637 
L 301.552435 241.067552 
L 302.144989 240.496084 
L 302.737543 240.414446 
L 303.330097 239.516426 
L 303.922651 240.006255 
L 304.515205 238.86332 
L 305.107759 238.700044 
L 305.700313 238.210215 
L 306.292867 238.700044 
L 306.885421 237.720385 
L 307.477975 236.495813 
L 308.070529 237.312194 
L 308.663083 236.087622 
L 309.255637 235.842707 
L 309.848191 234.944687 
L 310.440745 235.516154 
L 311.0333 235.107963 
L 311.625854 234.209943 
L 312.218408 234.454858 
L 312.810962 233.965028 
L 313.403516 234.291581 
L 313.99607 233.720114 
L 314.588624 232.413903 
L 315.181178 232.08735 
L 316.366286 231.842435 
L 316.95884 230.536224 
L 317.551394 230.536224 
L 318.143948 230.372948 
L 318.736502 229.474928 
L 319.329056 229.556566 
L 319.92161 228.740184 
L 320.514165 228.495269 
L 321.106719 228.658546 
L 321.699273 228.331993 
L 322.291827 227.842164 
L 322.884381 228.250355 
L 323.476935 227.270696 
L 324.069489 226.617591 
L 324.662043 226.862505 
L 325.254597 225.474656 
L 325.847151 226.046123 
L 326.439705 224.739912 
L 327.032259 224.903189 
L 328.217367 224.903189 
L 328.809921 223.107148 
L 329.402475 223.270425 
L 329.995029 222.209128 
L 330.587584 221.637661 
L 331.772692 221.719299 
L 332.9578 221.556023 
L 333.550354 220.902917 
L 334.142908 219.923259 
L 334.735462 220.658002 
L 335.328016 220.33145 
L 335.92057 219.515068 
L 336.513124 218.127218 
L 337.105678 218.780324 
L 337.698232 217.229198 
L 338.290786 216.821007 
L 338.88334 217.310836 
L 339.475894 215.841349 
L 340.068448 215.678072 
L 341.253557 215.922987 
L 341.846111 215.024967 
L 342.438665 215.106605 
L 343.031219 215.596434 
L 343.623773 214.126947 
L 344.216327 214.616776 
L 344.808881 213.96367 
L 345.401435 213.800394 
L 345.993989 212.575821 
L 346.586543 212.739097 
L 347.179097 211.841077 
L 347.771651 211.514524 
L 348.364205 211.351248 
L 348.956759 211.759439 
L 350.141867 197.309478 
L 350.734422 210.453228 
L 351.326976 209.065378 
L 351.91953 208.657187 
L 352.512084 209.228655 
L 353.104638 208.738826 
L 353.697192 208.493911 
L 354.289746 207.1877 
L 354.8823 207.106062 
L 355.474854 206.126403 
L 356.067408 205.554936 
L 356.659962 205.718212 
L 357.252516 205.065107 
L 357.84507 205.636574 
L 359.030178 204.493639 
L 359.622732 199.350433 
L 360.215287 203.677258 
L 360.807841 204.167087 
L 361.400395 202.697599 
L 361.992949 203.677258 
L 362.585503 202.860876 
L 363.178057 201.30975 
L 363.770611 201.146473 
L 364.363165 200.575006 
L 364.955719 200.656644 
L 365.548273 113.630327 
L 366.140827 207.1877 
L 366.733381 205.963127 
L 367.325935 205.473298 
L 367.918489 205.473298 
L 368.511043 204.983469 
L 369.103597 206.28968 
L 369.696151 204.493639 
L 370.288706 204.085448 
L 370.88126 204.00381 
L 371.473814 203.269067 
L 372.066368 203.269067 
L 372.658922 202.942514 
L 373.251476 202.452685 
L 373.84403 201.391388 
L 374.436584 202.289408 
L 375.029138 200.983197 
L 375.621692 194.452141 
L 376.214246 200.575006 
L 377.399354 200.901559 
L 377.991908 199.432071 
L 378.584462 200.330091 
L 379.177016 199.513709 
L 379.76957 197.962584 
L 380.362125 197.962584 
L 380.954679 197.146202 
L 381.547233 197.064564 
L 382.139787 196.248182 
L 382.732341 196.574734 
L 383.324895 196.248182 
L 383.917449 196.248182 
L 384.510003 196.084905 
L 385.102557 195.268523 
L 385.695111 195.268523 
L 386.287665 195.105247 
L 387.472773 193.880674 
L 388.065327 193.635759 
L 388.657881 192.329548 
L 389.250435 192.002995 
L 390.435544 190.696784 
L 391.028098 192.084634 
L 391.620652 191.758081 
L 392.213206 190.615146 
L 392.80576 191.104975 
L 393.398314 190.860061 
L 394.583422 189.717126 
L 395.175976 189.635488 
L 395.76853 189.145659 
L 396.361084 188.329277 
L 396.953638 188.247638 
L 397.546192 186.36996 
L 398.138746 187.512895 
L 398.7313 187.104704 
L 399.323854 186.043407 
L 400.508963 186.451598 
L 401.694071 184.655558 
L 402.286625 184.900472 
L 402.879179 185.308663 
L 403.471733 184.57392 
L 404.064287 182.859517 
L 405.249395 182.124774 
L 405.841949 182.777879 
L 406.434503 181.471668 
L 407.027057 181.716583 
L 407.619611 181.553306 
L 408.212165 181.226753 
L 408.804719 180.573648 
L 409.397273 181.226753 
L 409.989828 179.512351 
L 410.582382 178.859246 
L 411.174936 178.777608 
L 411.76749 178.451055 
L 412.360044 178.451055 
L 412.952598 178.695969 
L 413.545152 176.573376 
L 414.137706 176.981567 
L 414.73026 177.797949 
L 415.322814 176.655014 
L 415.915368 176.328462 
L 416.507922 176.736653 
L 417.100476 175.348803 
L 417.69303 174.61406 
L 418.285584 174.369145 
L 418.878138 173.797678 
L 419.470692 173.960954 
L 420.063247 173.389487 
L 420.655801 81.79143 
L 421.248355 180.573648 
L 421.840909 180.165457 
L 422.433463 180.573648 
L 423.026017 179.757266 
L 423.618571 179.430713 
L 424.211125 179.838904 
L 424.803679 178.940884 
L 425.396233 177.30812 
L 425.988787 177.063205 
L 426.581341 177.226482 
L 427.173895 177.063205 
L 427.766449 175.593718 
L 428.359003 175.675356 
L 428.951557 176.165185 
L 429.544112 163.674541 
L 430.136666 168.981024 
L 430.72922 168.654471 
L 431.321774 175.920271 
L 431.914328 174.12423 
L 432.506882 173.22621 
L 433.099436 172.981296 
L 434.284544 172.736381 
L 434.877098 171.675084 
L 435.469652 172.491466 
L 436.062206 171.511808 
L 436.65476 171.756723 
L 437.247314 170.695426 
L 437.839868 171.266893 
L 438.432422 170.287235 
L 439.024976 171.185255 
L 439.617531 170.368873 
L 440.210085 169.1443 
L 440.802639 169.1443 
L 441.395193 168.817748 
L 441.987747 167.184984 
L 443.172855 167.756451 
L 443.765409 166.940069 
L 444.950517 167.103345 
L 445.543071 167.021707 
L 446.728179 165.225667 
L 447.320733 165.225667 
L 447.913287 164.409285 
L 448.505841 162.694883 
L 449.098395 164.327647 
L 449.69095 163.674541 
L 450.283504 164.082732 
L 450.876058 163.347988 
L 451.468612 164.735838 
L 452.061166 163.347988 
L 452.65372 163.021436 
L 453.246274 162.205054 
L 453.838828 160.735566 
L 454.431382 160.164099 
L 455.023936 160.898843 
L 455.61649 159.837546 
L 456.209044 160.409013 
L 456.801598 159.429355 
L 457.394152 160.164099 
L 457.986706 159.021164 
L 458.57926 153.061576 
L 459.171814 158.939526 
L 459.764369 157.796591 
L 460.356923 157.878229 
L 460.949477 157.633315 
L 461.542031 156.245465 
L 462.134585 156.408742 
L 462.727139 155.755636 
L 463.319693 154.531063 
L 463.912247 154.612701 
L 464.504801 155.265807 
L 465.097355 156.245465 
L 465.689909 154.775978 
L 466.282463 154.939254 
L 466.875017 153.633043 
L 467.467571 153.388128 
L 468.060125 69.300786 
L 468.652679 166.613516 
L 469.245234 167.266622 
L 469.837788 166.613516 
L 470.430342 166.695154 
L 471.022896 165.715496 
L 471.61545 167.184984 
L 472.208004 166.858431 
L 472.800558 164.980752 
L 473.393112 166.123687 
L 473.985666 164.572561 
L 474.57822 164.001094 
L 475.763328 163.26635 
L 476.948436 163.429627 
L 477.54099 162.939797 
L 478.133544 162.776521 
L 478.726098 163.103074 
L 479.318653 162.939797 
L 479.911207 161.143757 
L 481.096315 161.307033 
L 482.281423 159.67427 
L 482.873977 160.490652 
L 483.466531 159.347717 
L 484.059085 160.898843 
L 484.651639 159.021164 
L 485.836747 158.28642 
L 486.429301 43.911307 
L 487.021855 242.455401 
L 487.614409 252.088708 
L 488.206963 254.129663 
L 488.799517 252.741814 
L 489.392072 248.659904 
L 489.984626 247.108778 
L 490.57718 249.394648 
L 491.169734 257.068638 
L 492.354842 247.435331 
L 492.947396 237.393833 
L 493.53995 241.802295 
L 494.132504 256.415532 
L 494.725058 233.148646 
L 495.317612 256.578809 
L 495.910166 258.211573 
L 496.50272 263.109865 
L 497.095274 263.191503 
L 497.687828 262.701674 
L 498.280382 262.620035 
L 498.872936 261.803653 
L 499.465491 262.130206 
L 500.650599 261.722015 
L 501.243153 261.395462 
L 501.835707 261.477101 
L 502.428261 261.150548 
L 504.205923 260.579081 
L 504.798477 260.823995 
L 505.391031 260.660719 
L 505.983585 260.334166 
L 506.576139 260.17089 
L 507.168693 260.252528 
L 508.353801 259.844337 
L 508.946356 259.925975 
L 509.53891 259.844337 
L 510.131464 259.599422 
L 511.316572 258.78304 
L 511.909126 257.476829 
L 512.50168 258.538126 
L 513.094234 257.966658 
L 513.686788 257.803382 
L 514.279342 258.129935 
L 514.871896 257.640105 
L 516.057004 257.395191 
L 516.649558 256.987 
L 517.242112 257.395191 
L 518.42722 256.742085 
L 519.612329 256.987 
L 520.204883 256.660447 
L 521.389991 256.415532 
L 521.982545 256.415532 
L 522.575099 253.966387 
L 523.167653 254.374578 
L 523.760207 255.680789 
L 524.352761 254.537854 
L 524.945315 253.721472 
L 525.537869 254.946045 
L 526.130423 254.374578 
L 526.722977 254.619492 
L 527.908085 254.048025 
L 528.500639 254.048025 
L 529.093194 251.762155 
L 529.685748 250.782497 
L 530.278302 248.986457 
L 530.870856 249.313009 
L 531.46341 248.986457 
L 532.055964 248.82318 
L 532.648518 249.149733 
L 533.241072 248.986457 
L 533.833626 253.150005 
L 535.611288 252.415261 
L 536.203842 251.598879 
L 536.796396 251.843793 
L 537.38895 251.435603 
L 537.981504 251.517241 
L 538.574058 250.945773 
L 539.759167 250.700859 
L 540.351721 250.864135 
L 542.129383 250.537582 
L 542.721937 250.292668 
L 543.314491 249.7212 
L 543.907045 250.21103 
L 544.499599 249.802839 
L 545.092153 249.7212 
L 545.684707 237.720385 
L 546.277261 249.313009 
L 546.869815 249.313009 
L 547.462369 248.659904 
L 548.054923 248.741542 
L 548.647478 248.659904 
L 549.240032 248.251713 
L 551.017694 247.761884 
L 551.610248 247.272054 
L 552.202802 247.598607 
L 553.38791 247.108778 
L 553.980464 247.108778 
L 554.573018 247.272054 
L 555.165572 242.781954 
L 556.35068 242.537039 
L 556.943234 242.700315 
L 557.535788 242.210486 
L 558.128342 242.292124 
L 558.720897 241.230828 
L 559.313451 241.394104 
L 559.906005 245.557652 
L 561.091113 244.904547 
L 561.683667 244.74127 
L 562.276221 244.414718 
L 562.868775 244.659632 
L 564.646437 244.169803 
L 565.238991 244.251441 
L 567.016653 243.761612 
L 567.609207 243.435059 
L 568.201761 243.271783 
L 568.794316 243.271783 
L 569.38687 242.94523 
L 569.979424 242.781954 
L 570.571978 242.373763 
L 571.164532 242.455401 
L 571.757086 242.04721 
L 572.942194 241.557381 
L 573.534748 241.639019 
L 574.127302 240.985913 
L 574.719856 241.230828 
L 575.31241 241.230828 
L 575.904964 241.067552 
L 576.497518 241.067552 
L 577.090072 240.414446 
L 577.682626 240.985913 
L 578.275181 240.822637 
L 578.867735 240.25117 
L 579.460289 240.332808 
L 580.052843 239.924617 
L 580.645397 239.924617 
L 581.237951 239.353149 
L 581.830505 238.944958 
L 582.423059 234.699772 
L 583.015613 233.88339 
L 583.608167 233.393561 
L 584.200721 233.638476 
L 584.793275 233.311923 
L 585.978383 233.556837 
L 586.570937 233.638476 
L 587.163491 232.822094 
L 587.756045 233.230285 
L 588.3486 233.067008 
L 588.941154 232.658817 
L 590.126262 232.577179 
L 590.718816 231.924074 
L 591.31137 232.005712 
L 591.903924 231.924074 
L 592.496478 231.679159 
L 593.089032 231.679159 
L 593.681586 230.781139 
L 594.27414 230.372948 
L 594.866694 231.026053 
L 597.23691 230.454586 
L 597.829464 230.699501 
L 598.422019 230.209671 
L 599.014573 229.964757 
L 600.199681 229.719842 
L 602.569897 228.821822 
L 603.162451 227.760525 
L 604.347559 228.00544 
L 604.940113 221.800937 
L 605.532667 228.168716 
L 606.125221 228.00544 
L 606.717775 227.597249 
L 607.310329 227.678887 
L 607.902883 227.597249 
L 608.495438 227.025782 
L 609.087992 227.433973 
L 609.680546 227.678887 
L 610.2731 226.372676 
L 610.865654 226.862505 
L 611.458208 225.964485 
L 612.050762 225.637932 
L 612.643316 226.127762 
L 613.23587 225.31138 
L 613.828424 225.31138 
L 614.420978 225.719571 
L 615.013532 225.474656 
L 615.606086 225.066465 
L 616.19864 225.393018 
L 616.791194 224.494998 
L 617.976303 224.903189 
L 618.568857 224.739912 
L 619.161411 224.82155 
L 619.753965 224.494998 
L 620.346519 223.678616 
L 620.939073 223.760254 
L 621.531627 223.433701 
L 622.124181 222.943872 
L 622.716735 222.862234 
L 623.309289 222.943872 
L 623.901843 222.698957 
L 624.494397 222.12749 
L 625.086951 222.617319 
L 625.679505 222.617319 
L 626.272059 222.454043 
L 626.864613 222.535681 
L 627.457167 222.290766 
L 628.049722 222.454043 
L 629.23483 221.964214 
L 629.827384 221.392746 
L 630.419938 221.066193 
L 631.012492 220.249811 
L 631.605046 220.494726 
L 632.790154 220.576364 
L 633.382708 220.168173 
L 633.975262 220.739641 
L 634.567816 220.086535 
L 635.16037 219.759982 
L 635.752924 220.168173 
L 636.345478 219.759982 
L 637.530586 219.759982 
L 638.123141 219.106877 
L 638.715695 219.106877 
L 639.900803 218.780324 
L 640.493357 218.453771 
L 641.085911 217.637389 
L 641.678465 217.719027 
L 642.271019 215.024967 
L 642.863573 214.86169 
L 643.456127 213.637117 
L 644.048681 213.800394 
L 644.641235 213.147288 
L 645.233789 213.637117 
L 645.826343 214.698414 
L 646.418897 213.882032 
L 647.011451 213.96367 
L 647.604005 213.555479 
L 648.789114 213.147288 
L 649.974222 212.16763 
L 650.566776 212.16763 
L 651.15933 212.412545 
L 652.344438 211.841077 
L 652.936992 212.249268 
L 654.1221 210.943057 
L 654.714654 210.943057 
L 655.307208 211.351248 
L 655.899762 210.208313 
L 656.492316 210.37159 
L 657.08487 210.126675 
L 657.677425 210.045037 
L 658.269979 210.126675 
L 658.862533 209.310293 
L 659.455087 209.310293 
L 660.047641 208.902102 
L 660.640195 208.657187 
L 661.232749 209.065378 
L 661.825303 208.657187 
L 662.417857 208.820464 
L 663.010411 208.330635 
L 664.195519 209.065378 
L 664.788073 208.08572 
L 665.380627 208.167358 
L 665.973181 207.514253 
L 666.565735 207.106062 
L 667.158289 207.269338 
L 667.750844 207.1877 
L 668.343398 206.534594 
L 670.12106 206.371318 
L 670.713614 205.963127 
L 671.306168 207.922444 
L 671.898722 207.024424 
L 673.08383 206.452956 
L 673.676384 205.554936 
L 674.268938 205.310021 
L 674.861492 199.595348 
L 675.454046 204.248725 
L 676.0466 205.799851 
L 676.639154 204.248725 
L 677.231708 203.840534 
L 677.824263 204.00381 
L 678.416817 203.513981 
L 679.009371 203.758896 
L 679.601925 204.412001 
L 679.601925 204.412001 
" clip-path="url(#p8b1e250984)" style="fill: none; stroke: #2dcc0d; stroke-opacity: 0.4; stroke-width: 1.5; stroke-linecap: square"/>
   </g>
   <g id="line2d_33">
    <path d="M 87.640419 148.081646 
L 88.232973 254.007206 
L 88.825527 293.506486 
L 89.418081 312.705069 
L 90.010635 324.730375 
L 90.603189 332.747246 
L 91.195743 338.46192 
L 91.788297 342.768335 
L 92.380852 346.099627 
L 93.56596 350.997094 
L 94.751068 354.393928 
L 95.936176 356.890382 
L 97.121284 358.813842 
L 98.306392 360.280802 
L 99.4915 361.499442 
L 101.269162 362.953379 
L 103.046825 364.09329 
L 105.417041 365.260316 
L 107.787257 366.158261 
L 110.750027 367.025084 
L 113.120244 367.539961 
L 116.675568 368.205981 
L 122.008554 368.948944 
L 127.934095 369.547142 
L 135.637298 370.114642 
L 145.118163 370.591549 
L 146.303271 370.641248 
L 146.895825 372.891197 
L 147.488379 373.023451 
L 162.894785 373.065086 
L 660.047641 372.960589 
L 660.640195 372.883849 
L 661.232749 372.682203 
L 663.010411 372.621791 
L 679.601925 372.567093 
L 679.601925 372.567093 
" clip-path="url(#p8b1e250984)" style="fill: none; stroke: #7426d9; stroke-width: 2; stroke-linecap: square"/>
   </g>
   <g id="line2d_34">
    <path d="M 87.640419 303.194219 
L 88.232973 334.869839 
L 88.825527 346.92508 
L 89.418081 352.871062 
L 90.010635 356.618255 
L 90.603189 359.198022 
L 91.195743 361.052375 
L 91.788297 362.494164 
L 92.380852 363.533917 
L 93.56596 364.734576 
L 94.158514 365.164414 
L 94.751068 365.15761 
L 95.343622 365.431681 
L 96.52873 365.723975 
L 97.121284 365.853936 
L 104.824487 364.273197 
L 106.602149 363.905825 
L 111.342581 362.863776 
L 114.897906 362.088362 
L 116.675568 361.932902 
L 118.45323 361.411495 
L 132.081974 358.456833 
L 146.303271 355.653291 
L 146.895825 356.065564 
L 148.673487 355.298982 
L 156.969244 351.478314 
L 158.746906 350.773776 
L 159.33946 350.377831 
L 164.079893 348.694452 
L 172.37565 346.245306 
L 172.968204 344.13006 
L 174.153312 343.621454 
L 175.930974 343.166729 
L 177.708636 342.914467 
L 178.893744 342.033591 
L 185.411839 337.436544 
L 188.967163 334.776772 
L 189.559717 333.697515 
L 197.855474 328.145301 
L 206.151231 322.228981 
L 213.854434 316.44818 
L 221.557637 310.553903 
L 231.631056 301.494512 
L 232.22361 302.901954 
L 233.408718 301.922296 
L 236.964042 298.211024 
L 238.14915 297.626494 
L 242.297029 295.383076 
L 242.889583 294.059721 
L 248.222569 291.228509 
L 248.815123 291.547714 
L 261.258759 283.715345 
L 273.10984 276.260145 
L 280.813043 271.410836 
L 293.256678 263.564589 
L 293.849232 263.002919 
L 301.552435 258.134017 
L 302.144989 258.769978 
L 313.99607 251.358863 
L 327.624813 242.725623 
L 333.550354 238.984145 
L 352.512084 226.841279 
L 353.104638 226.656777 
L 364.955719 219.110142 
L 365.548273 217.859445 
L 407.027057 196.606573 
L 408.804719 195.768965 
L 409.397273 195.608138 
L 415.915368 192.31567 
L 420.063247 190.263285 
L 420.655801 189.054224 
L 424.211125 187.75536 
L 424.803679 188.408466 
L 430.136666 185.616439 
L 431.321774 184.996805 
L 444.357963 178.775158 
L 467.467571 167.843804 
L 468.060125 166.731075 
L 471.022896 166.091848 
L 479.318653 164.446022 
L 479.911207 165.239545 
L 485.836747 163.324313 
L 486.429301 161.992794 
L 487.614409 163.425545 
L 494.132504 171.960818 
L 494.725058 172.56739 
L 497.095274 176.125999 
L 507.168693 192.039733 
L 524.945315 221.427034 
L 526.722977 224.446831 
L 527.315531 226.296753 
L 530.870856 231.385261 
L 533.833626 235.610854 
L 545.092153 252.645481 
L 545.684707 254.583571 
L 546.869815 254.62439 
L 548.647478 254.52969 
L 549.832586 254.528057 
L 551.017694 254.390905 
L 552.202802 254.49132 
L 552.795356 254.546834 
L 553.38791 254.453767 
L 553.980464 254.593368 
L 555.165572 254.346004 
L 560.498559 252.59813 
L 584.200721 245.8989 
L 588.941154 244.267769 
L 593.089032 243.038298 
L 599.607127 240.716507 
L 615.606086 235.143884 
L 620.346519 233.661334 
L 646.418897 224.537449 
L 659.455087 220.189399 
L 663.602965 218.799917 
L 664.788073 218.471731 
L 679.601925 213.403632 
L 679.601925 213.403632 
" clip-path="url(#p8b1e250984)" style="fill: none; stroke: #2dcc0d; stroke-width: 2; stroke-linecap: square"/>
   </g>
   <g id="patch_3">
    <path d="M 58.042344 389.877656 
L 58.042344 27.436719 
" style="fill: none; stroke: #000000; stroke-width: 0.8; stroke-linejoin: miter; stroke-linecap: square"/>
   </g>
   <g id="patch_4">
    <path d="M 709.2 389.877656 
L 709.2 27.436719 
" style="fill: none; stroke: #000000; stroke-width: 0.8; stroke-linejoin: miter; stroke-linecap: square"/>
   </g>
   <g id="patch_5">
    <path d="M 58.042344 389.877656 
L 709.2 389.877656 
" style="fill: none; stroke: #000000; stroke-width: 0.8; stroke-linejoin: miter; stroke-linecap: square"/>
   </g>
   <g id="patch_6">
    <path d="M 58.042344 27.436719 
L 709.2 27.436719 
" style="fill: none; stroke: #000000; stroke-width: 0.8; stroke-linejoin: miter; stroke-linecap: square"/>
   </g>
   <g id="text_18">
    <g id="patch_7">
     <path d="M 546.410586 178.816414 
L 624.605898 178.816414 
Q 627.605898 178.816414 627.605898 175.816414 
L 627.605898 43.79493 
Q 627.605898 40.79493 624.605898 40.79493 
L 546.410586 40.79493 
Q 543.410586 40.79493 543.410586 43.79493 
L 543.410586 175.816414 
Q 543.410586 178.816414 546.410586 178.816414 
z
" style="fill: #ffffff; opacity: 0.85; stroke: #000000; stroke-linejoin: miter"/>
    </g>
    <!-- GLIBC: -->
    <g transform="translate(546.410586 52.393562) scale(0.1 -0.1)">
     <defs>
      <path id="DejaVuSans-2a" d="M 3809 666 
L 3809 1919 
L 2778 1919 
L 2778 2438 
L 4434 2438 
L 4434 434 
Q 4069 175 3628 42 
Q 3188 -91 2688 -91 
Q 1594 -91 976 548 
Q 359 1188 359 2328 
Q 359 3472 976 4111 
Q 1594 4750 2688 4750 
Q 3144 4750 3555 4637 
Q 3966 4525 4313 4306 
L 4313 3634 
Q 3963 3931 3569 4081 
Q 3175 4231 2741 4231 
Q 1884 4231 1454 3753 
Q 1025 3275 1025 2328 
Q 1025 1384 1454 906 
Q 1884 428 2741 428 
Q 3075 428 3337 486 
Q 3600 544 3809 666 
z
" transform="scale(0.015625)"/>
      <path id="DejaVuSans-25" d="M 1259 2228 
L 1259 519 
L 2272 519 
Q 2781 519 3026 730 
Q 3272 941 3272 1375 
Q 3272 1813 3026 2020 
Q 2781 2228 2272 2228 
L 1259 2228 
z
M 1259 4147 
L 1259 2741 
L 2194 2741 
Q 2656 2741 2882 2914 
Q 3109 3088 3109 3444 
Q 3109 3797 2882 3972 
Q 2656 4147 2194 4147 
L 1259 4147 
z
M 628 4666 
L 2241 4666 
Q 2963 4666 3353 4366 
Q 3744 4066 3744 3513 
Q 3744 3084 3544 2831 
Q 3344 2578 2956 2516 
Q 3422 2416 3680 2098 
Q 3938 1781 3938 1306 
Q 3938 681 3513 340 
Q 3088 0 2303 0 
L 628 0 
L 628 4666 
z
" transform="scale(0.015625)"/>
      <path id="DejaVuSans-26" d="M 4122 4306 
L 4122 3641 
Q 3803 3938 3442 4084 
Q 3081 4231 2675 4231 
Q 1875 4231 1450 3742 
Q 1025 3253 1025 2328 
Q 1025 1406 1450 917 
Q 1875 428 2675 428 
Q 3081 428 3442 575 
Q 3803 722 4122 1019 
L 4122 359 
Q 3791 134 3420 21 
Q 3050 -91 2638 -91 
Q 1578 -91 968 557 
Q 359 1206 359 2328 
Q 359 3453 968 4101 
Q 1578 4750 2638 4750 
Q 3056 4750 3426 4639 
Q 3797 4528 4122 4306 
z
" transform="scale(0.015625)"/>
      <path id="DejaVuSans-1d" d="M 750 794 
L 1409 794 
L 1409 0 
L 750 0 
L 750 794 
z
M 750 3309 
L 1409 3309 
L 1409 2516 
L 750 2516 
L 750 3309 
z
" transform="scale(0.015625)"/>
     </defs>
     <use xlink:href="#DejaVuSans-2a"/>
     <use xlink:href="#DejaVuSans-2f" transform="translate(77.484375 0)"/>
     <use xlink:href="#DejaVuSans-2c" transform="translate(133.203125 0)"/>
     <use xlink:href="#DejaVuSans-25" transform="translate(162.703125 0)"/>
     <use xlink:href="#DejaVuSans-26" transform="translate(229.5625 0)"/>
     <use xlink:href="#DejaVuSans-1d" transform="translate(299.390625 0)"/>
    </g>
    <!--  Avg: 78.4 ns -->
    <g transform="translate(546.410586 64.395516) scale(0.1 -0.1)">
     <defs>
      <path id="DejaVuSans-24" d="M 2188 4044 
L 1331 1722 
L 3047 1722 
L 2188 4044 
z
M 1831 4666 
L 2547 4666 
L 4325 0 
L 3669 0 
L 3244 1197 
L 1141 1197 
L 716 0 
L 50 0 
L 1831 4666 
z
" transform="scale(0.015625)"/>
      <path id="DejaVuSans-59" d="M 191 3500 
L 800 3500 
L 1894 563 
L 2988 3500 
L 3597 3500 
L 2284 0 
L 1503 0 
L 191 3500 
z
" transform="scale(0.015625)"/>
      <path id="DejaVuSans-4a" d="M 2906 1791 
Q 2906 2416 2648 2759 
Q 2391 3103 1925 3103 
Q 1463 3103 1205 2759 
Q 947 2416 947 1791 
Q 947 1169 1205 825 
Q 1463 481 1925 481 
Q 2391 481 2648 825 
Q 2906 1169 2906 1791 
z
M 3481 434 
Q 3481 -459 3084 -895 
Q 2688 -1331 1869 -1331 
Q 1566 -1331 1297 -1286 
Q 1028 -1241 775 -1147 
L 775 -588 
Q 1028 -725 1275 -790 
Q 1522 -856 1778 -856 
Q 2344 -856 2625 -561 
Q 2906 -266 2906 331 
L 2906 616 
Q 2728 306 2450 153 
Q 2172 0 1784 0 
Q 1141 0 747 490 
Q 353 981 353 1791 
Q 353 2603 747 3093 
Q 1141 3584 1784 3584 
Q 2172 3584 2450 3431 
Q 2728 3278 2906 2969 
L 2906 3500 
L 3481 3500 
L 3481 434 
z
" transform="scale(0.015625)"/>
      <path id="DejaVuSans-1a" d="M 525 4666 
L 3525 4666 
L 3525 4397 
L 1831 0 
L 1172 0 
L 2766 4134 
L 525 4134 
L 525 4666 
z
" transform="scale(0.015625)"/>
      <path id="DejaVuSans-11" d="M 684 794 
L 1344 794 
L 1344 0 
L 684 0 
L 684 794 
z
" transform="scale(0.015625)"/>
     </defs>
     <use xlink:href="#DejaVuSans-3"/>
     <use xlink:href="#DejaVuSans-24" transform="translate(31.78125 0)"/>
     <use xlink:href="#DejaVuSans-59" transform="translate(94.328125 0)"/>
     <use xlink:href="#DejaVuSans-4a" transform="translate(153.515625 0)"/>
     <use xlink:href="#DejaVuSans-1d" transform="translate(217 0)"/>
     <use xlink:href="#DejaVuSans-3" transform="translate(250.6875 0)"/>
     <use xlink:href="#DejaVuSans-1a" transform="translate(282.46875 0)"/>
     <use xlink:href="#DejaVuSans-1b" transform="translate(346.09375 0)"/>
     <use xlink:href="#DejaVuSans-11" transform="translate(409.71875 0)"/>
     <use xlink:href="#DejaVuSans-17" transform="translate(441.5 0)"/>
     <use xlink:href="#DejaVuSans-3" transform="translate(505.125 0)"/>
     <use xlink:href="#DejaVuSans-51" transform="translate(536.90625 0)"/>
     <use xlink:href="#DejaVuSans-56" transform="translate(600.28125 0)"/>
    </g>
    <!--  P99: 99.0 ns -->
    <g transform="translate(546.410586 76.397469) scale(0.1 -0.1)">
     <defs>
      <path id="DejaVuSans-33" d="M 1259 4147 
L 1259 2394 
L 2053 2394 
Q 2494 2394 2734 2622 
Q 2975 2850 2975 3272 
Q 2975 3691 2734 3919 
Q 2494 4147 2053 4147 
L 1259 4147 
z
M 628 4666 
L 2053 4666 
Q 2838 4666 3239 4311 
Q 3641 3956 3641 3272 
Q 3641 2581 3239 2228 
Q 2838 1875 2053 1875 
L 1259 1875 
L 1259 0 
L 628 0 
L 628 4666 
z
" transform="scale(0.015625)"/>
      <path id="DejaVuSans-1c" d="M 703 97 
L 703 672 
Q 941 559 1184 500 
Q 1428 441 1663 441 
Q 2288 441 2617 861 
Q 2947 1281 2994 2138 
Q 2813 1869 2534 1725 
Q 2256 1581 1919 1581 
Q 1219 1581 811 2004 
Q 403 2428 403 3163 
Q 403 3881 828 4315 
Q 1253 4750 1959 4750 
Q 2769 4750 3195 4129 
Q 3622 3509 3622 2328 
Q 3622 1225 3098 567 
Q 2575 -91 1691 -91 
Q 1453 -91 1209 -44 
Q 966 3 703 97 
z
M 1959 2075 
Q 2384 2075 2632 2365 
Q 2881 2656 2881 3163 
Q 2881 3666 2632 3958 
Q 2384 4250 1959 4250 
Q 1534 4250 1286 3958 
Q 1038 3666 1038 3163 
Q 1038 2656 1286 2365 
Q 1534 2075 1959 2075 
z
" transform="scale(0.015625)"/>
     </defs>
     <use xlink:href="#DejaVuSans-3"/>
     <use xlink:href="#DejaVuSans-33" transform="translate(31.78125 0)"/>
     <use xlink:href="#DejaVuSans-1c" transform="translate(92.078125 0)"/>
     <use xlink:href="#DejaVuSans-1c" transform="translate(155.703125 0)"/>
     <use xlink:href="#DejaVuSans-1d" transform="translate(219.328125 0)"/>
     <use xlink:href="#DejaVuSans-3" transform="translate(253.015625 0)"/>
     <use xlink:href="#DejaVuSans-1c" transform="translate(284.796875 0)"/>
     <use xlink:href="#DejaVuSans-1c" transform="translate(348.421875 0)"/>
     <use xlink:href="#DejaVuSans-11" transform="translate(412.046875 0)"/>
     <use xlink:href="#DejaVuSans-13" transform="translate(443.828125 0)"/>
     <use xlink:href="#DejaVuSans-3" transform="translate(507.453125 0)"/>
     <use xlink:href="#DejaVuSans-51" transform="translate(539.234375 0)"/>
     <use xlink:href="#DejaVuSans-56" transform="translate(602.609375 0)"/>
    </g>
    <!--  Worst: 2831.0 -->
    <g transform="translate(546.410586 88.399422) scale(0.1 -0.1)">
     <defs>
      <path id="DejaVuSans-3a" d="M 213 4666 
L 850 4666 
L 1831 722 
L 2809 4666 
L 3519 4666 
L 4500 722 
L 5478 4666 
L 6119 4666 
L 4947 0 
L 4153 0 
L 3169 4050 
L 2175 0 
L 1381 0 
L 213 4666 
z
" transform="scale(0.015625)"/>
     </defs>
     <use xlink:href="#DejaVuSans-3"/>
     <use xlink:href="#DejaVuSans-3a" transform="translate(31.78125 0)"/>
     <use xlink:href="#DejaVuSans-52" transform="translate(124.796875 0)"/>
     <use xlink:href="#DejaVuSans-55" transform="translate(185.984375 0)"/>
     <use xlink:href="#DejaVuSans-56" transform="translate(227.09375 0)"/>
     <use xlink:href="#DejaVuSans-57" transform="translate(279.1875 0)"/>
     <use xlink:href="#DejaVuSans-1d" transform="translate(318.390625 0)"/>
     <use xlink:href="#DejaVuSans-3" transform="translate(352.078125 0)"/>
     <use xlink:href="#DejaVuSans-15" transform="translate(383.859375 0)"/>
     <use xlink:href="#DejaVuSans-1b" transform="translate(447.484375 0)"/>
     <use xlink:href="#DejaVuSans-16" transform="translate(511.109375 0)"/>
     <use xlink:href="#DejaVuSans-14" transform="translate(574.734375 0)"/>
     <use xlink:href="#DejaVuSans-11" transform="translate(638.359375 0)"/>
     <use xlink:href="#DejaVuSans-13" transform="translate(670.140625 0)"/>
    </g>
    <!--  Best: 71.0 -->
    <g transform="translate(546.410586 100.401375) scale(0.1 -0.1)">
     <use xlink:href="#DejaVuSans-3"/>
     <use xlink:href="#DejaVuSans-25" transform="translate(31.78125 0)"/>
     <use xlink:href="#DejaVuSans-48" transform="translate(100.390625 0)"/>
     <use xlink:href="#DejaVuSans-56" transform="translate(161.921875 0)"/>
     <use xlink:href="#DejaVuSans-57" transform="translate(214.015625 0)"/>
     <use xlink:href="#DejaVuSans-1d" transform="translate(253.21875 0)"/>
     <use xlink:href="#DejaVuSans-3" transform="translate(286.90625 0)"/>
     <use xlink:href="#DejaVuSans-1a" transform="translate(318.6875 0)"/>
     <use xlink:href="#DejaVuSans-14" transform="translate(382.3125 0)"/>
     <use xlink:href="#DejaVuSans-11" transform="translate(445.9375 0)"/>
     <use xlink:href="#DejaVuSans-13" transform="translate(477.71875 0)"/>
    </g>
    <!--  -->
    <g transform="translate(546.410586 112.403328) scale(0.1 -0.1)"/>
    <!-- CUSTOM: -->
    <g transform="translate(546.410586 124.405281) scale(0.1 -0.1)">
     <defs>
      <path id="DejaVuSans-38" d="M 556 4666 
L 1191 4666 
L 1191 1831 
Q 1191 1081 1462 751 
Q 1734 422 2344 422 
Q 2950 422 3222 751 
Q 3494 1081 3494 1831 
L 3494 4666 
L 4128 4666 
L 4128 1753 
Q 4128 841 3676 375 
Q 3225 -91 2344 -91 
Q 1459 -91 1007 375 
Q 556 841 556 1753 
L 556 4666 
z
" transform="scale(0.015625)"/>
      <path id="DejaVuSans-36" d="M 3425 4513 
L 3425 3897 
Q 3066 4069 2747 4153 
Q 2428 4238 2131 4238 
Q 1616 4238 1336 4038 
Q 1056 3838 1056 3469 
Q 1056 3159 1242 3001 
Q 1428 2844 1947 2747 
L 2328 2669 
Q 3034 2534 3370 2195 
Q 3706 1856 3706 1288 
Q 3706 609 3251 259 
Q 2797 -91 1919 -91 
Q 1588 -91 1214 -16 
Q 841 59 441 206 
L 441 856 
Q 825 641 1194 531 
Q 1563 422 1919 422 
Q 2459 422 2753 634 
Q 3047 847 3047 1241 
Q 3047 1584 2836 1778 
Q 2625 1972 2144 2069 
L 1759 2144 
Q 1053 2284 737 2584 
Q 422 2884 422 3419 
Q 422 4038 858 4394 
Q 1294 4750 2059 4750 
Q 2388 4750 2728 4690 
Q 3069 4631 3425 4513 
z
" transform="scale(0.015625)"/>
      <path id="DejaVuSans-37" d="M -19 4666 
L 3928 4666 
L 3928 4134 
L 2272 4134 
L 2272 0 
L 1638 0 
L 1638 4134 
L -19 4134 
L -19 4666 
z
" transform="scale(0.015625)"/>
      <path id="DejaVuSans-32" d="M 2522 4238 
Q 1834 4238 1429 3725 
Q 1025 3213 1025 2328 
Q 1025 1447 1429 934 
Q 1834 422 2522 422 
Q 3209 422 3611 934 
Q 4013 1447 4013 2328 
Q 4013 3213 3611 3725 
Q 3209 4238 2522 4238 
z
M 2522 4750 
Q 3503 4750 4090 4092 
Q 4678 3434 4678 2328 
Q 4678 1225 4090 567 
Q 3503 -91 2522 -91 
Q 1538 -91 948 565 
Q 359 1222 359 2328 
Q 359 3434 948 4092 
Q 1538 4750 2522 4750 
z
" transform="scale(0.015625)"/>
      <path id="DejaVuSans-30" d="M 628 4666 
L 1569 4666 
L 2759 1491 
L 3956 4666 
L 4897 4666 
L 4897 0 
L 4281 0 
L 4281 4097 
L 3078 897 
L 2444 897 
L 1241 4097 
L 1241 0 
L 628 0 
L 628 4666 
z
" transform="scale(0.015625)"/>
     </defs>
     <use xlink:href="#DejaVuSans-26"/>
     <use xlink:href="#DejaVuSans-38" transform="translate(69.828125 0)"/>
     <use xlink:href="#DejaVuSans-36" transform="translate(143.015625 0)"/>
     <use xlink:href="#DejaVuSans-37" transform="translate(206.5 0)"/>
     <use xlink:href="#DejaVuSans-32" transform="translate(267.578125 0)"/>
     <use xlink:href="#DejaVuSans-30" transform="translate(346.296875 0)"/>
     <use xlink:href="#DejaVuSans-1d" transform="translate(432.578125 0)"/>
    </g>
    <!--  Avg: 1611.9 ns -->
    <g transform="translate(546.410586 136.407234) scale(0.1 -0.1)">
     <use xlink:href="#DejaVuSans-3"/>
     <use xlink:href="#DejaVuSans-24" transform="translate(31.78125 0)"/>
     <use xlink:href="#DejaVuSans-59" transform="translate(94.328125 0)"/>
     <use xlink:href="#DejaVuSans-4a" transform="translate(153.515625 0)"/>
     <use xlink:href="#DejaVuSans-1d" transform="translate(217 0)"/>
     <use xlink:href="#DejaVuSans-3" transform="translate(250.6875 0)"/>
     <use xlink:href="#DejaVuSans-14" transform="translate(282.46875 0)"/>
     <use xlink:href="#DejaVuSans-19" transform="translate(346.09375 0)"/>
     <use xlink:href="#DejaVuSans-14" transform="translate(409.71875 0)"/>
     <use xlink:href="#DejaVuSans-14" transform="translate(473.34375 0)"/>
     <use xlink:href="#DejaVuSans-11" transform="translate(536.96875 0)"/>
     <use xlink:href="#DejaVuSans-1c" transform="translate(568.75 0)"/>
     <use xlink:href="#DejaVuSans-3" transform="translate(632.375 0)"/>
     <use xlink:href="#DejaVuSans-51" transform="translate(664.15625 0)"/>
     <use xlink:href="#DejaVuSans-56" transform="translate(727.53125 0)"/>
    </g>
    <!--  P99: 2749.0 ns -->
    <g transform="translate(546.410586 148.409187) scale(0.1 -0.1)">
     <use xlink:href="#DejaVuSans-3"/>
     <use xlink:href="#DejaVuSans-33" transform="translate(31.78125 0)"/>
     <use xlink:href="#DejaVuSans-1c" transform="translate(92.078125 0)"/>
     <use xlink:href="#DejaVuSans-1c" transform="translate(155.703125 0)"/>
     <use xlink:href="#DejaVuSans-1d" transform="translate(219.328125 0)"/>
     <use xlink:href="#DejaVuSans-3" transform="translate(253.015625 0)"/>
     <use xlink:href="#DejaVuSans-15" transform="translate(284.796875 0)"/>
     <use xlink:href="#DejaVuSans-1a" transform="translate(348.421875 0)"/>
     <use xlink:href="#DejaVuSans-17" transform="translate(412.046875 0)"/>
     <use xlink:href="#DejaVuSans-1c" transform="translate(475.671875 0)"/>
     <use xlink:href="#DejaVuSans-11" transform="translate(539.296875 0)"/>
     <use xlink:href="#DejaVuSans-13" transform="translate(571.078125 0)"/>
     <use xlink:href="#DejaVuSans-3" transform="translate(634.703125 0)"/>
     <use xlink:href="#DejaVuSans-51" transform="translate(666.484375 0)"/>
     <use xlink:href="#DejaVuSans-56" transform="translate(729.859375 0)"/>
    </g>
    <!--  Worst: 4107.0 -->
    <g transform="translate(546.410586 160.411141) scale(0.1 -0.1)">
     <use xlink:href="#DejaVuSans-3"/>
     <use xlink:href="#DejaVuSans-3a" transform="translate(31.78125 0)"/>
     <use xlink:href="#DejaVuSans-52" transform="translate(124.796875 0)"/>
     <use xlink:href="#DejaVuSans-55" transform="translate(185.984375 0)"/>
     <use xlink:href="#DejaVuSans-56" transform="translate(227.09375 0)"/>
     <use xlink:href="#DejaVuSans-57" transform="translate(279.1875 0)"/>
     <use xlink:href="#DejaVuSans-1d" transform="translate(318.390625 0)"/>
     <use xlink:href="#DejaVuSans-3" transform="translate(352.078125 0)"/>
     <use xlink:href="#DejaVuSans-17" transform="translate(383.859375 0)"/>
     <use xlink:href="#DejaVuSans-14" transform="translate(447.484375 0)"/>
     <use xlink:href="#DejaVuSans-13" transform="translate(511.109375 0)"/>
     <use xlink:href="#DejaVuSans-1a" transform="translate(574.734375 0)"/>
     <use xlink:href="#DejaVuSans-11" transform="translate(638.359375 0)"/>
     <use xlink:href="#DejaVuSans-13" transform="translate(670.140625 0)"/>
    </g>
    <!--  Best: 81.0 -->
    <g transform="translate(546.410586 172.413094) scale(0.1 -0.1)">
     <use xlink:href="#DejaVuSans-3"/>
     <use xlink:href="#DejaVuSans-25" transform="translate(31.78125 0)"/>
     <use xlink:href="#DejaVuSans-48" transform="translate(100.390625 0)"/>
     <use xlink:href="#DejaVuSans-56" transform="translate(161.921875 0)"/>
     <use xlink:href="#DejaVuSans-57" transform="translate(214.015625 0)"/>
     <use xlink:href="#DejaVuSans-1d" transform="translate(253.21875 0)"/>
     <use xlink:href="#DejaVuSans-3" transform="translate(286.90625 0)"/>
     <use xlink:href="#DejaVuSans-1b" transform="translate(318.6875 0)"/>
     <use xlink:href="#DejaVuSans-14" transform="translate(382.3125 0)"/>
     <use xlink:href="#DejaVuSans-11" transform="translate(445.9375 0)"/>
     <use xlink:href="#DejaVuSans-13" transform="translate(477.71875 0)"/>
    </g>
   </g>
   <g id="text_19">
    <!-- Zeroed Allocation Latency Evaluation (Calloc) -->
    <g transform="translate(203.887422 21.436719) scale(0.14 -0.14)">
     <defs>
      <path id="DejaVuSans-Bold-3d" d="M 359 4666 
L 4281 4666 
L 4281 3938 
L 1778 909 
L 4353 909 
L 4353 0 
L 288 0 
L 288 728 
L 2791 3756 
L 359 3756 
L 359 4666 
z
" transform="scale(0.015625)"/>
      <path id="DejaVuSans-Bold-48" d="M 4031 1759 
L 4031 1441 
L 1416 1441 
Q 1456 1047 1700 850 
Q 1944 653 2381 653 
Q 2734 653 3104 758 
Q 3475 863 3866 1075 
L 3866 213 
Q 3469 63 3072 -14 
Q 2675 -91 2278 -91 
Q 1328 -91 801 392 
Q 275 875 275 1747 
Q 275 2603 792 3093 
Q 1309 3584 2216 3584 
Q 3041 3584 3536 3087 
Q 4031 2591 4031 1759 
z
M 2881 2131 
Q 2881 2450 2695 2645 
Q 2509 2841 2209 2841 
Q 1884 2841 1681 2658 
Q 1478 2475 1428 2131 
L 2881 2131 
z
" transform="scale(0.015625)"/>
      <path id="DejaVuSans-Bold-55" d="M 3138 2547 
Q 2991 2616 2845 2648 
Q 2700 2681 2553 2681 
Q 2122 2681 1889 2404 
Q 1656 2128 1656 1613 
L 1656 0 
L 538 0 
L 538 3500 
L 1656 3500 
L 1656 2925 
Q 1872 3269 2151 3426 
Q 2431 3584 2822 3584 
Q 2878 3584 2943 3579 
Q 3009 3575 3134 3559 
L 3138 2547 
z
" transform="scale(0.015625)"/>
      <path id="DejaVuSans-Bold-52" d="M 2203 2784 
Q 1831 2784 1636 2517 
Q 1441 2250 1441 1747 
Q 1441 1244 1636 976 
Q 1831 709 2203 709 
Q 2569 709 2762 976 
Q 2956 1244 2956 1747 
Q 2956 2250 2762 2517 
Q 2569 2784 2203 2784 
z
M 2203 3584 
Q 3106 3584 3614 3096 
Q 4122 2609 4122 1747 
Q 4122 884 3614 396 
Q 3106 -91 2203 -91 
Q 1297 -91 786 396 
Q 275 884 275 1747 
Q 275 2609 786 3096 
Q 1297 3584 2203 3584 
z
" transform="scale(0.015625)"/>
      <path id="DejaVuSans-Bold-47" d="M 2919 2988 
L 2919 4863 
L 4044 4863 
L 4044 0 
L 2919 0 
L 2919 506 
Q 2688 197 2409 53 
Q 2131 -91 1766 -91 
Q 1119 -91 703 423 
Q 288 938 288 1747 
Q 288 2556 703 3070 
Q 1119 3584 1766 3584 
Q 2128 3584 2408 3439 
Q 2688 3294 2919 2988 
z
M 2181 722 
Q 2541 722 2730 984 
Q 2919 1247 2919 1747 
Q 2919 2247 2730 2509 
Q 2541 2772 2181 2772 
Q 1825 2772 1636 2509 
Q 1447 2247 1447 1747 
Q 1447 1247 1636 984 
Q 1825 722 2181 722 
z
" transform="scale(0.015625)"/>
      <path id="DejaVuSans-Bold-3" transform="scale(0.015625)"/>
      <path id="DejaVuSans-Bold-24" d="M 3419 850 
L 1538 850 
L 1241 0 
L 31 0 
L 1759 4666 
L 3194 4666 
L 4922 0 
L 3713 0 
L 3419 850 
z
M 1838 1716 
L 3116 1716 
L 2478 3572 
L 1838 1716 
z
" transform="scale(0.015625)"/>
      <path id="DejaVuSans-Bold-4f" d="M 538 4863 
L 1656 4863 
L 1656 0 
L 538 0 
L 538 4863 
z
" transform="scale(0.015625)"/>
      <path id="DejaVuSans-Bold-46" d="M 3366 3391 
L 3366 2478 
Q 3138 2634 2908 2709 
Q 2678 2784 2431 2784 
Q 1963 2784 1702 2511 
Q 1441 2238 1441 1747 
Q 1441 1256 1702 982 
Q 1963 709 2431 709 
Q 2694 709 2930 787 
Q 3166 866 3366 1019 
L 3366 103 
Q 3103 6 2833 -42 
Q 2563 -91 2291 -91 
Q 1344 -91 809 395 
Q 275 881 275 1747 
Q 275 2613 809 3098 
Q 1344 3584 2291 3584 
Q 2566 3584 2833 3536 
Q 3100 3488 3366 3391 
z
" transform="scale(0.015625)"/>
      <path id="DejaVuSans-Bold-44" d="M 2106 1575 
Q 1756 1575 1579 1456 
Q 1403 1338 1403 1106 
Q 1403 894 1545 773 
Q 1688 653 1941 653 
Q 2256 653 2472 879 
Q 2688 1106 2688 1447 
L 2688 1575 
L 2106 1575 
z
M 3816 1997 
L 3816 0 
L 2688 0 
L 2688 519 
Q 2463 200 2181 54 
Q 1900 -91 1497 -91 
Q 953 -91 614 226 
Q 275 544 275 1050 
Q 275 1666 698 1953 
Q 1122 2241 2028 2241 
L 2688 2241 
L 2688 2328 
Q 2688 2594 2478 2717 
Q 2269 2841 1825 2841 
Q 1466 2841 1156 2769 
Q 847 2697 581 2553 
L 581 3406 
Q 941 3494 1303 3539 
Q 1666 3584 2028 3584 
Q 2975 3584 3395 3211 
Q 3816 2838 3816 1997 
z
" transform="scale(0.015625)"/>
      <path id="DejaVuSans-Bold-57" d="M 1759 4494 
L 1759 3500 
L 2913 3500 
L 2913 2700 
L 1759 2700 
L 1759 1216 
Q 1759 972 1856 886 
Q 1953 800 2241 800 
L 2816 800 
L 2816 0 
L 1856 0 
Q 1194 0 917 276 
Q 641 553 641 1216 
L 641 2700 
L 84 2700 
L 84 3500 
L 641 3500 
L 641 4494 
L 1759 4494 
z
" transform="scale(0.015625)"/>
      <path id="DejaVuSans-Bold-4c" d="M 538 3500 
L 1656 3500 
L 1656 0 
L 538 0 
L 538 3500 
z
M 538 4863 
L 1656 4863 
L 1656 3950 
L 538 3950 
L 538 4863 
z
" transform="scale(0.015625)"/>
      <path id="DejaVuSans-Bold-51" d="M 4056 2131 
L 4056 0 
L 2931 0 
L 2931 347 
L 2931 1631 
Q 2931 2084 2911 2256 
Q 2891 2428 2841 2509 
Q 2775 2619 2662 2680 
Q 2550 2741 2406 2741 
Q 2056 2741 1856 2470 
Q 1656 2200 1656 1722 
L 1656 0 
L 538 0 
L 538 3500 
L 1656 3500 
L 1656 2988 
Q 1909 3294 2193 3439 
Q 2478 3584 2822 3584 
Q 3428 3584 3742 3212 
Q 4056 2841 4056 2131 
z
" transform="scale(0.015625)"/>
      <path id="DejaVuSans-Bold-2f" d="M 588 4666 
L 1791 4666 
L 1791 909 
L 3903 909 
L 3903 0 
L 588 0 
L 588 4666 
z
" transform="scale(0.015625)"/>
      <path id="DejaVuSans-Bold-5c" d="M 78 3500 
L 1197 3500 
L 2138 1125 
L 2938 3500 
L 4056 3500 
L 2584 -331 
Q 2363 -916 2067 -1148 
Q 1772 -1381 1288 -1381 
L 641 -1381 
L 641 -647 
L 991 -647 
Q 1275 -647 1404 -556 
Q 1534 -466 1606 -231 
L 1638 -134 
L 78 3500 
z
" transform="scale(0.015625)"/>
      <path id="DejaVuSans-Bold-28" d="M 588 4666 
L 3834 4666 
L 3834 3756 
L 1791 3756 
L 1791 2888 
L 3713 2888 
L 3713 1978 
L 1791 1978 
L 1791 909 
L 3903 909 
L 3903 0 
L 588 0 
L 588 4666 
z
" transform="scale(0.015625)"/>
      <path id="DejaVuSans-Bold-59" d="M 97 3500 
L 1216 3500 
L 2088 1081 
L 2956 3500 
L 4078 3500 
L 2700 0 
L 1472 0 
L 97 3500 
z
" transform="scale(0.015625)"/>
      <path id="DejaVuSans-Bold-58" d="M 500 1363 
L 500 3500 
L 1625 3500 
L 1625 3150 
Q 1625 2866 1622 2436 
Q 1619 2006 1619 1863 
Q 1619 1441 1641 1255 
Q 1663 1069 1716 984 
Q 1784 875 1895 815 
Q 2006 756 2150 756 
Q 2500 756 2700 1025 
Q 2900 1294 2900 1772 
L 2900 3500 
L 4019 3500 
L 4019 0 
L 2900 0 
L 2900 506 
Q 2647 200 2364 54 
Q 2081 -91 1741 -91 
Q 1134 -91 817 281 
Q 500 653 500 1363 
z
" transform="scale(0.015625)"/>
      <path id="DejaVuSans-Bold-b" d="M 2413 -844 
L 1484 -844 
Q 1006 -72 778 623 
Q 550 1319 550 2003 
Q 550 2688 779 3389 
Q 1009 4091 1484 4856 
L 2413 4856 
Q 2013 4116 1813 3408 
Q 1613 2700 1613 2009 
Q 1613 1319 1811 609 
Q 2009 -100 2413 -844 
z
" transform="scale(0.015625)"/>
      <path id="DejaVuSans-Bold-26" d="M 4288 256 
Q 3956 84 3597 -3 
Q 3238 -91 2847 -91 
Q 1681 -91 1000 561 
Q 319 1213 319 2328 
Q 319 3447 1000 4098 
Q 1681 4750 2847 4750 
Q 3238 4750 3597 4662 
Q 3956 4575 4288 4403 
L 4288 3438 
Q 3953 3666 3628 3772 
Q 3303 3878 2944 3878 
Q 2300 3878 1931 3465 
Q 1563 3053 1563 2328 
Q 1563 1606 1931 1193 
Q 2300 781 2944 781 
Q 3303 781 3628 887 
Q 3953 994 4288 1222 
L 4288 256 
z
" transform="scale(0.015625)"/>
      <path id="DejaVuSans-Bold-c" d="M 513 -844 
Q 913 -100 1113 609 
Q 1313 1319 1313 2009 
Q 1313 2700 1113 3408 
Q 913 4116 513 4856 
L 1441 4856 
Q 1916 4091 2145 3389 
Q 2375 2688 2375 2003 
Q 2375 1319 2147 623 
Q 1919 -72 1441 -844 
L 513 -844 
z
" transform="scale(0.015625)"/>
     </defs>
     <use xlink:href="#DejaVuSans-Bold-3d"/>
     <use xlink:href="#DejaVuSans-Bold-48" transform="translate(72.515625 0)"/>
     <use xlink:href="#DejaVuSans-Bold-55" transform="translate(140.34375 0)"/>
     <use xlink:href="#DejaVuSans-Bold-52" transform="translate(189.65625 0)"/>
     <use xlink:href="#DejaVuSans-Bold-48" transform="translate(258.359375 0)"/>
     <use xlink:href="#DejaVuSans-Bold-47" transform="translate(326.1875 0)"/>
     <use xlink:href="#DejaVuSans-Bold-3" transform="translate(397.765625 0)"/>
     <use xlink:href="#DejaVuSans-Bold-24" transform="translate(432.578125 0)"/>
     <use xlink:href="#DejaVuSans-Bold-4f" transform="translate(509.96875 0)"/>
     <use xlink:href="#DejaVuSans-Bold-4f" transform="translate(544.25 0)"/>
     <use xlink:href="#DejaVuSans-Bold-52" transform="translate(578.53125 0)"/>
     <use xlink:href="#DejaVuSans-Bold-46" transform="translate(647.234375 0)"/>
     <use xlink:href="#DejaVuSans-Bold-44" transform="translate(706.515625 0)"/>
     <use xlink:href="#DejaVuSans-Bold-57" transform="translate(774 0)"/>
     <use xlink:href="#DejaVuSans-Bold-4c" transform="translate(821.796875 0)"/>
     <use xlink:href="#DejaVuSans-Bold-52" transform="translate(856.078125 0)"/>
     <use xlink:href="#DejaVuSans-Bold-51" transform="translate(924.78125 0)"/>
     <use xlink:href="#DejaVuSans-Bold-3" transform="translate(995.96875 0)"/>
     <use xlink:href="#DejaVuSans-Bold-2f" transform="translate(1030.78125 0)"/>
     <use xlink:href="#DejaVuSans-Bold-44" transform="translate(1094.5 0)"/>
     <use xlink:href="#DejaVuSans-Bold-57" transform="translate(1161.984375 0)"/>
     <use xlink:href="#DejaVuSans-Bold-48" transform="translate(1209.78125 0)"/>
     <use xlink:href="#DejaVuSans-Bold-51" transform="translate(1277.609375 0)"/>
     <use xlink:href="#DejaVuSans-Bold-46" transform="translate(1348.796875 0)"/>
     <use xlink:href="#DejaVuSans-Bold-5c" transform="translate(1408.078125 0)"/>
     <use xlink:href="#DejaVuSans-Bold-3" transform="translate(1473.265625 0)"/>
     <use xlink:href="#DejaVuSans-Bold-28" transform="translate(1508.078125 0)"/>
     <use xlink:href="#DejaVuSans-Bold-59" transform="translate(1576.390625 0)"/>
     <use xlink:href="#DejaVuSans-Bold-44" transform="translate(1641.578125 0)"/>
     <use xlink:href="#DejaVuSans-Bold-4f" transform="translate(1709.0625 0)"/>
     <use xlink:href="#DejaVuSans-Bold-58" transform="translate(1743.34375 0)"/>
     <use xlink:href="#DejaVuSans-Bold-44" transform="translate(1814.53125 0)"/>
     <use xlink:href="#DejaVuSans-Bold-57" transform="translate(1882.015625 0)"/>
     <use xlink:href="#DejaVuSans-Bold-4c" transform="translate(1929.8125 0)"/>
     <use xlink:href="#DejaVuSans-Bold-52" transform="translate(1964.09375 0)"/>
     <use xlink:href="#DejaVuSans-Bold-51" transform="translate(2032.796875 0)"/>
     <use xlink:href="#DejaVuSans-Bold-3" transform="translate(2103.984375 0)"/>
     <use xlink:href="#DejaVuSans-Bold-b" transform="translate(2138.796875 0)"/>
     <use xlink:href="#DejaVuSans-Bold-26" transform="translate(2184.5 0)"/>
     <use xlink:href="#DejaVuSans-Bold-44" transform="translate(2257.890625 0)"/>
     <use xlink:href="#DejaVuSans-Bold-4f" transform="translate(2325.375 0)"/>
     <use xlink:href="#DejaVuSans-Bold-4f" transform="translate(2359.65625 0)"/>
     <use xlink:href="#DejaVuSans-Bold-52" transform="translate(2393.9375 0)"/>
     <use xlink:href="#DejaVuSans-Bold-46" transform="translate(2462.640625 0)"/>
     <use xlink:href="#DejaVuSans-Bold-c" transform="translate(2521.921875 0)"/>
    </g>
   </g>
   <g id="legend_1">
    <g id="patch_8">
     <path d="M 65.042344 95.439844 
L 165.897031 95.439844 
Q 167.897031 95.439844 167.897031 93.439844 
L 167.897031 34.436719 
Q 167.897031 32.436719 165.897031 32.436719 
L 65.042344 32.436719 
Q 63.042344 32.436719 63.042344 34.436719 
L 63.042344 93.439844 
Q 63.042344 95.439844 65.042344 95.439844 
z
" style="fill: #ffffff; opacity: 0.8; stroke: #cccccc; stroke-linejoin: miter"/>
    </g>
    <g id="line2d_35">
     <path d="M 67.042344 40.535156 
L 77.042344 40.535156 
L 87.042344 40.535156 
" style="fill: none; stroke: #7426d9; stroke-opacity: 0.4; stroke-width: 1.5; stroke-linecap: square"/>
    </g>
    <g id="text_20">
     <!-- Glibc raw -->
     <g transform="translate(95.042344 44.035156) scale(0.1 -0.1)">
      <defs>
       <path id="DejaVuSans-4f" d="M 603 4863 
L 1178 4863 
L 1178 0 
L 603 0 
L 603 4863 
z
" transform="scale(0.015625)"/>
       <path id="DejaVuSans-45" d="M 3116 1747 
Q 3116 2381 2855 2742 
Q 2594 3103 2138 3103 
Q 1681 3103 1420 2742 
Q 1159 2381 1159 1747 
Q 1159 1113 1420 752 
Q 1681 391 2138 391 
Q 2594 391 2855 752 
Q 3116 1113 3116 1747 
z
M 1159 2969 
Q 1341 3281 1617 3432 
Q 1894 3584 2278 3584 
Q 2916 3584 3314 3078 
Q 3713 2572 3713 1747 
Q 3713 922 3314 415 
Q 2916 -91 2278 -91 
Q 1894 -91 1617 61 
Q 1341 213 1159 525 
L 1159 0 
L 581 0 
L 581 4863 
L 1159 4863 
L 1159 2969 
z
" transform="scale(0.015625)"/>
       <path id="DejaVuSans-5a" d="M 269 3500 
L 844 3500 
L 1563 769 
L 2278 3500 
L 2956 3500 
L 3675 769 
L 4391 3500 
L 4966 3500 
L 4050 0 
L 3372 0 
L 2619 2869 
L 1863 0 
L 1184 0 
L 269 3500 
z
" transform="scale(0.015625)"/>
      </defs>
      <use xlink:href="#DejaVuSans-2a"/>
      <use xlink:href="#DejaVuSans-4f" transform="translate(77.484375 0)"/>
      <use xlink:href="#DejaVuSans-4c" transform="translate(105.265625 0)"/>
      <use xlink:href="#DejaVuSans-45" transform="translate(133.046875 0)"/>
      <use xlink:href="#DejaVuSans-46" transform="translate(196.53125 0)"/>
      <use xlink:href="#DejaVuSans-3" transform="translate(251.515625 0)"/>
      <use xlink:href="#DejaVuSans-55" transform="translate(283.296875 0)"/>
      <use xlink:href="#DejaVuSans-44" transform="translate(324.40625 0)"/>
      <use xlink:href="#DejaVuSans-5a" transform="translate(385.6875 0)"/>
     </g>
    </g>
    <g id="line2d_36">
     <path d="M 67.042344 55.535937 
L 77.042344 55.535937 
L 87.042344 55.535937 
" style="fill: none; stroke: #2dcc0d; stroke-opacity: 0.4; stroke-width: 1.5; stroke-linecap: square"/>
    </g>
    <g id="text_21">
     <!-- Custom raw -->
     <g transform="translate(95.042344 59.035937) scale(0.1 -0.1)">
      <defs>
       <path id="DejaVuSans-58" d="M 544 1381 
L 544 3500 
L 1119 3500 
L 1119 1403 
Q 1119 906 1312 657 
Q 1506 409 1894 409 
Q 2359 409 2629 706 
Q 2900 1003 2900 1516 
L 2900 3500 
L 3475 3500 
L 3475 0 
L 2900 0 
L 2900 538 
Q 2691 219 2414 64 
Q 2138 -91 1772 -91 
Q 1169 -91 856 284 
Q 544 659 544 1381 
z
M 1991 3584 
L 1991 3584 
z
" transform="scale(0.015625)"/>
       <path id="DejaVuSans-50" d="M 3328 2828 
Q 3544 3216 3844 3400 
Q 4144 3584 4550 3584 
Q 5097 3584 5394 3201 
Q 5691 2819 5691 2113 
L 5691 0 
L 5113 0 
L 5113 2094 
Q 5113 2597 4934 2840 
Q 4756 3084 4391 3084 
Q 3944 3084 3684 2787 
Q 3425 2491 3425 1978 
L 3425 0 
L 2847 0 
L 2847 2094 
Q 2847 2600 2669 2842 
Q 2491 3084 2119 3084 
Q 1678 3084 1418 2786 
Q 1159 2488 1159 1978 
L 1159 0 
L 581 0 
L 581 3500 
L 1159 3500 
L 1159 2956 
Q 1356 3278 1631 3431 
Q 1906 3584 2284 3584 
Q 2666 3584 2933 3390 
Q 3200 3197 3328 2828 
z
" transform="scale(0.015625)"/>
      </defs>
      <use xlink:href="#DejaVuSans-26"/>
      <use xlink:href="#DejaVuSans-58" transform="translate(69.828125 0)"/>
      <use xlink:href="#DejaVuSans-56" transform="translate(133.203125 0)"/>
      <use xlink:href="#DejaVuSans-57" transform="translate(185.296875 0)"/>
      <use xlink:href="#DejaVuSans-52" transform="translate(224.5 0)"/>
      <use xlink:href="#DejaVuSans-50" transform="translate(285.6875 0)"/>
      <use xlink:href="#DejaVuSans-3" transform="translate(383.09375 0)"/>
      <use xlink:href="#DejaVuSans-55" transform="translate(414.875 0)"/>
      <use xlink:href="#DejaVuSans-44" transform="translate(455.984375 0)"/>
      <use xlink:href="#DejaVuSans-5a" transform="translate(517.265625 0)"/>
     </g>
    </g>
    <g id="line2d_37">
     <path d="M 67.042344 70.536719 
L 77.042344 70.536719 
L 87.042344 70.536719 
" style="fill: none; stroke: #7426d9; stroke-width: 2; stroke-linecap: square"/>
    </g>
    <g id="text_22">
     <!-- Glibc Trend -->
     <g transform="translate(95.042344 74.036719) scale(0.1 -0.1)">
      <use xlink:href="#DejaVuSans-2a"/>
      <use xlink:href="#DejaVuSans-4f" transform="translate(77.484375 0)"/>
      <use xlink:href="#DejaVuSans-4c" transform="translate(105.265625 0)"/>
      <use xlink:href="#DejaVuSans-45" transform="translate(133.046875 0)"/>
      <use xlink:href="#DejaVuSans-46" transform="translate(196.53125 0)"/>
      <use xlink:href="#DejaVuSans-3" transform="translate(251.515625 0)"/>
      <use xlink:href="#DejaVuSans-37" transform="translate(283.296875 0)"/>
      <use xlink:href="#DejaVuSans-55" transform="translate(329.671875 0)"/>
      <use xlink:href="#DejaVuSans-48" transform="translate(368.578125 0)"/>
      <use xlink:href="#DejaVuSans-51" transform="translate(430.109375 0)"/>
      <use xlink:href="#DejaVuSans-47" transform="translate(493.484375 0)"/>
     </g>
    </g>
    <g id="line2d_38">
     <path d="M 67.042344 85.5375 
L 77.042344 85.5375 
L 87.042344 85.5375 
" style="fill: none; stroke: #2dcc0d; stroke-width: 2; stroke-linecap: square"/>
    </g>
    <g id="text_23">
     <!-- Custom Trend -->
     <g transform="translate(95.042344 89.0375) scale(0.1 -0.1)">
      <use xlink:href="#DejaVuSans-26"/>
      <use xlink:href="#DejaVuSans-58" transform="translate(69.828125 0)"/>
      <use xlink:href="#DejaVuSans-56" transform="translate(133.203125 0)"/>
      <use xlink:href="#DejaVuSans-57" transform="translate(185.296875 0)"/>
      <use xlink:href="#DejaVuSans-52" transform="translate(224.5 0)"/>
      <use xlink:href="#DejaVuSans-50" transform="translate(285.6875 0)"/>
      <use xlink:href="#DejaVuSans-3" transform="translate(383.09375 0)"/>
      <use xlink:href="#DejaVuSans-37" transform="translate(414.875 0)"/>
      <use xlink:href="#DejaVuSans-55" transform="translate(461.25 0)"/>
      <use xlink:href="#DejaVuSans-48" transform="translate(500.15625 0)"/>
      <use xlink:href="#DejaVuSans-51" transform="translate(561.6875 0)"/>
      <use xlink:href="#DejaVuSans-47" transform="translate(625.0625 0)"/>
     </g>
    </g>
   </g>
  </g>
 </g>
 <defs>
  <clipPath id="p8b1e250984">
   <rect x="58.042344" y="27.436719" width="651.157656" height="362.440938"/>
  </clipPath>
 </defs>
</svg>
