<?xml version="1.0" encoding="utf-8" standalone="no"?>
<!DOCTYPE svg PUBLIC "-//W3C//DTD SVG 1.1//EN"
  "http://www.w3.org/Graphics/SVG/1.1/DTD/svg11.dtd">
<svg xmlns:xlink="http://www.w3.org/1999/xlink" width="720pt" height="432pt" viewBox="0 0 720 432" xmlns="http://www.w3.org/2000/svg" version="1.1">
 <metadata>
  <rdf:RDF xmlns:dc="http://purl.org/dc/elements/1.1/" xmlns:cc="http://creativecommons.org/ns#" xmlns:rdf="http://www.w3.org/1999/02/22-rdf-syntax-ns#">
   <cc:Work>
    <dc:type rdf:resource="http://purl.org/dc/dcmitype/StillImage"/>
    <dc:date>2026-06-16T11:02:44.973282</dc:date>
    <dc:format>image/svg+xml</dc:format>
    <dc:creator>
     <cc:Agent>
      <dc:title>Matplotlib v3.11.0, https://matplotlib.org/</dc:title>
     </cc:Agent>
    </dc:creator>
   </cc:Work>
  </rdf:RDF>
 </metadata>
 <defs>
  <style type="text/css">*{stroke-linejoin: round; stroke-linecap: butt}</style>
 </defs>
 <g id="figure_1">
  <g id="patch_1">
   <path d="M 0 432 
L 720 432 
L 720 0 
L 0 0 
z
" style="fill: #ffffff"/>
  </g>
  <g id="axes_1">
   <g id="patch_2">
    <path d="M 71.002344 389.877656 
L 709.2 389.877656 
L 709.2 27.436719 
L 71.002344 27.436719 
z
" style="fill: #ffffff"/>
   </g>
   <g id="matplotlib.axis_1">
    <g id="xtick_1">
     <g id="line2d_1">
      <path d="M 100.011328 389.877656 
L 100.011328 27.436719 
" clip-path="url(#p200e3da006)" style="fill: none; stroke-dasharray: 2.96,1.28; stroke-dashoffset: 0; stroke: #b0b0b0; stroke-opacity: 0.5; stroke-width: 0.8"/>
     </g>
     <g id="line2d_2">
      <defs>
       <path id="mfa9202fb20" d="M 0 0 
L 0 3.5 
" style="stroke: #000000; stroke-width: 0.8"/>
      </defs>
      <g>
       <use xlink:href="#mfa9202fb20" x="100.011328" y="389.877656" style="stroke: #000000; stroke-width: 0.8"/>
      </g>
     </g>
     <g id="text_1">
      <!-- 0 -->
      <g transform="translate(96.830078 404.475312) scale(0.1 -0.1)">
       <defs>
        <path id="DejaVuSans-13" d="M 2034 4250 
Q 1547 4250 1301 3770 
Q 1056 3291 1056 2328 
Q 1056 1369 1301 889 
Q 1547 409 2034 409 
Q 2525 409 2770 889 
Q 3016 1369 3016 2328 
Q 3016 3291 2770 3770 
Q 2525 4250 2034 4250 
z
M 2034 4750 
Q 2819 4750 3233 4129 
Q 3647 3509 3647 2328 
Q 3647 1150 3233 529 
Q 2819 -91 2034 -91 
Q 1250 -91 836 529 
Q 422 1150 422 2328 
Q 422 3509 836 4129 
Q 1250 4750 2034 4750 
z
" transform="scale(0.015625)"/>
       </defs>
       <use xlink:href="#DejaVuSans-13"/>
      </g>
     </g>
    </g>
    <g id="xtick_2">
     <g id="line2d_3">
      <path d="M 216.163418 389.877656 
L 216.163418 27.436719 
" clip-path="url(#p200e3da006)" style="fill: none; stroke-dasharray: 2.96,1.28; stroke-dashoffset: 0; stroke: #b0b0b0; stroke-opacity: 0.5; stroke-width: 0.8"/>
     </g>
     <g id="line2d_4">
      <g>
       <use xlink:href="#mfa9202fb20" x="216.163418" y="389.877656" style="stroke: #000000; stroke-width: 0.8"/>
      </g>
     </g>
     <g id="text_2">
      <!-- 200 -->
      <g transform="translate(206.619668 404.475312) scale(0.1 -0.1)">
       <defs>
        <path id="DejaVuSans-15" d="M 1228 531 
L 3431 531 
L 3431 0 
L 469 0 
L 469 531 
Q 828 903 1448 1529 
Q 2069 2156 2228 2338 
Q 2531 2678 2651 2914 
Q 2772 3150 2772 3378 
Q 2772 3750 2511 3984 
Q 2250 4219 1831 4219 
Q 1534 4219 1204 4116 
Q 875 4013 500 3803 
L 500 4441 
Q 881 4594 1212 4672 
Q 1544 4750 1819 4750 
Q 2544 4750 2975 4387 
Q 3406 4025 3406 3419 
Q 3406 3131 3298 2873 
Q 3191 2616 2906 2266 
Q 2828 2175 2409 1742 
Q 1991 1309 1228 531 
z
" transform="scale(0.015625)"/>
       </defs>
       <use xlink:href="#DejaVuSans-15"/>
       <use xlink:href="#DejaVuSans-13" transform="translate(63.625 0)"/>
       <use xlink:href="#DejaVuSans-13" transform="translate(127.25 0)"/>
      </g>
     </g>
    </g>
    <g id="xtick_3">
     <g id="line2d_5">
      <path d="M 332.315507 389.877656 
L 332.315507 27.436719 
" clip-path="url(#p200e3da006)" style="fill: none; stroke-dasharray: 2.96,1.28; stroke-dashoffset: 0; stroke: #b0b0b0; stroke-opacity: 0.5; stroke-width: 0.8"/>
     </g>
     <g id="line2d_6">
      <g>
       <use xlink:href="#mfa9202fb20" x="332.315507" y="389.877656" style="stroke: #000000; stroke-width: 0.8"/>
      </g>
     </g>
     <g id="text_3">
      <!-- 400 -->
      <g transform="translate(322.771757 404.475312) scale(0.1 -0.1)">
       <defs>
        <path id="DejaVuSans-17" d="M 2419 4116 
L 825 1625 
L 2419 1625 
L 2419 4116 
z
M 2253 4666 
L 3047 4666 
L 3047 1625 
L 3713 1625 
L 3713 1100 
L 3047 1100 
L 3047 0 
L 2419 0 
L 2419 1100 
L 313 1100 
L 313 1709 
L 2253 4666 
z
" transform="scale(0.015625)"/>
       </defs>
       <use xlink:href="#DejaVuSans-17"/>
       <use xlink:href="#DejaVuSans-13" transform="translate(63.625 0)"/>
       <use xlink:href="#DejaVuSans-13" transform="translate(127.25 0)"/>
      </g>
     </g>
    </g>
    <g id="xtick_4">
     <g id="line2d_7">
      <path d="M 448.467597 389.877656 
L 448.467597 27.436719 
" clip-path="url(#p200e3da006)" style="fill: none; stroke-dasharray: 2.96,1.28; stroke-dashoffset: 0; stroke: #b0b0b0; stroke-opacity: 0.5; stroke-width: 0.8"/>
     </g>
     <g id="line2d_8">
      <g>
       <use xlink:href="#mfa9202fb20" x="448.467597" y="389.877656" style="stroke: #000000; stroke-width: 0.8"/>
      </g>
     </g>
     <g id="text_4">
      <!-- 600 -->
      <g transform="translate(438.923847 404.475312) scale(0.1 -0.1)">
       <defs>
        <path id="DejaVuSans-19" d="M 2113 2584 
Q 1688 2584 1439 2293 
Q 1191 2003 1191 1497 
Q 1191 994 1439 701 
Q 1688 409 2113 409 
Q 2538 409 2786 701 
Q 3034 994 3034 1497 
Q 3034 2003 2786 2293 
Q 2538 2584 2113 2584 
z
M 3366 4563 
L 3366 3988 
Q 3128 4100 2886 4159 
Q 2644 4219 2406 4219 
Q 1781 4219 1451 3797 
Q 1122 3375 1075 2522 
Q 1259 2794 1537 2939 
Q 1816 3084 2150 3084 
Q 2853 3084 3261 2657 
Q 3669 2231 3669 1497 
Q 3669 778 3244 343 
Q 2819 -91 2113 -91 
Q 1303 -91 875 529 
Q 447 1150 447 2328 
Q 447 3434 972 4092 
Q 1497 4750 2381 4750 
Q 2619 4750 2861 4703 
Q 3103 4656 3366 4563 
z
" transform="scale(0.015625)"/>
       </defs>
       <use xlink:href="#DejaVuSans-19"/>
       <use xlink:href="#DejaVuSans-13" transform="translate(63.625 0)"/>
       <use xlink:href="#DejaVuSans-13" transform="translate(127.25 0)"/>
      </g>
     </g>
    </g>
    <g id="xtick_5">
     <g id="line2d_9">
      <path d="M 564.619686 389.877656 
L 564.619686 27.436719 
" clip-path="url(#p200e3da006)" style="fill: none; stroke-dasharray: 2.96,1.28; stroke-dashoffset: 0; stroke: #b0b0b0; stroke-opacity: 0.5; stroke-width: 0.8"/>
     </g>
     <g id="line2d_10">
      <g>
       <use xlink:href="#mfa9202fb20" x="564.619686" y="389.877656" style="stroke: #000000; stroke-width: 0.8"/>
      </g>
     </g>
     <g id="text_5">
      <!-- 800 -->
      <g transform="translate(555.075936 404.475312) scale(0.1 -0.1)">
       <defs>
        <path id="DejaVuSans-1b" d="M 2034 2216 
Q 1584 2216 1326 1975 
Q 1069 1734 1069 1313 
Q 1069 891 1326 650 
Q 1584 409 2034 409 
Q 2484 409 2743 651 
Q 3003 894 3003 1313 
Q 3003 1734 2745 1975 
Q 2488 2216 2034 2216 
z
M 1403 2484 
Q 997 2584 770 2862 
Q 544 3141 544 3541 
Q 544 4100 942 4425 
Q 1341 4750 2034 4750 
Q 2731 4750 3128 4425 
Q 3525 4100 3525 3541 
Q 3525 3141 3298 2862 
Q 3072 2584 2669 2484 
Q 3125 2378 3379 2068 
Q 3634 1759 3634 1313 
Q 3634 634 3220 271 
Q 2806 -91 2034 -91 
Q 1263 -91 848 271 
Q 434 634 434 1313 
Q 434 1759 690 2068 
Q 947 2378 1403 2484 
z
M 1172 3481 
Q 1172 3119 1398 2916 
Q 1625 2713 2034 2713 
Q 2441 2713 2670 2916 
Q 2900 3119 2900 3481 
Q 2900 3844 2670 4047 
Q 2441 4250 2034 4250 
Q 1625 4250 1398 4047 
Q 1172 3844 1172 3481 
z
" transform="scale(0.015625)"/>
       </defs>
       <use xlink:href="#DejaVuSans-1b"/>
       <use xlink:href="#DejaVuSans-13" transform="translate(63.625 0)"/>
       <use xlink:href="#DejaVuSans-13" transform="translate(127.25 0)"/>
      </g>
     </g>
    </g>
    <g id="xtick_6">
     <g id="line2d_11">
      <path d="M 680.771776 389.877656 
L 680.771776 27.436719 
" clip-path="url(#p200e3da006)" style="fill: none; stroke-dasharray: 2.96,1.28; stroke-dashoffset: 0; stroke: #b0b0b0; stroke-opacity: 0.5; stroke-width: 0.8"/>
     </g>
     <g id="line2d_12">
      <g>
       <use xlink:href="#mfa9202fb20" x="680.771776" y="389.877656" style="stroke: #000000; stroke-width: 0.8"/>
      </g>
     </g>
     <g id="text_6">
      <!-- 1000 -->
      <g transform="translate(668.046776 404.475312) scale(0.1 -0.1)">
       <defs>
        <path id="DejaVuSans-14" d="M 794 531 
L 1825 531 
L 1825 4091 
L 703 3866 
L 703 4441 
L 1819 4666 
L 2450 4666 
L 2450 531 
L 3481 531 
L 3481 0 
L 794 0 
L 794 531 
z
" transform="scale(0.015625)"/>
       </defs>
       <use xlink:href="#DejaVuSans-14"/>
       <use xlink:href="#DejaVuSans-13" transform="translate(63.625 0)"/>
       <use xlink:href="#DejaVuSans-13" transform="translate(127.25 0)"/>
       <use xlink:href="#DejaVuSans-13" transform="translate(190.875 0)"/>
      </g>
     </g>
    </g>
    <g id="text_7">
     <!-- Iteration Index -->
     <g transform="translate(353.537109 418.476094) scale(0.1 -0.1)">
      <defs>
       <path id="DejaVuSans-2c" d="M 628 4666 
L 1259 4666 
L 1259 0 
L 628 0 
L 628 4666 
z
" transform="scale(0.015625)"/>
       <path id="DejaVuSans-57" d="M 1172 4494 
L 1172 3500 
L 2356 3500 
L 2356 3053 
L 1172 3053 
L 1172 1153 
Q 1172 725 1289 603 
Q 1406 481 1766 481 
L 2356 481 
L 2356 0 
L 1766 0 
Q 1100 0 847 248 
Q 594 497 594 1153 
L 594 3053 
L 172 3053 
L 172 3500 
L 594 3500 
L 594 4494 
L 1172 4494 
z
" transform="scale(0.015625)"/>
       <path id="DejaVuSans-48" d="M 3597 1894 
L 3597 1613 
L 953 1613 
Q 991 1019 1311 708 
Q 1631 397 2203 397 
Q 2534 397 2845 478 
Q 3156 559 3463 722 
L 3463 178 
Q 3153 47 2828 -22 
Q 2503 -91 2169 -91 
Q 1331 -91 842 396 
Q 353 884 353 1716 
Q 353 2575 817 3079 
Q 1281 3584 2069 3584 
Q 2775 3584 3186 3129 
Q 3597 2675 3597 1894 
z
M 3022 2063 
Q 3016 2534 2758 2815 
Q 2500 3097 2075 3097 
Q 1594 3097 1305 2825 
Q 1016 2553 972 2059 
L 3022 2063 
z
" transform="scale(0.015625)"/>
       <path id="DejaVuSans-55" d="M 2631 2963 
Q 2534 3019 2420 3045 
Q 2306 3072 2169 3072 
Q 1681 3072 1420 2755 
Q 1159 2438 1159 1844 
L 1159 0 
L 581 0 
L 581 3500 
L 1159 3500 
L 1159 2956 
Q 1341 3275 1631 3429 
Q 1922 3584 2338 3584 
Q 2397 3584 2469 3576 
Q 2541 3569 2628 3553 
L 2631 2963 
z
" transform="scale(0.015625)"/>
       <path id="DejaVuSans-44" d="M 2194 1759 
Q 1497 1759 1228 1600 
Q 959 1441 959 1056 
Q 959 750 1161 570 
Q 1363 391 1709 391 
Q 2188 391 2477 730 
Q 2766 1069 2766 1631 
L 2766 1759 
L 2194 1759 
z
M 3341 1997 
L 3341 0 
L 2766 0 
L 2766 531 
Q 2569 213 2275 61 
Q 1981 -91 1556 -91 
Q 1019 -91 701 211 
Q 384 513 384 1019 
Q 384 1609 779 1909 
Q 1175 2209 1959 2209 
L 2766 2209 
L 2766 2266 
Q 2766 2663 2505 2880 
Q 2244 3097 1772 3097 
Q 1472 3097 1187 3025 
Q 903 2953 641 2809 
L 641 3341 
Q 956 3463 1253 3523 
Q 1550 3584 1831 3584 
Q 2591 3584 2966 3190 
Q 3341 2797 3341 1997 
z
" transform="scale(0.015625)"/>
       <path id="DejaVuSans-4c" d="M 603 3500 
L 1178 3500 
L 1178 0 
L 603 0 
L 603 3500 
z
M 603 4863 
L 1178 4863 
L 1178 4134 
L 603 4134 
L 603 4863 
z
" transform="scale(0.015625)"/>
       <path id="DejaVuSans-52" d="M 1959 3097 
Q 1497 3097 1228 2736 
Q 959 2375 959 1747 
Q 959 1119 1226 758 
Q 1494 397 1959 397 
Q 2419 397 2687 759 
Q 2956 1122 2956 1747 
Q 2956 2369 2687 2733 
Q 2419 3097 1959 3097 
z
M 1959 3584 
Q 2709 3584 3137 3096 
Q 3566 2609 3566 1747 
Q 3566 888 3137 398 
Q 2709 -91 1959 -91 
Q 1206 -91 779 398 
Q 353 888 353 1747 
Q 353 2609 779 3096 
Q 1206 3584 1959 3584 
z
" transform="scale(0.015625)"/>
       <path id="DejaVuSans-51" d="M 3513 2113 
L 3513 0 
L 2938 0 
L 2938 2094 
Q 2938 2591 2744 2837 
Q 2550 3084 2163 3084 
Q 1697 3084 1428 2787 
Q 1159 2491 1159 1978 
L 1159 0 
L 581 0 
L 581 3500 
L 1159 3500 
L 1159 2956 
Q 1366 3272 1645 3428 
Q 1925 3584 2291 3584 
Q 2894 3584 3203 3211 
Q 3513 2838 3513 2113 
z
" transform="scale(0.015625)"/>
       <path id="DejaVuSans-3" transform="scale(0.015625)"/>
       <path id="DejaVuSans-47" d="M 2906 2969 
L 2906 4863 
L 3481 4863 
L 3481 0 
L 2906 0 
L 2906 525 
Q 2725 213 2448 61 
Q 2172 -91 1784 -91 
Q 1150 -91 751 415 
Q 353 922 353 1747 
Q 353 2572 751 3078 
Q 1150 3584 1784 3584 
Q 2172 3584 2448 3432 
Q 2725 3281 2906 2969 
z
M 947 1747 
Q 947 1113 1208 752 
Q 1469 391 1925 391 
Q 2381 391 2643 752 
Q 2906 1113 2906 1747 
Q 2906 2381 2643 2742 
Q 2381 3103 1925 3103 
Q 1469 3103 1208 2742 
Q 947 2381 947 1747 
z
" transform="scale(0.015625)"/>
       <path id="DejaVuSans-5b" d="M 3513 3500 
L 2247 1797 
L 3578 0 
L 2900 0 
L 1881 1375 
L 863 0 
L 184 0 
L 1544 1831 
L 300 3500 
L 978 3500 
L 1906 2253 
L 2834 3500 
L 3513 3500 
z
" transform="scale(0.015625)"/>
      </defs>
      <use xlink:href="#DejaVuSans-2c"/>
      <use xlink:href="#DejaVuSans-57" transform="translate(29.5 0)"/>
      <use xlink:href="#DejaVuSans-48" transform="translate(68.703125 0)"/>
      <use xlink:href="#DejaVuSans-55" transform="translate(130.234375 0)"/>
      <use xlink:href="#DejaVuSans-44" transform="translate(171.34375 0)"/>
      <use xlink:href="#DejaVuSans-57" transform="translate(232.625 0)"/>
      <use xlink:href="#DejaVuSans-4c" transform="translate(271.828125 0)"/>
      <use xlink:href="#DejaVuSans-52" transform="translate(299.609375 0)"/>
      <use xlink:href="#DejaVuSans-51" transform="translate(360.796875 0)"/>
      <use xlink:href="#DejaVuSans-3" transform="translate(424.171875 0)"/>
      <use xlink:href="#DejaVuSans-2c" transform="translate(455.953125 0)"/>
      <use xlink:href="#DejaVuSans-51" transform="translate(485.453125 0)"/>
      <use xlink:href="#DejaVuSans-47" transform="translate(548.828125 0)"/>
      <use xlink:href="#DejaVuSans-48" transform="translate(612.3125 0)"/>
      <use xlink:href="#DejaVuSans-5b" transform="translate(672.09375 0)"/>
     </g>
    </g>
   </g>
   <g id="matplotlib.axis_2">
    <g id="ytick_1">
     <g id="line2d_13">
      <path d="M 71.002344 373.599524 
L 709.2 373.599524 
" clip-path="url(#p200e3da006)" style="fill: none; stroke-dasharray: 2.96,1.28; stroke-dashoffset: 0; stroke: #b0b0b0; stroke-opacity: 0.5; stroke-width: 0.8"/>
     </g>
     <g id="line2d_14">
      <defs>
       <path id="m2fabc15e71" d="M 0 0 
L -3.5 0 
" style="stroke: #000000; stroke-width: 0.8"/>
      </defs>
      <g>
       <use xlink:href="#m2fabc15e71" x="71.002344" y="373.599524" style="stroke: #000000; stroke-width: 0.8"/>
      </g>
     </g>
     <g id="text_8">
      <!-- 0 -->
      <g transform="translate(57.639844 377.398352) scale(0.1 -0.1)">
       <use xlink:href="#DejaVuSans-13"/>
      </g>
     </g>
    </g>
    <g id="ytick_2">
     <g id="line2d_15">
      <path d="M 71.002344 314.067524 
L 709.2 314.067524 
" clip-path="url(#p200e3da006)" style="fill: none; stroke-dasharray: 2.96,1.28; stroke-dashoffset: 0; stroke: #b0b0b0; stroke-opacity: 0.5; stroke-width: 0.8"/>
     </g>
     <g id="line2d_16">
      <g>
       <use xlink:href="#m2fabc15e71" x="71.002344" y="314.067524" style="stroke: #000000; stroke-width: 0.8"/>
      </g>
     </g>
     <g id="text_9">
      <!-- 20000 -->
      <g transform="translate(32.189844 317.866352) scale(0.1 -0.1)">
       <use xlink:href="#DejaVuSans-15"/>
       <use xlink:href="#DejaVuSans-13" transform="translate(63.625 0)"/>
       <use xlink:href="#DejaVuSans-13" transform="translate(127.25 0)"/>
       <use xlink:href="#DejaVuSans-13" transform="translate(190.875 0)"/>
       <use xlink:href="#DejaVuSans-13" transform="translate(254.5 0)"/>
      </g>
     </g>
    </g>
    <g id="ytick_3">
     <g id="line2d_17">
      <path d="M 71.002344 254.535523 
L 709.2 254.535523 
" clip-path="url(#p200e3da006)" style="fill: none; stroke-dasharray: 2.96,1.28; stroke-dashoffset: 0; stroke: #b0b0b0; stroke-opacity: 0.5; stroke-width: 0.8"/>
     </g>
     <g id="line2d_18">
      <g>
       <use xlink:href="#m2fabc15e71" x="71.002344" y="254.535523" style="stroke: #000000; stroke-width: 0.8"/>
      </g>
     </g>
     <g id="text_10">
      <!-- 40000 -->
      <g transform="translate(32.189844 258.334352) scale(0.1 -0.1)">
       <use xlink:href="#DejaVuSans-17"/>
       <use xlink:href="#DejaVuSans-13" transform="translate(63.625 0)"/>
       <use xlink:href="#DejaVuSans-13" transform="translate(127.25 0)"/>
       <use xlink:href="#DejaVuSans-13" transform="translate(190.875 0)"/>
       <use xlink:href="#DejaVuSans-13" transform="translate(254.5 0)"/>
      </g>
     </g>
    </g>
    <g id="ytick_4">
     <g id="line2d_19">
      <path d="M 71.002344 195.003523 
L 709.2 195.003523 
" clip-path="url(#p200e3da006)" style="fill: none; stroke-dasharray: 2.96,1.28; stroke-dashoffset: 0; stroke: #b0b0b0; stroke-opacity: 0.5; stroke-width: 0.8"/>
     </g>
     <g id="line2d_20">
      <g>
       <use xlink:href="#m2fabc15e71" x="71.002344" y="195.003523" style="stroke: #000000; stroke-width: 0.8"/>
      </g>
     </g>
     <g id="text_11">
      <!-- 60000 -->
      <g transform="translate(32.189844 198.802351) scale(0.1 -0.1)">
       <use xlink:href="#DejaVuSans-19"/>
       <use xlink:href="#DejaVuSans-13" transform="translate(63.625 0)"/>
       <use xlink:href="#DejaVuSans-13" transform="translate(127.25 0)"/>
       <use xlink:href="#DejaVuSans-13" transform="translate(190.875 0)"/>
       <use xlink:href="#DejaVuSans-13" transform="translate(254.5 0)"/>
      </g>
     </g>
    </g>
    <g id="ytick_5">
     <g id="line2d_21">
      <path d="M 71.002344 135.471523 
L 709.2 135.471523 
" clip-path="url(#p200e3da006)" style="fill: none; stroke-dasharray: 2.96,1.28; stroke-dashoffset: 0; stroke: #b0b0b0; stroke-opacity: 0.5; stroke-width: 0.8"/>
     </g>
     <g id="line2d_22">
      <g>
       <use xlink:href="#m2fabc15e71" x="71.002344" y="135.471523" style="stroke: #000000; stroke-width: 0.8"/>
      </g>
     </g>
     <g id="text_12">
      <!-- 80000 -->
      <g transform="translate(32.189844 139.270351) scale(0.1 -0.1)">
       <use xlink:href="#DejaVuSans-1b"/>
       <use xlink:href="#DejaVuSans-13" transform="translate(63.625 0)"/>
       <use xlink:href="#DejaVuSans-13" transform="translate(127.25 0)"/>
       <use xlink:href="#DejaVuSans-13" transform="translate(190.875 0)"/>
       <use xlink:href="#DejaVuSans-13" transform="translate(254.5 0)"/>
      </g>
     </g>
    </g>
    <g id="ytick_6">
     <g id="line2d_23">
      <path d="M 71.002344 75.939523 
L 709.2 75.939523 
" clip-path="url(#p200e3da006)" style="fill: none; stroke-dasharray: 2.96,1.28; stroke-dashoffset: 0; stroke: #b0b0b0; stroke-opacity: 0.5; stroke-width: 0.8"/>
     </g>
     <g id="line2d_24">
      <g>
       <use xlink:href="#m2fabc15e71" x="71.002344" y="75.939523" style="stroke: #000000; stroke-width: 0.8"/>
      </g>
     </g>
     <g id="text_13">
      <!-- 100000 -->
      <g transform="translate(25.827344 79.738351) scale(0.1 -0.1)">
       <use xlink:href="#DejaVuSans-14"/>
       <use xlink:href="#DejaVuSans-13" transform="translate(63.625 0)"/>
       <use xlink:href="#DejaVuSans-13" transform="translate(127.25 0)"/>
       <use xlink:href="#DejaVuSans-13" transform="translate(190.875 0)"/>
       <use xlink:href="#DejaVuSans-13" transform="translate(254.5 0)"/>
       <use xlink:href="#DejaVuSans-13" transform="translate(318.125 0)"/>
      </g>
     </g>
    </g>
    <g id="text_14">
     <!-- Latency (Nanoseconds) -->
     <g transform="translate(19.425 267.382187) rotate(-90) scale(0.1 -0.1)">
      <defs>
       <path id="DejaVuSans-2f" d="M 628 4666 
L 1259 4666 
L 1259 531 
L 3531 531 
L 3531 0 
L 628 0 
L 628 4666 
z
" transform="scale(0.015625)"/>
       <path id="DejaVuSans-46" d="M 3122 3366 
L 3122 2828 
Q 2878 2963 2633 3030 
Q 2388 3097 2138 3097 
Q 1578 3097 1268 2742 
Q 959 2388 959 1747 
Q 959 1106 1268 751 
Q 1578 397 2138 397 
Q 2388 397 2633 464 
Q 2878 531 3122 666 
L 3122 134 
Q 2881 22 2623 -34 
Q 2366 -91 2075 -91 
Q 1284 -91 818 406 
Q 353 903 353 1747 
Q 353 2603 823 3093 
Q 1294 3584 2113 3584 
Q 2378 3584 2631 3529 
Q 2884 3475 3122 3366 
z
" transform="scale(0.015625)"/>
       <path id="DejaVuSans-5c" d="M 2059 -325 
Q 1816 -950 1584 -1140 
Q 1353 -1331 966 -1331 
L 506 -1331 
L 506 -850 
L 844 -850 
Q 1081 -850 1212 -737 
Q 1344 -625 1503 -206 
L 1606 56 
L 191 3500 
L 800 3500 
L 1894 763 
L 2988 3500 
L 3597 3500 
L 2059 -325 
z
" transform="scale(0.015625)"/>
       <path id="DejaVuSans-b" d="M 1984 4856 
Q 1566 4138 1362 3434 
Q 1159 2731 1159 2009 
Q 1159 1288 1364 580 
Q 1569 -128 1984 -844 
L 1484 -844 
Q 1016 -109 783 600 
Q 550 1309 550 2009 
Q 550 2706 781 3412 
Q 1013 4119 1484 4856 
L 1984 4856 
z
" transform="scale(0.015625)"/>
       <path id="DejaVuSans-31" d="M 628 4666 
L 1478 4666 
L 3547 763 
L 3547 4666 
L 4159 4666 
L 4159 0 
L 3309 0 
L 1241 3903 
L 1241 0 
L 628 0 
L 628 4666 
z
" transform="scale(0.015625)"/>
       <path id="DejaVuSans-56" d="M 2834 3397 
L 2834 2853 
Q 2591 2978 2328 3040 
Q 2066 3103 1784 3103 
Q 1356 3103 1142 2972 
Q 928 2841 928 2578 
Q 928 2378 1081 2264 
Q 1234 2150 1697 2047 
L 1894 2003 
Q 2506 1872 2764 1633 
Q 3022 1394 3022 966 
Q 3022 478 2636 193 
Q 2250 -91 1575 -91 
Q 1294 -91 989 -36 
Q 684 19 347 128 
L 347 722 
Q 666 556 975 473 
Q 1284 391 1588 391 
Q 1994 391 2212 530 
Q 2431 669 2431 922 
Q 2431 1156 2273 1281 
Q 2116 1406 1581 1522 
L 1381 1569 
Q 847 1681 609 1914 
Q 372 2147 372 2553 
Q 372 3047 722 3315 
Q 1072 3584 1716 3584 
Q 2034 3584 2315 3537 
Q 2597 3491 2834 3397 
z
" transform="scale(0.015625)"/>
       <path id="DejaVuSans-c" d="M 513 4856 
L 1013 4856 
Q 1481 4119 1714 3412 
Q 1947 2706 1947 2009 
Q 1947 1309 1714 600 
Q 1481 -109 1013 -844 
L 513 -844 
Q 928 -128 1133 580 
Q 1338 1288 1338 2009 
Q 1338 2731 1133 3434 
Q 928 4138 513 4856 
z
" transform="scale(0.015625)"/>
      </defs>
      <use xlink:href="#DejaVuSans-2f"/>
      <use xlink:href="#DejaVuSans-44" transform="translate(55.71875 0)"/>
      <use xlink:href="#DejaVuSans-57" transform="translate(117 0)"/>
      <use xlink:href="#DejaVuSans-48" transform="translate(156.203125 0)"/>
      <use xlink:href="#DejaVuSans-51" transform="translate(217.734375 0)"/>
      <use xlink:href="#DejaVuSans-46" transform="translate(281.109375 0)"/>
      <use xlink:href="#DejaVuSans-5c" transform="translate(336.09375 0)"/>
      <use xlink:href="#DejaVuSans-3" transform="translate(395.28125 0)"/>
      <use xlink:href="#DejaVuSans-b" transform="translate(427.0625 0)"/>
      <use xlink:href="#DejaVuSans-31" transform="translate(466.078125 0)"/>
      <use xlink:href="#DejaVuSans-44" transform="translate(540.890625 0)"/>
      <use xlink:href="#DejaVuSans-51" transform="translate(602.171875 0)"/>
      <use xlink:href="#DejaVuSans-52" transform="translate(665.546875 0)"/>
      <use xlink:href="#DejaVuSans-56" transform="translate(726.734375 0)"/>
      <use xlink:href="#DejaVuSans-48" transform="translate(778.828125 0)"/>
      <use xlink:href="#DejaVuSans-46" transform="translate(840.359375 0)"/>
      <use xlink:href="#DejaVuSans-52" transform="translate(895.34375 0)"/>
      <use xlink:href="#DejaVuSans-51" transform="translate(956.53125 0)"/>
      <use xlink:href="#DejaVuSans-47" transform="translate(1019.90625 0)"/>
      <use xlink:href="#DejaVuSans-56" transform="translate(1083.390625 0)"/>
      <use xlink:href="#DejaVuSans-c" transform="translate(1135.484375 0)"/>
     </g>
    </g>
   </g>
   <g id="line2d_25">
    <path d="M 100.011328 372.834538 
L 100.592089 373.394138 
L 116.272621 373.397115 
L 116.853381 365.175746 
L 117.434142 373.391162 
L 124.403267 373.400092 
L 131.372392 373.400092 
L 149.375966 373.394138 
L 149.956727 365.166816 
L 150.537487 373.391162 
L 158.087373 373.400092 
L 190.609958 373.397115 
L 191.190718 365.652002 
L 191.771479 373.391162 
L 203.386688 373.400092 
L 224.874824 373.394138 
L 235.328512 373.391162 
L 264.947295 373.394138 
L 265.528056 365.660932 
L 266.108816 373.385209 
L 273.658702 373.394138 
L 339.284633 373.394138 
L 339.865393 365.729393 
L 340.446154 373.385209 
L 347.996039 373.400092 
L 359.030488 373.394138 
L 365.999613 373.391162 
L 377.034062 373.397115 
L 397.360677 373.394138 
L 404.329803 373.391162 
L 413.62197 373.394138 
L 414.20273 365.485312 
L 414.783491 373.394138 
L 425.237179 373.394138 
L 487.959307 373.394138 
L 488.540068 365.634142 
L 489.120828 373.388185 
L 496.670714 373.403068 
L 502.478319 373.394138 
L 523.966455 373.397115 
L 545.454592 373.394138 
L 562.296645 373.400092 
L 562.877405 365.488289 
L 563.458166 373.388185 
L 574.492614 373.394138 
L 636.633982 373.394138 
L 637.214742 365.690698 
L 637.795503 373.385209 
L 645.926149 373.400092 
L 656.960598 373.394138 
L 678.448734 373.397115 
L 680.191016 373.394138 
L 680.191016 373.394138 
" clip-path="url(#p200e3da006)" style="fill: none; stroke: #7426d9; stroke-opacity: 0.4; stroke-width: 1.5; stroke-linecap: square"/>
   </g>
   <g id="line2d_26">
    <path d="M 100.011328 373.275074 
L 100.592089 370.968209 
L 101.172849 371.512927 
L 101.753609 371.673664 
L 103.495891 371.503997 
L 104.076651 371.715336 
L 105.238172 371.762962 
L 129.630111 370.986069 
L 134.856955 370.834262 
L 158.668133 370.0663 
L 159.248894 344.402054 
L 159.829654 369.938306 
L 160.991175 369.997838 
L 168.541061 369.756733 
L 187.706156 369.161413 
L 191.771479 369.01556 
L 196.998323 368.87566 
L 197.579083 347.107784 
L 198.159844 368.732783 
L 199.321365 368.777432 
L 206.871251 368.557163 
L 213.259615 368.345825 
L 213.840376 359.484487 
L 214.421136 368.137463 
L 215.001897 368.259503 
L 215.582657 368.140439 
L 216.744178 368.161276 
L 217.905699 368.12258 
L 218.48646 357.040698 
L 219.06722 367.899335 
L 221.971022 368.027329 
L 227.778627 367.830873 
L 228.359387 367.193881 
L 228.940148 367.786224 
L 235.328512 367.583815 
L 277.143265 366.271135 
L 277.724025 364.002965 
L 278.304786 357.912842 
L 278.885546 365.928826 
L 279.466307 366.033007 
L 280.627827 365.946685 
L 281.208588 365.937755 
L 281.789348 366.065749 
L 292.823797 365.75023 
L 296.30836 365.604376 
L 299.792922 365.521031 
L 336.961591 364.339321 
L 337.542351 352.935967 
L 338.123112 364.09524 
L 341.026914 364.119053 
L 346.253758 363.919621 
L 348.5768 363.699352 
L 353.222883 363.535639 
L 353.803644 363.270722 
L 354.384404 363.178447 
L 354.965165 363.48206 
L 356.126686 363.49099 
L 356.707446 362.711121 
L 357.288207 363.178447 
L 357.868967 363.095102 
L 358.449727 363.324301 
L 359.030488 363.047477 
L 359.611248 363.237979 
L 360.192009 363.19333 
L 360.772769 363.285605 
L 361.93429 362.984968 
L 362.515051 363.130822 
L 363.095811 362.714098 
L 363.676571 362.940319 
L 364.257332 362.868881 
L 364.838092 363.107009 
L 365.999613 363.074266 
L 366.580374 363.160588 
L 368.322655 362.75577 
L 368.903416 363.03557 
L 370.645697 362.949249 
L 371.226457 363.041524 
L 372.968739 362.907577 
L 374.71102 362.898647 
L 376.453301 362.839115 
L 377.034062 362.830185 
L 378.776343 362.538478 
L 379.357104 362.660519 
L 379.937864 362.31821 
L 380.518624 362.648612 
L 382.841666 362.499782 
L 383.422427 361.919345 
L 384.003187 362.407508 
L 385.164708 362.404531 
L 385.745469 362.252725 
L 386.906989 362.386672 
L 387.48775 362.181286 
L 388.06851 362.306303 
L 388.649271 362.255701 
L 389.230031 362.392625 
L 390.391552 362.350952 
L 390.972313 362.333093 
L 391.553073 362.193193 
L 392.133833 361.859813 
L 392.714594 362.187239 
L 393.295354 361.422253 
L 393.876115 362.16938 
L 394.456875 361.990784 
L 395.037636 361.511551 
L 395.618396 362.062222 
L 396.199157 361.969948 
L 396.779917 356.641834 
L 397.360677 346.408283 
L 397.941438 361.502621 
L 398.522198 299.532786 
L 399.102959 351.718537 
L 399.683719 361.895533 
L 400.26448 361.008506 
L 400.84524 361.99376 
L 401.426001 361.850884 
L 402.006761 362.008643 
L 403.749042 361.87172 
L 404.329803 361.940182 
L 404.910563 361.746703 
L 405.491324 361.830047 
L 406.072084 361.797305 
L 406.652845 361.502621 
L 407.233605 361.72289 
L 407.814366 361.645498 
L 408.395126 361.10971 
L 408.975886 361.740749 
L 409.556647 361.544294 
L 410.718168 361.559177 
L 411.298928 361.484762 
L 411.879689 361.225798 
L 413.04121 361.440113 
L 413.62197 43.911307 
L 414.20273 336.671824 
L 414.783491 354.144466 
L 415.364251 356.555512 
L 415.945012 356.469191 
L 416.525772 356.787687 
L 417.106533 356.498957 
L 417.687293 356.588255 
L 418.848814 356.367986 
L 421.171856 356.433472 
L 421.752616 356.400729 
L 422.333377 354.855874 
L 422.914137 357.424679 
L 423.494898 349.355117 
L 424.075658 357.216317 
L 424.656419 357.445516 
L 425.237179 357.38896 
L 425.817939 356.103069 
L 426.3987 357.40682 
L 426.97946 350.233214 
L 427.560221 357.275849 
L 428.140981 350.039735 
L 428.721742 357.341335 
L 429.302502 350.143916 
L 429.883263 357.237154 
L 430.464023 349.920671 
L 431.044783 357.201434 
L 431.625544 349.989133 
L 432.206304 356.981166 
L 432.787065 357.171668 
L 433.367825 357.106183 
L 433.948586 349.777794 
L 434.529346 357.043675 
L 435.110107 349.682543 
L 435.690867 357.004979 
L 436.271627 349.533713 
L 436.852388 356.975213 
L 437.433148 349.563479 
L 438.013909 356.918657 
L 438.594669 349.408696 
L 439.17543 356.826383 
L 439.75619 349.408696 
L 440.336951 356.82043 
L 440.917711 349.283678 
L 441.498472 356.740061 
L 442.079232 349.164614 
L 442.659992 356.707319 
L 443.240753 349.111036 
L 443.821513 356.612068 
L 444.402274 349.021738 
L 444.983034 356.629927 
L 445.563795 349.036621 
L 446.144555 356.540629 
L 446.725316 348.837188 
L 447.306076 356.537653 
L 447.886836 348.863978 
L 448.467597 356.484074 
L 449.048357 348.688358 
L 449.629118 356.379893 
L 450.209878 348.700265 
L 450.790639 356.34715 
L 451.371399 348.533575 
L 451.95216 356.299525 
L 452.53292 348.548458 
L 453.11368 356.287618 
L 453.694441 348.325213 
L 454.275201 356.168554 
L 454.855962 348.340096 
L 455.436722 356.18939 
L 456.017483 348.250798 
L 456.598243 282.521517 
L 457.179004 353.706906 
L 457.759764 352.554962 
L 458.340525 356.82043 
L 458.921285 354.888616 
L 459.502045 355.14758 
L 460.082806 354.715973 
L 460.663566 354.99875 
L 461.244327 347.313169 
L 461.825087 355.260691 
L 462.986608 354.078981 
L 463.567369 355.00768 
L 464.728889 354.954101 
L 468.794213 354.778482 
L 470.536494 354.715973 
L 472.278775 354.662395 
L 475.182577 354.531424 
L 475.763338 348.935416 
L 476.344098 354.424267 
L 477.505619 354.436173 
L 478.08638 305.765786 
L 478.66714 347.423303 
L 479.247901 352.403155 
L 479.828661 349.959367 
L 480.409422 349.95639 
L 480.990182 354.903499 
L 481.570942 352.412085 
L 482.151703 354.924335 
L 482.732463 355.466077 
L 483.313224 352.120378 
L 483.893984 350.545757 
L 484.474745 351.798905 
L 485.055505 348.762773 
L 485.636266 350.664821 
L 486.217026 351.465526 
L 486.797786 351.46255 
L 487.378547 354.13256 
L 487.959307 352.004291 
L 488.540068 354.704067 
L 489.120828 355.272598 
L 489.701589 355.466077 
L 490.86311 355.376779 
L 491.44387 355.02554 
L 492.02463 355.397615 
L 493.766912 355.239855 
L 499.574516 355.01661 
L 500.155277 354.924335 
L 500.736037 354.995774 
L 502.478319 354.826108 
L 503.639839 354.879686 
L 505.382121 354.695137 
L 507.124402 354.680254 
L 507.705163 354.585003 
L 509.447444 354.614769 
L 510.608965 354.495705 
L 511.189725 354.227811 
L 511.770486 354.42129 
L 512.351246 354.483799 
L 512.932007 354.358781 
L 513.512767 354.376641 
L 514.093528 354.198045 
L 514.674288 354.358781 
L 515.255048 354.346875 
L 515.835809 336.70159 
L 516.416569 352.546032 
L 516.99733 351.486362 
L 517.57809 352.313857 
L 518.158851 351.030943 
L 518.739611 352.227536 
L 519.901132 352.215629 
L 520.481892 351.998338 
L 521.062653 352.566868 
L 521.643413 352.763324 
L 522.804934 352.769277 
L 525.708736 352.593658 
L 526.870257 352.209676 
L 527.451018 352.572821 
L 528.612539 352.435898 
L 529.77406 352.471617 
L 539.066227 351.953689 
L 539.646987 352.051916 
L 541.970029 351.914993 
L 545.454592 351.748303 
L 546.035352 351.673888 
L 547.196873 351.685795 
L 548.358394 351.57566 
L 548.939154 351.578637 
L 549.519915 351.423854 
L 550.100675 351.531011 
L 551.262196 351.465526 
L 551.842957 351.557801 
L 553.004478 351.373252 
L 554.746759 351.337532 
L 555.90828 351.197632 
L 556.48904 351.337532 
L 558.812082 351.096428 
L 559.392842 324.03318 
L 559.973603 345.518279 
L 560.554363 345.646273 
L 561.135124 347.283403 
L 561.715884 345.283128 
L 562.296645 345.420051 
L 562.877405 347.85491 
L 563.458166 351.971548 
L 564.038926 349.337257 
L 564.619686 351.328603 
L 568.68501 351.00713 
L 569.26577 343.967471 
L 569.846531 350.971411 
L 570.427291 350.899972 
L 571.008051 350.521944 
L 571.588812 350.837464 
L 572.169572 350.852347 
L 573.331093 350.632078 
L 573.911854 350.769002 
L 574.492614 350.742212 
L 575.073375 346.908352 
L 575.654135 339.0918 
L 576.234895 349.819466 
L 576.815656 349.759934 
L 577.396416 350.158799 
L 577.977177 349.358093 
L 578.557937 350.417763 
L 579.138698 349.21224 
L 579.719458 350.480272 
L 580.880979 350.54278 
L 581.461739 350.334418 
L 582.62326 350.417763 
L 584.946302 350.340371 
L 585.527063 349.873045 
L 586.107823 350.185588 
L 587.269344 350.260003 
L 589.011625 350.057594 
L 590.173146 350.129033 
L 590.753907 349.905788 
L 591.915428 350.027828 
L 592.496188 349.884952 
L 593.657709 349.926624 
L 594.238469 349.95639 
L 595.39999 349.748028 
L 596.561511 349.786724 
L 597.723032 349.679566 
L 598.303792 339.541266 
L 598.884553 349.748028 
L 599.465313 349.563479 
L 600.046074 349.652777 
L 602.369116 349.560502 
L 603.530636 349.462274 
L 604.111397 348.956252 
L 604.692157 349.390836 
L 605.272918 349.399766 
L 605.853678 349.292608 
L 608.17672 349.286655 
L 609.338241 349.149731 
L 609.919001 349.301538 
L 611.080522 349.036621 
L 612.242043 349.093176 
L 612.822804 348.994948 
L 613.403564 349.027691 
L 613.984325 338.422065 
L 614.565085 348.997925 
L 615.145845 347.893606 
L 615.726606 349.04555 
L 616.307366 348.997925 
L 616.888127 348.834212 
L 617.468887 338.204773 
L 618.049648 348.944346 
L 620.372689 348.62585 
L 620.95345 348.780633 
L 621.53421 348.724078 
L 622.114971 348.786586 
L 622.695731 348.700265 
L 623.276492 337.919019 
L 623.857252 348.619897 
L 625.018773 348.590131 
L 625.599534 337.835675 
L 626.180294 348.590131 
L 626.761054 337.660055 
L 627.341815 348.500833 
L 627.922575 265.468575 
L 628.503336 338.219656 
L 629.084096 338.850695 
L 629.664857 347.223871 
L 630.245617 346.054067 
L 630.826378 347.869793 
L 631.407138 348.89672 
L 631.987898 348.866954 
L 632.568659 348.691335 
L 633.149419 348.682405 
L 633.73018 348.125781 
L 634.31094 348.691335 
L 634.891701 338.779257 
L 635.472461 341.226022 
L 636.053222 338.689959 
L 636.633982 347.476882 
L 637.214742 347.554274 
L 637.795503 347.203035 
L 638.376263 345.652226 
L 638.957024 346.304102 
L 639.537784 347.134573 
L 640.118545 347.28638 
L 641.280066 347.229824 
L 643.022347 347.203035 
L 644.183868 347.11076 
L 644.764628 346.938118 
L 645.345389 346.622598 
L 645.926149 346.926211 
L 646.50691 346.506511 
L 647.08767 346.920258 
L 647.668431 346.976813 
L 649.410712 346.756545 
L 651.152993 346.717849 
L 659.8644 346.378517 
L 660.44516 346.238617 
L 661.606681 346.330891 
L 662.187442 346.113599 
L 662.768202 343.660881 
L 663.348963 344.997374 
L 663.929723 343.756132 
L 664.510484 346.250523 
L 665.091244 345.298011 
L 665.672004 346.062997 
L 666.252765 345.985606 
L 666.833525 343.702553 
L 667.414286 346.214804 
L 667.995046 345.79808 
L 668.575807 346.128482 
L 669.156567 346.232663 
L 670.318088 346.137412 
L 674.964172 346.003465 
L 675.544932 345.098579 
L 676.706453 345.857612 
L 680.191016 345.673063 
L 680.191016 345.673063 
" clip-path="url(#p200e3da006)" style="fill: none; stroke: #2dcc0d; stroke-opacity: 0.4; stroke-width: 1.5; stroke-linecap: square"/>
   </g>
   <g id="line2d_27">
    <path d="M 100.011328 372.834538 
L 100.592089 373.114338 
L 102.33437 373.281623 
L 108.141974 373.358816 
L 116.272621 373.37751 
L 116.853381 373.104118 
L 131.953153 373.239302 
L 149.375966 373.293661 
L 150.537487 373.202418 
L 190.609958 373.313145 
L 191.771479 373.235664 
L 248.686003 373.318592 
L 249.847524 373.396043 
L 680.191016 373.318473 
L 680.191016 373.318473 
" clip-path="url(#p200e3da006)" style="fill: none; stroke: #7426d9; stroke-width: 2; stroke-linecap: square"/>
   </g>
   <g id="line2d_28">
    <path d="M 100.011328 373.275074 
L 100.592089 372.121642 
L 101.172849 371.918737 
L 103.495891 371.755307 
L 132.533913 371.396004 
L 158.668133 370.967316 
L 159.248894 370.696208 
L 196.998323 369.505984 
L 197.579083 369.270267 
L 216.744178 368.570499 
L 217.324939 368.807942 
L 217.905699 368.789785 
L 219.06722 368.63905 
L 255.074368 367.465287 
L 255.655128 367.663826 
L 275.981744 367.098361 
L 277.143265 367.174533 
L 282.950869 366.873182 
L 362.515051 364.199927 
L 375.872541 363.697536 
L 396.779917 362.934217 
L 397.360677 362.757586 
L 397.941438 362.731659 
L 398.522198 362.085946 
L 399.683719 361.939854 
L 406.072084 361.70631 
L 413.04121 361.460145 
L 413.62197 358.264319 
L 414.20273 357.996127 
L 417.687293 357.580623 
L 427.560221 356.36111 
L 429.302502 356.046097 
L 431.044783 355.800765 
L 432.206304 355.612704 
L 434.529346 355.308912 
L 436.271627 354.989791 
L 438.013909 354.749192 
L 439.75619 354.426529 
L 441.498472 354.185752 
L 443.240753 353.86291 
L 444.983034 353.615971 
L 446.725316 353.292682 
L 448.467597 353.040921 
L 450.209878 352.714746 
L 451.95216 352.468759 
L 453.694441 352.144727 
L 454.855962 352.003695 
L 455.436722 352.101506 
L 456.598243 351.798876 
L 457.179004 351.818759 
L 459.502045 351.545388 
L 471.117254 350.107095 
L 471.698015 353.214606 
L 472.278775 353.394512 
L 475.182577 353.318579 
L 476.344098 353.221661 
L 477.505619 353.182578 
L 478.08638 352.675693 
L 479.828661 352.480696 
L 481.570942 352.437059 
L 485.055505 352.215302 
L 486.797786 352.104662 
L 488.540068 352.140053 
L 491.44387 352.12136 
L 493.186151 352.216493 
L 494.928433 352.238668 
L 496.670714 352.335051 
L 498.412995 352.357524 
L 500.155277 352.455394 
L 501.897558 352.478999 
L 503.639839 352.578001 
L 505.382121 352.601546 
L 507.124402 352.702542 
L 508.866683 352.726384 
L 510.608965 352.829047 
L 512.351246 352.852562 
L 514.093528 352.954094 
L 514.674288 353.672467 
L 515.255048 353.678866 
L 515.835809 353.520333 
L 518.739611 353.350666 
L 519.901132 353.369419 
L 533.258622 352.853306 
L 535.000904 352.842204 
L 535.581664 352.81973 
L 536.162425 353.283395 
L 538.485466 353.368675 
L 541.970029 353.282919 
L 547.777633 353.200824 
L 558.812082 352.478404 
L 559.392842 352.169403 
L 563.458166 351.621976 
L 566.942728 351.396142 
L 573.911854 351.079015 
L 575.073375 351.015196 
L 575.654135 350.882976 
L 581.461739 350.655504 
L 603.530636 349.690341 
L 616.888127 349.046265 
L 618.049648 349.222241 
L 621.53421 349.314486 
L 622.695731 349.282696 
L 623.857252 349.123597 
L 626.180294 348.9158 
L 626.761054 348.78233 
L 627.341815 348.827663 
L 627.922575 347.972635 
L 629.664857 347.692983 
L 632.568659 347.559334 
L 634.891701 347.546326 
L 636.633982 347.320908 
L 640.118545 347.117309 
L 671.479609 345.420468 
L 672.64113 345.467022 
L 680.191016 345.181894 
L 680.191016 345.181894 
" clip-path="url(#p200e3da006)" style="fill: none; stroke: #2dcc0d; stroke-width: 2; stroke-linecap: square"/>
   </g>
   <g id="patch_3">
    <path d="M 71.002344 389.877656 
L 71.002344 27.436719 
" style="fill: none; stroke: #000000; stroke-width: 0.8; stroke-linejoin: miter; stroke-linecap: square"/>
   </g>
   <g id="patch_4">
    <path d="M 709.2 389.877656 
L 709.2 27.436719 
" style="fill: none; stroke: #000000; stroke-width: 0.8; stroke-linejoin: miter; stroke-linecap: square"/>
   </g>
   <g id="patch_5">
    <path d="M 71.002344 389.877656 
L 709.2 389.877656 
" style="fill: none; stroke: #000000; stroke-width: 0.8; stroke-linejoin: miter; stroke-linecap: square"/>
   </g>
   <g id="patch_6">
    <path d="M 71.002344 27.436719 
L 709.2 27.436719 
" style="fill: none; stroke: #000000; stroke-width: 0.8; stroke-linejoin: miter; stroke-linecap: square"/>
   </g>
   <g id="text_15">
    <g id="patch_7">
     <path d="M 549.650586 178.816414 
L 635.752148 178.816414 
Q 638.752148 178.816414 638.752148 175.816414 
L 638.752148 43.79493 
Q 638.752148 40.79493 635.752148 40.79493 
L 549.650586 40.79493 
Q 546.650586 40.79493 546.650586 43.79493 
L 546.650586 175.816414 
Q 546.650586 178.816414 549.650586 178.816414 
z
" style="fill: #ffffff; opacity: 0.85; stroke: #000000; stroke-linejoin: miter"/>
    </g>
    <!-- GLIBC: -->
    <g transform="translate(549.650586 52.393562) scale(0.1 -0.1)">
     <defs>
      <path id="DejaVuSans-2a" d="M 3809 666 
L 3809 1919 
L 2778 1919 
L 2778 2438 
L 4434 2438 
L 4434 434 
Q 4069 175 3628 42 
Q 3188 -91 2688 -91 
Q 1594 -91 976 548 
Q 359 1188 359 2328 
Q 359 3472 976 4111 
Q 1594 4750 2688 4750 
Q 3144 4750 3555 4637 
Q 3966 4525 4313 4306 
L 4313 3634 
Q 3963 3931 3569 4081 
Q 3175 4231 2741 4231 
Q 1884 4231 1454 3753 
Q 1025 3275 1025 2328 
Q 1025 1384 1454 906 
Q 1884 428 2741 428 
Q 3075 428 3337 486 
Q 3600 544 3809 666 
z
" transform="scale(0.015625)"/>
      <path id="DejaVuSans-25" d="M 1259 2228 
L 1259 519 
L 2272 519 
Q 2781 519 3026 730 
Q 3272 941 3272 1375 
Q 3272 1813 3026 2020 
Q 2781 2228 2272 2228 
L 1259 2228 
z
M 1259 4147 
L 1259 2741 
L 2194 2741 
Q 2656 2741 2882 2914 
Q 3109 3088 3109 3444 
Q 3109 3797 2882 3972 
Q 2656 4147 2194 4147 
L 1259 4147 
z
M 628 4666 
L 2241 4666 
Q 2963 4666 3353 4366 
Q 3744 4066 3744 3513 
Q 3744 3084 3544 2831 
Q 3344 2578 2956 2516 
Q 3422 2416 3680 2098 
Q 3938 1781 3938 1306 
Q 3938 681 3513 340 
Q 3088 0 2303 0 
L 628 0 
L 628 4666 
z
" transform="scale(0.015625)"/>
      <path id="DejaVuSans-26" d="M 4122 4306 
L 4122 3641 
Q 3803 3938 3442 4084 
Q 3081 4231 2675 4231 
Q 1875 4231 1450 3742 
Q 1025 3253 1025 2328 
Q 1025 1406 1450 917 
Q 1875 428 2675 428 
Q 3081 428 3442 575 
Q 3803 722 4122 1019 
L 4122 359 
Q 3791 134 3420 21 
Q 3050 -91 2638 -91 
Q 1578 -91 968 557 
Q 359 1206 359 2328 
Q 359 3453 968 4101 
Q 1578 4750 2638 4750 
Q 3056 4750 3426 4639 
Q 3797 4528 4122 4306 
z
" transform="scale(0.015625)"/>
      <path id="DejaVuSans-1d" d="M 750 794 
L 1409 794 
L 1409 0 
L 750 0 
L 750 794 
z
M 750 3309 
L 1409 3309 
L 1409 2516 
L 750 2516 
L 750 3309 
z
" transform="scale(0.015625)"/>
     </defs>
     <use xlink:href="#DejaVuSans-2a"/>
     <use xlink:href="#DejaVuSans-2f" transform="translate(77.484375 0)"/>
     <use xlink:href="#DejaVuSans-2c" transform="translate(133.203125 0)"/>
     <use xlink:href="#DejaVuSans-25" transform="translate(162.703125 0)"/>
     <use xlink:href="#DejaVuSans-26" transform="translate(229.5625 0)"/>
     <use xlink:href="#DejaVuSans-1d" transform="translate(299.390625 0)"/>
    </g>
    <!--  Avg: 92.5 ns -->
    <g transform="translate(549.650586 64.395516) scale(0.1 -0.1)">
     <defs>
      <path id="DejaVuSans-24" d="M 2188 4044 
L 1331 1722 
L 3047 1722 
L 2188 4044 
z
M 1831 4666 
L 2547 4666 
L 4325 0 
L 3669 0 
L 3244 1197 
L 1141 1197 
L 716 0 
L 50 0 
L 1831 4666 
z
" transform="scale(0.015625)"/>
      <path id="DejaVuSans-59" d="M 191 3500 
L 800 3500 
L 1894 563 
L 2988 3500 
L 3597 3500 
L 2284 0 
L 1503 0 
L 191 3500 
z
" transform="scale(0.015625)"/>
      <path id="DejaVuSans-4a" d="M 2906 1791 
Q 2906 2416 2648 2759 
Q 2391 3103 1925 3103 
Q 1463 3103 1205 2759 
Q 947 2416 947 1791 
Q 947 1169 1205 825 
Q 1463 481 1925 481 
Q 2391 481 2648 825 
Q 2906 1169 2906 1791 
z
M 3481 434 
Q 3481 -459 3084 -895 
Q 2688 -1331 1869 -1331 
Q 1566 -1331 1297 -1286 
Q 1028 -1241 775 -1147 
L 775 -588 
Q 1028 -725 1275 -790 
Q 1522 -856 1778 -856 
Q 2344 -856 2625 -561 
Q 2906 -266 2906 331 
L 2906 616 
Q 2728 306 2450 153 
Q 2172 0 1784 0 
Q 1141 0 747 490 
Q 353 981 353 1791 
Q 353 2603 747 3093 
Q 1141 3584 1784 3584 
Q 2172 3584 2450 3431 
Q 2728 3278 2906 2969 
L 2906 3500 
L 3481 3500 
L 3481 434 
z
" transform="scale(0.015625)"/>
      <path id="DejaVuSans-1c" d="M 703 97 
L 703 672 
Q 941 559 1184 500 
Q 1428 441 1663 441 
Q 2288 441 2617 861 
Q 2947 1281 2994 2138 
Q 2813 1869 2534 1725 
Q 2256 1581 1919 1581 
Q 1219 1581 811 2004 
Q 403 2428 403 3163 
Q 403 3881 828 4315 
Q 1253 4750 1959 4750 
Q 2769 4750 3195 4129 
Q 3622 3509 3622 2328 
Q 3622 1225 3098 567 
Q 2575 -91 1691 -91 
Q 1453 -91 1209 -44 
Q 966 3 703 97 
z
M 1959 2075 
Q 2384 2075 2632 2365 
Q 2881 2656 2881 3163 
Q 2881 3666 2632 3958 
Q 2384 4250 1959 4250 
Q 1534 4250 1286 3958 
Q 1038 3666 1038 3163 
Q 1038 2656 1286 2365 
Q 1534 2075 1959 2075 
z
" transform="scale(0.015625)"/>
      <path id="DejaVuSans-11" d="M 684 794 
L 1344 794 
L 1344 0 
L 684 0 
L 684 794 
z
" transform="scale(0.015625)"/>
      <path id="DejaVuSans-18" d="M 691 4666 
L 3169 4666 
L 3169 4134 
L 1269 4134 
L 1269 2991 
Q 1406 3038 1543 3061 
Q 1681 3084 1819 3084 
Q 2600 3084 3056 2656 
Q 3513 2228 3513 1497 
Q 3513 744 3044 326 
Q 2575 -91 1722 -91 
Q 1428 -91 1123 -41 
Q 819 9 494 109 
L 494 744 
Q 775 591 1075 516 
Q 1375 441 1709 441 
Q 2250 441 2565 725 
Q 2881 1009 2881 1497 
Q 2881 1984 2565 2268 
Q 2250 2553 1709 2553 
Q 1456 2553 1204 2497 
Q 953 2441 691 2322 
L 691 4666 
z
" transform="scale(0.015625)"/>
     </defs>
     <use xlink:href="#DejaVuSans-3"/>
     <use xlink:href="#DejaVuSans-24" transform="translate(31.78125 0)"/>
     <use xlink:href="#DejaVuSans-59" transform="translate(94.328125 0)"/>
     <use xlink:href="#DejaVuSans-4a" transform="translate(153.515625 0)"/>
     <use xlink:href="#DejaVuSans-1d" transform="translate(217 0)"/>
     <use xlink:href="#DejaVuSans-3" transform="translate(250.6875 0)"/>
     <use xlink:href="#DejaVuSans-1c" transform="translate(282.46875 0)"/>
     <use xlink:href="#DejaVuSans-15" transform="translate(346.09375 0)"/>
     <use xlink:href="#DejaVuSans-11" transform="translate(409.71875 0)"/>
     <use xlink:href="#DejaVuSans-18" transform="translate(441.5 0)"/>
     <use xlink:href="#DejaVuSans-3" transform="translate(505.125 0)"/>
     <use xlink:href="#DejaVuSans-51" transform="translate(536.90625 0)"/>
     <use xlink:href="#DejaVuSans-56" transform="translate(600.28125 0)"/>
    </g>
    <!--  P99: 73.8 ns -->
    <g transform="translate(549.650586 76.397469) scale(0.1 -0.1)">
     <defs>
      <path id="DejaVuSans-33" d="M 1259 4147 
L 1259 2394 
L 2053 2394 
Q 2494 2394 2734 2622 
Q 2975 2850 2975 3272 
Q 2975 3691 2734 3919 
Q 2494 4147 2053 4147 
L 1259 4147 
z
M 628 4666 
L 2053 4666 
Q 2838 4666 3239 4311 
Q 3641 3956 3641 3272 
Q 3641 2581 3239 2228 
Q 2838 1875 2053 1875 
L 1259 1875 
L 1259 0 
L 628 0 
L 628 4666 
z
" transform="scale(0.015625)"/>
      <path id="DejaVuSans-1a" d="M 525 4666 
L 3525 4666 
L 3525 4397 
L 1831 0 
L 1172 0 
L 2766 4134 
L 525 4134 
L 525 4666 
z
" transform="scale(0.015625)"/>
      <path id="DejaVuSans-16" d="M 2597 2516 
Q 3050 2419 3304 2112 
Q 3559 1806 3559 1356 
Q 3559 666 3084 287 
Q 2609 -91 1734 -91 
Q 1441 -91 1130 -33 
Q 819 25 488 141 
L 488 750 
Q 750 597 1062 519 
Q 1375 441 1716 441 
Q 2309 441 2620 675 
Q 2931 909 2931 1356 
Q 2931 1769 2642 2001 
Q 2353 2234 1838 2234 
L 1294 2234 
L 1294 2753 
L 1863 2753 
Q 2328 2753 2575 2939 
Q 2822 3125 2822 3475 
Q 2822 3834 2567 4026 
Q 2313 4219 1838 4219 
Q 1578 4219 1281 4162 
Q 984 4106 628 3988 
L 628 4550 
Q 988 4650 1302 4700 
Q 1616 4750 1894 4750 
Q 2613 4750 3031 4423 
Q 3450 4097 3450 3541 
Q 3450 3153 3228 2886 
Q 3006 2619 2597 2516 
z
" transform="scale(0.015625)"/>
     </defs>
     <use xlink:href="#DejaVuSans-3"/>
     <use xlink:href="#DejaVuSans-33" transform="translate(31.78125 0)"/>
     <use xlink:href="#DejaVuSans-1c" transform="translate(92.078125 0)"/>
     <use xlink:href="#DejaVuSans-1c" transform="translate(155.703125 0)"/>
     <use xlink:href="#DejaVuSans-1d" transform="translate(219.328125 0)"/>
     <use xlink:href="#DejaVuSans-3" transform="translate(253.015625 0)"/>
     <use xlink:href="#DejaVuSans-1a" transform="translate(284.796875 0)"/>
     <use xlink:href="#DejaVuSans-16" transform="translate(348.421875 0)"/>
     <use xlink:href="#DejaVuSans-11" transform="translate(412.046875 0)"/>
     <use xlink:href="#DejaVuSans-1b" transform="translate(443.828125 0)"/>
     <use xlink:href="#DejaVuSans-3" transform="translate(507.453125 0)"/>
     <use xlink:href="#DejaVuSans-51" transform="translate(539.234375 0)"/>
     <use xlink:href="#DejaVuSans-56" transform="translate(602.609375 0)"/>
    </g>
    <!--  Worst: 2833.0 -->
    <g transform="translate(549.650586 88.399422) scale(0.1 -0.1)">
     <defs>
      <path id="DejaVuSans-3a" d="M 213 4666 
L 850 4666 
L 1831 722 
L 2809 4666 
L 3519 4666 
L 4500 722 
L 5478 4666 
L 6119 4666 
L 4947 0 
L 4153 0 
L 3169 4050 
L 2175 0 
L 1381 0 
L 213 4666 
z
" transform="scale(0.015625)"/>
     </defs>
     <use xlink:href="#DejaVuSans-3"/>
     <use xlink:href="#DejaVuSans-3a" transform="translate(31.78125 0)"/>
     <use xlink:href="#DejaVuSans-52" transform="translate(124.796875 0)"/>
     <use xlink:href="#DejaVuSans-55" transform="translate(185.984375 0)"/>
     <use xlink:href="#DejaVuSans-56" transform="translate(227.09375 0)"/>
     <use xlink:href="#DejaVuSans-57" transform="translate(279.1875 0)"/>
     <use xlink:href="#DejaVuSans-1d" transform="translate(318.390625 0)"/>
     <use xlink:href="#DejaVuSans-3" transform="translate(352.078125 0)"/>
     <use xlink:href="#DejaVuSans-15" transform="translate(383.859375 0)"/>
     <use xlink:href="#DejaVuSans-1b" transform="translate(447.484375 0)"/>
     <use xlink:href="#DejaVuSans-16" transform="translate(511.109375 0)"/>
     <use xlink:href="#DejaVuSans-16" transform="translate(574.734375 0)"/>
     <use xlink:href="#DejaVuSans-11" transform="translate(638.359375 0)"/>
     <use xlink:href="#DejaVuSans-13" transform="translate(670.140625 0)"/>
    </g>
    <!--  Best: 66.0 -->
    <g transform="translate(549.650586 100.401375) scale(0.1 -0.1)">
     <use xlink:href="#DejaVuSans-3"/>
     <use xlink:href="#DejaVuSans-25" transform="translate(31.78125 0)"/>
     <use xlink:href="#DejaVuSans-48" transform="translate(100.390625 0)"/>
     <use xlink:href="#DejaVuSans-56" transform="translate(161.921875 0)"/>
     <use xlink:href="#DejaVuSans-57" transform="translate(214.015625 0)"/>
     <use xlink:href="#DejaVuSans-1d" transform="translate(253.21875 0)"/>
     <use xlink:href="#DejaVuSans-3" transform="translate(286.90625 0)"/>
     <use xlink:href="#DejaVuSans-19" transform="translate(318.6875 0)"/>
     <use xlink:href="#DejaVuSans-19" transform="translate(382.3125 0)"/>
     <use xlink:href="#DejaVuSans-11" transform="translate(445.9375 0)"/>
     <use xlink:href="#DejaVuSans-13" transform="translate(477.71875 0)"/>
    </g>
    <!--  -->
    <g transform="translate(549.650586 112.403328) scale(0.1 -0.1)"/>
    <!-- CUSTOM: -->
    <g transform="translate(549.650586 124.405281) scale(0.1 -0.1)">
     <defs>
      <path id="DejaVuSans-38" d="M 556 4666 
L 1191 4666 
L 1191 1831 
Q 1191 1081 1462 751 
Q 1734 422 2344 422 
Q 2950 422 3222 751 
Q 3494 1081 3494 1831 
L 3494 4666 
L 4128 4666 
L 4128 1753 
Q 4128 841 3676 375 
Q 3225 -91 2344 -91 
Q 1459 -91 1007 375 
Q 556 841 556 1753 
L 556 4666 
z
" transform="scale(0.015625)"/>
      <path id="DejaVuSans-36" d="M 3425 4513 
L 3425 3897 
Q 3066 4069 2747 4153 
Q 2428 4238 2131 4238 
Q 1616 4238 1336 4038 
Q 1056 3838 1056 3469 
Q 1056 3159 1242 3001 
Q 1428 2844 1947 2747 
L 2328 2669 
Q 3034 2534 3370 2195 
Q 3706 1856 3706 1288 
Q 3706 609 3251 259 
Q 2797 -91 1919 -91 
Q 1588 -91 1214 -16 
Q 841 59 441 206 
L 441 856 
Q 825 641 1194 531 
Q 1563 422 1919 422 
Q 2459 422 2753 634 
Q 3047 847 3047 1241 
Q 3047 1584 2836 1778 
Q 2625 1972 2144 2069 
L 1759 2144 
Q 1053 2284 737 2584 
Q 422 2884 422 3419 
Q 422 4038 858 4394 
Q 1294 4750 2059 4750 
Q 2388 4750 2728 4690 
Q 3069 4631 3425 4513 
z
" transform="scale(0.015625)"/>
      <path id="DejaVuSans-37" d="M -19 4666 
L 3928 4666 
L 3928 4134 
L 2272 4134 
L 2272 0 
L 1638 0 
L 1638 4134 
L -19 4134 
L -19 4666 
z
" transform="scale(0.015625)"/>
      <path id="DejaVuSans-32" d="M 2522 4238 
Q 1834 4238 1429 3725 
Q 1025 3213 1025 2328 
Q 1025 1447 1429 934 
Q 1834 422 2522 422 
Q 3209 422 3611 934 
Q 4013 1447 4013 2328 
Q 4013 3213 3611 3725 
Q 3209 4238 2522 4238 
z
M 2522 4750 
Q 3503 4750 4090 4092 
Q 4678 3434 4678 2328 
Q 4678 1225 4090 567 
Q 3503 -91 2522 -91 
Q 1538 -91 948 565 
Q 359 1222 359 2328 
Q 359 3434 948 4092 
Q 1538 4750 2522 4750 
z
" transform="scale(0.015625)"/>
      <path id="DejaVuSans-30" d="M 628 4666 
L 1569 4666 
L 2759 1491 
L 3956 4666 
L 4897 4666 
L 4897 0 
L 4281 0 
L 4281 4097 
L 3078 897 
L 2444 897 
L 1241 4097 
L 1241 0 
L 628 0 
L 628 4666 
z
" transform="scale(0.015625)"/>
     </defs>
     <use xlink:href="#DejaVuSans-26"/>
     <use xlink:href="#DejaVuSans-38" transform="translate(69.828125 0)"/>
     <use xlink:href="#DejaVuSans-36" transform="translate(143.015625 0)"/>
     <use xlink:href="#DejaVuSans-37" transform="translate(206.5 0)"/>
     <use xlink:href="#DejaVuSans-32" transform="translate(267.578125 0)"/>
     <use xlink:href="#DejaVuSans-30" transform="translate(346.296875 0)"/>
     <use xlink:href="#DejaVuSans-1d" transform="translate(432.578125 0)"/>
    </g>
    <!--  Avg: 5003.4 ns -->
    <g transform="translate(549.650586 136.407234) scale(0.1 -0.1)">
     <use xlink:href="#DejaVuSans-3"/>
     <use xlink:href="#DejaVuSans-24" transform="translate(31.78125 0)"/>
     <use xlink:href="#DejaVuSans-59" transform="translate(94.328125 0)"/>
     <use xlink:href="#DejaVuSans-4a" transform="translate(153.515625 0)"/>
     <use xlink:href="#DejaVuSans-1d" transform="translate(217 0)"/>
     <use xlink:href="#DejaVuSans-3" transform="translate(250.6875 0)"/>
     <use xlink:href="#DejaVuSans-18" transform="translate(282.46875 0)"/>
     <use xlink:href="#DejaVuSans-13" transform="translate(346.09375 0)"/>
     <use xlink:href="#DejaVuSans-13" transform="translate(409.71875 0)"/>
     <use xlink:href="#DejaVuSans-16" transform="translate(473.34375 0)"/>
     <use xlink:href="#DejaVuSans-11" transform="translate(536.96875 0)"/>
     <use xlink:href="#DejaVuSans-17" transform="translate(568.75 0)"/>
     <use xlink:href="#DejaVuSans-3" transform="translate(632.375 0)"/>
     <use xlink:href="#DejaVuSans-51" transform="translate(664.15625 0)"/>
     <use xlink:href="#DejaVuSans-56" transform="translate(727.53125 0)"/>
    </g>
    <!--  P99: 11987.3 ns -->
    <g transform="translate(549.650586 148.409187) scale(0.1 -0.1)">
     <use xlink:href="#DejaVuSans-3"/>
     <use xlink:href="#DejaVuSans-33" transform="translate(31.78125 0)"/>
     <use xlink:href="#DejaVuSans-1c" transform="translate(92.078125 0)"/>
     <use xlink:href="#DejaVuSans-1c" transform="translate(155.703125 0)"/>
     <use xlink:href="#DejaVuSans-1d" transform="translate(219.328125 0)"/>
     <use xlink:href="#DejaVuSans-3" transform="translate(253.015625 0)"/>
     <use xlink:href="#DejaVuSans-14" transform="translate(284.796875 0)"/>
     <use xlink:href="#DejaVuSans-14" transform="translate(348.421875 0)"/>
     <use xlink:href="#DejaVuSans-1c" transform="translate(412.046875 0)"/>
     <use xlink:href="#DejaVuSans-1b" transform="translate(475.671875 0)"/>
     <use xlink:href="#DejaVuSans-1a" transform="translate(539.296875 0)"/>
     <use xlink:href="#DejaVuSans-11" transform="translate(602.921875 0)"/>
     <use xlink:href="#DejaVuSans-16" transform="translate(634.703125 0)"/>
     <use xlink:href="#DejaVuSans-3" transform="translate(698.328125 0)"/>
     <use xlink:href="#DejaVuSans-51" transform="translate(730.109375 0)"/>
     <use xlink:href="#DejaVuSans-56" transform="translate(793.484375 0)"/>
    </g>
    <!--  Worst: 110760.0 -->
    <g transform="translate(549.650586 160.411141) scale(0.1 -0.1)">
     <use xlink:href="#DejaVuSans-3"/>
     <use xlink:href="#DejaVuSans-3a" transform="translate(31.78125 0)"/>
     <use xlink:href="#DejaVuSans-52" transform="translate(124.796875 0)"/>
     <use xlink:href="#DejaVuSans-55" transform="translate(185.984375 0)"/>
     <use xlink:href="#DejaVuSans-56" transform="translate(227.09375 0)"/>
     <use xlink:href="#DejaVuSans-57" transform="translate(279.1875 0)"/>
     <use xlink:href="#DejaVuSans-1d" transform="translate(318.390625 0)"/>
     <use xlink:href="#DejaVuSans-3" transform="translate(352.078125 0)"/>
     <use xlink:href="#DejaVuSans-14" transform="translate(383.859375 0)"/>
     <use xlink:href="#DejaVuSans-14" transform="translate(447.484375 0)"/>
     <use xlink:href="#DejaVuSans-13" transform="translate(511.109375 0)"/>
     <use xlink:href="#DejaVuSans-1a" transform="translate(574.734375 0)"/>
     <use xlink:href="#DejaVuSans-19" transform="translate(638.359375 0)"/>
     <use xlink:href="#DejaVuSans-13" transform="translate(701.984375 0)"/>
     <use xlink:href="#DejaVuSans-11" transform="translate(765.609375 0)"/>
     <use xlink:href="#DejaVuSans-13" transform="translate(797.390625 0)"/>
    </g>
    <!--  Best: 66.0 -->
    <g transform="translate(549.650586 172.413094) scale(0.1 -0.1)">
     <use xlink:href="#DejaVuSans-3"/>
     <use xlink:href="#DejaVuSans-25" transform="translate(31.78125 0)"/>
     <use xlink:href="#DejaVuSans-48" transform="translate(100.390625 0)"/>
     <use xlink:href="#DejaVuSans-56" transform="translate(161.921875 0)"/>
     <use xlink:href="#DejaVuSans-57" transform="translate(214.015625 0)"/>
     <use xlink:href="#DejaVuSans-1d" transform="translate(253.21875 0)"/>
     <use xlink:href="#DejaVuSans-3" transform="translate(286.90625 0)"/>
     <use xlink:href="#DejaVuSans-19" transform="translate(318.6875 0)"/>
     <use xlink:href="#DejaVuSans-19" transform="translate(382.3125 0)"/>
     <use xlink:href="#DejaVuSans-11" transform="translate(445.9375 0)"/>
     <use xlink:href="#DejaVuSans-13" transform="translate(477.71875 0)"/>
    </g>
   </g>
   <g id="text_16">
    <!-- Allocation Latency Evaluation (Malloc) -->
    <g transform="translate(238.819141 21.436719) scale(0.14 -0.14)">
     <defs>
      <path id="DejaVuSans-Bold-24" d="M 3419 850 
L 1538 850 
L 1241 0 
L 31 0 
L 1759 4666 
L 3194 4666 
L 4922 0 
L 3713 0 
L 3419 850 
z
M 1838 1716 
L 3116 1716 
L 2478 3572 
L 1838 1716 
z
" transform="scale(0.015625)"/>
      <path id="DejaVuSans-Bold-4f" d="M 538 4863 
L 1656 4863 
L 1656 0 
L 538 0 
L 538 4863 
z
" transform="scale(0.015625)"/>
      <path id="DejaVuSans-Bold-52" d="M 2203 2784 
Q 1831 2784 1636 2517 
Q 1441 2250 1441 1747 
Q 1441 1244 1636 976 
Q 1831 709 2203 709 
Q 2569 709 2762 976 
Q 2956 1244 2956 1747 
Q 2956 2250 2762 2517 
Q 2569 2784 2203 2784 
z
M 2203 3584 
Q 3106 3584 3614 3096 
Q 4122 2609 4122 1747 
Q 4122 884 3614 396 
Q 3106 -91 2203 -91 
Q 1297 -91 786 396 
Q 275 884 275 1747 
Q 275 2609 786 3096 
Q 1297 3584 2203 3584 
z
" transform="scale(0.015625)"/>
      <path id="DejaVuSans-Bold-46" d="M 3366 3391 
L 3366 2478 
Q 3138 2634 2908 2709 
Q 2678 2784 2431 2784 
Q 1963 2784 1702 2511 
Q 1441 2238 1441 1747 
Q 1441 1256 1702 982 
Q 1963 709 2431 709 
Q 2694 709 2930 787 
Q 3166 866 3366 1019 
L 3366 103 
Q 3103 6 2833 -42 
Q 2563 -91 2291 -91 
Q 1344 -91 809 395 
Q 275 881 275 1747 
Q 275 2613 809 3098 
Q 1344 3584 2291 3584 
Q 2566 3584 2833 3536 
Q 3100 3488 3366 3391 
z
" transform="scale(0.015625)"/>
      <path id="DejaVuSans-Bold-44" d="M 2106 1575 
Q 1756 1575 1579 1456 
Q 1403 1338 1403 1106 
Q 1403 894 1545 773 
Q 1688 653 1941 653 
Q 2256 653 2472 879 
Q 2688 1106 2688 1447 
L 2688 1575 
L 2106 1575 
z
M 3816 1997 
L 3816 0 
L 2688 0 
L 2688 519 
Q 2463 200 2181 54 
Q 1900 -91 1497 -91 
Q 953 -91 614 226 
Q 275 544 275 1050 
Q 275 1666 698 1953 
Q 1122 2241 2028 2241 
L 2688 2241 
L 2688 2328 
Q 2688 2594 2478 2717 
Q 2269 2841 1825 2841 
Q 1466 2841 1156 2769 
Q 847 2697 581 2553 
L 581 3406 
Q 941 3494 1303 3539 
Q 1666 3584 2028 3584 
Q 2975 3584 3395 3211 
Q 3816 2838 3816 1997 
z
" transform="scale(0.015625)"/>
      <path id="DejaVuSans-Bold-57" d="M 1759 4494 
L 1759 3500 
L 2913 3500 
L 2913 2700 
L 1759 2700 
L 1759 1216 
Q 1759 972 1856 886 
Q 1953 800 2241 800 
L 2816 800 
L 2816 0 
L 1856 0 
Q 1194 0 917 276 
Q 641 553 641 1216 
L 641 2700 
L 84 2700 
L 84 3500 
L 641 3500 
L 641 4494 
L 1759 4494 
z
" transform="scale(0.015625)"/>
      <path id="DejaVuSans-Bold-4c" d="M 538 3500 
L 1656 3500 
L 1656 0 
L 538 0 
L 538 3500 
z
M 538 4863 
L 1656 4863 
L 1656 3950 
L 538 3950 
L 538 4863 
z
" transform="scale(0.015625)"/>
      <path id="DejaVuSans-Bold-51" d="M 4056 2131 
L 4056 0 
L 2931 0 
L 2931 347 
L 2931 1631 
Q 2931 2084 2911 2256 
Q 2891 2428 2841 2509 
Q 2775 2619 2662 2680 
Q 2550 2741 2406 2741 
Q 2056 2741 1856 2470 
Q 1656 2200 1656 1722 
L 1656 0 
L 538 0 
L 538 3500 
L 1656 3500 
L 1656 2988 
Q 1909 3294 2193 3439 
Q 2478 3584 2822 3584 
Q 3428 3584 3742 3212 
Q 4056 2841 4056 2131 
z
" transform="scale(0.015625)"/>
      <path id="DejaVuSans-Bold-3" transform="scale(0.015625)"/>
      <path id="DejaVuSans-Bold-2f" d="M 588 4666 
L 1791 4666 
L 1791 909 
L 3903 909 
L 3903 0 
L 588 0 
L 588 4666 
z
" transform="scale(0.015625)"/>
      <path id="DejaVuSans-Bold-48" d="M 4031 1759 
L 4031 1441 
L 1416 1441 
Q 1456 1047 1700 850 
Q 1944 653 2381 653 
Q 2734 653 3104 758 
Q 3475 863 3866 1075 
L 3866 213 
Q 3469 63 3072 -14 
Q 2675 -91 2278 -91 
Q 1328 -91 801 392 
Q 275 875 275 1747 
Q 275 2603 792 3093 
Q 1309 3584 2216 3584 
Q 3041 3584 3536 3087 
Q 4031 2591 4031 1759 
z
M 2881 2131 
Q 2881 2450 2695 2645 
Q 2509 2841 2209 2841 
Q 1884 2841 1681 2658 
Q 1478 2475 1428 2131 
L 2881 2131 
z
" transform="scale(0.015625)"/>
      <path id="DejaVuSans-Bold-5c" d="M 78 3500 
L 1197 3500 
L 2138 1125 
L 2938 3500 
L 4056 3500 
L 2584 -331 
Q 2363 -916 2067 -1148 
Q 1772 -1381 1288 -1381 
L 641 -1381 
L 641 -647 
L 991 -647 
Q 1275 -647 1404 -556 
Q 1534 -466 1606 -231 
L 1638 -134 
L 78 3500 
z
" transform="scale(0.015625)"/>
      <path id="DejaVuSans-Bold-28" d="M 588 4666 
L 3834 4666 
L 3834 3756 
L 1791 3756 
L 1791 2888 
L 3713 2888 
L 3713 1978 
L 1791 1978 
L 1791 909 
L 3903 909 
L 3903 0 
L 588 0 
L 588 4666 
z
" transform="scale(0.015625)"/>
      <path id="DejaVuSans-Bold-59" d="M 97 3500 
L 1216 3500 
L 2088 1081 
L 2956 3500 
L 4078 3500 
L 2700 0 
L 1472 0 
L 97 3500 
z
" transform="scale(0.015625)"/>
      <path id="DejaVuSans-Bold-58" d="M 500 1363 
L 500 3500 
L 1625 3500 
L 1625 3150 
Q 1625 2866 1622 2436 
Q 1619 2006 1619 1863 
Q 1619 1441 1641 1255 
Q 1663 1069 1716 984 
Q 1784 875 1895 815 
Q 2006 756 2150 756 
Q 2500 756 2700 1025 
Q 2900 1294 2900 1772 
L 2900 3500 
L 4019 3500 
L 4019 0 
L 2900 0 
L 2900 506 
Q 2647 200 2364 54 
Q 2081 -91 1741 -91 
Q 1134 -91 817 281 
Q 500 653 500 1363 
z
" transform="scale(0.015625)"/>
      <path id="DejaVuSans-Bold-b" d="M 2413 -844 
L 1484 -844 
Q 1006 -72 778 623 
Q 550 1319 550 2003 
Q 550 2688 779 3389 
Q 1009 4091 1484 4856 
L 2413 4856 
Q 2013 4116 1813 3408 
Q 1613 2700 1613 2009 
Q 1613 1319 1811 609 
Q 2009 -100 2413 -844 
z
" transform="scale(0.015625)"/>
      <path id="DejaVuSans-Bold-30" d="M 588 4666 
L 2119 4666 
L 3181 2169 
L 4250 4666 
L 5778 4666 
L 5778 0 
L 4641 0 
L 4641 3413 
L 3566 897 
L 2803 897 
L 1728 3413 
L 1728 0 
L 588 0 
L 588 4666 
z
" transform="scale(0.015625)"/>
      <path id="DejaVuSans-Bold-c" d="M 513 -844 
Q 913 -100 1113 609 
Q 1313 1319 1313 2009 
Q 1313 2700 1113 3408 
Q 913 4116 513 4856 
L 1441 4856 
Q 1916 4091 2145 3389 
Q 2375 2688 2375 2003 
Q 2375 1319 2147 623 
Q 1919 -72 1441 -844 
L 513 -844 
z
" transform="scale(0.015625)"/>
     </defs>
     <use xlink:href="#DejaVuSans-Bold-24"/>
     <use xlink:href="#DejaVuSans-Bold-4f" transform="translate(77.390625 0)"/>
     <use xlink:href="#DejaVuSans-Bold-4f" transform="translate(111.671875 0)"/>
     <use xlink:href="#DejaVuSans-Bold-52" transform="translate(145.953125 0)"/>
     <use xlink:href="#DejaVuSans-Bold-46" transform="translate(214.65625 0)"/>
     <use xlink:href="#DejaVuSans-Bold-44" transform="translate(273.9375 0)"/>
     <use xlink:href="#DejaVuSans-Bold-57" transform="translate(341.421875 0)"/>
     <use xlink:href="#DejaVuSans-Bold-4c" transform="translate(389.21875 0)"/>
     <use xlink:href="#DejaVuSans-Bold-52" transform="translate(423.5 0)"/>
     <use xlink:href="#DejaVuSans-Bold-51" transform="translate(492.203125 0)"/>
     <use xlink:href="#DejaVuSans-Bold-3" transform="translate(563.390625 0)"/>
     <use xlink:href="#DejaVuSans-Bold-2f" transform="translate(598.203125 0)"/>
     <use xlink:href="#DejaVuSans-Bold-44" transform="translate(661.921875 0)"/>
     <use xlink:href="#DejaVuSans-Bold-57" transform="translate(729.40625 0)"/>
     <use xlink:href="#DejaVuSans-Bold-48" transform="translate(777.203125 0)"/>
     <use xlink:href="#DejaVuSans-Bold-51" transform="translate(845.03125 0)"/>
     <use xlink:href="#DejaVuSans-Bold-46" transform="translate(916.21875 0)"/>
     <use xlink:href="#DejaVuSans-Bold-5c" transform="translate(975.5 0)"/>
     <use xlink:href="#DejaVuSans-Bold-3" transform="translate(1040.6875 0)"/>
     <use xlink:href="#DejaVuSans-Bold-28" transform="translate(1075.5 0)"/>
     <use xlink:href="#DejaVuSans-Bold-59" transform="translate(1143.8125 0)"/>
     <use xlink:href="#DejaVuSans-Bold-44" transform="translate(1209 0)"/>
     <use xlink:href="#DejaVuSans-Bold-4f" transform="translate(1276.484375 0)"/>
     <use xlink:href="#DejaVuSans-Bold-58" transform="translate(1310.765625 0)"/>
     <use xlink:href="#DejaVuSans-Bold-44" transform="translate(1381.953125 0)"/>
     <use xlink:href="#DejaVuSans-Bold-57" transform="translate(1449.4375 0)"/>
     <use xlink:href="#DejaVuSans-Bold-4c" transform="translate(1497.234375 0)"/>
     <use xlink:href="#DejaVuSans-Bold-52" transform="translate(1531.515625 0)"/>
     <use xlink:href="#DejaVuSans-Bold-51" transform="translate(1600.21875 0)"/>
     <use xlink:href="#DejaVuSans-Bold-3" transform="translate(1671.40625 0)"/>
     <use xlink:href="#DejaVuSans-Bold-b" transform="translate(1706.21875 0)"/>
     <use xlink:href="#DejaVuSans-Bold-30" transform="translate(1751.921875 0)"/>
     <use xlink:href="#DejaVuSans-Bold-44" transform="translate(1851.4375 0)"/>
     <use xlink:href="#DejaVuSans-Bold-4f" transform="translate(1918.921875 0)"/>
     <use xlink:href="#DejaVuSans-Bold-4f" transform="translate(1953.203125 0)"/>
     <use xlink:href="#DejaVuSans-Bold-52" transform="translate(1987.484375 0)"/>
     <use xlink:href="#DejaVuSans-Bold-46" transform="translate(2056.1875 0)"/>
     <use xlink:href="#DejaVuSans-Bold-c" transform="translate(2115.46875 0)"/>
    </g>
   </g>
   <g id="legend_1">
    <g id="patch_8">
     <path d="M 78.002344 95.439844 
L 178.857031 95.439844 
Q 180.857031 95.439844 180.857031 93.439844 
L 180.857031 34.436719 
Q 180.857031 32.436719 178.857031 32.436719 
L 78.002344 32.436719 
Q 76.002344 32.436719 76.002344 34.436719 
L 76.002344 93.439844 
Q 76.002344 95.439844 78.002344 95.439844 
z
" style="fill: #ffffff; opacity: 0.8; stroke: #cccccc; stroke-linejoin: miter"/>
    </g>
    <g id="line2d_29">
     <path d="M 80.002344 40.535156 
L 90.002344 40.535156 
L 100.002344 40.535156 
" style="fill: none; stroke: #7426d9; stroke-opacity: 0.4; stroke-width: 1.5; stroke-linecap: square"/>
    </g>
    <g id="text_17">
     <!-- Glibc raw -->
     <g transform="translate(108.002344 44.035156) scale(0.1 -0.1)">
      <defs>
       <path id="DejaVuSans-4f" d="M 603 4863 
L 1178 4863 
L 1178 0 
L 603 0 
L 603 4863 
z
" transform="scale(0.015625)"/>
       <path id="DejaVuSans-45" d="M 3116 1747 
Q 3116 2381 2855 2742 
Q 2594 3103 2138 3103 
Q 1681 3103 1420 2742 
Q 1159 2381 1159 1747 
Q 1159 1113 1420 752 
Q 1681 391 2138 391 
Q 2594 391 2855 752 
Q 3116 1113 3116 1747 
z
M 1159 2969 
Q 1341 3281 1617 3432 
Q 1894 3584 2278 3584 
Q 2916 3584 3314 3078 
Q 3713 2572 3713 1747 
Q 3713 922 3314 415 
Q 2916 -91 2278 -91 
Q 1894 -91 1617 61 
Q 1341 213 1159 525 
L 1159 0 
L 581 0 
L 581 4863 
L 1159 4863 
L 1159 2969 
z
" transform="scale(0.015625)"/>
       <path id="DejaVuSans-5a" d="M 269 3500 
L 844 3500 
L 1563 769 
L 2278 3500 
L 2956 3500 
L 3675 769 
L 4391 3500 
L 4966 3500 
L 4050 0 
L 3372 0 
L 2619 2869 
L 1863 0 
L 1184 0 
L 269 3500 
z
" transform="scale(0.015625)"/>
      </defs>
      <use xlink:href="#DejaVuSans-2a"/>
      <use xlink:href="#DejaVuSans-4f" transform="translate(77.484375 0)"/>
      <use xlink:href="#DejaVuSans-4c" transform="translate(105.265625 0)"/>
      <use xlink:href="#DejaVuSans-45" transform="translate(133.046875 0)"/>
      <use xlink:href="#DejaVuSans-46" transform="translate(196.53125 0)"/>
      <use xlink:href="#DejaVuSans-3" transform="translate(251.515625 0)"/>
      <use xlink:href="#DejaVuSans-55" transform="translate(283.296875 0)"/>
      <use xlink:href="#DejaVuSans-44" transform="translate(324.40625 0)"/>
      <use xlink:href="#DejaVuSans-5a" transform="translate(385.6875 0)"/>
     </g>
    </g>
    <g id="line2d_30">
     <path d="M 80.002344 55.535937 
L 90.002344 55.535937 
L 100.002344 55.535937 
" style="fill: none; stroke: #2dcc0d; stroke-opacity: 0.4; stroke-width: 1.5; stroke-linecap: square"/>
    </g>
    <g id="text_18">
     <!-- Custom raw -->
     <g transform="translate(108.002344 59.035937) scale(0.1 -0.1)">
      <defs>
       <path id="DejaVuSans-58" d="M 544 1381 
L 544 3500 
L 1119 3500 
L 1119 1403 
Q 1119 906 1312 657 
Q 1506 409 1894 409 
Q 2359 409 2629 706 
Q 2900 1003 2900 1516 
L 2900 3500 
L 3475 3500 
L 3475 0 
L 2900 0 
L 2900 538 
Q 2691 219 2414 64 
Q 2138 -91 1772 -91 
Q 1169 -91 856 284 
Q 544 659 544 1381 
z
M 1991 3584 
L 1991 3584 
z
" transform="scale(0.015625)"/>
       <path id="DejaVuSans-50" d="M 3328 2828 
Q 3544 3216 3844 3400 
Q 4144 3584 4550 3584 
Q 5097 3584 5394 3201 
Q 5691 2819 5691 2113 
L 5691 0 
L 5113 0 
L 5113 2094 
Q 5113 2597 4934 2840 
Q 4756 3084 4391 3084 
Q 3944 3084 3684 2787 
Q 3425 2491 3425 1978 
L 3425 0 
L 2847 0 
L 2847 2094 
Q 2847 2600 2669 2842 
Q 2491 3084 2119 3084 
Q 1678 3084 1418 2786 
Q 1159 2488 1159 1978 
L 1159 0 
L 581 0 
L 581 3500 
L 1159 3500 
L 1159 2956 
Q 1356 3278 1631 3431 
Q 1906 3584 2284 3584 
Q 2666 3584 2933 3390 
Q 3200 3197 3328 2828 
z
" transform="scale(0.015625)"/>
      </defs>
      <use xlink:href="#DejaVuSans-26"/>
      <use xlink:href="#DejaVuSans-58" transform="translate(69.828125 0)"/>
      <use xlink:href="#DejaVuSans-56" transform="translate(133.203125 0)"/>
      <use xlink:href="#DejaVuSans-57" transform="translate(185.296875 0)"/>
      <use xlink:href="#DejaVuSans-52" transform="translate(224.5 0)"/>
      <use xlink:href="#DejaVuSans-50" transform="translate(285.6875 0)"/>
      <use xlink:href="#DejaVuSans-3" transform="translate(383.09375 0)"/>
      <use xlink:href="#DejaVuSans-55" transform="translate(414.875 0)"/>
      <use xlink:href="#DejaVuSans-44" transform="translate(455.984375 0)"/>
      <use xlink:href="#DejaVuSans-5a" transform="translate(517.265625 0)"/>
     </g>
    </g>
    <g id="line2d_31">
     <path d="M 80.002344 70.536719 
L 90.002344 70.536719 
L 100.002344 70.536719 
" style="fill: none; stroke: #7426d9; stroke-width: 2; stroke-linecap: square"/>
    </g>
    <g id="text_19">
     <!-- Glibc Trend -->
     <g transform="translate(108.002344 74.036719) scale(0.1 -0.1)">
      <use xlink:href="#DejaVuSans-2a"/>
      <use xlink:href="#DejaVuSans-4f" transform="translate(77.484375 0)"/>
      <use xlink:href="#DejaVuSans-4c" transform="translate(105.265625 0)"/>
      <use xlink:href="#DejaVuSans-45" transform="translate(133.046875 0)"/>
      <use xlink:href="#DejaVuSans-46" transform="translate(196.53125 0)"/>
      <use xlink:href="#DejaVuSans-3" transform="translate(251.515625 0)"/>
      <use xlink:href="#DejaVuSans-37" transform="translate(283.296875 0)"/>
      <use xlink:href="#DejaVuSans-55" transform="translate(329.671875 0)"/>
      <use xlink:href="#DejaVuSans-48" transform="translate(368.578125 0)"/>
      <use xlink:href="#DejaVuSans-51" transform="translate(430.109375 0)"/>
      <use xlink:href="#DejaVuSans-47" transform="translate(493.484375 0)"/>
     </g>
    </g>
    <g id="line2d_32">
     <path d="M 80.002344 85.5375 
L 90.002344 85.5375 
L 100.002344 85.5375 
" style="fill: none; stroke: #2dcc0d; stroke-width: 2; stroke-linecap: square"/>
    </g>
    <g id="text_20">
     <!-- Custom Trend -->
     <g transform="translate(108.002344 89.0375) scale(0.1 -0.1)">
      <use xlink:href="#DejaVuSans-26"/>
      <use xlink:href="#DejaVuSans-58" transform="translate(69.828125 0)"/>
      <use xlink:href="#DejaVuSans-56" transform="translate(133.203125 0)"/>
      <use xlink:href="#DejaVuSans-57" transform="translate(185.296875 0)"/>
      <use xlink:href="#DejaVuSans-52" transform="translate(224.5 0)"/>
      <use xlink:href="#DejaVuSans-50" transform="translate(285.6875 0)"/>
      <use xlink:href="#DejaVuSans-3" transform="translate(383.09375 0)"/>
      <use xlink:href="#DejaVuSans-37" transform="translate(414.875 0)"/>
      <use xlink:href="#DejaVuSans-55" transform="translate(461.25 0)"/>
      <use xlink:href="#DejaVuSans-48" transform="translate(500.15625 0)"/>
      <use xlink:href="#DejaVuSans-51" transform="translate(561.6875 0)"/>
      <use xlink:href="#DejaVuSans-47" transform="translate(625.0625 0)"/>
     </g>
    </g>
   </g>
  </g>
 </g>
 <defs>
  <clipPath id="p200e3da006">
   <rect x="71.002344" y="27.436719" width="638.197656" height="362.440938"/>
  </clipPath>
 </defs>
</svg>
